<?xml version="1.0" encoding="utf-8"?>
<!-- Generator: Adobe Illustrator 15.0.0, SVG Export Plug-In . SVG Version: 6.00 Build 0)  -->
<!DOCTYPE svg PUBLIC "-//W3C//DTD SVG 1.0//EN" "http://www.w3.org/TR/2001/REC-SVG-20010904/DTD/svg10.dtd">
<svg version="1.0" xmlns="http://www.w3.org/2000/svg" xmlns:xlink="http://www.w3.org/1999/xlink" x="0px" y="0px" width="252px"
	 height="295.485px" viewBox="0 0 252 295.485" enable-background="new 0 0 252 295.485" xml:space="preserve">
<g id="Magnetfeld">
	<g opacity="0.4">
		<g>
			<path fill="none" stroke="#36A9E1" stroke-linecap="round" stroke-linejoin="round" d="M198,85.906
				c-16.97-8.484-113.927-8.971-140.057-1.457"/>
			<g>
				<polygon fill="#36A9E1" points="60.225,88.837 56.922,79.697 54.004,85.917 				"/>
			</g>
		</g>
	</g>
	<g opacity="0.4">
		<g>
			<path fill="none" stroke="#36A9E1" stroke-linecap="round" stroke-linejoin="round" d="M216.408,68.769
				C194.684,44.594,68.55,43.656,38.721,65.954"/>
			<g>
				<polygon fill="#36A9E1" points="42.454,69.28 36.1,61.925 35.6,68.778 				"/>
			</g>
		</g>
	</g>
	<g opacity="0.4">
		<g>
			<path fill="none" stroke="#36A9E1" stroke-linecap="round" stroke-linejoin="round" d="M198,229.906
				c-16.97,8.484-113.927,8.971-140.057,1.457"/>
			<g>
				<polygon fill="#36A9E1" points="56.914,236.139 60.216,226.999 53.996,229.917 				"/>
			</g>
		</g>
	</g>
	<g opacity="0.4">
		<g>
			<path fill="none" stroke="#36A9E1" stroke-linecap="round" stroke-linejoin="round" d="M216.408,247.042
				c-21.725,24.174-147.858,25.112-177.688,2.814"/>
			<g>
				<polygon fill="#36A9E1" points="36.083,253.906 42.437,246.55 35.583,247.052 				"/>
			</g>
		</g>
	</g>
	<g opacity="0.4">
		<g>
			
				<line fill="none" stroke="#36A9E1" stroke-linecap="round" stroke-linejoin="round" x1="198" y1="103.906" x2="58.207" y2="103.906"/>
			<g>
				<polygon fill="#36A9E1" points="58.858,108.779 58.858,99.059 54,103.918 				"/>
			</g>
		</g>
	</g>
	<g opacity="0.4">
		<g>
			
				<line fill="none" stroke="#36A9E1" stroke-linecap="round" stroke-linejoin="round" x1="198" y1="121.906" x2="58.207" y2="121.906"/>
			<g>
				<polygon fill="#36A9E1" points="58.858,126.779 58.858,117.059 54,121.918 				"/>
			</g>
		</g>
	</g>
	<g opacity="0.4">
		<g>
			
				<line fill="none" stroke="#36A9E1" stroke-linecap="round" stroke-linejoin="round" x1="198" y1="139.906" x2="58.207" y2="139.906"/>
			<g>
				<polygon fill="#36A9E1" points="58.858,144.779 58.858,135.059 54,139.918 				"/>
			</g>
		</g>
	</g>
	<g opacity="0.4">
		<g>
			
				<line fill="none" stroke="#36A9E1" stroke-linecap="round" stroke-linejoin="round" x1="198" y1="157.906" x2="58.207" y2="157.906"/>
			<g>
				<polygon fill="#36A9E1" points="58.858,162.779 58.858,153.059 54,157.918 				"/>
			</g>
		</g>
	</g>
	<g opacity="0.4">
		<g>
			
				<line fill="none" stroke="#36A9E1" stroke-linecap="round" stroke-linejoin="round" x1="198" y1="175.906" x2="58.207" y2="175.906"/>
			<g>
				<polygon fill="#36A9E1" points="58.858,180.779 58.858,171.059 54,175.918 				"/>
			</g>
		</g>
	</g>
	<g opacity="0.4">
		<g>
			
				<line fill="none" stroke="#36A9E1" stroke-linecap="round" stroke-linejoin="round" x1="198" y1="193.906" x2="58.207" y2="193.906"/>
			<g>
				<polygon fill="#36A9E1" points="58.858,198.779 58.858,189.059 54,193.918 				"/>
			</g>
		</g>
	</g>
	<g opacity="0.4">
		<g>
			
				<line fill="none" stroke="#36A9E1" stroke-linecap="round" stroke-linejoin="round" x1="198" y1="211.906" x2="58.207" y2="211.906"/>
			<g>
				<polygon fill="#36A9E1" points="58.858,216.779 58.858,207.059 54,211.918 				"/>
			</g>
		</g>
	</g>
	<g>
		<path fill="none" d="M9.816,238.042c29.148,37.15,204.036,37.15,233.184,0"/>
		<path fill="#009FE3" d="M79.141,261.512c-0.08,0.607-0.137,1.133-0.161,1.59l-0.929-0.123l0.065-0.948l-0.024-0.003
			c-0.323,0.43-1.022,0.955-2.046,0.819c-0.904-0.119-1.92-0.773-1.654-2.785l0.445-3.368l1.047,0.139l-0.419,3.178
			c-0.145,1.095,0.102,1.89,1.042,2.014c0.702,0.093,1.255-0.33,1.508-0.781c0.078-0.135,0.139-0.32,0.166-0.523l0.465-3.522
			l1.047,0.139L79.141,261.512z"/>
		<path fill="#009FE3" d="M81.12,259.095c0.067-0.608,0.109-1.087,0.126-1.568l0.931,0.104l-0.046,0.961l0.024,0.003
			c0.346-0.505,1.074-0.968,2.028-0.861c0.8,0.089,1.988,0.704,1.767,2.685l-0.382,3.437l-1.05-0.116l0.37-3.329
			c0.104-0.931-0.156-1.745-1.146-1.855c-0.68-0.075-1.271,0.354-1.527,0.917c-0.063,0.126-0.106,0.303-0.126,0.481l-0.387,3.473
			l-1.05-0.117L81.12,259.095z"/>
		<path fill="#009FE3" d="M87.233,264.02l0.569-5.783l1.051,0.104l-0.569,5.783L87.233,264.02z M89.133,256.727
			c-0.035,0.358-0.314,0.621-0.732,0.58c-0.382-0.038-0.605-0.35-0.57-0.708s0.328-0.631,0.722-0.592
			C88.935,256.044,89.169,256.357,89.133,256.727z"/>
		<path fill="#009FE3" d="M90.138,264.298l0.446-4.982l-0.801-0.071l0.072-0.801l0.8,0.071l0.024-0.274
			c0.073-0.813,0.33-1.536,0.85-1.96c0.429-0.347,0.968-0.455,1.458-0.411c0.382,0.034,0.686,0.146,0.881,0.247l-0.216,0.8
			c-0.149-0.085-0.347-0.163-0.657-0.191c-0.896-0.08-1.192,0.677-1.272,1.572l-0.028,0.311l1.398,0.125l-0.072,0.801l-1.398-0.125
			l-0.445,4.982L90.138,264.298z"/>
		<path fill="#009FE3" d="M98.792,262.04c-0.164,2.141-1.731,2.96-3.119,2.854c-1.555-0.119-2.688-1.361-2.547-3.191
			c0.147-1.926,1.515-2.965,3.105-2.843C97.895,258.986,98.927,260.281,98.792,262.04z M94.206,261.749
			c-0.097,1.268,0.547,2.28,1.576,2.358c1.005,0.077,1.831-0.811,1.931-2.114c0.075-0.981-0.321-2.251-1.565-2.346
			C94.916,259.552,94.289,260.66,94.206,261.749z"/>
		<path fill="#009FE3" d="M100.116,261.067c0.042-0.683,0.067-1.27,0.065-1.812l0.922,0.058l-0.024,1.153l0.036,0.002
			c0.313-0.762,0.99-1.213,1.696-1.169c0.108,0.007,0.191,0.024,0.286,0.042l-0.062,0.994c-0.106-0.03-0.214-0.037-0.358-0.046
			c-0.743-0.047-1.304,0.472-1.497,1.253c-0.033,0.143-0.056,0.321-0.066,0.489l-0.193,3.09l-1.054-0.065L100.116,261.067z"/>
		<path fill="#009FE3" d="M104.007,261.08c0.027-0.612,0.025-1.093,0.022-1.573l0.924,0.041l0.005,0.949l0.036,0.002
			c0.349-0.537,0.911-1.029,1.882-0.986c0.78,0.035,1.358,0.542,1.58,1.236l0.024,0.001c0.195-0.328,0.445-0.557,0.693-0.726
			c0.359-0.249,0.738-0.376,1.29-0.352c0.779,0.034,1.896,0.589,1.807,2.604l-0.152,3.406l-1.031-0.046l0.146-3.273
			c0.05-1.128-0.34-1.807-1.18-1.844c-0.611-0.027-1.087,0.396-1.301,0.892c-0.055,0.153-0.099,0.332-0.107,0.524l-0.16,3.586
			l-1.031-0.046l0.155-3.479c0.041-0.924-0.337-1.602-1.141-1.637c-0.647-0.029-1.163,0.477-1.354,0.997
			c-0.066,0.141-0.099,0.332-0.107,0.512l-0.156,3.49l-1.031-0.046L104.007,261.08z"/>
		<path fill="#009FE3" d="M116.346,261.57c0.009-0.611-0.008-1.092-0.026-1.571l0.923,0.013l0.035,0.948h0.036
			c0.332-0.547,0.878-1.055,1.85-1.041c0.779,0.011,1.373,0.499,1.615,1.186l0.024,0.001c0.185-0.334,0.428-0.57,0.67-0.747
			c0.352-0.259,0.725-0.397,1.277-0.39c0.78,0.011,1.912,0.53,1.884,2.546l-0.048,3.405l-1.031-0.014l0.046-3.274
			c0.016-1.128-0.395-1.793-1.234-1.805c-0.612-0.009-1.074,0.429-1.272,0.93c-0.05,0.155-0.089,0.335-0.091,0.526l-0.05,3.586
			l-1.031-0.014l0.048-3.479c0.013-0.924-0.386-1.589-1.189-1.6c-0.648-0.01-1.147,0.512-1.322,1.037
			c-0.062,0.143-0.088,0.334-0.091,0.514l-0.049,3.49l-1.031-0.014L116.346,261.57z"/>
		<path fill="#009FE3" d="M130.333,264.503c0.002,0.504,0.028,0.995,0.089,1.391l-0.947,0.004l-0.087-0.731h-0.036
			c-0.322,0.457-0.944,0.867-1.771,0.871c-1.175,0.004-1.778-0.821-1.781-1.661c-0.005-1.403,1.239-2.175,3.481-2.172v-0.12
			c-0.002-0.468-0.137-1.343-1.325-1.326c-0.552,0.002-1.115,0.16-1.521,0.438l-0.243-0.706c0.479-0.302,1.186-0.509,1.917-0.512
			c1.775-0.007,2.211,1.203,2.216,2.354L130.333,264.503z M129.307,262.936c-1.151-0.02-2.458,0.189-2.454,1.316
			c0.003,0.696,0.46,1.006,0.987,1.004c0.768-0.003,1.258-0.484,1.424-0.977c0.035-0.12,0.047-0.24,0.046-0.336L129.307,262.936z"/>
		<path fill="#009FE3" d="M136.981,264.929c0.026,1.343-0.235,2.152-0.777,2.678c-0.566,0.527-1.378,0.723-2.109,0.736
			c-0.696,0.014-1.467-0.14-1.94-0.442l0.249-0.821c0.389,0.245,0.992,0.449,1.712,0.436c1.08-0.021,1.86-0.6,1.832-2.074
			l-0.012-0.636h-0.024c-0.302,0.546-0.929,0.99-1.829,1.007c-1.439,0.027-2.494-1.176-2.524-2.783
			c-0.038-1.967,1.225-3.095,2.568-3.12c1.007-0.02,1.557,0.486,1.83,0.961l0.024-0.001l0.019-0.876l0.936-0.018
			c-0.028,0.408-0.031,0.889-0.018,1.584L136.981,264.929z M135.875,262.287c-0.003-0.18-0.019-0.336-0.069-0.467
			c-0.204-0.62-0.717-1.114-1.497-1.099c-1.007,0.019-1.711,0.884-1.685,2.228c0.021,1.14,0.627,2.075,1.755,2.054
			c0.659-0.013,1.239-0.432,1.442-1.107c0.057-0.181,0.077-0.385,0.073-0.564L135.875,262.287z"/>
		<path fill="#009FE3" d="M138.475,261.5c-0.021-0.612-0.051-1.091-0.104-1.569l0.936-0.033l0.094,0.957l0.024-0.001
			c0.269-0.55,0.921-1.113,1.88-1.147c0.804-0.029,2.068,0.406,2.139,2.397l0.123,3.454l-1.055,0.037l-0.119-3.346
			c-0.034-0.936-0.409-1.703-1.404-1.667c-0.684,0.024-1.206,0.535-1.377,1.13c-0.044,0.133-0.062,0.314-0.055,0.494l0.124,3.49
			l-1.055,0.037L138.475,261.5z"/>
		<path fill="#009FE3" d="M145.705,262.749c0.097,1.424,1.025,1.965,2.091,1.911c0.755-0.039,1.215-0.194,1.59-0.382l0.23,0.745
			c-0.363,0.187-0.999,0.423-1.922,0.47c-1.784,0.092-2.911-1.04-3-2.789s0.871-3.167,2.561-3.253
			c1.904-0.097,2.479,1.531,2.534,2.597c0.011,0.216,0.007,0.372-0.012,0.493L145.705,262.749z M148.757,261.836
			c-0.021-0.659-0.362-1.688-1.548-1.627c-1.078,0.056-1.483,1.049-1.53,1.783L148.757,261.836z"/>
		<path fill="#009FE3" d="M152.046,257.897l0.088,1.39l1.51-0.097l0.051,0.803l-1.509,0.096l0.199,3.127
			c0.046,0.719,0.275,1.112,0.862,1.075c0.287-0.019,0.453-0.053,0.606-0.11l0.099,0.799c-0.199,0.085-0.518,0.178-0.925,0.203
			c-0.491,0.032-0.897-0.11-1.167-0.37c-0.308-0.306-0.46-0.813-0.504-1.495l-0.201-3.162l-0.898,0.057l-0.051-0.803l0.898-0.057
			l-0.069-1.078L152.046,257.897z"/>
		<path fill="#009FE3" d="M155.805,257.403c0.025,0.358-0.205,0.664-0.623,0.694c-0.383,0.028-0.655-0.241-0.682-0.6
			c-0.025-0.359,0.216-0.678,0.61-0.706C155.493,256.764,155.777,257.032,155.805,257.403z M155.171,264.905l-0.421-5.79
			l1.053-0.076l0.421,5.79L155.171,264.905z"/>
		<path fill="#009FE3" d="M162.06,264.156c-0.264,0.154-0.857,0.408-1.635,0.473c-1.747,0.146-2.981-0.945-3.128-2.716
			c-0.148-1.782,0.964-3.188,2.854-3.344c0.622-0.052,1.185,0.059,1.485,0.189l-0.173,0.821c-0.263-0.11-0.669-0.221-1.243-0.174
			c-1.328,0.11-1.964,1.163-1.864,2.359c0.111,1.34,1.041,2.094,2.189,1.998c0.598-0.049,0.98-0.226,1.269-0.382L162.06,264.156z"/>
		<path fill="#009FE3" d="M165.896,263.995l-0.528-4.977l-0.8,0.085l-0.084-0.799l0.799-0.085l-0.034-0.322
			c-0.16-1.516,0.629-2.601,2.252-2.773c0.537-0.057,1.188,0.043,1.508,0.227l-0.213,0.831c-0.281-0.151-0.739-0.26-1.253-0.205
			c-1.109,0.118-1.35,0.928-1.252,1.847l0.03,0.286l3.354-0.355l0.612,5.774l-1.05,0.112l-0.528-4.977l-2.303,0.245l0.528,4.976
			L165.896,263.995z"/>
		<path fill="#009FE3" d="M172.255,260.561c0.201,1.413,1.167,1.884,2.227,1.751c0.75-0.094,1.197-0.283,1.558-0.498l0.285,0.727
			c-0.349,0.213-0.966,0.496-1.882,0.61c-1.773,0.224-2.981-0.822-3.199-2.56c-0.219-1.737,0.635-3.223,2.313-3.434
			c1.893-0.238,2.587,1.343,2.72,2.402c0.027,0.214,0.035,0.37,0.026,0.492L172.255,260.561z M175.231,259.425
			c-0.07-0.656-0.486-1.655-1.665-1.508c-1.07,0.135-1.402,1.155-1.394,1.892L175.231,259.425z"/>
		<path fill="#009FE3" d="M176.771,254.117l1.046-0.146l1.182,8.439l-1.046,0.146L176.771,254.117z"/>
		<path fill="#009FE3" d="M184.323,252.979l1.09,6.936c0.08,0.51,0.194,1.087,0.279,1.475l-0.925,0.146l-0.203-0.988l-0.036,0.006
			c-0.207,0.688-0.818,1.282-1.755,1.43c-1.388,0.218-2.65-0.787-2.925-2.529c-0.312-1.907,0.704-3.258,2.091-3.476
			c0.89-0.14,1.535,0.185,1.867,0.594l0.023-0.003l-0.538-3.427L184.323,252.979z M184.08,258.156
			c-0.021-0.13-0.061-0.306-0.117-0.431c-0.256-0.628-0.911-1.084-1.693-0.961c-1.079,0.169-1.57,1.218-1.373,2.475
			c0.183,1.162,0.914,2.031,2.029,1.856c0.699-0.11,1.265-0.685,1.334-1.485c0.013-0.147,0.002-0.292-0.023-0.458L184.08,258.156z"
			/>
	</g>
</g>
<g id="Ebene_1">
	
		<polyline fill="#DADADA" stroke="#575756" stroke-width="2" stroke-linecap="round" stroke-linejoin="round" stroke-miterlimit="10" points="
		0,31.906 54,85.906 54,229.906 0,283.906 	"/>
	
		<polyline fill="#DADADA" stroke="#575756" stroke-width="2" stroke-linecap="square" stroke-linejoin="round" stroke-miterlimit="10" points="
		252,31.906 198,85.906 198,229.906 252,283.906 	"/>
	<g>
		<rect x="54.5" y="95.406" fill="#EA5B0C" width="17" height="44"/>
		<path fill="#E84423" d="M71,95.906v43H55v-43H71 M72,94.906H54v45h18V94.906L72,94.906z"/>
	</g>
	<g>
		<rect x="54.5" y="176.406" fill="#EA5B0C" width="17" height="44"/>
		<path fill="#E84423" d="M71,176.906v43H55v-43H71 M72,175.906H54v45h18V175.906L72,175.906z"/>
	</g>
	<g>
		<rect x="180.5" y="176.406" fill="#EA5B0C" width="17" height="44"/>
		<path fill="#E84423" d="M197,176.906v43h-16v-43H197 M198,175.906h-18v45h18V175.906L198,175.906z"/>
	</g>
	<g>
		<rect x="180.5" y="95.406" fill="#EA5B0C" width="17" height="44"/>
		<path fill="#E84423" d="M197,95.906v43h-16v-43H197 M198,94.906h-18v45h18V94.906L198,94.906z"/>
	</g>
	
		<rect x="120.667" y="13.906" fill="#EDEDED" stroke="#000000" stroke-linecap="round" stroke-linejoin="round" stroke-miterlimit="10" width="10.667" height="180"/>
	<g>
		<path d="M230.2,189.686v3.13h2.914v-3.502h0.876v4.558h-8.084v-4.378h0.876v3.322h2.555v-3.13H230.2z"/>
		<path d="M225.475,187.991v-1.055h8.516v1.055H225.475z"/>
		<path d="M231.279,184.572c1.428-0.024,2.016-0.924,2.016-1.991c0-0.756-0.132-1.224-0.3-1.607l0.755-0.191
			c0.168,0.372,0.372,1.02,0.372,1.942c0,1.787-1.188,2.854-2.938,2.854s-3.118-1.031-3.118-2.723c0-1.906,1.655-2.398,2.723-2.398
			c0.216,0,0.372,0.013,0.491,0.036V184.572z M230.524,181.477c-0.66-0.012-1.703,0.276-1.703,1.463c0,1.08,0.972,1.535,1.703,1.619
			V181.477z"/>
		<path d="M233.786,175.009c0.132,0.276,0.336,0.888,0.336,1.668c0,1.751-1.188,2.89-2.962,2.89c-1.787,0-3.095-1.223-3.095-3.118
			c0-0.623,0.156-1.175,0.312-1.463l0.804,0.24c-0.132,0.251-0.275,0.647-0.275,1.223c0,1.331,0.995,2.051,2.194,2.051
			c1.344,0,2.171-0.863,2.171-2.015c0-0.6-0.144-0.995-0.275-1.295L233.786,175.009z"/>
		<path d="M226.794,172.344h1.392v-1.512h0.804v1.512h3.13c0.72,0,1.128-0.204,1.128-0.792c0-0.288-0.024-0.456-0.072-0.611
			l0.804-0.048c0.071,0.203,0.144,0.527,0.144,0.936c0,0.491-0.168,0.887-0.443,1.139c-0.324,0.288-0.84,0.408-1.523,0.408h-3.166
			v0.899h-0.804v-0.899h-1.079L226.794,172.344z"/>
		<path d="M229.996,169.643c-0.684,0-1.271,0.013-1.811,0.049v-0.924l1.151-0.048v-0.036c-0.779-0.264-1.271-0.911-1.271-1.619
			c0-0.108,0.012-0.192,0.024-0.288h0.995c-0.024,0.108-0.024,0.216-0.024,0.36c0,0.743,0.552,1.271,1.344,1.415
			c0.144,0.023,0.324,0.036,0.491,0.036h3.095v1.055H229.996z"/>
		<path d="M231.04,160.586c2.146,0,3.082,1.499,3.082,2.891c0,1.56-1.151,2.782-2.986,2.782c-1.931,0-3.07-1.283-3.07-2.878
			C228.065,161.714,229.276,160.586,231.04,160.586z M231.1,165.18c1.271,0,2.231-0.72,2.231-1.751c0-1.008-0.948-1.763-2.255-1.763
			c-0.983,0-2.219,0.491-2.219,1.738C228.857,164.64,230.009,165.18,231.1,165.18z"/>
		<path d="M229.757,159.251c-0.612,0-1.092,0.024-1.571,0.049v-0.924l0.947-0.048v-0.036c-0.552-0.324-1.067-0.863-1.067-1.835
			c0-0.779,0.479-1.379,1.163-1.631v-0.024c-0.336-0.18-0.575-0.42-0.755-0.659c-0.265-0.349-0.408-0.72-0.408-1.271
			c0-0.779,0.504-1.919,2.519-1.919h3.406v1.031h-3.274c-1.127,0-1.787,0.42-1.787,1.26c0,0.611,0.444,1.067,0.948,1.259
			c0.155,0.048,0.335,0.084,0.527,0.084h3.586v1.031h-3.479c-0.923,0-1.583,0.408-1.583,1.212c0,0.647,0.528,1.139,1.056,1.307
			c0.144,0.061,0.336,0.084,0.516,0.084h3.49v1.031H229.757z"/>
		<path d="M232.599,145.167c0.504,0,0.996-0.024,1.392-0.084v0.947l-0.731,0.084v0.036c0.456,0.324,0.863,0.947,0.863,1.775
			c0,1.175-0.827,1.774-1.667,1.774c-1.403,0-2.171-1.247-2.159-3.49h-0.119c-0.468,0-1.344,0.132-1.332,1.319
			c0,0.552,0.156,1.115,0.432,1.523l-0.707,0.24c-0.3-0.48-0.504-1.188-0.504-1.919c0-1.775,1.211-2.207,2.362-2.207H232.599z
			 M231.028,146.186c-0.024,1.151,0.18,2.458,1.307,2.458c0.696,0,1.008-0.455,1.008-0.983c0-0.768-0.479-1.259-0.972-1.427
			c-0.12-0.036-0.24-0.048-0.336-0.048H231.028z"/>
		<path d="M233.139,138.495c1.344,0,2.146,0.276,2.662,0.827c0.517,0.576,0.696,1.392,0.696,2.123c0,0.696-0.168,1.464-0.479,1.932
			l-0.816-0.265c0.252-0.384,0.468-0.983,0.468-1.703c0-1.079-0.563-1.87-2.038-1.87h-0.636v0.023
			c0.539,0.312,0.971,0.947,0.971,1.847c0,1.439-1.223,2.471-2.83,2.471c-1.967,0-3.07-1.283-3.07-2.626
			c0-1.008,0.516-1.548,0.995-1.812v-0.023l-0.875-0.036v-0.936c0.407,0.036,0.888,0.048,1.583,0.048H233.139z M230.477,139.55
			c-0.181,0-0.336,0.012-0.468,0.06c-0.624,0.192-1.128,0.696-1.128,1.476c0,1.007,0.852,1.727,2.195,1.727
			c1.139,0,2.087-0.588,2.087-1.715c0-0.659-0.408-1.247-1.08-1.463c-0.18-0.061-0.384-0.084-0.563-0.084H230.477z"/>
		<path d="M229.757,136.824c-0.612,0-1.092,0.013-1.571,0.049v-0.936l0.959-0.061v-0.023c-0.539-0.288-1.079-0.96-1.079-1.919
			c0-0.804,0.479-2.051,2.471-2.051h3.454v1.055h-3.346c-0.936,0-1.716,0.349-1.716,1.344c0,0.684,0.492,1.224,1.08,1.415
			c0.132,0.048,0.312,0.072,0.491,0.072h3.49v1.055H229.757z"/>
		<path d="M231.279,129.577c1.428-0.024,2.016-0.924,2.016-1.991c0-0.756-0.132-1.224-0.3-1.607l0.755-0.191
			c0.168,0.372,0.372,1.02,0.372,1.942c0,1.787-1.188,2.854-2.938,2.854s-3.118-1.031-3.118-2.723c0-1.906,1.655-2.398,2.723-2.398
			c0.216,0,0.372,0.012,0.491,0.036V129.577z M230.524,126.482c-0.66-0.012-1.703,0.276-1.703,1.463c0,1.08,0.972,1.535,1.703,1.619
			V126.482z"/>
		<path d="M226.794,122.881h1.392v-1.512h0.804v1.512h3.13c0.72,0,1.128-0.204,1.128-0.792c0-0.288-0.024-0.456-0.072-0.611
			l0.804-0.048c0.071,0.203,0.144,0.527,0.144,0.936c0,0.491-0.168,0.887-0.443,1.139c-0.324,0.288-0.84,0.408-1.523,0.408h-3.166
			v0.899h-0.804v-0.899h-1.079L226.794,122.881z"/>
	</g>
	<g>
		<g>
			<line fill="none" stroke="#000000" x1="108" y1="132.529" x2="108" y2="179.845"/>
			<g>
				<polygon points="108,125.468 103.935,135.417 108,133.056 112.064,135.417 				"/>
			</g>
			<g>
				<polygon points="108,186.906 103.935,176.957 108,179.318 112.064,176.957 				"/>
			</g>
		</g>
	</g>
	<g>
		<path d="M71.169,149.242l-2.209-6.736h0.95l1.049,3.318c0.28,0.908,0.53,1.729,0.72,2.518h0.02c0.19-0.779,0.459-1.629,0.77-2.508
			l1.139-3.328h0.93l-2.409,6.736H71.169z"/>
		<path d="M76.06,143.044c0,0.301-0.21,0.539-0.56,0.539c-0.32,0-0.53-0.238-0.53-0.539c0-0.299,0.22-0.549,0.55-0.549
			C75.84,142.496,76.06,142.734,76.06,143.044z M75.08,149.242v-4.838h0.879v4.838H75.08z"/>
		<path d="M77.42,142.146h0.87v3.037h0.02c0.31-0.539,0.87-0.879,1.649-0.879c1.209,0,2.049,1,2.049,2.459
			c0,1.729-1.099,2.588-2.179,2.588c-0.7,0-1.259-0.27-1.629-0.9h-0.02l-0.05,0.791h-0.75c0.02-0.33,0.04-0.82,0.04-1.25V142.146z
			 M78.29,147.302c0,0.109,0.01,0.221,0.04,0.32c0.16,0.609,0.68,1.029,1.319,1.029c0.929,0,1.469-0.75,1.469-1.859
			c0-0.969-0.5-1.799-1.449-1.799c-0.59,0-1.149,0.42-1.33,1.08c-0.03,0.109-0.05,0.229-0.05,0.369V147.302z"/>
		<path d="M83.109,145.914c0-0.57-0.01-1.061-0.04-1.51h0.77l0.04,0.959h0.03c0.22-0.648,0.759-1.059,1.349-1.059
			c0.09,0,0.16,0.01,0.24,0.02v0.83c-0.09-0.02-0.18-0.02-0.3-0.02c-0.62,0-1.06,0.459-1.179,1.119c-0.02,0.119-0.03,0.27-0.03,0.41
			v2.578h-0.879V145.914z"/>
		<path d="M89.728,148.082c0,0.42,0.02,0.83,0.07,1.16h-0.79l-0.07-0.609h-0.03c-0.27,0.379-0.79,0.719-1.479,0.719
			c-0.979,0-1.479-0.689-1.479-1.389c0-1.17,1.04-1.809,2.909-1.799v-0.102c0-0.389-0.11-1.119-1.1-1.109
			c-0.459,0-0.929,0.131-1.269,0.361l-0.2-0.59c0.4-0.25,0.99-0.42,1.599-0.42c1.479,0,1.839,1.01,1.839,1.969V148.082z
			 M88.878,146.773c-0.959-0.02-2.049,0.15-2.049,1.09c0,0.578,0.379,0.838,0.819,0.838c0.64,0,1.049-0.398,1.189-0.809
			c0.03-0.1,0.04-0.199,0.04-0.279V146.773z"/>
		<path d="M92.169,143.244v1.16h1.259v0.67h-1.259v2.607c0,0.602,0.17,0.939,0.66,0.939c0.24,0,0.38-0.02,0.51-0.059l0.04,0.67
			c-0.17,0.059-0.44,0.119-0.78,0.119c-0.41,0-0.74-0.141-0.949-0.369c-0.24-0.27-0.34-0.699-0.34-1.27v-2.639h-0.75v-0.67h0.75
			v-0.9L92.169,143.244z"/>
		<path d="M95.399,143.044c0,0.301-0.21,0.539-0.56,0.539c-0.32,0-0.53-0.238-0.53-0.539c0-0.299,0.22-0.549,0.55-0.549
			C95.179,142.496,95.399,142.734,95.399,143.044z M94.419,149.242v-4.838h0.879v4.838H94.419z"/>
		<path d="M101.137,146.783c0,1.789-1.25,2.568-2.409,2.568c-1.299,0-2.319-0.959-2.319-2.488c0-1.609,1.069-2.559,2.398-2.559
			C100.197,144.304,101.137,145.314,101.137,146.783z M97.309,146.833c0,1.059,0.6,1.857,1.459,1.857
			c0.84,0,1.469-0.789,1.469-1.879c0-0.818-0.41-1.848-1.449-1.848C97.759,144.964,97.309,145.923,97.309,146.833z"/>
		<path d="M102.249,145.712c0-0.51-0.01-0.908-0.04-1.309h0.78l0.05,0.799h0.02c0.24-0.449,0.8-0.898,1.599-0.898
			c0.67,0,1.709,0.4,1.709,2.059v2.879h-0.879v-2.789c0-0.779-0.29-1.43-1.119-1.43c-0.57,0-1.02,0.41-1.18,0.9
			c-0.04,0.109-0.06,0.26-0.06,0.41v2.908h-0.879V145.712z"/>
		<path d="M79.163,160.082c0,0.42,0.02,0.83,0.07,1.16h-0.79l-0.07-0.609h-0.03c-0.27,0.379-0.79,0.719-1.479,0.719
			c-0.979,0-1.479-0.689-1.479-1.389c0-1.17,1.04-1.809,2.909-1.799v-0.102c0-0.389-0.11-1.119-1.1-1.109
			c-0.459,0-0.929,0.131-1.269,0.361l-0.2-0.59c0.4-0.25,0.99-0.42,1.599-0.42c1.479,0,1.839,1.01,1.839,1.969V160.082z
			 M78.313,158.773c-0.959-0.02-2.049,0.15-2.049,1.09c0,0.578,0.379,0.838,0.819,0.838c0.64,0,1.049-0.398,1.189-0.809
			c0.03-0.1,0.04-0.199,0.04-0.279V158.773z"/>
		<path d="M80.584,154.146h0.879v7.096h-0.879V154.146z"/>
		<path d="M87.322,158.783c0,1.789-1.25,2.568-2.409,2.568c-1.299,0-2.319-0.959-2.319-2.488c0-1.609,1.069-2.559,2.398-2.559
			C86.382,156.304,87.322,157.314,87.322,158.783z M83.494,158.833c0,1.059,0.6,1.857,1.459,1.857c0.84,0,1.469-0.789,1.469-1.879
			c0-0.818-0.41-1.848-1.449-1.848C83.944,156.964,83.494,157.923,83.494,158.833z"/>
		<path d="M88.434,157.712c0-0.51-0.01-0.908-0.04-1.309h0.78l0.05,0.799h0.02c0.24-0.449,0.8-0.898,1.599-0.898
			c0.67,0,1.709,0.4,1.709,2.059v2.879h-0.879v-2.789c0-0.779-0.29-1.43-1.119-1.43c-0.57,0-1.02,0.41-1.18,0.9
			c-0.04,0.109-0.06,0.26-0.06,0.41v2.908h-0.879V157.712z"/>
		<path d="M98.122,160.531c0,1.121-0.23,1.789-0.689,2.219c-0.48,0.43-1.159,0.58-1.769,0.58c-0.58,0-1.219-0.139-1.609-0.398
			l0.22-0.68c0.32,0.209,0.819,0.389,1.419,0.389c0.9,0,1.559-0.469,1.559-1.699v-0.529h-0.02c-0.26,0.449-0.79,0.811-1.54,0.811
			c-1.199,0-2.059-1.02-2.059-2.359c0-1.639,1.069-2.559,2.188-2.559c0.84,0,1.29,0.43,1.509,0.83h0.02l0.03-0.73h0.779
			c-0.03,0.34-0.04,0.74-0.04,1.32V160.531z M97.242,158.312c0-0.148-0.01-0.279-0.05-0.389c-0.16-0.52-0.58-0.939-1.229-0.939
			c-0.839,0-1.439,0.709-1.439,1.828c0,0.949,0.49,1.74,1.429,1.74c0.549,0,1.039-0.34,1.219-0.9c0.05-0.15,0.07-0.32,0.07-0.469
			V158.312z"/>
		<path d="M76,172.732l2.179-2.85c0.22-0.27,0.419-0.498,0.64-0.76v-0.02H76.2v-0.699h3.678v0.549l-2.159,2.809
			c-0.21,0.271-0.4,0.521-0.62,0.76v0.021h2.818v0.699H76V172.732z"/>
		<path d="M82.869,170.222v0.641H80.4v-0.641H82.869z"/>
		<path d="M84.979,171.123l-0.7,2.119H83.38l2.299-6.736h1.039l2.299,6.736h-0.93l-0.719-2.119H84.979z M87.198,170.443l-0.67-1.939
			c-0.15-0.439-0.25-0.84-0.35-1.229h-0.02c-0.1,0.389-0.2,0.809-0.34,1.219l-0.66,1.949H87.198z"/>
		<path d="M90.389,168.404l0.69,1.039c0.19,0.27,0.34,0.51,0.5,0.779h0.02c0.16-0.279,0.32-0.529,0.49-0.789l0.67-1.029h0.959
			l-1.649,2.338l1.689,2.5h-0.989l-0.72-1.09c-0.19-0.279-0.35-0.549-0.52-0.84h-0.02c-0.16,0.291-0.32,0.551-0.51,0.84l-0.7,1.09
			H89.33l1.719-2.469l-1.639-2.369H90.389z"/>
		<path d="M95.589,167.044c0,0.301-0.21,0.539-0.56,0.539c-0.32,0-0.53-0.238-0.53-0.539c0-0.299,0.22-0.549,0.55-0.549
			C95.369,166.496,95.589,166.734,95.589,167.044z M94.609,173.242v-4.838h0.879v4.838H94.609z"/>
		<path d="M96.83,172.351c0.27,0.16,0.729,0.34,1.169,0.34c0.63,0,0.93-0.309,0.93-0.719c0-0.42-0.25-0.641-0.89-0.879
			c-0.879-0.32-1.289-0.791-1.289-1.369c0-0.781,0.64-1.42,1.669-1.42c0.49,0,0.919,0.129,1.179,0.299l-0.209,0.641
			c-0.19-0.121-0.54-0.291-0.99-0.291c-0.52,0-0.799,0.301-0.799,0.66c0,0.4,0.28,0.58,0.909,0.83c0.83,0.311,1.27,0.729,1.27,1.449
			c0,0.859-0.67,1.459-1.799,1.459c-0.529,0-1.019-0.141-1.359-0.34L96.83,172.351z"/>
	</g>
	<rect x="116.36" y="128.24" fill="#B2B2B2" stroke="#000000" stroke-width="2" width="19.28" height="59.332"/>
	<g>
		<path d="M144.779,167.634c0.468,0.3,1.14,0.528,1.859,0.528c1.067,0,1.691-0.564,1.691-1.38c0-0.743-0.432-1.188-1.523-1.595
			c-1.319-0.479-2.135-1.176-2.135-2.303c0-1.26,1.043-2.195,2.614-2.195c0.815,0,1.427,0.192,1.774,0.396l-0.287,0.852
			c-0.252-0.156-0.791-0.384-1.523-0.384c-1.104,0-1.523,0.659-1.523,1.211c0,0.756,0.492,1.127,1.607,1.56
			c1.367,0.527,2.051,1.187,2.051,2.374c0,1.248-0.911,2.339-2.818,2.339c-0.779,0-1.631-0.24-2.063-0.527L144.779,167.634z"/>
		<path d="M154.905,167.514c0,0.504,0.024,0.996,0.084,1.392h-0.947l-0.084-0.731h-0.036c-0.324,0.456-0.947,0.863-1.775,0.863
			c-1.175,0-1.774-0.827-1.774-1.667c0-1.403,1.247-2.171,3.489-2.159v-0.119c0-0.468-0.131-1.344-1.318-1.332
			c-0.552,0-1.115,0.156-1.523,0.432l-0.24-0.707c0.48-0.3,1.188-0.504,1.92-0.504c1.774,0,2.206,1.211,2.206,2.362V167.514z
			 M153.886,165.944c-1.151-0.024-2.458,0.18-2.458,1.307c0,0.696,0.455,1.008,0.982,1.008c0.768,0,1.26-0.479,1.428-0.972
			c0.036-0.12,0.048-0.24,0.048-0.336V165.944z"/>
		<path d="M156.611,164.672c0-0.612-0.023-1.092-0.047-1.571h0.923l0.048,0.947h0.036c0.323-0.552,0.864-1.067,1.835-1.067
			c0.779,0,1.379,0.479,1.631,1.163h0.024c0.18-0.336,0.419-0.575,0.659-0.755c0.348-0.265,0.72-0.408,1.271-0.408
			c0.779,0,1.919,0.504,1.919,2.519v3.406h-1.031v-3.274c0-1.127-0.42-1.787-1.259-1.787c-0.612,0-1.068,0.444-1.26,0.948
			c-0.048,0.155-0.084,0.335-0.084,0.527v3.586h-1.031v-3.479c0-0.923-0.408-1.583-1.211-1.583c-0.648,0-1.141,0.528-1.309,1.056
			c-0.059,0.144-0.084,0.336-0.084,0.516v3.49h-1.031V164.672z"/>
		<path d="M166.619,164.996c0-0.743-0.023-1.343-0.047-1.895h0.936l0.06,0.995h0.024c0.419-0.707,1.115-1.115,2.063-1.115
			c1.415,0,2.471,1.188,2.471,2.938c0,2.087-1.283,3.118-2.65,3.118c-0.768,0-1.439-0.336-1.787-0.911h-0.024v3.154h-1.044V164.996z
			 M167.663,166.543c0,0.155,0.013,0.3,0.048,0.432c0.191,0.731,0.828,1.235,1.583,1.235c1.116,0,1.763-0.912,1.763-2.243
			c0-1.151-0.611-2.146-1.727-2.146c-0.72,0-1.403,0.504-1.596,1.295c-0.035,0.132-0.071,0.288-0.071,0.42V166.543z"/>
		<path d="M173.447,160.39h1.055v8.516h-1.055V160.39z"/>
		<path d="M176.867,166.195c0.023,1.428,0.923,2.016,1.99,2.016c0.756,0,1.223-0.132,1.607-0.3l0.191,0.755
			c-0.371,0.168-1.02,0.372-1.943,0.372c-1.787,0-2.854-1.188-2.854-2.938s1.031-3.118,2.723-3.118c1.906,0,2.398,1.655,2.398,2.723
			c0,0.216-0.012,0.372-0.036,0.491H176.867z M179.961,165.44c0.012-0.66-0.275-1.703-1.463-1.703c-1.08,0-1.535,0.972-1.619,1.703
			H179.961z"/>
	</g>
	<g>
		<line fill="none" x1="144" y1="171.406" x2="126" y2="157.906"/>
	</g>
	<g>
		<path d="M32.894,23.918c0.503-0.084,1.163-0.156,2.003-0.156c1.031,0,1.787,0.24,2.267,0.672c0.432,0.384,0.708,0.971,0.708,1.691
			c0,0.731-0.216,1.307-0.624,1.727c-0.564,0.587-1.451,0.888-2.471,0.888c-0.312,0-0.6-0.012-0.839-0.072v3.238h-1.043V23.918z
			 M33.938,27.816c0.228,0.06,0.516,0.084,0.863,0.084c1.259,0,2.027-0.624,2.027-1.715c0-1.08-0.768-1.595-1.907-1.595
			c-0.456,0-0.804,0.036-0.983,0.084V27.816z"/>
		<path d="M40.225,24.47c0,0.36-0.252,0.648-0.671,0.648c-0.384,0-0.636-0.288-0.636-0.648s0.264-0.66,0.66-0.66
			C39.961,23.81,40.225,24.098,40.225,24.47z M39.05,31.906v-5.805h1.056v5.805H39.05z"/>
		<path d="M45.996,31.702c-0.276,0.132-0.887,0.336-1.667,0.336c-1.751,0-2.891-1.188-2.891-2.962c0-1.787,1.224-3.094,3.119-3.094
			c0.624,0,1.175,0.156,1.463,0.312l-0.24,0.803c-0.252-0.132-0.647-0.275-1.223-0.275c-1.332,0-2.051,0.995-2.051,2.194
			c0,1.343,0.864,2.171,2.015,2.171c0.6,0,0.996-0.144,1.295-0.276L45.996,31.702z"/>
		<path d="M48.277,28.764h0.024c0.144-0.204,0.336-0.456,0.504-0.66l1.715-2.003h1.259l-2.23,2.387l2.554,3.418h-1.295l-1.991-2.782
			l-0.54,0.6v2.183h-1.043v-8.515h1.043V28.764z"/>
		<path d="M57.767,30.311c0,0.612,0.012,1.14,0.048,1.595h-0.936l-0.06-0.947h-0.024c-0.264,0.468-0.887,1.079-1.919,1.079
			c-0.911,0-2.003-0.516-2.003-2.542v-3.394h1.056v3.202c0,1.104,0.348,1.859,1.295,1.859c0.708,0,1.199-0.492,1.391-0.971
			c0.06-0.144,0.096-0.336,0.096-0.54v-3.55h1.056V30.311z"/>
		<path d="M59.521,27.996c0-0.744-0.024-1.343-0.048-1.895h0.936l0.06,0.995h0.024c0.419-0.708,1.115-1.115,2.063-1.115
			c1.416,0,2.471,1.188,2.471,2.938c0,2.087-1.283,3.118-2.65,3.118c-0.768,0-1.439-0.336-1.787-0.912h-0.024v3.154h-1.043V27.996z
			 M60.565,29.543c0,0.156,0.012,0.3,0.048,0.432c0.192,0.732,0.828,1.235,1.583,1.235c1.115,0,1.763-0.911,1.763-2.243
			c0-1.151-0.611-2.146-1.727-2.146c-0.72,0-1.403,0.503-1.595,1.295c-0.036,0.132-0.072,0.288-0.072,0.42V29.543z"/>
		<path d="M44.645,46.054c-0.372,0.192-1.151,0.384-2.135,0.384c-2.279,0-3.982-1.439-3.982-4.102c0-2.542,1.715-4.246,4.222-4.246
			c0.996,0,1.643,0.216,1.919,0.36l-0.264,0.852c-0.384-0.192-0.948-0.336-1.619-0.336c-1.895,0-3.154,1.211-3.154,3.334
			c0,1.991,1.139,3.25,3.094,3.25c0.647,0,1.295-0.132,1.715-0.336L44.645,46.054z"/>
		<path d="M51.053,43.356c0,2.146-1.499,3.082-2.89,3.082c-1.559,0-2.783-1.151-2.783-2.986c0-1.931,1.284-3.07,2.878-3.07
			C49.926,40.381,51.053,41.593,51.053,43.356z M46.459,43.416c0,1.271,0.72,2.231,1.751,2.231c1.007,0,1.763-0.948,1.763-2.255
			c0-0.983-0.492-2.219-1.739-2.219C46.999,41.173,46.459,42.325,46.459,43.416z"/>
		<path d="M53.563,38.87c0,0.36-0.252,0.648-0.671,0.648c-0.384,0-0.636-0.288-0.636-0.648s0.264-0.66,0.66-0.66
			C53.299,38.21,53.563,38.499,53.563,38.87z M52.388,46.306v-5.805h1.056v5.805H52.388z"/>
		<path d="M55.196,37.791h1.056v8.515h-1.056V37.791z"/>
		<path d="M57.884,45.239c0.324,0.191,0.875,0.408,1.403,0.408c0.756,0,1.115-0.372,1.115-0.864c0-0.504-0.3-0.768-1.067-1.055
			c-1.055-0.384-1.547-0.948-1.547-1.644c0-0.936,0.768-1.703,2.003-1.703c0.587,0,1.104,0.156,1.415,0.36l-0.252,0.768
			c-0.228-0.144-0.647-0.348-1.187-0.348c-0.624,0-0.959,0.36-0.959,0.792c0,0.479,0.335,0.695,1.091,0.995
			c0.996,0.372,1.523,0.876,1.523,1.739c0,1.031-0.803,1.751-2.159,1.751c-0.636,0-1.223-0.168-1.631-0.407L57.884,45.239z"/>
	</g>
	<line fill="none" stroke="#000000" x1="50" y1="49.906" x2="63" y2="117.406"/>
	<line fill="none" stroke="#000000" x1="59" y1="49.906" x2="189" y2="117.406"/>
	<line fill="none" stroke="#000000" x1="126" y1="153.156" x2="144" y2="164.656"/>
	<g>
		<path d="M144.779,18.634c0.468,0.3,1.14,0.528,1.859,0.528c1.067,0,1.691-0.563,1.691-1.379c0-0.743-0.433-1.187-1.523-1.595
			c-1.319-0.48-2.135-1.176-2.135-2.303c0-1.259,1.043-2.195,2.614-2.195c0.815,0,1.428,0.192,1.775,0.396l-0.288,0.852
			c-0.252-0.156-0.792-0.384-1.523-0.384c-1.104,0-1.523,0.66-1.523,1.211c0,0.755,0.492,1.127,1.607,1.559
			c1.367,0.528,2.051,1.188,2.051,2.375c0,1.248-0.911,2.339-2.818,2.339c-0.779,0-1.631-0.24-2.063-0.528L144.779,18.634z"/>
		<path d="M154.905,18.515c0,0.503,0.024,0.995,0.084,1.391h-0.947l-0.084-0.731h-0.036c-0.324,0.456-0.947,0.863-1.775,0.863
			c-1.175,0-1.774-0.828-1.774-1.667c0-1.403,1.247-2.171,3.49-2.159v-0.12c0-0.468-0.132-1.343-1.319-1.331
			c-0.552,0-1.115,0.156-1.523,0.432l-0.24-0.708c0.48-0.3,1.188-0.504,1.919-0.504c1.775,0,2.207,1.211,2.207,2.363V18.515z
			 M153.886,16.943c-1.151-0.024-2.458,0.18-2.458,1.307c0,0.696,0.455,1.008,0.983,1.008c0.768,0,1.259-0.48,1.427-0.972
			c0.036-0.12,0.048-0.24,0.048-0.336V16.943z"/>
		<path d="M156.612,15.672c0-0.611-0.024-1.091-0.049-1.571h0.924l0.048,0.947h0.036c0.324-0.552,0.863-1.067,1.835-1.067
			c0.779,0,1.379,0.48,1.631,1.164h0.024c0.18-0.336,0.42-0.576,0.659-0.756c0.348-0.264,0.72-0.408,1.271-0.408
			c0.779,0,1.919,0.504,1.919,2.519v3.406h-1.031v-3.274c0-1.127-0.42-1.787-1.26-1.787c-0.611,0-1.067,0.443-1.259,0.947
			c-0.048,0.156-0.084,0.336-0.084,0.528v3.586h-1.031v-3.478c0-0.923-0.408-1.583-1.212-1.583c-0.647,0-1.139,0.527-1.307,1.055
			c-0.061,0.144-0.084,0.336-0.084,0.516v3.49h-1.031V15.672z"/>
		<path d="M166.62,15.996c0-0.744-0.024-1.343-0.049-1.895h0.936l0.061,0.995h0.023c0.42-0.708,1.115-1.115,2.063-1.115
			c1.415,0,2.471,1.188,2.471,2.938c0,2.087-1.283,3.118-2.651,3.118c-0.768,0-1.438-0.336-1.786-0.912h-0.024v3.154h-1.043V15.996z
			 M167.663,17.543c0,0.156,0.012,0.3,0.048,0.432c0.192,0.732,0.828,1.235,1.583,1.235c1.115,0,1.764-0.911,1.764-2.243
			c0-1.151-0.612-2.146-1.728-2.146c-0.72,0-1.403,0.503-1.595,1.295c-0.036,0.132-0.072,0.288-0.072,0.42V17.543z"/>
		<path d="M173.448,11.391h1.055v8.515h-1.055V11.391z"/>
		<path d="M176.867,17.195c0.024,1.427,0.924,2.015,1.991,2.015c0.756,0,1.224-0.132,1.607-0.3l0.191,0.756
			c-0.372,0.168-1.02,0.372-1.942,0.372c-1.787,0-2.854-1.188-2.854-2.938s1.031-3.118,2.723-3.118c1.906,0,2.398,1.655,2.398,2.723
			c0,0.216-0.013,0.372-0.036,0.492H176.867z M179.962,16.439c0.012-0.66-0.276-1.703-1.463-1.703c-1.08,0-1.535,0.971-1.619,1.703
			H179.962z"/>
		<path d="M185.915,11.822v3.382h3.91v-3.382h1.055v8.083h-1.055v-3.79h-3.91v3.79h-1.056v-8.083H185.915z"/>
		<path d="M197.913,16.956c0,2.146-1.499,3.082-2.891,3.082c-1.56,0-2.782-1.151-2.782-2.986c0-1.931,1.283-3.07,2.878-3.07
			C196.785,13.981,197.913,15.192,197.913,16.956z M193.319,17.015c0,1.271,0.72,2.231,1.751,2.231c1.008,0,1.763-0.947,1.763-2.255
			c0-0.983-0.491-2.219-1.738-2.219C193.859,14.772,193.319,15.924,193.319,17.015z"/>
		<path d="M199.248,11.391h1.055v8.515h-1.055V11.391z"/>
		<path d="M207.081,11.391v7.016c0,0.516,0.023,1.103,0.048,1.499h-0.936l-0.048-1.007h-0.036c-0.312,0.647-1.008,1.139-1.955,1.139
			c-1.403,0-2.494-1.188-2.494-2.95c-0.013-1.931,1.199-3.106,2.603-3.106c0.899,0,1.487,0.42,1.751,0.875h0.023v-3.466H207.081z
			 M206.037,16.464c0-0.132-0.012-0.312-0.048-0.444c-0.155-0.66-0.731-1.211-1.522-1.211c-1.092,0-1.739,0.959-1.739,2.231
			c0,1.175,0.587,2.146,1.715,2.146c0.708,0,1.355-0.479,1.547-1.259c0.036-0.144,0.048-0.288,0.048-0.456V16.464z"/>
		<path d="M209.435,17.195c0.024,1.427,0.924,2.015,1.991,2.015c0.756,0,1.224-0.132,1.607-0.3l0.191,0.756
			c-0.372,0.168-1.02,0.372-1.942,0.372c-1.787,0-2.854-1.188-2.854-2.938s1.031-3.118,2.723-3.118c1.906,0,2.398,1.655,2.398,2.723
			c0,0.216-0.012,0.372-0.036,0.492H209.435z M212.529,16.439c0.012-0.66-0.276-1.703-1.463-1.703c-1.08,0-1.535,0.971-1.619,1.703
			H212.529z"/>
		<path d="M214.859,15.912c0-0.684-0.013-1.271-0.049-1.811h0.924l0.048,1.151h0.036c0.264-0.78,0.911-1.271,1.619-1.271
			c0.108,0,0.191,0.012,0.288,0.024V15c-0.108-0.024-0.216-0.024-0.36-0.024c-0.743,0-1.271,0.552-1.415,1.343
			c-0.023,0.144-0.036,0.324-0.036,0.492v3.094h-1.055V15.912z"/>
	</g>
	<line fill="none" stroke="#000000" x1="152.5" y1="21.906" x2="126" y2="39.656"/>
</g>
</svg>
