<svg xmlns="http://www.w3.org/2000/svg" xmlns:xlink="http://www.w3.org/1999/xlink" width="614.4" height="460.8" version="1.1" viewBox="0 0 460.8 345.6"><metadata><rdf:RDF xmlns:cc="http://creativecommons.org/ns#" xmlns:dc="http://purl.org/dc/elements/1.1/" xmlns:rdf="http://www.w3.org/1999/02/22-rdf-syntax-ns#"><cc:Work><dc:type rdf:resource="http://purl.org/dc/dcmitype/StillImage"/><dc:date>2022-04-27T08:41:27.381898</dc:date><dc:format>image/svg+xml</dc:format><dc:creator><cc:Agent><dc:title>Matplotlib v3.4.3, https://matplotlib.org/</dc:title></cc:Agent></dc:creator></cc:Work></rdf:RDF></metadata><defs><style type="text/css">*{stroke-linecap:butt;stroke-linejoin:round}</style></defs><g id="figure_1"><g id="patch_1"><path d="M 0 345.6 L 460.8 345.6 L 460.8 0 L 0 0 z" style="fill:#fff"/></g><g id="axes_1"><g id="patch_2"><path d="M 54.74 294.04 L 450 294.04 L 450 10.8 L 54.74 10.8 z" style="fill:#fff"/></g><g id="matplotlib.axis_1"><g id="xtick_1"><g id="line2d_1"><defs><path id="ma47a407aa6" d="M 0 0 L 0 3.5" style="stroke:#000;stroke-width:.8"/></defs><g><use style="stroke:#000;stroke-width:.8" x="72.706" y="294.04" xlink:href="#ma47a407aa6"/></g></g><g id="text_1"><g transform="translate(69.525114 308.638437)scale(0.1 -0.1)"><defs><path id="DejaVuSans-30" d="M 2034 4250 Q 1547 4250 1301 3770 Q 1056 3291 1056 2328 Q 1056 1369 1301 889 Q 1547 409 2034 409 Q 2525 409 2770 889 Q 3016 1369 3016 2328 Q 3016 3291 2770 3770 Q 2525 4250 2034 4250 z M 2034 4750 Q 2819 4750 3233 4129 Q 3647 3509 3647 2328 Q 3647 1150 3233 529 Q 2819 -91 2034 -91 Q 1250 -91 836 529 Q 422 1150 422 2328 Q 422 3509 836 4129 Q 1250 4750 2034 4750 z" transform="scale(0.015625)"/></defs><use xlink:href="#DejaVuSans-30"/></g></g></g><g id="xtick_2"><g id="line2d_2"><g><use style="stroke:#000;stroke-width:.8" x="144.716" y="294.04" xlink:href="#ma47a407aa6"/></g></g><g id="text_2"><g transform="translate(135.172087 308.638437)scale(0.1 -0.1)"><defs><path id="DejaVuSans-32" d="M 1228 531 L 3431 531 L 3431 0 L 469 0 L 469 531 Q 828 903 1448 1529 Q 2069 2156 2228 2338 Q 2531 2678 2651 2914 Q 2772 3150 2772 3378 Q 2772 3750 2511 3984 Q 2250 4219 1831 4219 Q 1534 4219 1204 4116 Q 875 4013 500 3803 L 500 4441 Q 881 4594 1212 4672 Q 1544 4750 1819 4750 Q 2544 4750 2975 4387 Q 3406 4025 3406 3419 Q 3406 3131 3298 2873 Q 3191 2616 2906 2266 Q 2828 2175 2409 1742 Q 1991 1309 1228 531 z" transform="scale(0.015625)"/></defs><use xlink:href="#DejaVuSans-32"/><use x="63.623" xlink:href="#DejaVuSans-30"/><use x="127.246" xlink:href="#DejaVuSans-30"/></g></g></g><g id="xtick_3"><g id="line2d_3"><g><use style="stroke:#000;stroke-width:.8" x="216.725" y="294.04" xlink:href="#ma47a407aa6"/></g></g><g id="text_3"><g transform="translate(207.181561 308.638437)scale(0.1 -0.1)"><defs><path id="DejaVuSans-34" d="M 2419 4116 L 825 1625 L 2419 1625 L 2419 4116 z M 2253 4666 L 3047 4666 L 3047 1625 L 3713 1625 L 3713 1100 L 3047 1100 L 3047 0 L 2419 0 L 2419 1100 L 313 1100 L 313 1709 L 2253 4666 z" transform="scale(0.015625)"/></defs><use xlink:href="#DejaVuSans-34"/><use x="63.623" xlink:href="#DejaVuSans-30"/><use x="127.246" xlink:href="#DejaVuSans-30"/></g></g></g><g id="xtick_4"><g id="line2d_4"><g><use style="stroke:#000;stroke-width:.8" x="288.735" y="294.04" xlink:href="#ma47a407aa6"/></g></g><g id="text_4"><g transform="translate(279.191034 308.638437)scale(0.1 -0.1)"><defs><path id="DejaVuSans-36" d="M 2113 2584 Q 1688 2584 1439 2293 Q 1191 2003 1191 1497 Q 1191 994 1439 701 Q 1688 409 2113 409 Q 2538 409 2786 701 Q 3034 994 3034 1497 Q 3034 2003 2786 2293 Q 2538 2584 2113 2584 z M 3366 4563 L 3366 3988 Q 3128 4100 2886 4159 Q 2644 4219 2406 4219 Q 1781 4219 1451 3797 Q 1122 3375 1075 2522 Q 1259 2794 1537 2939 Q 1816 3084 2150 3084 Q 2853 3084 3261 2657 Q 3669 2231 3669 1497 Q 3669 778 3244 343 Q 2819 -91 2113 -91 Q 1303 -91 875 529 Q 447 1150 447 2328 Q 447 3434 972 4092 Q 1497 4750 2381 4750 Q 2619 4750 2861 4703 Q 3103 4656 3366 4563 z" transform="scale(0.015625)"/></defs><use xlink:href="#DejaVuSans-36"/><use x="63.623" xlink:href="#DejaVuSans-30"/><use x="127.246" xlink:href="#DejaVuSans-30"/></g></g></g><g id="xtick_5"><g id="line2d_5"><g><use style="stroke:#000;stroke-width:.8" x="360.744" y="294.04" xlink:href="#ma47a407aa6"/></g></g><g id="text_5"><g transform="translate(351.200508 308.638437)scale(0.1 -0.1)"><defs><path id="DejaVuSans-38" d="M 2034 2216 Q 1584 2216 1326 1975 Q 1069 1734 1069 1313 Q 1069 891 1326 650 Q 1584 409 2034 409 Q 2484 409 2743 651 Q 3003 894 3003 1313 Q 3003 1734 2745 1975 Q 2488 2216 2034 2216 z M 1403 2484 Q 997 2584 770 2862 Q 544 3141 544 3541 Q 544 4100 942 4425 Q 1341 4750 2034 4750 Q 2731 4750 3128 4425 Q 3525 4100 3525 3541 Q 3525 3141 3298 2862 Q 3072 2584 2669 2484 Q 3125 2378 3379 2068 Q 3634 1759 3634 1313 Q 3634 634 3220 271 Q 2806 -91 2034 -91 Q 1263 -91 848 271 Q 434 634 434 1313 Q 434 1759 690 2068 Q 947 2378 1403 2484 z M 1172 3481 Q 1172 3119 1398 2916 Q 1625 2713 2034 2713 Q 2441 2713 2670 2916 Q 2900 3119 2900 3481 Q 2900 3844 2670 4047 Q 2441 4250 2034 4250 Q 1625 4250 1398 4047 Q 1172 3844 1172 3481 z" transform="scale(0.015625)"/></defs><use xlink:href="#DejaVuSans-38"/><use x="63.623" xlink:href="#DejaVuSans-30"/><use x="127.246" xlink:href="#DejaVuSans-30"/></g></g></g><g id="xtick_6"><g id="line2d_6"><g><use style="stroke:#000;stroke-width:.8" x="432.754" y="294.04" xlink:href="#ma47a407aa6"/></g></g><g id="text_6"><g transform="translate(420.028731 308.638437)scale(0.1 -0.1)"><defs><path id="DejaVuSans-31" d="M 794 531 L 1825 531 L 1825 4091 L 703 3866 L 703 4441 L 1819 4666 L 2450 4666 L 2450 531 L 3481 531 L 3481 0 L 794 0 L 794 531 z" transform="scale(0.015625)"/></defs><use xlink:href="#DejaVuSans-31"/><use x="63.623" xlink:href="#DejaVuSans-30"/><use x="127.246" xlink:href="#DejaVuSans-30"/><use x="190.869" xlink:href="#DejaVuSans-30"/></g></g></g><g id="text_7"><g transform="translate(245.97 329.915)scale(0.2 -0.2)"><defs><path id="DejaVuSans-Oblique-6e" d="M 3566 2113 L 3156 0 L 2578 0 L 2988 2091 Q 3016 2238 3031 2350 Q 3047 2463 3047 2528 Q 3047 2791 2881 2937 Q 2716 3084 2419 3084 Q 1956 3084 1622 2776 Q 1288 2469 1184 1941 L 800 0 L 225 0 L 903 3500 L 1478 3500 L 1363 2950 Q 1603 3253 1940 3418 Q 2278 3584 2650 3584 Q 3113 3584 3367 3334 Q 3622 3084 3622 2631 Q 3622 2519 3608 2391 Q 3594 2263 3566 2113 z" transform="scale(0.015625)"/></defs><use xlink:href="#DejaVuSans-Oblique-6e"/></g></g></g><g id="matplotlib.axis_2"><g id="ytick_1"><g id="line2d_7"><defs><path id="mb78b8a7d99" d="M 0 0 L -3.5 0" style="stroke:#000;stroke-width:.8"/></defs><g><use style="stroke:#000;stroke-width:.8" x="54.74" y="281.194" xlink:href="#mb78b8a7d99"/></g></g><g id="text_8"><g transform="translate(41.3775 284.99333)scale(0.1 -0.1)"><use xlink:href="#DejaVuSans-30"/></g></g></g><g id="ytick_2"><g id="line2d_8"><g><use style="stroke:#000;stroke-width:.8" x="54.74" y="222.982" xlink:href="#mb78b8a7d99"/></g></g><g id="text_9"><g transform="translate(35.015 226.781306)scale(0.1 -0.1)"><use xlink:href="#DejaVuSans-32"/><use x="63.623" xlink:href="#DejaVuSans-30"/></g></g></g><g id="ytick_3"><g id="line2d_9"><g><use style="stroke:#000;stroke-width:.8" x="54.74" y="164.77" xlink:href="#mb78b8a7d99"/></g></g><g id="text_10"><g transform="translate(35.015 168.569283)scale(0.1 -0.1)"><use xlink:href="#DejaVuSans-34"/><use x="63.623" xlink:href="#DejaVuSans-30"/></g></g></g><g id="ytick_4"><g id="line2d_10"><g><use style="stroke:#000;stroke-width:.8" x="54.74" y="106.558" xlink:href="#mb78b8a7d99"/></g></g><g id="text_11"><g transform="translate(35.015 110.357259)scale(0.1 -0.1)"><use xlink:href="#DejaVuSans-36"/><use x="63.623" xlink:href="#DejaVuSans-30"/></g></g></g><g id="ytick_5"><g id="line2d_11"><g><use style="stroke:#000;stroke-width:.8" x="54.74" y="48.346" xlink:href="#mb78b8a7d99"/></g></g><g id="text_12"><g transform="translate(35.015 52.145235)scale(0.1 -0.1)"><use xlink:href="#DejaVuSans-38"/><use x="63.623" xlink:href="#DejaVuSans-30"/></g></g></g><g id="text_13"><g transform="translate(26.855625 212.715313)rotate(-90)scale(0.2 -0.2)"><defs><path id="DejaVuSans-65" d="M 3597 1894 L 3597 1613 L 953 1613 Q 991 1019 1311 708 Q 1631 397 2203 397 Q 2534 397 2845 478 Q 3156 559 3463 722 L 3463 178 Q 3153 47 2828 -22 Q 2503 -91 2169 -91 Q 1331 -91 842 396 Q 353 884 353 1716 Q 353 2575 817 3079 Q 1281 3584 2069 3584 Q 2775 3584 3186 3129 Q 3597 2675 3597 1894 z M 3022 2063 Q 3016 2534 2758 2815 Q 2500 3097 2075 3097 Q 1594 3097 1305 2825 Q 1016 2553 972 2059 L 3022 2063 z" transform="scale(0.015625)"/><path id="DejaVuSans-69" d="M 603 3500 L 1178 3500 L 1178 0 L 603 0 L 603 3500 z M 603 4863 L 1178 4863 L 1178 4134 L 603 4134 L 603 4863 z" transform="scale(0.015625)"/><path id="DejaVuSans-67" d="M 2906 1791 Q 2906 2416 2648 2759 Q 2391 3103 1925 3103 Q 1463 3103 1205 2759 Q 947 2416 947 1791 Q 947 1169 1205 825 Q 1463 481 1925 481 Q 2391 481 2648 825 Q 2906 1169 2906 1791 z M 3481 434 Q 3481 -459 3084 -895 Q 2688 -1331 1869 -1331 Q 1566 -1331 1297 -1286 Q 1028 -1241 775 -1147 L 775 -588 Q 1028 -725 1275 -790 Q 1522 -856 1778 -856 Q 2344 -856 2625 -561 Q 2906 -266 2906 331 L 2906 616 Q 2728 306 2450 153 Q 2172 0 1784 0 Q 1141 0 747 490 Q 353 981 353 1791 Q 353 2603 747 3093 Q 1141 3584 1784 3584 Q 2172 3584 2450 3431 Q 2728 3278 2906 2969 L 2906 3500 L 3481 3500 L 3481 434 z" transform="scale(0.015625)"/><path id="DejaVuSans-6e" d="M 3513 2113 L 3513 0 L 2938 0 L 2938 2094 Q 2938 2591 2744 2837 Q 2550 3084 2163 3084 Q 1697 3084 1428 2787 Q 1159 2491 1159 1978 L 1159 0 L 581 0 L 581 3500 L 1159 3500 L 1159 2956 Q 1366 3272 1645 3428 Q 1925 3584 2291 3584 Q 2894 3584 3203 3211 Q 3513 2838 3513 2113 z" transform="scale(0.015625)"/><path id="DejaVuSans-76" d="M 191 3500 L 800 3500 L 1894 563 L 2988 3500 L 3597 3500 L 2284 0 L 1503 0 L 191 3500 z" transform="scale(0.015625)"/><path id="DejaVuSans-61" d="M 2194 1759 Q 1497 1759 1228 1600 Q 959 1441 959 1056 Q 959 750 1161 570 Q 1363 391 1709 391 Q 2188 391 2477 730 Q 2766 1069 2766 1631 L 2766 1759 L 2194 1759 z M 3341 1997 L 3341 0 L 2766 0 L 2766 531 Q 2569 213 2275 61 Q 1981 -91 1556 -91 Q 1019 -91 701 211 Q 384 513 384 1019 Q 384 1609 779 1909 Q 1175 2209 1959 2209 L 2766 2209 L 2766 2266 Q 2766 2663 2505 2880 Q 2244 3097 1772 3097 Q 1472 3097 1187 3025 Q 903 2953 641 2809 L 641 3341 Q 956 3463 1253 3523 Q 1550 3584 1831 3584 Q 2591 3584 2966 3190 Q 3341 2797 3341 1997 z" transform="scale(0.015625)"/><path id="DejaVuSans-6c" d="M 603 4863 L 1178 4863 L 1178 0 L 603 0 L 603 4863 z" transform="scale(0.015625)"/><path id="DejaVuSans-75" d="M 544 1381 L 544 3500 L 1119 3500 L 1119 1403 Q 1119 906 1312 657 Q 1506 409 1894 409 Q 2359 409 2629 706 Q 2900 1003 2900 1516 L 2900 3500 L 3475 3500 L 3475 0 L 2900 0 L 2900 538 Q 2691 219 2414 64 Q 2138 -91 1772 -91 Q 1169 -91 856 284 Q 544 659 544 1381 z M 1991 3584 L 1991 3584 z" transform="scale(0.015625)"/><path id="DejaVuSans-73" d="M 2834 3397 L 2834 2853 Q 2591 2978 2328 3040 Q 2066 3103 1784 3103 Q 1356 3103 1142 2972 Q 928 2841 928 2578 Q 928 2378 1081 2264 Q 1234 2150 1697 2047 L 1894 2003 Q 2506 1872 2764 1633 Q 3022 1394 3022 966 Q 3022 478 2636 193 Q 2250 -91 1575 -91 Q 1294 -91 989 -36 Q 684 19 347 128 L 347 722 Q 666 556 975 473 Q 1284 391 1588 391 Q 1994 391 2212 530 Q 2431 669 2431 922 Q 2431 1156 2273 1281 Q 2116 1406 1581 1522 L 1381 1569 Q 847 1681 609 1914 Q 372 2147 372 2553 Q 372 3047 722 3315 Q 1072 3584 1716 3584 Q 2034 3584 2315 3537 Q 2597 3491 2834 3397 z" transform="scale(0.015625)"/></defs><use xlink:href="#DejaVuSans-65"/><use x="61.523" xlink:href="#DejaVuSans-69"/><use x="89.307" xlink:href="#DejaVuSans-67"/><use x="152.783" xlink:href="#DejaVuSans-65"/><use x="214.307" xlink:href="#DejaVuSans-6e"/><use x="277.686" xlink:href="#DejaVuSans-76"/><use x="336.865" xlink:href="#DejaVuSans-61"/><use x="398.145" xlink:href="#DejaVuSans-6c"/><use x="425.928" xlink:href="#DejaVuSans-75"/><use x="489.307" xlink:href="#DejaVuSans-65"/><use x="550.83" xlink:href="#DejaVuSans-73"/></g></g></g><g id="line2d_12"><path d="M 72.706364 281.165455 L 73.066411 281.110776 L 73.426458 281.059651 L 73.786506 281.012004 L 74.146553 280.967766 L 74.5066 280.926876 L 74.866648 280.889281 L 75.226695 280.854938 L 75.586743 280.82381 L 75.94679 280.795869 L 76.306837 280.771096 L 76.666885 280.749476 L 77.026932 280.730877 L 77.386979 280.714124 L 77.747027 280.696475 L 78.107074 280.67649 L 78.467122 280.654301 L 78.827169 280.630224 L 79.187216 280.604493 L 79.547264 280.577277 L 79.907311 280.548709 L 80.267358 280.518898 L 80.627406 280.487936 L 80.987453 280.455904 L 81.3475 280.422878 L 81.707548 280.388925 L 82.067595 280.354107 L 82.427643 280.318485 L 82.78769 280.282115 L 83.147737 280.245052 L 83.507785 280.207349 L 83.867832 280.169057 L 84.227879 280.130225 L 84.587927 280.090902 L 84.947974 280.051136 L 85.308021 280.010974 L 85.668069 279.970462 L 86.028116 279.929645 L 86.388164 279.88857 L 86.748211 279.847279 L 87.108258 279.805819 L 87.468306 279.764232 L 87.828353 279.722561 L 88.1884 279.680851 L 88.548448 279.639144 L 88.908495 279.597482 L 89.268543 279.555909 L 89.62859 279.514467 L 89.988637 279.473198 L 90.348685 279.432144 L 90.708732 279.391348 L 91.068779 279.350851 L 91.428827 279.310696 L 91.788874 279.270925 L 92.148921 279.231581 L 92.508969 279.192707 L 92.869016 279.154345 L 93.229064 279.11654 L 93.589111 279.079337 L 93.949158 279.042781 L 94.309206 279.006919 L 94.669253 278.9718 L 95.0293 278.937476 L 95.389348 278.904001 L 95.749395 278.871435 L 96.109443 278.839843 L 96.46949 278.809302 L 96.829537 278.779918 L 97.189585 278.751841 L 97.549632 278.725105 L 97.909679 278.699348 L 98.269727 278.676724 L 98.629774 278.661239 L 98.989821 278.636935 L 99.349869 278.607422 L 99.709916 278.591097 L 100.069964 278.576405 L 100.430011 278.544719 L 100.790058 278.512701 L 101.150106 278.480572 L 101.510153 278.460011 L 101.8702 278.448489 L 102.230248 278.416578 L 102.590295 278.384946 L 102.950343 278.353683 L 103.31039 278.322863 L 103.670437 278.292538 L 104.030485 278.288018 L 104.390532 278.262706 L 104.750579 278.23323 L 105.110627 278.203415 L 105.470674 278.076566 L 105.830721 277.824263 L 106.190769 277.528261 L 106.550816 277.184063 L 106.910864 276.782962 L 107.270911 276.303543 L 107.630958 275.693582 L 107.991006 274.820686" clip-path="url(#p8e51a9ade9)" style="fill:none;stroke:#1f77b4;stroke-linecap:square;stroke-width:1.5"/></g><g id="line2d_13"><path d="M 72.706364 281.165377 L 75.586743 280.81962 L 84.227879 280.043725 L 89.268543 279.256076 L 94.669253 278.18973 L 100.430011 276.827592 L 105.830721 275.326224 L 111.231432 273.578803 L 116.99219 271.465651 L 123.112995 268.967229 L 129.593848 266.070995 L 136.794795 262.59603 L 145.075884 258.335565 L 155.517258 252.69439 L 182.160763 238.179383 L 190.441853 233.996289 L 197.6428 230.609495 L 204.123653 227.807763 L 210.244458 225.410069 L 216.005216 223.399515 L 221.405926 221.750777 L 226.44659 220.432741 L 231.487253 219.340624 L 236.167868 218.540196 L 240.848484 217.96108 L 245.5291 217.623773 L 249.849668 217.232433 L 250.569763 216.59377 L 251.289858 215.620425 L 251.649905 214.929527 L 252.009953 213.969559 L 252.009953 213.969559" clip-path="url(#p8e51a9ade9)" style="fill:none;stroke:#ff7f0e;stroke-linecap:square;stroke-width:1.5"/></g><g id="line2d_14"><path d="M 72.706364 281.165375 L 75.586743 280.819494 L 84.227879 280.040979 L 89.268543 279.246333 L 94.669253 278.163697 L 100.430011 276.768802 L 105.470674 275.323518 L 110.511337 273.632337 L 115.552 271.702077 L 120.592664 269.540282 L 125.993374 266.973668 L 131.394085 264.154463 L 136.794795 261.089389 L 142.555553 257.556946 L 148.316311 253.76192 L 154.437116 249.452859 L 160.557921 244.870711 L 167.038774 239.735973 L 173.879674 234.018011 L 180.720574 228.014096 L 188.281569 221.071324 L 196.202611 213.484316 L 204.843747 204.8836 L 214.204979 195.239915 L 224.646353 184.1602 L 237.608058 170.065823 L 262.811374 142.22867 L 278.653458 124.931014 L 290.174974 112.678018 L 299.896253 102.657467 L 308.537389 94.056732 L 316.458431 86.4697 L 324.019426 79.526894 L 331.220373 73.214678 L 338.061273 67.512277 L 344.542126 62.39322 L 350.662931 57.826663 L 356.783737 53.533885 L 362.544494 49.754747 L 368.305252 46.238648 L 373.705963 43.189195 L 379.106673 40.385726 L 384.507384 37.834648 L 389.908094 35.54191 L 394.948758 33.639995 L 399.989421 31.972232 L 405.030084 30.542856 L 410.070747 29.356443 L 414.751363 28.477426 L 419.431979 27.821215 L 423.3925 27.459854 L 425.912831 27.294142 L 429.873352 26.943902 L 430.593447 26.305169 L 431.313542 25.329603 L 431.673589 24.636801 L 432.033636 23.674545 L 432.033636 23.674545" clip-path="url(#p8e51a9ade9)" style="fill:none;stroke:#2ca02c;stroke-linecap:square;stroke-width:1.5"/></g><g id="patch_3"><path d="M 54.74 294.04 L 54.74 10.8" style="fill:none;stroke:#000;stroke-linecap:square;stroke-linejoin:miter;stroke-width:.8"/></g><g id="patch_4"><path d="M 450 294.04 L 450 10.8" style="fill:none;stroke:#000;stroke-linecap:square;stroke-linejoin:miter;stroke-width:.8"/></g><g id="patch_5"><path d="M 54.74 294.04 L 450 294.04" style="fill:none;stroke:#000;stroke-linecap:square;stroke-linejoin:miter;stroke-width:.8"/></g><g id="patch_6"><path d="M 54.74 10.8 L 450 10.8" style="fill:none;stroke:#000;stroke-linecap:square;stroke-linejoin:miter;stroke-width:.8"/></g><g id="legend_1"><g id="patch_7"><path d="M 61.74 62.834375 L 149.200938 62.834375 Q 151.200938 62.834375 151.200938 60.834375 L 151.200938 17.8 Q 151.200938 15.8 149.200938 15.8 L 61.74 15.8 Q 59.74 15.8 59.74 17.8 L 59.74 60.834375 Q 59.74 62.834375 61.74 62.834375 z" style="fill:#fff;opacity:.8;stroke:#ccc;stroke-linejoin:miter"/></g><g id="line2d_15"><path d="M 63.74 23.898438 L 83.74 23.898438" style="fill:none;stroke:#1f77b4;stroke-linecap:square;stroke-width:1.5"/></g><g id="text_14"><g transform="translate(91.74 27.398438)scale(0.1 -0.1)"><defs><path id="DejaVuSans-74" d="M 1172 4494 L 1172 3500 L 2356 3500 L 2356 3053 L 1172 3053 L 1172 1153 Q 1172 725 1289 603 Q 1406 481 1766 481 L 2356 481 L 2356 0 L 1766 0 Q 1100 0 847 248 Q 594 497 594 1153 L 594 3053 L 172 3053 L 172 3500 L 594 3500 L 594 4494 L 1172 4494 z" transform="scale(0.015625)"/><path id="DejaVuSans-70" d="M 1159 525 L 1159 -1331 L 581 -1331 L 581 3500 L 1159 3500 L 1159 2969 Q 1341 3281 1617 3432 Q 1894 3584 2278 3584 Q 2916 3584 3314 3078 Q 3713 2572 3713 1747 Q 3713 922 3314 415 Q 2916 -91 2278 -91 Q 1894 -91 1617 61 Q 1341 213 1159 525 z M 3116 1747 Q 3116 2381 2855 2742 Q 2594 3103 2138 3103 Q 1681 3103 1420 2742 Q 1159 2381 1159 1747 Q 1159 1113 1420 752 Q 1681 391 2138 391 Q 2594 391 2855 752 Q 3116 1113 3116 1747 z" transform="scale(0.015625)"/><path id="DejaVuSans-3d" d="M 678 2906 L 4684 2906 L 4684 2381 L 678 2381 L 678 2906 z M 678 1631 L 4684 1631 L 4684 1100 L 678 1100 L 678 1631 z" transform="scale(0.015625)"/></defs><use xlink:href="#DejaVuSans-73"/><use x="52.1" xlink:href="#DejaVuSans-74"/><use x="91.309" xlink:href="#DejaVuSans-65"/><use x="152.832" xlink:href="#DejaVuSans-70"/><use x="216.309" xlink:href="#DejaVuSans-3d"/><use x="300.098" xlink:href="#DejaVuSans-31"/><use x="363.721" xlink:href="#DejaVuSans-30"/><use x="427.344" xlink:href="#DejaVuSans-30"/></g></g><g id="line2d_17"><path d="M 63.74 38.576563 L 83.74 38.576563" style="fill:none;stroke:#ff7f0e;stroke-linecap:square;stroke-width:1.5"/></g><g id="text_15"><g transform="translate(91.74 42.076563)scale(0.1 -0.1)"><defs><path id="DejaVuSans-35" d="M 691 4666 L 3169 4666 L 3169 4134 L 1269 4134 L 1269 2991 Q 1406 3038 1543 3061 Q 1681 3084 1819 3084 Q 2600 3084 3056 2656 Q 3513 2228 3513 1497 Q 3513 744 3044 326 Q 2575 -91 1722 -91 Q 1428 -91 1123 -41 Q 819 9 494 109 L 494 744 Q 775 591 1075 516 Q 1375 441 1709 441 Q 2250 441 2565 725 Q 2881 1009 2881 1497 Q 2881 1984 2565 2268 Q 2250 2553 1709 2553 Q 1456 2553 1204 2497 Q 953 2441 691 2322 L 691 4666 z" transform="scale(0.015625)"/></defs><use xlink:href="#DejaVuSans-73"/><use x="52.1" xlink:href="#DejaVuSans-74"/><use x="91.309" xlink:href="#DejaVuSans-65"/><use x="152.832" xlink:href="#DejaVuSans-70"/><use x="216.309" xlink:href="#DejaVuSans-3d"/><use x="300.098" xlink:href="#DejaVuSans-35"/><use x="363.721" xlink:href="#DejaVuSans-30"/><use x="427.344" xlink:href="#DejaVuSans-30"/></g></g><g id="line2d_19"><path d="M 63.74 53.254688 L 83.74 53.254688" style="fill:none;stroke:#2ca02c;stroke-linecap:square;stroke-width:1.5"/></g><g id="text_16"><g transform="translate(91.74 56.754688)scale(0.1 -0.1)"><use xlink:href="#DejaVuSans-73"/><use x="52.1" xlink:href="#DejaVuSans-74"/><use x="91.309" xlink:href="#DejaVuSans-65"/><use x="152.832" xlink:href="#DejaVuSans-70"/><use x="216.309" xlink:href="#DejaVuSans-3d"/><use x="300.098" xlink:href="#DejaVuSans-31"/><use x="363.721" xlink:href="#DejaVuSans-30"/><use x="427.344" xlink:href="#DejaVuSans-30"/><use x="490.967" xlink:href="#DejaVuSans-30"/></g></g></g></g></g><defs><clipPath id="p8e51a9ade9"><rect width="395.26" height="283.24" x="54.74" y="10.8"/></clipPath></defs></svg>