<svg xmlns="http://www.w3.org/2000/svg" xmlns:xlink="http://www.w3.org/1999/xlink" width="1440" height="960" version="1.1" viewBox="0 0 1080 720"><metadata><rdf:RDF xmlns:cc="http://creativecommons.org/ns#" xmlns:dc="http://purl.org/dc/elements/1.1/" xmlns:rdf="http://www.w3.org/1999/02/22-rdf-syntax-ns#"><cc:Work><dc:type rdf:resource="http://purl.org/dc/dcmitype/StillImage"/><dc:date>2022-04-27T08:41:16.316659</dc:date><dc:format>image/svg+xml</dc:format><dc:creator><cc:Agent><dc:title>Matplotlib v3.4.3, https://matplotlib.org/</dc:title></cc:Agent></dc:creator></cc:Work></rdf:RDF></metadata><defs><style type="text/css">*{stroke-linecap:butt;stroke-linejoin:round}</style></defs><g id="figure_1"><g id="patch_1"><path d="M 0 720 L 1080 720 L 1080 0 L 0 0 z" style="fill:#fff"/></g><g id="axes_1"><g id="patch_2"><path d="M 97.46 664.12 L 1004.62 664.12 L 1004.62 40.176 L 97.46 40.176 z" style="fill:#fff"/></g><g id="matplotlib.axis_1"><g id="xtick_1"><g id="line2d_1"><defs><path id="m0f8cdfe3d5" d="M 0 0 L 0 3.5" style="stroke:#000;stroke-width:.8"/></defs><g><use style="stroke:#000;stroke-width:.8" x="138.695" y="664.12" xlink:href="#m0f8cdfe3d5"/></g></g><g id="text_1"><g transform="translate(133.92267 682.517656)scale(0.15 -0.15)"><defs><path id="DejaVuSans-30" d="M 2034 4250 Q 1547 4250 1301 3770 Q 1056 3291 1056 2328 Q 1056 1369 1301 889 Q 1547 409 2034 409 Q 2525 409 2770 889 Q 3016 1369 3016 2328 Q 3016 3291 2770 3770 Q 2525 4250 2034 4250 z M 2034 4750 Q 2819 4750 3233 4129 Q 3647 3509 3647 2328 Q 3647 1150 3233 529 Q 2819 -91 2034 -91 Q 1250 -91 836 529 Q 422 1150 422 2328 Q 422 3509 836 4129 Q 1250 4750 2034 4750 z" transform="scale(0.015625)"/></defs><use xlink:href="#DejaVuSans-30"/></g></g></g><g id="xtick_2"><g id="line2d_2"><g><use style="stroke:#000;stroke-width:.8" x="303.633" y="664.12" xlink:href="#m0f8cdfe3d5"/></g></g><g id="text_2"><g transform="translate(298.860852 682.517656)scale(0.15 -0.15)"><defs><path id="DejaVuSans-31" d="M 794 531 L 1825 531 L 1825 4091 L 703 3866 L 703 4441 L 1819 4666 L 2450 4666 L 2450 531 L 3481 531 L 3481 0 L 794 0 L 794 531 z" transform="scale(0.015625)"/></defs><use xlink:href="#DejaVuSans-31"/></g></g></g><g id="xtick_3"><g id="line2d_3"><g><use style="stroke:#000;stroke-width:.8" x="468.571" y="664.12" xlink:href="#m0f8cdfe3d5"/></g></g><g id="text_3"><g transform="translate(463.799034 682.517656)scale(0.15 -0.15)"><defs><path id="DejaVuSans-32" d="M 1228 531 L 3431 531 L 3431 0 L 469 0 L 469 531 Q 828 903 1448 1529 Q 2069 2156 2228 2338 Q 2531 2678 2651 2914 Q 2772 3150 2772 3378 Q 2772 3750 2511 3984 Q 2250 4219 1831 4219 Q 1534 4219 1204 4116 Q 875 4013 500 3803 L 500 4441 Q 881 4594 1212 4672 Q 1544 4750 1819 4750 Q 2544 4750 2975 4387 Q 3406 4025 3406 3419 Q 3406 3131 3298 2873 Q 3191 2616 2906 2266 Q 2828 2175 2409 1742 Q 1991 1309 1228 531 z" transform="scale(0.015625)"/></defs><use xlink:href="#DejaVuSans-32"/></g></g></g><g id="xtick_4"><g id="line2d_4"><g><use style="stroke:#000;stroke-width:.8" x="633.509" y="664.12" xlink:href="#m0f8cdfe3d5"/></g></g><g id="text_4"><g transform="translate(628.737216 682.517656)scale(0.15 -0.15)"><defs><path id="DejaVuSans-33" d="M 2597 2516 Q 3050 2419 3304 2112 Q 3559 1806 3559 1356 Q 3559 666 3084 287 Q 2609 -91 1734 -91 Q 1441 -91 1130 -33 Q 819 25 488 141 L 488 750 Q 750 597 1062 519 Q 1375 441 1716 441 Q 2309 441 2620 675 Q 2931 909 2931 1356 Q 2931 1769 2642 2001 Q 2353 2234 1838 2234 L 1294 2234 L 1294 2753 L 1863 2753 Q 2328 2753 2575 2939 Q 2822 3125 2822 3475 Q 2822 3834 2567 4026 Q 2313 4219 1838 4219 Q 1578 4219 1281 4162 Q 984 4106 628 3988 L 628 4550 Q 988 4650 1302 4700 Q 1616 4750 1894 4750 Q 2613 4750 3031 4423 Q 3450 4097 3450 3541 Q 3450 3153 3228 2886 Q 3006 2619 2597 2516 z" transform="scale(0.015625)"/></defs><use xlink:href="#DejaVuSans-33"/></g></g></g><g id="xtick_5"><g id="line2d_5"><g><use style="stroke:#000;stroke-width:.8" x="798.447" y="664.12" xlink:href="#m0f8cdfe3d5"/></g></g><g id="text_5"><g transform="translate(793.675398 682.517656)scale(0.15 -0.15)"><defs><path id="DejaVuSans-34" d="M 2419 4116 L 825 1625 L 2419 1625 L 2419 4116 z M 2253 4666 L 3047 4666 L 3047 1625 L 3713 1625 L 3713 1100 L 3047 1100 L 3047 0 L 2419 0 L 2419 1100 L 313 1100 L 313 1709 L 2253 4666 z" transform="scale(0.015625)"/></defs><use xlink:href="#DejaVuSans-34"/></g></g></g><g id="xtick_6"><g id="line2d_6"><g><use style="stroke:#000;stroke-width:.8" x="963.385" y="664.12" xlink:href="#m0f8cdfe3d5"/></g></g><g id="text_6"><g transform="translate(958.61358 682.517656)scale(0.15 -0.15)"><defs><path id="DejaVuSans-35" d="M 691 4666 L 3169 4666 L 3169 4134 L 1269 4134 L 1269 2991 Q 1406 3038 1543 3061 Q 1681 3084 1819 3084 Q 2600 3084 3056 2656 Q 3513 2228 3513 1497 Q 3513 744 3044 326 Q 2575 -91 1722 -91 Q 1428 -91 1123 -41 Q 819 9 494 109 L 494 744 Q 775 591 1075 516 Q 1375 441 1709 441 Q 2250 441 2565 725 Q 2881 1009 2881 1497 Q 2881 1984 2565 2268 Q 2250 2553 1709 2553 Q 1456 2553 1204 2497 Q 953 2441 691 2322 L 691 4666 z" transform="scale(0.015625)"/></defs><use xlink:href="#DejaVuSans-35"/></g></g></g><g id="text_7"><g transform="translate(546.84 704.834063)scale(0.2 -0.2)"><defs><path id="DejaVuSans-Oblique-72" d="M 2853 2969 Q 2766 3016 2653 3041 Q 2541 3066 2413 3066 Q 1953 3066 1609 2717 Q 1266 2369 1153 1784 L 800 0 L 225 0 L 909 3500 L 1484 3500 L 1375 2956 Q 1603 3259 1920 3421 Q 2238 3584 2597 3584 Q 2691 3584 2781 3573 Q 2872 3563 2963 3538 L 2853 2969 z" transform="scale(0.015625)"/></defs><use xlink:href="#DejaVuSans-Oblique-72"/></g></g></g><g id="matplotlib.axis_2"><g id="ytick_1"><g id="line2d_7"><defs><path id="m305583b9cd" d="M 0 0 L -3.5 0" style="stroke:#000;stroke-width:.8"/></defs><g><use style="stroke:#000;stroke-width:.8" x="97.46" y="661.532" xlink:href="#m305583b9cd"/></g></g><g id="text_8"><g transform="translate(34.948281 667.230647)scale(0.15 -0.15)"><defs><path id="DejaVuSans-2212" d="M 678 2272 L 4684 2272 L 4684 1741 L 678 1741 L 678 2272 z" transform="scale(0.015625)"/><path id="DejaVuSans-2e" d="M 684 794 L 1344 794 L 1344 0 L 684 0 L 684 794 z" transform="scale(0.015625)"/></defs><use xlink:href="#DejaVuSans-2212"/><use x="83.789" xlink:href="#DejaVuSans-30"/><use x="147.412" xlink:href="#DejaVuSans-2e"/><use x="179.199" xlink:href="#DejaVuSans-31"/><use x="242.822" xlink:href="#DejaVuSans-30"/><use x="306.445" xlink:href="#DejaVuSans-30"/></g></g></g><g id="ytick_2"><g id="line2d_8"><g><use style="stroke:#000;stroke-width:.8" x="97.46" y="590.616" xlink:href="#m305583b9cd"/></g></g><g id="text_9"><g transform="translate(34.948281 596.315262)scale(0.15 -0.15)"><defs><path id="DejaVuSans-37" d="M 525 4666 L 3525 4666 L 3525 4397 L 1831 0 L 1172 0 L 2766 4134 L 525 4134 L 525 4666 z" transform="scale(0.015625)"/></defs><use xlink:href="#DejaVuSans-2212"/><use x="83.789" xlink:href="#DejaVuSans-30"/><use x="147.412" xlink:href="#DejaVuSans-2e"/><use x="179.199" xlink:href="#DejaVuSans-30"/><use x="242.822" xlink:href="#DejaVuSans-37"/><use x="306.445" xlink:href="#DejaVuSans-35"/></g></g></g><g id="ytick_3"><g id="line2d_9"><g><use style="stroke:#000;stroke-width:.8" x="97.46" y="519.701" xlink:href="#m305583b9cd"/></g></g><g id="text_10"><g transform="translate(34.948281 525.399876)scale(0.15 -0.15)"><use xlink:href="#DejaVuSans-2212"/><use x="83.789" xlink:href="#DejaVuSans-30"/><use x="147.412" xlink:href="#DejaVuSans-2e"/><use x="179.199" xlink:href="#DejaVuSans-30"/><use x="242.822" xlink:href="#DejaVuSans-35"/><use x="306.445" xlink:href="#DejaVuSans-30"/></g></g></g><g id="ytick_4"><g id="line2d_10"><g><use style="stroke:#000;stroke-width:.8" x="97.46" y="448.786" xlink:href="#m305583b9cd"/></g></g><g id="text_11"><g transform="translate(34.948281 454.48449)scale(0.15 -0.15)"><use xlink:href="#DejaVuSans-2212"/><use x="83.789" xlink:href="#DejaVuSans-30"/><use x="147.412" xlink:href="#DejaVuSans-2e"/><use x="179.199" xlink:href="#DejaVuSans-30"/><use x="242.822" xlink:href="#DejaVuSans-32"/><use x="306.445" xlink:href="#DejaVuSans-35"/></g></g></g><g id="ytick_5"><g id="line2d_11"><g><use style="stroke:#000;stroke-width:.8" x="97.46" y="377.87" xlink:href="#m305583b9cd"/></g></g><g id="text_12"><g transform="translate(47.517812 383.569104)scale(0.15 -0.15)"><use xlink:href="#DejaVuSans-30"/><use x="63.623" xlink:href="#DejaVuSans-2e"/><use x="95.41" xlink:href="#DejaVuSans-30"/><use x="159.033" xlink:href="#DejaVuSans-30"/><use x="222.656" xlink:href="#DejaVuSans-30"/></g></g></g><g id="ytick_6"><g id="line2d_12"><g><use style="stroke:#000;stroke-width:.8" x="97.46" y="306.955" xlink:href="#m305583b9cd"/></g></g><g id="text_13"><g transform="translate(47.517812 312.653718)scale(0.15 -0.15)"><use xlink:href="#DejaVuSans-30"/><use x="63.623" xlink:href="#DejaVuSans-2e"/><use x="95.41" xlink:href="#DejaVuSans-30"/><use x="159.033" xlink:href="#DejaVuSans-32"/><use x="222.656" xlink:href="#DejaVuSans-35"/></g></g></g><g id="ytick_7"><g id="line2d_13"><g><use style="stroke:#000;stroke-width:.8" x="97.46" y="236.04" xlink:href="#m305583b9cd"/></g></g><g id="text_14"><g transform="translate(47.517812 241.738333)scale(0.15 -0.15)"><use xlink:href="#DejaVuSans-30"/><use x="63.623" xlink:href="#DejaVuSans-2e"/><use x="95.41" xlink:href="#DejaVuSans-30"/><use x="159.033" xlink:href="#DejaVuSans-35"/><use x="222.656" xlink:href="#DejaVuSans-30"/></g></g></g><g id="ytick_8"><g id="line2d_14"><g><use style="stroke:#000;stroke-width:.8" x="97.46" y="165.124" xlink:href="#m305583b9cd"/></g></g><g id="text_15"><g transform="translate(47.517812 170.822947)scale(0.15 -0.15)"><use xlink:href="#DejaVuSans-30"/><use x="63.623" xlink:href="#DejaVuSans-2e"/><use x="95.41" xlink:href="#DejaVuSans-30"/><use x="159.033" xlink:href="#DejaVuSans-37"/><use x="222.656" xlink:href="#DejaVuSans-35"/></g></g></g><g id="ytick_9"><g id="line2d_15"><g><use style="stroke:#000;stroke-width:.8" x="97.46" y="94.209" xlink:href="#m305583b9cd"/></g></g><g id="text_16"><g transform="translate(47.517812 99.907561)scale(0.15 -0.15)"><use xlink:href="#DejaVuSans-30"/><use x="63.623" xlink:href="#DejaVuSans-2e"/><use x="95.41" xlink:href="#DejaVuSans-31"/><use x="159.033" xlink:href="#DejaVuSans-30"/><use x="222.656" xlink:href="#DejaVuSans-30"/></g></g></g><g id="text_17"><g transform="translate(26.788906 358.548)rotate(-90)scale(0.2 -0.2)"><defs><path id="DejaVuSans-Oblique-75" d="M 428 1388 L 838 3500 L 1416 3500 L 1006 1409 Q 975 1256 961 1147 Q 947 1038 947 966 Q 947 700 1109 554 Q 1272 409 1569 409 Q 2031 409 2368 721 Q 2706 1034 2809 1563 L 3194 3500 L 3769 3500 L 3091 0 L 2516 0 L 2631 550 Q 2388 244 2052 76 Q 1716 -91 1338 -91 Q 878 -91 622 161 Q 366 413 366 863 Q 366 956 381 1097 Q 397 1238 428 1388 z" transform="scale(0.015625)"/></defs><use transform="translate(0 0.3125)" xlink:href="#DejaVuSans-Oblique-75"/></g></g></g><g id="line2d_16"><path d="M 138.694545 377.870276 L 240.131527 377.767329 L 249.203127 377.531256 L 254.975964 377.189863 L 259.924109 376.678624 L 264.047564 376.016498 L 267.346327 375.272351 L 270.645091 374.279845 L 273.119164 373.334612 L 275.593236 372.183677 L 278.067309 370.79356 L 280.541382 369.127935 L 283.015455 367.147949 L 285.489527 364.812669 L 287.9636 362.079683 L 290.437673 358.905837 L 292.911745 355.24812 L 295.385818 351.064686 L 297.859891 346.315979 L 300.333964 340.965972 L 302.808036 334.983449 L 305.282109 328.343334 L 307.756182 321.027992 L 310.230255 313.028488 L 312.704327 304.345732 L 315.1784 294.991483 L 318.477164 281.516839 L 321.775927 266.980966 L 325.074691 251.51299 L 329.198145 231.126953 L 335.795673 197.078656 L 343.217891 158.961581 L 347.341345 139.028334 L 350.640109 124.214573 L 353.114182 113.947409 L 355.588255 104.523439 L 358.062327 96.040906 L 360.5364 88.586776 L 362.185782 84.225897 L 363.835164 80.37393 L 365.484545 77.046565 L 367.133927 74.25651 L 368.783309 72.013424 L 370.432691 70.323883 L 372.082073 69.191369 L 372.906764 68.834244 L 373.731455 68.616291 L 374.556145 68.537091 L 375.380836 68.596038 L 376.205527 68.792345 L 377.030218 69.125049 L 377.854909 69.593009 L 379.504291 70.929292 L 381.153673 72.78875 L 382.803055 75.156432 L 384.452436 78.015057 L 386.101818 81.345194 L 387.7512 85.12546 L 389.400582 89.332732 L 391.874655 96.389989 L 394.348727 104.263762 L 396.8228 112.860647 L 400.121564 125.280675 L 403.420327 138.581304 L 407.543782 156.093085 L 414.966 188.799772 L 422.388218 221.153812 L 427.336364 241.643567 L 431.459818 257.725146 L 434.758582 269.824453 L 438.057345 281.181262 L 441.356109 291.759595 L 444.654873 301.541168 L 447.953636 310.523272 L 451.2524 318.71655 L 453.726473 324.356571 L 456.200545 329.577508 L 458.674618 334.394267 L 461.148691 338.823625 L 463.622764 342.883793 L 466.096836 346.594024 L 468.570909 349.974245 L 471.044982 353.044747 L 473.519055 355.825899 L 475.993127 358.3379 L 478.4672 360.600583 L 480.941273 362.633234 L 484.240036 365.01765 L 487.5388 367.06797 L 490.837564 368.823239 L 494.136327 370.319479 L 497.435091 371.589601 L 501.558545 372.90438 L 505.682 373.963742 L 509.805455 374.81223 L 514.7536 375.605234 L 520.526436 376.287923 L 527.123964 376.831314 L 535.370873 377.265636 L 546.091855 377.57835 L 560.936291 377.768183 L 588.151091 377.857013 L 712.679418 377.870276 L 963.385455 377.870276 L 963.385455 377.870276" clip-path="url(#p1450f638c6)" style="fill:none;stroke:#1f77b4;stroke-linecap:square;stroke-width:1.5"/></g><g id="line2d_17"><path d="M 138.694545 377.870276 L 231.884618 377.97628 L 240.131527 378.207077 L 245.904364 378.58017 L 250.027818 379.042544 L 253.326582 379.58978 L 256.625345 380.352825 L 259.099418 381.106761 L 261.573491 382.053323 L 264.047564 383.230734 L 266.521636 384.681839 L 268.995709 386.453912 L 271.469782 388.598265 L 273.943855 391.169582 L 276.417927 394.224997 L 278.067309 396.559688 L 280.541382 400.551493 L 283.015455 405.18135 L 285.489527 410.502497 L 287.9636 416.56233 L 290.437673 423.399904 L 292.911745 431.0433 L 295.385818 439.506938 L 297.859891 448.788921 L 300.333964 458.868556 L 303.632727 473.473498 L 306.931491 489.25702 L 311.054945 510.271139 L 323.425309 574.811009 L 325.899382 586.420114 L 328.373455 597.049857 L 330.847527 606.456537 L 332.496909 611.93001 L 334.146291 616.685536 L 335.795673 620.657988 L 337.445055 623.786034 L 338.269745 625.015463 L 339.094436 626.012895 L 339.919127 626.772062 L 340.743818 627.28707 L 341.568509 627.552416 L 342.3932 627.56301 L 343.217891 627.31419 L 344.042582 626.80174 L 344.867273 626.021905 L 345.691964 624.971408 L 346.516655 623.647459 L 347.341345 622.047768 L 348.166036 620.170559 L 349.815418 615.579079 L 351.4648 609.869313 L 353.114182 603.046143 L 354.763564 595.123104 L 356.412945 586.122351 L 358.062327 576.074526 L 360.5364 559.126799 L 363.010473 540.076867 L 365.484545 519.125857 L 367.958618 496.50752 L 371.257382 464.211302 L 375.380836 421.367779 L 388.575891 281.743668 L 391.874655 249.883839 L 395.173418 220.451481 L 397.647491 200.251519 L 400.121564 181.83679 L 402.595636 165.332638 L 405.069709 150.831172 L 406.719091 142.306694 L 408.368473 134.708867 L 410.017855 128.041173 L 411.667236 122.301226 L 413.316618 117.481054 L 414.966 113.567431 L 416.615382 110.54223 L 417.440073 109.355877 L 418.264764 108.382807 L 419.089455 107.619549 L 419.914145 107.062401 L 420.738836 106.707444 L 421.563527 106.550554 L 422.388218 106.587415 L 423.212909 106.813534 L 424.0376 107.224253 L 424.862291 107.814764 L 425.686982 108.580121 L 427.336364 110.614983 L 428.985745 113.28702 L 430.635127 116.553039 L 432.284509 120.368872 L 433.933891 124.689749 L 436.407964 132.019568 L 438.882036 140.233264 L 441.356109 149.182375 L 444.654873 162.011042 L 448.778327 179.039059 L 464.447455 245.069498 L 468.570909 261.0263 L 471.869673 273.030224 L 475.168436 284.282864 L 478.4672 294.741979 L 481.765964 304.386898 L 485.064727 313.215328 L 488.363491 321.240222 L 490.837564 326.746357 L 493.311636 331.828749 L 495.785709 336.504054 L 498.259782 340.790772 L 500.733855 344.708748 L 503.207927 348.278729 L 505.682 351.521975 L 508.156073 354.459915 L 510.630145 357.113864 L 513.104218 359.504777 L 515.578291 361.65305 L 518.877055 364.173867 L 522.175818 366.342487 L 525.474582 368.200169 L 528.773345 369.784941 L 532.072109 371.131507 L 535.370873 372.271256 L 539.494327 373.447699 L 543.617782 374.393005 L 548.565927 375.279942 L 554.338764 376.047416 L 560.936291 376.662358 L 568.358509 377.11912 L 578.2548 377.479017 L 591.449855 377.711352 L 612.891818 377.83597 L 671.444873 377.869911 L 963.385455 377.870276 L 963.385455 377.870276" clip-path="url(#p1450f638c6)" style="fill:none;stroke:#ff7f0e;stroke-linecap:square;stroke-width:1.5"/></g><g id="line2d_18"><path d="M 138.694545 377.870276 L 226.111782 377.979707 L 234.358691 378.234059 L 239.306836 378.578535 L 243.430291 379.0674 L 246.729055 379.656935 L 250.027818 380.491789 L 252.501891 381.326882 L 254.975964 382.385665 L 257.450036 383.714546 L 259.924109 385.365687 L 262.398182 387.396683 L 264.047564 388.992343 L 265.696945 390.803922 L 267.346327 392.851433 L 268.995709 395.155222 L 270.645091 397.7357 L 272.294473 400.613034 L 273.943855 403.806799 L 275.593236 407.335584 L 278.067309 413.294001 L 280.541382 420.093972 L 283.015455 427.771782 L 285.489527 436.346498 L 287.9636 445.815975 L 290.437673 456.152988 L 292.911745 467.301687 L 296.210509 483.273216 L 300.333964 504.572698 L 309.405564 552.321559 L 311.879636 564.278857 L 314.353709 575.206938 L 316.003091 581.76022 L 317.652473 587.615066 L 319.301855 592.676145 L 320.951236 596.850773 L 322.600618 600.050295 L 323.425309 601.258133 L 324.25 602.191485 L 325.074691 602.841024 L 325.899382 603.197932 L 326.724073 603.253946 L 327.548764 603.001394 L 328.373455 602.433232 L 329.198145 601.543087 L 330.022836 600.325288 L 330.847527 598.774899 L 331.672218 596.887755 L 332.496909 594.660486 L 334.146291 589.176245 L 335.795673 582.312133 L 337.445055 574.07232 L 339.094436 564.475651 L 340.743818 553.555922 L 342.3932 541.361935 L 344.867273 520.824971 L 347.341345 497.843015 L 349.815418 472.759944 L 353.114182 436.755694 L 358.062327 379.548769 L 363.835164 312.972135 L 367.133927 277.509678 L 369.608 253.089431 L 372.082073 231.060941 L 373.731455 217.913971 L 375.380836 206.128194 L 377.030218 195.800794 L 378.6796 187.015065 L 380.328982 179.839659 L 381.153673 176.873137 L 381.978364 174.328032 L 382.803055 172.208591 L 383.627745 170.518081 L 384.452436 169.258779 L 385.277127 168.431984 L 386.101818 168.038016 L 386.926509 168.076226 L 387.7512 168.545011 L 388.575891 169.441821 L 389.400582 170.763179 L 390.225273 172.504702 L 391.049964 174.66112 L 391.874655 177.226297 L 393.524036 183.554241 L 395.173418 191.423243 L 396.8228 200.756073 L 398.472182 211.464653 L 400.121564 223.45124 L 402.595636 243.593187 L 405.069709 265.983258 L 408.368473 298.617993 L 412.491927 342.446764 L 423.212909 458.807116 L 426.511673 491.820579 L 429.810436 522.24278 L 432.284509 543.032923 L 434.758582 561.888 L 437.232655 578.676582 L 438.882036 588.675141 L 440.531418 597.698324 L 442.1808 605.737348 L 443.830182 612.790682 L 445.479564 618.863621 L 447.128945 623.967828 L 448.778327 628.120832 L 450.427709 631.345523 L 451.2524 632.618239 L 452.077091 633.669619 L 452.901782 634.503793 L 453.726473 635.125126 L 454.551164 635.538203 L 455.375855 635.747808 L 456.200545 635.758909 L 457.025236 635.576644 L 457.849927 635.206304 L 458.674618 634.653313 L 459.499309 633.923219 L 460.324 633.021676 L 461.973382 630.727291 L 463.622764 627.816944 L 465.272145 624.338199 L 466.921527 620.338991 L 468.570909 615.867234 L 471.044982 608.377376 L 473.519055 600.088271 L 476.817818 588.053737 L 480.941273 571.902303 L 487.5388 544.863897 L 494.136327 518.052911 L 498.259782 502.069561 L 502.383236 486.985552 L 505.682 475.680788 L 508.980764 465.11574 L 512.279527 455.322773 L 515.578291 446.31435 L 518.877055 438.086305 L 522.175818 430.620948 L 524.649891 425.505728 L 527.123964 420.788729 L 529.598036 416.452957 L 532.072109 412.47995 L 534.546182 408.850224 L 537.020255 405.543674 L 539.494327 402.539909 L 541.9684 399.81855 L 544.442473 397.359475 L 546.916545 395.143021 L 550.215309 392.532356 L 553.514073 390.27625 L 556.812836 388.334448 L 560.1116 386.669693 L 563.410364 385.247836 L 566.709127 384.037859 L 570.832582 382.781047 L 574.956036 381.763701 L 579.904182 380.801077 L 584.852327 380.063849 L 590.625164 379.42381 L 597.222691 378.908433 L 605.4696 378.489702 L 616.190582 378.180672 L 631.859709 377.979266 L 659.8992 377.885491 L 777.83 377.870278 L 963.385455 377.870276 L 963.385455 377.870276" clip-path="url(#p1450f638c6)" style="fill:none;stroke:#2ca02c;stroke-linecap:square;stroke-width:1.5"/></g><g id="line2d_19"><path d="M 138.694545 377.870276 L 221.163636 377.97477 L 228.585855 378.191618 L 233.534 378.514226 L 237.657455 378.983288 L 240.956218 379.559424 L 244.254982 380.38794 L 246.729055 381.226985 L 249.203127 382.301454 L 251.6772 383.662596 L 254.151273 385.368353 L 255.800655 386.728462 L 257.450036 388.2906 L 259.099418 390.076124 L 260.7488 392.107102 L 262.398182 394.406048 L 264.047564 396.995598 L 265.696945 399.898136 L 267.346327 403.135358 L 268.995709 406.727781 L 270.645091 410.694204 L 273.119164 417.380375 L 275.593236 424.98703 L 278.067309 433.536797 L 280.541382 443.027168 L 283.015455 453.425401 L 285.489527 464.663776 L 288.788291 480.764669 L 292.911745 502.140484 L 299.509273 536.65886 L 301.983345 548.718576 L 304.457418 559.746569 L 306.1068 566.337531 L 307.756182 572.186012 L 309.405564 577.178071 L 311.054945 581.202332 L 311.879636 582.81791 L 312.704327 584.151918 L 313.529018 585.192026 L 314.353709 585.926432 L 315.1784 586.343927 L 316.003091 586.433958 L 316.827782 586.186685 L 317.652473 585.593043 L 318.477164 584.644799 L 319.301855 583.334609 L 320.126545 581.65607 L 320.951236 579.60377 L 321.775927 577.17334 L 323.425309 571.166076 L 325.074691 563.621742 L 326.724073 554.546931 L 328.373455 543.968221 L 330.022836 531.932734 L 331.672218 518.508362 L 334.146291 495.966888 L 336.620364 470.887562 L 339.919127 434.3394 L 344.042582 385.609357 L 349.815418 317.300355 L 352.289491 289.986221 L 354.763564 264.872204 L 357.237636 242.616264 L 358.887018 229.66253 L 360.5364 218.39905 L 362.185782 208.961601 L 363.835164 201.464658 L 364.659855 198.473394 L 365.484545 195.999674 L 366.309236 194.051109 L 367.133927 192.633721 L 367.958618 191.751921 L 368.783309 191.408492 L 369.608 191.604578 L 370.432691 192.339685 L 371.257382 193.611678 L 372.082073 195.41679 L 372.906764 197.74964 L 373.731455 200.603251 L 374.556145 203.969074 L 376.205527 212.195514 L 377.854909 222.330527 L 379.504291 234.253152 L 381.153673 247.821647 L 382.803055 262.875523 L 385.277127 287.850381 L 387.7512 315.112162 L 391.874655 363.703008 L 398.472182 442.083698 L 400.946255 469.345764 L 403.420327 494.433906 L 405.8944 516.789889 L 407.543782 529.937187 L 409.193164 541.537782 L 410.842545 551.491671 L 412.491927 559.718311 L 414.141309 566.156923 L 414.966 568.692143 L 415.790691 570.766527 L 416.615382 572.378014 L 417.440073 573.525739 L 418.264764 574.210015 L 419.089455 574.432313 L 419.914145 574.195235 L 420.738836 573.502485 L 421.563527 572.358838 L 422.388218 570.770104 L 423.212909 568.743096 L 424.0376 566.285588 L 424.862291 563.406275 L 426.511673 556.421367 L 428.161055 547.87471 L 429.810436 537.864515 L 431.459818 526.499323 L 433.1092 513.896417 L 435.583273 492.945074 L 438.057345 469.931707 L 441.356109 436.831579 L 446.304255 384.219091 L 452.901782 313.951047 L 456.200545 280.818435 L 459.499309 250.020608 L 461.973382 228.808685 L 464.447455 209.431123 L 466.921527 192.034732 L 469.3956 176.72253 L 471.044982 167.704205 L 472.694364 159.648693 L 474.343745 152.557184 L 475.993127 146.424081 L 477.642509 141.237505 L 479.291891 136.979822 L 480.941273 133.628175 L 481.765964 132.283682 L 482.590655 131.155042 L 483.415345 130.238174 L 484.240036 129.528777 L 485.064727 129.022339 L 485.889418 128.714162 L 486.714109 128.599371 L 487.5388 128.672936 L 488.363491 128.929685 L 489.188182 129.364319 L 490.012873 129.971432 L 490.837564 130.745517 L 492.486945 132.772193 L 494.136327 135.39893 L 495.785709 138.579652 L 497.435091 142.268026 L 499.084473 146.417823 L 501.558545 153.407722 L 504.032618 161.181861 L 507.331382 172.517033 L 511.454836 187.793738 L 517.227673 210.249327 L 525.474582 242.228485 L 529.598036 257.419146 L 533.721491 271.759649 L 537.020255 282.515953 L 540.319018 292.579842 L 543.617782 301.922275 L 546.916545 310.532197 L 550.215309 318.413562 L 553.514073 325.582512 L 555.988145 330.506891 L 558.462218 335.058496 L 560.936291 339.252751 L 563.410364 343.106416 L 565.884436 346.637193 L 568.358509 349.86337 L 570.832582 352.803518 L 573.306655 355.476231 L 575.780727 357.8999 L 579.079491 360.775113 L 582.378255 363.280707 L 585.677018 365.455709 L 588.975782 367.336681 L 592.274545 368.957518 L 595.573309 370.349351 L 599.696764 371.810043 L 603.820218 373.006445 L 607.943673 373.981657 L 612.891818 374.91196 L 618.664655 375.73391 L 625.262182 376.409622 L 632.6844 376.927394 L 641.756 377.325447 L 654.126364 377.618066 L 672.269564 377.792152 L 708.555964 377.863689 L 963.385455 377.870276 L 963.385455 377.870276" clip-path="url(#p1450f638c6)" style="fill:none;stroke:#d62728;stroke-linecap:square;stroke-width:1.5"/></g><g id="line2d_20"><path d="M 138.694545 377.870276 L 217.040182 377.968781 L 224.4624 378.182862 L 229.410545 378.508514 L 233.534 378.989213 L 236.832764 379.586263 L 239.306836 380.205932 L 241.780909 381.01608 L 244.254982 382.063229 L 246.729055 383.401347 L 249.203127 385.091845 L 250.852509 386.448147 L 252.501891 388.0132 L 254.151273 389.809878 L 255.800655 391.861834 L 257.450036 394.193188 L 259.099418 396.828148 L 260.7488 399.790557 L 262.398182 403.103371 L 264.047564 406.788073 L 265.696945 410.864013 L 268.171018 417.746639 L 270.645091 425.585502 L 273.119164 434.395863 L 275.593236 444.162343 L 278.067309 454.832841 L 281.366073 470.296711 L 285.489527 491.088224 L 292.911745 529.167096 L 295.385818 540.805388 L 297.859891 551.262388 L 299.509273 557.367076 L 301.158655 562.629303 L 302.808036 566.922695 L 303.632727 568.667579 L 304.457418 570.124756 L 305.282109 571.27993 L 306.1068 572.119359 L 306.931491 572.629938 L 307.756182 572.799281 L 308.580873 572.615798 L 309.405564 572.068775 L 310.230255 571.148449 L 311.054945 569.846085 L 311.879636 568.154049 L 312.704327 566.065874 L 313.529018 563.576328 L 314.353709 560.681479 L 316.003091 553.666961 L 317.652473 545.018859 L 319.301855 534.757621 L 320.951236 522.928647 L 322.600618 509.602902 L 324.25 494.877066 L 326.724073 470.436882 L 329.198145 443.640884 L 332.496909 405.345146 L 340.743818 308.091268 L 343.217891 281.936009 L 345.691964 258.658813 L 347.341345 245.114051 L 348.990727 233.383361 L 350.640109 223.642776 L 352.289491 216.041753 L 353.114182 213.082288 L 353.938873 210.700254 L 354.763564 208.905638 L 355.588255 207.706306 L 356.412945 207.107964 L 357.237636 207.114113 L 358.062327 207.72603 L 358.887018 208.942746 L 359.711709 210.761041 L 360.5364 213.175445 L 361.361091 216.178255 L 362.185782 219.759552 L 363.835164 228.607076 L 365.484545 239.595877 L 367.133927 252.571457 L 368.783309 267.349312 L 371.257382 292.425795 L 373.731455 320.264892 L 377.030218 360.1131 L 383.627745 440.529043 L 386.101818 467.984764 L 388.575891 492.586483 L 390.225273 507.023768 L 391.874655 519.660298 L 393.524036 530.329924 L 395.173418 538.896101 L 395.998109 542.356212 L 396.8228 545.253434 L 397.647491 547.579627 L 398.472182 549.328696 L 399.296873 550.496596 L 400.121564 551.081324 L 400.946255 551.082906 L 401.770945 550.503383 L 402.595636 549.346771 L 403.420327 547.619038 L 404.245018 545.328053 L 405.069709 542.483541 L 405.8944 539.097023 L 407.543782 530.75269 L 409.193164 520.420742 L 410.842545 508.251156 L 412.491927 494.415509 L 414.966 470.958722 L 417.440073 444.889545 L 420.738836 407.383123 L 428.985745 311.430699 L 431.459818 285.113412 L 433.933891 261.119567 L 435.583273 246.687418 L 437.232655 233.670885 L 438.882036 222.189252 L 440.531418 212.341638 L 442.1808 204.206624 L 443.830182 197.842155 L 444.654873 195.336379 L 445.479564 193.28572 L 446.304255 191.691737 L 447.128945 190.554777 L 447.953636 189.874003 L 448.778327 189.647417 L 449.603018 189.871896 L 450.427709 190.543226 L 451.2524 191.656136 L 452.077091 193.204341 L 452.901782 195.18058 L 453.726473 197.57666 L 454.551164 200.383502 L 456.200545 207.188993 L 457.849927 215.508456 L 459.499309 225.242164 L 461.148691 236.280864 L 462.798073 248.507402 L 465.272145 268.803057 L 467.746218 291.057772 L 471.044982 323.005437 L 475.993127 373.662179 L 482.590655 441.140945 L 485.889418 472.914139 L 489.188182 502.440877 L 491.662255 522.78335 L 494.136327 541.380604 L 496.6104 558.098465 L 499.084473 572.843626 L 500.733855 581.549286 L 502.383236 589.345939 L 504.032618 596.233032 L 505.682 602.216226 L 507.331382 607.306918 L 508.980764 611.521748 L 510.630145 614.8821 L 512.279527 617.413591 L 513.104218 618.377553 L 513.928909 619.145569 L 514.7536 619.721808 L 515.578291 620.110613 L 516.402982 620.31648 L 517.227673 620.344049 L 518.052364 620.198088 L 518.877055 619.883476 L 519.701745 619.405195 L 520.526436 618.768313 L 522.175818 617.039369 L 523.8252 614.738435 L 525.474582 611.9079 L 527.123964 608.590399 L 528.773345 604.828486 L 531.247418 598.444425 L 533.721491 591.294511 L 536.195564 583.513056 L 539.494327 572.37523 L 543.617782 557.618613 L 559.286909 500.479137 L 563.410364 486.621972 L 567.533818 473.641818 L 570.832582 463.958294 L 574.131345 454.931074 L 577.430109 446.573722 L 580.728873 438.886138 L 584.027636 431.857003 L 587.3264 425.466042 L 590.625164 419.686074 L 593.923927 414.484838 L 596.398 410.942286 L 598.872073 407.689274 L 602.170836 403.774093 L 605.4696 400.305617 L 608.768364 397.245184 L 612.067127 394.555139 L 615.365891 392.199344 L 618.664655 390.143543 L 621.963418 388.355614 L 625.262182 386.805728 L 628.560945 385.466413 L 632.6844 384.05037 L 636.807855 382.880357 L 640.931309 381.91784 L 645.879455 380.989894 L 651.652291 380.159182 L 658.249818 379.465249 L 665.672036 378.92322 L 674.743636 378.496516 L 686.289309 378.18779 L 702.783127 377.986844 L 732.472 377.887961 L 847.104036 377.870282 L 963.385455 377.870276 L 963.385455 377.870276" clip-path="url(#p1450f638c6)" style="fill:none;stroke:#9467bd;stroke-linecap:square;stroke-width:1.5"/></g><g id="patch_3"><path d="M 97.46 664.12 L 97.46 40.176" style="fill:none;stroke:#000;stroke-linecap:square;stroke-linejoin:miter;stroke-width:.8"/></g><g id="patch_4"><path d="M 1004.62 664.12 L 1004.62 40.176" style="fill:none;stroke:#000;stroke-linecap:square;stroke-linejoin:miter;stroke-width:.8"/></g><g id="patch_5"><path d="M 97.46 664.12 L 1004.62 664.12" style="fill:none;stroke:#000;stroke-linecap:square;stroke-linejoin:miter;stroke-width:.8"/></g><g id="patch_6"><path d="M 97.46 40.176 L 1004.62 40.176" style="fill:none;stroke:#000;stroke-linecap:square;stroke-linejoin:miter;stroke-width:.8"/></g><g id="legend_1"><g id="patch_7"><path d="M 904.42 202.95725 L 990.62 202.95725 Q 994.62 202.95725 994.62 198.95725 L 994.62 54.176 Q 994.62 50.176 990.62 50.176 L 904.42 50.176 Q 900.42 50.176 900.42 54.176 L 900.42 198.95725 Q 900.42 202.95725 904.42 202.95725 z" style="fill:#fff;opacity:.8;stroke:#ccc;stroke-linejoin:miter"/></g><g id="line2d_21"><path d="M 908.42 66.372875 L 948.42 66.372875" style="fill:none;stroke:#1f77b4;stroke-linecap:square;stroke-width:1.5"/></g><g id="text_18"><g transform="translate(964.42 73.372875)scale(0.2 -0.2)"><use transform="translate(0 0.3125)" xlink:href="#DejaVuSans-Oblique-75"/><use transform="translate(63.378906 -16.09375)scale(0.7)" xlink:href="#DejaVuSans-31"/></g></g><g id="line2d_23"><path d="M 908.42 95.729125 L 948.42 95.729125" style="fill:none;stroke:#ff7f0e;stroke-linecap:square;stroke-width:1.5"/></g><g id="text_19"><g transform="translate(964.42 102.729125)scale(0.2 -0.2)"><use transform="translate(0 0.3125)" xlink:href="#DejaVuSans-Oblique-75"/><use transform="translate(63.378906 -16.09375)scale(0.7)" xlink:href="#DejaVuSans-32"/></g></g><g id="line2d_25"><path d="M 908.42 125.085375 L 948.42 125.085375" style="fill:none;stroke:#2ca02c;stroke-linecap:square;stroke-width:1.5"/></g><g id="text_20"><g transform="translate(964.42 132.085375)scale(0.2 -0.2)"><use transform="translate(0 0.3125)" xlink:href="#DejaVuSans-Oblique-75"/><use transform="translate(63.378906 -16.09375)scale(0.7)" xlink:href="#DejaVuSans-33"/></g></g><g id="line2d_27"><path d="M 908.42 154.441625 L 948.42 154.441625" style="fill:none;stroke:#d62728;stroke-linecap:square;stroke-width:1.5"/></g><g id="text_21"><g transform="translate(964.42 161.441625)scale(0.2 -0.2)"><use transform="translate(0 0.3125)" xlink:href="#DejaVuSans-Oblique-75"/><use transform="translate(63.378906 -16.09375)scale(0.7)" xlink:href="#DejaVuSans-34"/></g></g><g id="line2d_29"><path d="M 908.42 183.797875 L 948.42 183.797875" style="fill:none;stroke:#9467bd;stroke-linecap:square;stroke-width:1.5"/></g><g id="text_22"><g transform="translate(964.42 190.797875)scale(0.2 -0.2)"><use transform="translate(0 0.3125)" xlink:href="#DejaVuSans-Oblique-75"/><use transform="translate(63.378906 -16.09375)scale(0.7)" xlink:href="#DejaVuSans-35"/></g></g></g></g><g id="axes_2"><g id="matplotlib.axis_3"><g id="ytick_10"><g id="line2d_31"><defs><path id="m136146fa5b" d="M 0 0 L 3.5 0" style="stroke:orange;stroke-width:.8"/></defs><g><use style="fill:orange;stroke:orange;stroke-width:.8" x="1004.62" y="635.759" xlink:href="#m136146fa5b"/></g></g><g id="text_23"><g style="fill:orange" transform="translate(1011.62 641.457971)scale(0.15 -0.15)"><use xlink:href="#DejaVuSans-30"/><use x="63.623" xlink:href="#DejaVuSans-2e"/><use x="95.41" xlink:href="#DejaVuSans-30"/><use x="159.033" xlink:href="#DejaVuSans-30"/></g></g></g><g id="ytick_11"><g id="line2d_32"><g><use style="fill:orange;stroke:orange;stroke-width:.8" x="1004.62" y="557.528" xlink:href="#m136146fa5b"/></g></g><g id="text_24"><g style="fill:orange" transform="translate(1011.62 563.226687)scale(0.15 -0.15)"><use xlink:href="#DejaVuSans-30"/><use x="63.623" xlink:href="#DejaVuSans-2e"/><use x="95.41" xlink:href="#DejaVuSans-32"/><use x="159.033" xlink:href="#DejaVuSans-35"/></g></g></g><g id="ytick_12"><g id="line2d_33"><g><use style="fill:orange;stroke:orange;stroke-width:.8" x="1004.62" y="479.297" xlink:href="#m136146fa5b"/></g></g><g id="text_25"><g style="fill:orange" transform="translate(1011.62 484.995404)scale(0.15 -0.15)"><use xlink:href="#DejaVuSans-30"/><use x="63.623" xlink:href="#DejaVuSans-2e"/><use x="95.41" xlink:href="#DejaVuSans-35"/><use x="159.033" xlink:href="#DejaVuSans-30"/></g></g></g><g id="ytick_13"><g id="line2d_34"><g><use style="fill:orange;stroke:orange;stroke-width:.8" x="1004.62" y="401.065" xlink:href="#m136146fa5b"/></g></g><g id="text_26"><g style="fill:orange" transform="translate(1011.62 406.76412)scale(0.15 -0.15)"><use xlink:href="#DejaVuSans-30"/><use x="63.623" xlink:href="#DejaVuSans-2e"/><use x="95.41" xlink:href="#DejaVuSans-37"/><use x="159.033" xlink:href="#DejaVuSans-35"/></g></g></g><g id="ytick_14"><g id="line2d_35"><g><use style="fill:orange;stroke:orange;stroke-width:.8" x="1004.62" y="322.834" xlink:href="#m136146fa5b"/></g></g><g id="text_27"><g style="fill:orange" transform="translate(1011.62 328.532837)scale(0.15 -0.15)"><use xlink:href="#DejaVuSans-31"/><use x="63.623" xlink:href="#DejaVuSans-2e"/><use x="95.41" xlink:href="#DejaVuSans-30"/><use x="159.033" xlink:href="#DejaVuSans-30"/></g></g></g><g id="ytick_15"><g id="line2d_36"><g><use style="fill:orange;stroke:orange;stroke-width:.8" x="1004.62" y="244.603" xlink:href="#m136146fa5b"/></g></g><g id="text_28"><g style="fill:orange" transform="translate(1011.62 250.301554)scale(0.15 -0.15)"><use xlink:href="#DejaVuSans-31"/><use x="63.623" xlink:href="#DejaVuSans-2e"/><use x="95.41" xlink:href="#DejaVuSans-32"/><use x="159.033" xlink:href="#DejaVuSans-35"/></g></g></g><g id="ytick_16"><g id="line2d_37"><g><use style="fill:orange;stroke:orange;stroke-width:.8" x="1004.62" y="166.371" xlink:href="#m136146fa5b"/></g></g><g id="text_29"><g style="fill:orange" transform="translate(1011.62 172.07027)scale(0.15 -0.15)"><use xlink:href="#DejaVuSans-31"/><use x="63.623" xlink:href="#DejaVuSans-2e"/><use x="95.41" xlink:href="#DejaVuSans-35"/><use x="159.033" xlink:href="#DejaVuSans-30"/></g></g></g><g id="ytick_17"><g id="line2d_38"><g><use style="fill:orange;stroke:orange;stroke-width:.8" x="1004.62" y="88.14" xlink:href="#m136146fa5b"/></g></g><g id="text_30"><g style="fill:orange" transform="translate(1011.62 93.838987)scale(0.15 -0.15)"><use xlink:href="#DejaVuSans-31"/><use x="63.623" xlink:href="#DejaVuSans-2e"/><use x="95.41" xlink:href="#DejaVuSans-37"/><use x="159.033" xlink:href="#DejaVuSans-35"/></g></g></g><g id="text_31"><g style="fill:orange" transform="translate(1064.215312 361.248)rotate(-90)scale(0.2 -0.2)"><defs><path id="DejaVuSans-Oblique-76" d="M 459 3500 L 1069 3500 L 1581 525 L 3256 3500 L 3866 3500 L 1875 0 L 1100 0 L 459 3500 z" transform="scale(0.015625)"/></defs><use transform="translate(0 0.3125)" xlink:href="#DejaVuSans-Oblique-76"/><use transform="translate(59.179688 -16.09375)scale(0.7)" xlink:href="#DejaVuSans-Oblique-72"/></g></g></g><g id="line2d_39"><path d="M 138.694545 68.537091 L 142.818 105.609631 L 146.941455 140.536351 L 151.064909 173.432053 L 155.188364 204.405606 L 159.311818 233.560245 L 163.435273 260.993855 L 167.558727 286.79925 L 171.682182 311.064426 L 175.805636 333.872807 L 179.929091 355.303481 L 184.052545 375.43142 L 188.176 394.327689 L 192.299455 412.059645 L 196.422909 428.691129 L 200.546364 444.282644 L 204.669818 458.891527 L 208.793273 472.572109 L 212.916727 485.37587 L 217.040182 497.351586 L 221.163636 508.545467 L 225.287091 519.001286 L 229.410545 528.760511 L 233.534 537.862414 L 237.657455 546.344193 L 241.780909 554.241072 L 245.904364 561.586406 L 250.027818 568.411776 L 254.151273 574.747082 L 258.274727 580.620627 L 262.398182 586.059203 L 266.521636 591.088167 L 270.645091 595.731512 L 274.768545 600.011946 L 278.892 603.950951 L 283.015455 607.568849 L 287.138909 610.884864 L 291.262364 613.917175 L 295.385818 616.682976 L 299.509273 619.198522 L 303.632727 621.479181 L 307.756182 623.539479 L 312.704327 625.740237 L 317.652473 627.665698 L 322.600618 629.336687 L 327.548764 630.772649 L 332.496909 631.991742 L 338.269745 633.162459 L 344.042582 634.085977 L 349.815418 634.785316 L 356.412945 635.337193 L 363.010473 635.652926 L 369.608 635.758909 L 377.030218 635.657216 L 385.277127 635.305858 L 394.348727 634.67291 L 404.245018 633.738074 L 414.966 632.493461 L 427.336364 630.826059 L 442.1808 628.590406 L 461.973382 625.365709 L 536.195564 613.049603 L 558.462218 609.697105 L 579.079491 606.812298 L 599.696764 604.15013 L 620.314036 601.712107 L 640.931309 599.493136 L 662.373273 597.407585 L 684.639927 595.467046 L 707.731273 593.678732 L 731.647309 592.045845 L 757.212727 590.522207 L 784.427527 589.123554 L 814.1164 587.826695 L 846.279345 586.652651 L 880.916364 585.61391 L 919.676836 584.679487 L 963.385455 583.856921 L 963.385455 583.856921" clip-path="url(#p1450f638c6)" style="fill:none;stroke:#000;stroke-dasharray:3.7,1.6;stroke-dashoffset:0"/></g><g id="patch_8"><path d="M 97.46 664.12 L 97.46 40.176" style="fill:none;stroke:#000;stroke-linecap:square;stroke-linejoin:miter;stroke-width:.8"/></g><g id="patch_9"><path d="M 1004.62 664.12 L 1004.62 40.176" style="fill:none;stroke:#000;stroke-linecap:square;stroke-linejoin:miter;stroke-width:.8"/></g><g id="patch_10"><path d="M 97.46 664.12 L 1004.62 664.12" style="fill:none;stroke:#000;stroke-linecap:square;stroke-linejoin:miter;stroke-width:.8"/></g><g id="patch_11"><path d="M 97.46 40.176 L 1004.62 40.176" style="fill:none;stroke:#000;stroke-linecap:square;stroke-linejoin:miter;stroke-width:.8"/></g><g id="text_32"><g transform="translate(485.34 33.936937)scale(0.3 -0.3)"><defs><path id="DejaVuSans-20" transform="scale(0.015625)"/><path id="DejaVuSans-61" d="M 2194 1759 Q 1497 1759 1228 1600 Q 959 1441 959 1056 Q 959 750 1161 570 Q 1363 391 1709 391 Q 2188 391 2477 730 Q 2766 1069 2766 1631 L 2766 1759 L 2194 1759 z M 3341 1997 L 3341 0 L 2766 0 L 2766 531 Q 2569 213 2275 61 Q 1981 -91 1556 -91 Q 1019 -91 701 211 Q 384 513 384 1019 Q 384 1609 779 1909 Q 1175 2209 1959 2209 L 2766 2209 L 2766 2266 Q 2766 2663 2505 2880 Q 2244 3097 1772 3097 Q 1472 3097 1187 3025 Q 903 2953 641 2809 L 641 3341 Q 956 3463 1253 3523 Q 1550 3584 1831 3584 Q 2591 3584 2966 3190 Q 3341 2797 3341 1997 z" transform="scale(0.015625)"/><path id="DejaVuSans-6e" d="M 3513 2113 L 3513 0 L 2938 0 L 2938 2094 Q 2938 2591 2744 2837 Q 2550 3084 2163 3084 Q 1697 3084 1428 2787 Q 1159 2491 1159 1978 L 1159 0 L 581 0 L 581 3500 L 1159 3500 L 1159 2956 Q 1366 3272 1645 3428 Q 1925 3584 2291 3584 Q 2894 3584 3203 3211 Q 3513 2838 3513 2113 z" transform="scale(0.015625)"/><path id="DejaVuSans-64" d="M 2906 2969 L 2906 4863 L 3481 4863 L 3481 0 L 2906 0 L 2906 525 Q 2725 213 2448 61 Q 2172 -91 1784 -91 Q 1150 -91 751 415 Q 353 922 353 1747 Q 353 2572 751 3078 Q 1150 3584 1784 3584 Q 2172 3584 2448 3432 Q 2725 3281 2906 2969 z M 947 1747 Q 947 1113 1208 752 Q 1469 391 1925 391 Q 2381 391 2643 752 Q 2906 1113 2906 1747 Q 2906 2381 2643 2742 Q 2381 3103 1925 3103 Q 1469 3103 1208 2742 Q 947 2381 947 1747 z" transform="scale(0.015625)"/></defs><use transform="translate(0 0.015625)" xlink:href="#DejaVuSans-Oblique-75"/><use transform="translate(63.378906 -16.390625)scale(0.7)" xlink:href="#DejaVuSans-Oblique-72"/><use transform="translate(94.892578 0.015625)" xlink:href="#DejaVuSans-20"/><use transform="translate(126.679688 0.015625)" xlink:href="#DejaVuSans-61"/><use transform="translate(187.958984 0.015625)" xlink:href="#DejaVuSans-6e"/><use transform="translate(251.337891 0.015625)" xlink:href="#DejaVuSans-64"/><use transform="translate(314.814453 0.015625)" xlink:href="#DejaVuSans-20"/><use transform="translate(346.601562 0.015625)" xlink:href="#DejaVuSans-Oblique-76"/><use transform="translate(405.78125 -16.390625)scale(0.7)" xlink:href="#DejaVuSans-Oblique-72"/></g></g><g id="legend_2"><g id="patch_12"><path d="M 111.46 85.53225 L 193.66 85.53225 Q 197.66 85.53225 197.66 81.53225 L 197.66 54.176 Q 197.66 50.176 193.66 50.176 L 111.46 50.176 Q 107.46 50.176 107.46 54.176 L 107.46 81.53225 Q 107.46 85.53225 111.46 85.53225 z" style="fill:#fff;opacity:.8;stroke:#ccc;stroke-linejoin:miter"/></g><g id="line2d_40"><path d="M 115.46 66.372875 L 155.46 66.372875" style="fill:none;stroke:#000;stroke-dasharray:3.7,1.6;stroke-dashoffset:0"/></g><g id="text_33"><g transform="translate(171.46 73.372875)scale(0.2 -0.2)"><use transform="translate(0 0.3125)" xlink:href="#DejaVuSans-Oblique-76"/><use transform="translate(59.179688 -16.09375)scale(0.7)" xlink:href="#DejaVuSans-Oblique-72"/></g></g></g></g></g><defs><clipPath id="p1450f638c6"><rect width="907.16" height="623.944" x="97.46" y="40.176"/></clipPath></defs></svg>