<svg xmlns="http://www.w3.org/2000/svg" xmlns:xlink="http://www.w3.org/1999/xlink" width="720" height="720" version="1.1" viewBox="0 0 540 540"><metadata><rdf:RDF xmlns:cc="http://creativecommons.org/ns#" xmlns:dc="http://purl.org/dc/elements/1.1/" xmlns:rdf="http://www.w3.org/1999/02/22-rdf-syntax-ns#"><cc:Work><dc:type rdf:resource="http://purl.org/dc/dcmitype/StillImage"/><dc:date>2022-03-18T14:38:51.722448</dc:date><dc:format>image/svg+xml</dc:format><dc:creator><cc:Agent><dc:title>Matplotlib v3.4.3, https://matplotlib.org/</dc:title></cc:Agent></dc:creator></cc:Work></rdf:RDF></metadata><defs><style type="text/css">*{stroke-linecap:butt;stroke-linejoin:round}</style></defs><g id="figure_1"><g id="patch_1"><path d="M 0 540 L 540 540 L 540 0 L 0 0 z" style="fill:#fff"/></g><g id="axes_1"><g id="patch_2"><path d="M 39.02 502.36 L 529.2 502.36 L 529.2 10.8 L 39.02 10.8 z" style="fill:#fff"/></g><g id="PathCollection_1"><defs><path id="m4f7e2f0023" d="M 0 1.414214 C 0.375054 1.414214 0.734797 1.265203 1 1 C 1.265203 0.734797 1.414214 0.375054 1.414214 0 C 1.414214 -0.375054 1.265203 -0.734797 1 -1 C 0.734797 -1.265203 0.375054 -1.414214 0 -1.414214 C -0.375054 -1.414214 -0.734797 -1.265203 -1 -1 C -1.265203 -0.734797 -1.414214 -0.375054 -1.414214 0 C -1.414214 0.375054 -1.265203 0.734797 -1 1 C -0.734797 1.265203 -0.375054 1.414214 0 1.414214 z" style="stroke:#1f77b4"/></defs><g clip-path="url(#pc450e5b8d8)"><use style="fill:#1f77b4;stroke:#1f77b4" x="61.301" y="479.978" xlink:href="#m4f7e2f0023"/><use style="fill:#1f77b4;stroke:#1f77b4" x="124.961" y="480.016" xlink:href="#m4f7e2f0023"/><use style="fill:#1f77b4;stroke:#1f77b4" x="188.62" y="480.01" xlink:href="#m4f7e2f0023"/><use style="fill:#1f77b4;stroke:#1f77b4" x="252.28" y="479.938" xlink:href="#m4f7e2f0023"/><use style="fill:#1f77b4;stroke:#1f77b4" x="315.94" y="479.352" xlink:href="#m4f7e2f0023"/><use style="fill:#1f77b4;stroke:#1f77b4" x="379.6" y="474.809" xlink:href="#m4f7e2f0023"/><use style="fill:#1f77b4;stroke:#1f77b4" x="443.259" y="432.184" xlink:href="#m4f7e2f0023"/><use style="fill:#1f77b4;stroke:#1f77b4" x="506.919" y="33.144" xlink:href="#m4f7e2f0023"/></g></g><g id="PathCollection_2"><defs><path id="m45a9c9c2bf" d="M 0 1.414214 C 0.375054 1.414214 0.734797 1.265203 1 1 C 1.265203 0.734797 1.414214 0.375054 1.414214 0 C 1.414214 -0.375054 1.265203 -0.734797 1 -1 C 0.734797 -1.265203 0.375054 -1.414214 0 -1.414214 C -0.375054 -1.414214 -0.734797 -1.265203 -1 -1 C -1.265203 -0.734797 -1.414214 -0.375054 -1.414214 0 C -1.414214 0.375054 -1.265203 0.734797 -1 1 C -0.734797 1.265203 -0.375054 1.414214 0 1.414214 z" style="stroke:#ff7f0e"/></defs><g clip-path="url(#pc450e5b8d8)"><use style="fill:#ff7f0e;stroke:#ff7f0e" x="61.301" y="480.016" xlink:href="#m45a9c9c2bf"/><use style="fill:#ff7f0e;stroke:#ff7f0e" x="124.961" y="480.016" xlink:href="#m45a9c9c2bf"/><use style="fill:#ff7f0e;stroke:#ff7f0e" x="188.62" y="480.011" xlink:href="#m45a9c9c2bf"/><use style="fill:#ff7f0e;stroke:#ff7f0e" x="252.28" y="479.956" xlink:href="#m45a9c9c2bf"/><use style="fill:#ff7f0e;stroke:#ff7f0e" x="315.94" y="479.61" xlink:href="#m45a9c9c2bf"/><use style="fill:#ff7f0e;stroke:#ff7f0e" x="379.6" y="476.496" xlink:href="#m45a9c9c2bf"/><use style="fill:#ff7f0e;stroke:#ff7f0e" x="443.259" y="446.507" xlink:href="#m45a9c9c2bf"/><use style="fill:#ff7f0e;stroke:#ff7f0e" x="506.919" y="143.017" xlink:href="#m45a9c9c2bf"/></g></g><g id="PathCollection_3"><defs><path id="maf65fd07e2" d="M 0 1.414214 C 0.375054 1.414214 0.734797 1.265203 1 1 C 1.265203 0.734797 1.414214 0.375054 1.414214 0 C 1.414214 -0.375054 1.265203 -0.734797 1 -1 C 0.734797 -1.265203 0.375054 -1.414214 0 -1.414214 C -0.375054 -1.414214 -0.734797 -1.265203 -1 -1 C -1.265203 -0.734797 -1.414214 -0.375054 -1.414214 0 C -1.414214 0.375054 -1.265203 0.734797 -1 1 C -0.734797 1.265203 -0.375054 1.414214 0 1.414214 z" style="stroke:#2ca02c"/></defs><g clip-path="url(#pc450e5b8d8)"><use style="fill:#2ca02c;stroke:#2ca02c" x="61.301" y="480.015" xlink:href="#maf65fd07e2"/><use style="fill:#2ca02c;stroke:#2ca02c" x="124.961" y="480.016" xlink:href="#maf65fd07e2"/><use style="fill:#2ca02c;stroke:#2ca02c" x="188.62" y="480.01" xlink:href="#maf65fd07e2"/><use style="fill:#2ca02c;stroke:#2ca02c" x="252.28" y="479.98" xlink:href="#maf65fd07e2"/><use style="fill:#2ca02c;stroke:#2ca02c" x="315.94" y="479.639" xlink:href="#maf65fd07e2"/><use style="fill:#2ca02c;stroke:#2ca02c" x="379.6" y="475.967" xlink:href="#maf65fd07e2"/><use style="fill:#2ca02c;stroke:#2ca02c" x="443.259" y="443.173" xlink:href="#maf65fd07e2"/><use style="fill:#2ca02c;stroke:#2ca02c" x="506.919" y="164.321" xlink:href="#maf65fd07e2"/></g></g><g id="matplotlib.axis_1"><g id="xtick_1"><g id="line2d_1"><path d="M 61.300909 502.36 L 61.300909 10.8" clip-path="url(#pc450e5b8d8)" style="fill:none;stroke:#b0b0b0;stroke-linecap:square;stroke-width:.8"/></g><g id="line2d_2"><defs><path id="m4dba3ac42b" d="M 0 0 L 0 3.5" style="stroke:#000;stroke-width:.8"/></defs><g><use style="stroke:#000;stroke-width:.8" x="61.301" y="502.36" xlink:href="#m4dba3ac42b"/></g></g><g id="text_1"><g transform="translate(57.483409 513.919062)scale(0.06 -0.06)"><defs><path id="DejaVuSans-31" d="M 794 531 L 1825 531 L 1825 4091 L 703 3866 L 703 4441 L 1819 4666 L 2450 4666 L 2450 531 L 3481 531 L 3481 0 L 794 0 L 794 531 z" transform="scale(0.015625)"/><path id="DejaVuSans-30" d="M 2034 4250 Q 1547 4250 1301 3770 Q 1056 3291 1056 2328 Q 1056 1369 1301 889 Q 1547 409 2034 409 Q 2525 409 2770 889 Q 3016 1369 3016 2328 Q 3016 3291 2770 3770 Q 2525 4250 2034 4250 z M 2034 4750 Q 2819 4750 3233 4129 Q 3647 3509 3647 2328 Q 3647 1150 3233 529 Q 2819 -91 2034 -91 Q 1250 -91 836 529 Q 422 1150 422 2328 Q 422 3509 836 4129 Q 1250 4750 2034 4750 z" transform="scale(0.015625)"/></defs><use xlink:href="#DejaVuSans-31"/><use x="63.623" xlink:href="#DejaVuSans-30"/></g></g></g><g id="xtick_2"><g id="line2d_3"><path d="M 124.960649 502.36 L 124.960649 10.8" clip-path="url(#pc450e5b8d8)" style="fill:none;stroke:#b0b0b0;stroke-linecap:square;stroke-width:.8"/></g><g id="line2d_4"><g><use style="stroke:#000;stroke-width:.8" x="124.961" y="502.36" xlink:href="#m4dba3ac42b"/></g></g><g id="text_2"><g transform="translate(119.234399 513.919062)scale(0.06 -0.06)"><use xlink:href="#DejaVuSans-31"/><use x="63.623" xlink:href="#DejaVuSans-30"/><use x="127.246" xlink:href="#DejaVuSans-30"/></g></g></g><g id="xtick_3"><g id="line2d_5"><path d="M 188.62039 502.36 L 188.62039 10.8" clip-path="url(#pc450e5b8d8)" style="fill:none;stroke:#b0b0b0;stroke-linecap:square;stroke-width:.8"/></g><g id="line2d_6"><g><use style="stroke:#000;stroke-width:.8" x="188.62" y="502.36" xlink:href="#m4dba3ac42b"/></g></g><g id="text_3"><g transform="translate(180.98539 513.919062)scale(0.06 -0.06)"><use xlink:href="#DejaVuSans-31"/><use x="63.623" xlink:href="#DejaVuSans-30"/><use x="127.246" xlink:href="#DejaVuSans-30"/><use x="190.869" xlink:href="#DejaVuSans-30"/></g></g></g><g id="xtick_4"><g id="line2d_7"><path d="M 252.28013 502.36 L 252.28013 10.8" clip-path="url(#pc450e5b8d8)" style="fill:none;stroke:#b0b0b0;stroke-linecap:square;stroke-width:.8"/></g><g id="line2d_8"><g><use style="stroke:#000;stroke-width:.8" x="252.28" y="502.36" xlink:href="#m4dba3ac42b"/></g></g><g id="text_4"><g transform="translate(242.73638 513.919062)scale(0.06 -0.06)"><use xlink:href="#DejaVuSans-31"/><use x="63.623" xlink:href="#DejaVuSans-30"/><use x="127.246" xlink:href="#DejaVuSans-30"/><use x="190.869" xlink:href="#DejaVuSans-30"/><use x="254.492" xlink:href="#DejaVuSans-30"/></g></g></g><g id="xtick_5"><g id="line2d_9"><path d="M 315.93987 502.36 L 315.93987 10.8" clip-path="url(#pc450e5b8d8)" style="fill:none;stroke:#b0b0b0;stroke-linecap:square;stroke-width:.8"/></g><g id="line2d_10"><g><use style="stroke:#000;stroke-width:.8" x="315.94" y="502.36" xlink:href="#m4dba3ac42b"/></g></g><g id="text_5"><g transform="translate(304.48737 513.919062)scale(0.06 -0.06)"><use xlink:href="#DejaVuSans-31"/><use x="63.623" xlink:href="#DejaVuSans-30"/><use x="127.246" xlink:href="#DejaVuSans-30"/><use x="190.869" xlink:href="#DejaVuSans-30"/><use x="254.492" xlink:href="#DejaVuSans-30"/><use x="318.115" xlink:href="#DejaVuSans-30"/></g></g></g><g id="xtick_6"><g id="line2d_11"><path d="M 379.59961 502.36 L 379.59961 10.8" clip-path="url(#pc450e5b8d8)" style="fill:none;stroke:#b0b0b0;stroke-linecap:square;stroke-width:.8"/></g><g id="line2d_12"><g><use style="stroke:#000;stroke-width:.8" x="379.6" y="502.36" xlink:href="#m4dba3ac42b"/></g></g><g id="text_6"><g transform="translate(366.23836 513.919062)scale(0.06 -0.06)"><use xlink:href="#DejaVuSans-31"/><use x="63.623" xlink:href="#DejaVuSans-30"/><use x="127.246" xlink:href="#DejaVuSans-30"/><use x="190.869" xlink:href="#DejaVuSans-30"/><use x="254.492" xlink:href="#DejaVuSans-30"/><use x="318.115" xlink:href="#DejaVuSans-30"/><use x="381.738" xlink:href="#DejaVuSans-30"/></g></g></g><g id="xtick_7"><g id="line2d_13"><path d="M 443.259351 502.36 L 443.259351 10.8" clip-path="url(#pc450e5b8d8)" style="fill:none;stroke:#b0b0b0;stroke-linecap:square;stroke-width:.8"/></g><g id="line2d_14"><g><use style="stroke:#000;stroke-width:.8" x="443.259" y="502.36" xlink:href="#m4dba3ac42b"/></g></g><g id="text_7"><g transform="translate(427.989351 513.919062)scale(0.06 -0.06)"><use xlink:href="#DejaVuSans-31"/><use x="63.623" xlink:href="#DejaVuSans-30"/><use x="127.246" xlink:href="#DejaVuSans-30"/><use x="190.869" xlink:href="#DejaVuSans-30"/><use x="254.492" xlink:href="#DejaVuSans-30"/><use x="318.115" xlink:href="#DejaVuSans-30"/><use x="381.738" xlink:href="#DejaVuSans-30"/><use x="445.361" xlink:href="#DejaVuSans-30"/></g></g></g><g id="xtick_8"><g id="line2d_15"><path d="M 506.919091 502.36 L 506.919091 10.8" clip-path="url(#pc450e5b8d8)" style="fill:none;stroke:#b0b0b0;stroke-linecap:square;stroke-width:.8"/></g><g id="line2d_16"><g><use style="stroke:#000;stroke-width:.8" x="506.919" y="502.36" xlink:href="#m4dba3ac42b"/></g></g><g id="text_8"><g transform="translate(489.740341 513.919062)scale(0.06 -0.06)"><use xlink:href="#DejaVuSans-31"/><use x="63.623" xlink:href="#DejaVuSans-30"/><use x="127.246" xlink:href="#DejaVuSans-30"/><use x="190.869" xlink:href="#DejaVuSans-30"/><use x="254.492" xlink:href="#DejaVuSans-30"/><use x="318.115" xlink:href="#DejaVuSans-30"/><use x="381.738" xlink:href="#DejaVuSans-30"/><use x="445.361" xlink:href="#DejaVuSans-30"/><use x="508.984" xlink:href="#DejaVuSans-30"/></g></g></g><g id="text_9"><g transform="translate(280.369375 526.765312)scale(0.1 -0.1)"><defs><path id="DejaVuSans-4e" d="M 628 4666 L 1478 4666 L 3547 763 L 3547 4666 L 4159 4666 L 4159 0 L 3309 0 L 1241 3903 L 1241 0 L 628 0 L 628 4666 z" transform="scale(0.015625)"/></defs><use xlink:href="#DejaVuSans-4e"/></g></g></g><g id="matplotlib.axis_2"><g id="ytick_1"><g id="line2d_17"><path d="M 39.02 480.016438 L 529.2 480.016438" clip-path="url(#pc450e5b8d8)" style="fill:none;stroke:#b0b0b0;stroke-linecap:square;stroke-width:.8"/></g><g id="line2d_18"><defs><path id="m9e701f611a" d="M 0 0 L -3.5 0" style="stroke:#000;stroke-width:.8"/></defs><g><use style="stroke:#000;stroke-width:.8" x="39.02" y="480.016" xlink:href="#m9e701f611a"/></g></g><g id="text_10"><g transform="translate(28.2025 482.295969)scale(0.06 -0.06)"><use xlink:href="#DejaVuSans-30"/></g></g></g><g id="ytick_2"><g id="line2d_19"><path d="M 39.02 409.1498 L 529.2 409.1498" clip-path="url(#pc450e5b8d8)" style="fill:none;stroke:#b0b0b0;stroke-linecap:square;stroke-width:.8"/></g><g id="line2d_20"><g><use style="stroke:#000;stroke-width:.8" x="39.02" y="409.15" xlink:href="#m9e701f611a"/></g></g><g id="text_11"><g transform="translate(28.2025 411.429331)scale(0.06 -0.06)"><defs><path id="DejaVuSans-32" d="M 1228 531 L 3431 531 L 3431 0 L 469 0 L 469 531 Q 828 903 1448 1529 Q 2069 2156 2228 2338 Q 2531 2678 2651 2914 Q 2772 3150 2772 3378 Q 2772 3750 2511 3984 Q 2250 4219 1831 4219 Q 1534 4219 1204 4116 Q 875 4013 500 3803 L 500 4441 Q 881 4594 1212 4672 Q 1544 4750 1819 4750 Q 2544 4750 2975 4387 Q 3406 4025 3406 3419 Q 3406 3131 3298 2873 Q 3191 2616 2906 2266 Q 2828 2175 2409 1742 Q 1991 1309 1228 531 z" transform="scale(0.015625)"/></defs><use xlink:href="#DejaVuSans-32"/></g></g></g><g id="ytick_3"><g id="line2d_21"><path d="M 39.02 338.283161 L 529.2 338.283161" clip-path="url(#pc450e5b8d8)" style="fill:none;stroke:#b0b0b0;stroke-linecap:square;stroke-width:.8"/></g><g id="line2d_22"><g><use style="stroke:#000;stroke-width:.8" x="39.02" y="338.283" xlink:href="#m9e701f611a"/></g></g><g id="text_12"><g transform="translate(28.2025 340.562692)scale(0.06 -0.06)"><defs><path id="DejaVuSans-34" d="M 2419 4116 L 825 1625 L 2419 1625 L 2419 4116 z M 2253 4666 L 3047 4666 L 3047 1625 L 3713 1625 L 3713 1100 L 3047 1100 L 3047 0 L 2419 0 L 2419 1100 L 313 1100 L 313 1709 L 2253 4666 z" transform="scale(0.015625)"/></defs><use xlink:href="#DejaVuSans-34"/></g></g></g><g id="ytick_4"><g id="line2d_23"><path d="M 39.02 267.416522 L 529.2 267.416522" clip-path="url(#pc450e5b8d8)" style="fill:none;stroke:#b0b0b0;stroke-linecap:square;stroke-width:.8"/></g><g id="line2d_24"><g><use style="stroke:#000;stroke-width:.8" x="39.02" y="267.417" xlink:href="#m9e701f611a"/></g></g><g id="text_13"><g transform="translate(28.2025 269.696054)scale(0.06 -0.06)"><defs><path id="DejaVuSans-36" d="M 2113 2584 Q 1688 2584 1439 2293 Q 1191 2003 1191 1497 Q 1191 994 1439 701 Q 1688 409 2113 409 Q 2538 409 2786 701 Q 3034 994 3034 1497 Q 3034 2003 2786 2293 Q 2538 2584 2113 2584 z M 3366 4563 L 3366 3988 Q 3128 4100 2886 4159 Q 2644 4219 2406 4219 Q 1781 4219 1451 3797 Q 1122 3375 1075 2522 Q 1259 2794 1537 2939 Q 1816 3084 2150 3084 Q 2853 3084 3261 2657 Q 3669 2231 3669 1497 Q 3669 778 3244 343 Q 2819 -91 2113 -91 Q 1303 -91 875 529 Q 447 1150 447 2328 Q 447 3434 972 4092 Q 1497 4750 2381 4750 Q 2619 4750 2861 4703 Q 3103 4656 3366 4563 z" transform="scale(0.015625)"/></defs><use xlink:href="#DejaVuSans-36"/></g></g></g><g id="ytick_5"><g id="line2d_25"><path d="M 39.02 196.549884 L 529.2 196.549884" clip-path="url(#pc450e5b8d8)" style="fill:none;stroke:#b0b0b0;stroke-linecap:square;stroke-width:.8"/></g><g id="line2d_26"><g><use style="stroke:#000;stroke-width:.8" x="39.02" y="196.55" xlink:href="#m9e701f611a"/></g></g><g id="text_14"><g transform="translate(28.2025 198.829415)scale(0.06 -0.06)"><defs><path id="DejaVuSans-38" d="M 2034 2216 Q 1584 2216 1326 1975 Q 1069 1734 1069 1313 Q 1069 891 1326 650 Q 1584 409 2034 409 Q 2484 409 2743 651 Q 3003 894 3003 1313 Q 3003 1734 2745 1975 Q 2488 2216 2034 2216 z M 1403 2484 Q 997 2584 770 2862 Q 544 3141 544 3541 Q 544 4100 942 4425 Q 1341 4750 2034 4750 Q 2731 4750 3128 4425 Q 3525 4100 3525 3541 Q 3525 3141 3298 2862 Q 3072 2584 2669 2484 Q 3125 2378 3379 2068 Q 3634 1759 3634 1313 Q 3634 634 3220 271 Q 2806 -91 2034 -91 Q 1263 -91 848 271 Q 434 634 434 1313 Q 434 1759 690 2068 Q 947 2378 1403 2484 z M 1172 3481 Q 1172 3119 1398 2916 Q 1625 2713 2034 2713 Q 2441 2713 2670 2916 Q 2900 3119 2900 3481 Q 2900 3844 2670 4047 Q 2441 4250 2034 4250 Q 1625 4250 1398 4047 Q 1172 3844 1172 3481 z" transform="scale(0.015625)"/></defs><use xlink:href="#DejaVuSans-38"/></g></g></g><g id="ytick_6"><g id="line2d_27"><path d="M 39.02 125.683245 L 529.2 125.683245" clip-path="url(#pc450e5b8d8)" style="fill:none;stroke:#b0b0b0;stroke-linecap:square;stroke-width:.8"/></g><g id="line2d_28"><g><use style="stroke:#000;stroke-width:.8" x="39.02" y="125.683" xlink:href="#m9e701f611a"/></g></g><g id="text_15"><g transform="translate(24.385 127.962777)scale(0.06 -0.06)"><use xlink:href="#DejaVuSans-31"/><use x="63.623" xlink:href="#DejaVuSans-30"/></g></g></g><g id="ytick_7"><g id="line2d_29"><path d="M 39.02 54.816607 L 529.2 54.816607" clip-path="url(#pc450e5b8d8)" style="fill:none;stroke:#b0b0b0;stroke-linecap:square;stroke-width:.8"/></g><g id="line2d_30"><g><use style="stroke:#000;stroke-width:.8" x="39.02" y="54.817" xlink:href="#m9e701f611a"/></g></g><g id="text_16"><g transform="translate(24.385 57.096138)scale(0.06 -0.06)"><use xlink:href="#DejaVuSans-31"/><use x="63.623" xlink:href="#DejaVuSans-32"/></g></g></g><g id="text_17"><g transform="translate(18.305312 268.813594)rotate(-90)scale(0.1 -0.1)"><defs><path id="DejaVuSans-54" d="M -19 4666 L 3928 4666 L 3928 4134 L 2272 4134 L 2272 0 L 1638 0 L 1638 4134 L -19 4134 L -19 4666 z" transform="scale(0.015625)"/><path id="DejaVuSans-69" d="M 603 3500 L 1178 3500 L 1178 0 L 603 0 L 603 3500 z M 603 4863 L 1178 4863 L 1178 4134 L 603 4134 L 603 4863 z" transform="scale(0.015625)"/><path id="DejaVuSans-6d" d="M 3328 2828 Q 3544 3216 3844 3400 Q 4144 3584 4550 3584 Q 5097 3584 5394 3201 Q 5691 2819 5691 2113 L 5691 0 L 5113 0 L 5113 2094 Q 5113 2597 4934 2840 Q 4756 3084 4391 3084 Q 3944 3084 3684 2787 Q 3425 2491 3425 1978 L 3425 0 L 2847 0 L 2847 2094 Q 2847 2600 2669 2842 Q 2491 3084 2119 3084 Q 1678 3084 1418 2786 Q 1159 2488 1159 1978 L 1159 0 L 581 0 L 581 3500 L 1159 3500 L 1159 2956 Q 1356 3278 1631 3431 Q 1906 3584 2284 3584 Q 2666 3584 2933 3390 Q 3200 3197 3328 2828 z" transform="scale(0.015625)"/><path id="DejaVuSans-65" d="M 3597 1894 L 3597 1613 L 953 1613 Q 991 1019 1311 708 Q 1631 397 2203 397 Q 2534 397 2845 478 Q 3156 559 3463 722 L 3463 178 Q 3153 47 2828 -22 Q 2503 -91 2169 -91 Q 1331 -91 842 396 Q 353 884 353 1716 Q 353 2575 817 3079 Q 1281 3584 2069 3584 Q 2775 3584 3186 3129 Q 3597 2675 3597 1894 z M 3022 2063 Q 3016 2534 2758 2815 Q 2500 3097 2075 3097 Q 1594 3097 1305 2825 Q 1016 2553 972 2059 L 3022 2063 z" transform="scale(0.015625)"/></defs><use xlink:href="#DejaVuSans-54"/><use x="57.959" xlink:href="#DejaVuSans-69"/><use x="85.742" xlink:href="#DejaVuSans-6d"/><use x="183.154" xlink:href="#DejaVuSans-65"/></g></g></g><g id="line2d_31"><path d="M 61.300909 479.978365 L 124.960649 480.015878 L 188.62039 480.010471 L 252.28013 479.937641 L 315.93987 479.351624 L 379.59961 474.808771 L 443.259351 432.184281 L 506.919091 33.143636" clip-path="url(#pc450e5b8d8)" style="fill:none;stroke:#1f77b4;stroke-linecap:square;stroke-width:1.5"/></g><g id="line2d_32"><path d="M 61.300909 480.016364 L 124.960649 480.016052 L 188.62039 480.010971 L 252.28013 479.956198 L 315.93987 479.610376 L 379.59961 476.496035 L 443.259351 446.507134 L 506.919091 143.017445" clip-path="url(#pc450e5b8d8)" style="fill:none;stroke:#ff7f0e;stroke-linecap:square;stroke-width:1.5"/></g><g id="line2d_33"><path d="M 61.300909 480.015003 L 124.960649 480.015825 L 188.62039 480.010117 L 252.28013 479.980264 L 315.93987 479.63891 L 379.59961 475.966778 L 443.259351 443.17299 L 506.919091 164.320644" clip-path="url(#pc450e5b8d8)" style="fill:none;stroke:#2ca02c;stroke-linecap:square;stroke-width:1.5"/></g><g id="patch_3"><path d="M 39.02 502.36 L 39.02 10.8" style="fill:none;stroke:#000;stroke-linecap:square;stroke-linejoin:miter;stroke-width:.8"/></g><g id="patch_4"><path d="M 529.2 502.36 L 529.2 10.8" style="fill:none;stroke:#000;stroke-linecap:square;stroke-linejoin:miter;stroke-width:.8"/></g><g id="patch_5"><path d="M 39.02 502.36 L 529.2 502.36" style="fill:none;stroke:#000;stroke-linecap:square;stroke-linejoin:miter;stroke-width:.8"/></g><g id="patch_6"><path d="M 39.02 10.8 L 529.2 10.8" style="fill:none;stroke:#000;stroke-linecap:square;stroke-linejoin:miter;stroke-width:.8"/></g><g id="legend_1"><g id="patch_7"><path d="M 46.02 62.834375 L 138.474688 62.834375 Q 140.474688 62.834375 140.474688 60.834375 L 140.474688 17.8 Q 140.474688 15.8 138.474688 15.8 L 46.02 15.8 Q 44.02 15.8 44.02 17.8 L 44.02 60.834375 Q 44.02 62.834375 46.02 62.834375 z" style="fill:#fff;opacity:.8;stroke:#ccc;stroke-linejoin:miter"/></g><g id="line2d_34"><path d="M 48.02 23.898438 L 68.02 23.898438" style="fill:none;stroke:#1f77b4;stroke-linecap:square;stroke-width:1.5"/></g><g id="text_18"><g transform="translate(76.02 27.398438)scale(0.1 -0.1)"><defs><path id="DejaVuSans-72" d="M 2631 2963 Q 2534 3019 2420 3045 Q 2306 3072 2169 3072 Q 1681 3072 1420 2755 Q 1159 2438 1159 1844 L 1159 0 L 581 0 L 581 3500 L 1159 3500 L 1159 2956 Q 1341 3275 1631 3429 Q 1922 3584 2338 3584 Q 2397 3584 2469 3576 Q 2541 3569 2628 3553 L 2631 2963 z" transform="scale(0.015625)"/><path id="DejaVuSans-61" d="M 2194 1759 Q 1497 1759 1228 1600 Q 959 1441 959 1056 Q 959 750 1161 570 Q 1363 391 1709 391 Q 2188 391 2477 730 Q 2766 1069 2766 1631 L 2766 1759 L 2194 1759 z M 3341 1997 L 3341 0 L 2766 0 L 2766 531 Q 2569 213 2275 61 Q 1981 -91 1556 -91 Q 1019 -91 701 211 Q 384 513 384 1019 Q 384 1609 779 1909 Q 1175 2209 1959 2209 L 2766 2209 L 2766 2266 Q 2766 2663 2505 2880 Q 2244 3097 1772 3097 Q 1472 3097 1187 3025 Q 903 2953 641 2809 L 641 3341 Q 956 3463 1253 3523 Q 1550 3584 1831 3584 Q 2591 3584 2966 3190 Q 3341 2797 3341 1997 z" transform="scale(0.015625)"/><path id="DejaVuSans-70" d="M 1159 525 L 1159 -1331 L 581 -1331 L 581 3500 L 1159 3500 L 1159 2969 Q 1341 3281 1617 3432 Q 1894 3584 2278 3584 Q 2916 3584 3314 3078 Q 3713 2572 3713 1747 Q 3713 922 3314 415 Q 2916 -91 2278 -91 Q 1894 -91 1617 61 Q 1341 213 1159 525 z M 3116 1747 Q 3116 2381 2855 2742 Q 2594 3103 2138 3103 Q 1681 3103 1420 2742 Q 1159 2381 1159 1747 Q 1159 1113 1420 752 Q 1681 391 2138 391 Q 2594 391 2855 752 Q 3116 1113 3116 1747 z" transform="scale(0.015625)"/><path id="DejaVuSans-7a" d="M 353 3500 L 3084 3500 L 3084 2975 L 922 459 L 3084 459 L 3084 0 L 275 0 L 275 525 L 2438 3041 L 353 3041 L 353 3500 z" transform="scale(0.015625)"/><path id="DejaVuSans-6f" d="M 1959 3097 Q 1497 3097 1228 2736 Q 959 2375 959 1747 Q 959 1119 1226 758 Q 1494 397 1959 397 Q 2419 397 2687 759 Q 2956 1122 2956 1747 Q 2956 2369 2687 2733 Q 2419 3097 1959 3097 z M 1959 3584 Q 2709 3584 3137 3096 Q 3566 2609 3566 1747 Q 3566 888 3137 398 Q 2709 -91 1959 -91 Q 1206 -91 779 398 Q 353 888 353 1747 Q 353 2609 779 3096 Q 1206 3584 1959 3584 z" transform="scale(0.015625)"/><path id="DejaVuSans-64" d="M 2906 2969 L 2906 4863 L 3481 4863 L 3481 0 L 2906 0 L 2906 525 Q 2725 213 2448 61 Q 2172 -91 1784 -91 Q 1150 -91 751 415 Q 353 922 353 1747 Q 353 2572 751 3078 Q 1150 3584 1784 3584 Q 2172 3584 2448 3432 Q 2725 3281 2906 2969 z M 947 1747 Q 947 1113 1208 752 Q 1469 391 1925 391 Q 2381 391 2643 752 Q 2906 1113 2906 1747 Q 2906 2381 2643 2742 Q 2381 3103 1925 3103 Q 1469 3103 1208 2742 Q 947 2381 947 1747 z" transform="scale(0.015625)"/></defs><use xlink:href="#DejaVuSans-54"/><use x="46.334" xlink:href="#DejaVuSans-72"/><use x="87.447" xlink:href="#DejaVuSans-61"/><use x="148.727" xlink:href="#DejaVuSans-70"/><use x="212.203" xlink:href="#DejaVuSans-65"/><use x="273.727" xlink:href="#DejaVuSans-7a"/><use x="326.217" xlink:href="#DejaVuSans-6f"/><use x="387.398" xlink:href="#DejaVuSans-69"/><use x="415.182" xlink:href="#DejaVuSans-64"/></g></g><g id="line2d_36"><path d="M 48.02 38.576563 L 68.02 38.576563" style="fill:none;stroke:#ff7f0e;stroke-linecap:square;stroke-width:1.5"/></g><g id="text_19"><g transform="translate(76.02 42.076563)scale(0.1 -0.1)"><defs><path id="DejaVuSans-53" d="M 3425 4513 L 3425 3897 Q 3066 4069 2747 4153 Q 2428 4238 2131 4238 Q 1616 4238 1336 4038 Q 1056 3838 1056 3469 Q 1056 3159 1242 3001 Q 1428 2844 1947 2747 L 2328 2669 Q 3034 2534 3370 2195 Q 3706 1856 3706 1288 Q 3706 609 3251 259 Q 2797 -91 1919 -91 Q 1588 -91 1214 -16 Q 841 59 441 206 L 441 856 Q 825 641 1194 531 Q 1563 422 1919 422 Q 2459 422 2753 634 Q 3047 847 3047 1241 Q 3047 1584 2836 1778 Q 2625 1972 2144 2069 L 1759 2144 Q 1053 2284 737 2584 Q 422 2884 422 3419 Q 422 4038 858 4394 Q 1294 4750 2059 4750 Q 2388 4750 2728 4690 Q 3069 4631 3425 4513 z" transform="scale(0.015625)"/><path id="DejaVuSans-73" d="M 2834 3397 L 2834 2853 Q 2591 2978 2328 3040 Q 2066 3103 1784 3103 Q 1356 3103 1142 2972 Q 928 2841 928 2578 Q 928 2378 1081 2264 Q 1234 2150 1697 2047 L 1894 2003 Q 2506 1872 2764 1633 Q 3022 1394 3022 966 Q 3022 478 2636 193 Q 2250 -91 1575 -91 Q 1294 -91 989 -36 Q 684 19 347 128 L 347 722 Q 666 556 975 473 Q 1284 391 1588 391 Q 1994 391 2212 530 Q 2431 669 2431 922 Q 2431 1156 2273 1281 Q 2116 1406 1581 1522 L 1381 1569 Q 847 1681 609 1914 Q 372 2147 372 2553 Q 372 3047 722 3315 Q 1072 3584 1716 3584 Q 2034 3584 2315 3537 Q 2597 3491 2834 3397 z" transform="scale(0.015625)"/><path id="DejaVuSans-6e" d="M 3513 2113 L 3513 0 L 2938 0 L 2938 2094 Q 2938 2591 2744 2837 Q 2550 3084 2163 3084 Q 1697 3084 1428 2787 Q 1159 2491 1159 1978 L 1159 0 L 581 0 L 581 3500 L 1159 3500 L 1159 2956 Q 1366 3272 1645 3428 Q 1925 3584 2291 3584 Q 2894 3584 3203 3211 Q 3513 2838 3513 2113 z" transform="scale(0.015625)"/></defs><use xlink:href="#DejaVuSans-53"/><use x="63.477" xlink:href="#DejaVuSans-69"/><use x="91.26" xlink:href="#DejaVuSans-6d"/><use x="188.672" xlink:href="#DejaVuSans-70"/><use x="252.148" xlink:href="#DejaVuSans-73"/><use x="304.248" xlink:href="#DejaVuSans-6f"/><use x="365.43" xlink:href="#DejaVuSans-6e"/></g></g><g id="line2d_38"><path d="M 48.02 53.254687 L 68.02 53.254687" style="fill:none;stroke:#2ca02c;stroke-linecap:square;stroke-width:1.5"/></g><g id="text_20"><g transform="translate(76.02 56.754687)scale(0.1 -0.1)"><defs><path id="DejaVuSans-4d" d="M 628 4666 L 1569 4666 L 2759 1491 L 3956 4666 L 4897 4666 L 4897 0 L 4281 0 L 4281 4097 L 3078 897 L 2444 897 L 1241 4097 L 1241 0 L 628 0 L 628 4666 z" transform="scale(0.015625)"/><path id="DejaVuSans-74" d="M 1172 4494 L 1172 3500 L 2356 3500 L 2356 3053 L 1172 3053 L 1172 1153 Q 1172 725 1289 603 Q 1406 481 1766 481 L 2356 481 L 2356 0 L 1766 0 Q 1100 0 847 248 Q 594 497 594 1153 L 594 3053 L 172 3053 L 172 3500 L 594 3500 L 594 4494 L 1172 4494 z" transform="scale(0.015625)"/><path id="DejaVuSans-20" transform="scale(0.015625)"/><path id="DejaVuSans-43" d="M 4122 4306 L 4122 3641 Q 3803 3938 3442 4084 Q 3081 4231 2675 4231 Q 1875 4231 1450 3742 Q 1025 3253 1025 2328 Q 1025 1406 1450 917 Q 1875 428 2675 428 Q 3081 428 3442 575 Q 3803 722 4122 1019 L 4122 359 Q 3791 134 3420 21 Q 3050 -91 2638 -91 Q 1578 -91 968 557 Q 359 1206 359 2328 Q 359 3453 968 4101 Q 1578 4750 2638 4750 Q 3056 4750 3426 4639 Q 3797 4528 4122 4306 z" transform="scale(0.015625)"/><path id="DejaVuSans-6c" d="M 603 4863 L 1178 4863 L 1178 0 L 603 0 L 603 4863 z" transform="scale(0.015625)"/></defs><use xlink:href="#DejaVuSans-4d"/><use x="86.279" xlink:href="#DejaVuSans-6f"/><use x="147.461" xlink:href="#DejaVuSans-6e"/><use x="210.84" xlink:href="#DejaVuSans-74"/><use x="250.049" xlink:href="#DejaVuSans-65"/><use x="311.572" xlink:href="#DejaVuSans-20"/><use x="343.359" xlink:href="#DejaVuSans-43"/><use x="413.184" xlink:href="#DejaVuSans-61"/><use x="474.463" xlink:href="#DejaVuSans-72"/><use x="515.576" xlink:href="#DejaVuSans-6c"/><use x="543.359" xlink:href="#DejaVuSans-6f"/></g></g></g></g></g><defs><clipPath id="pc450e5b8d8"><rect width="490.18" height="491.56" x="39.02" y="10.8"/></clipPath></defs></svg>