<svg xmlns="http://www.w3.org/2000/svg" xmlns:xlink="http://www.w3.org/1999/xlink" width="1440" height="720" version="1.1" viewBox="0 0 1080 540"><metadata><rdf:RDF xmlns:cc="http://creativecommons.org/ns#" xmlns:dc="http://purl.org/dc/elements/1.1/" xmlns:rdf="http://www.w3.org/1999/02/22-rdf-syntax-ns#"><cc:Work><dc:type rdf:resource="http://purl.org/dc/dcmitype/StillImage"/><dc:date>2022-03-17T18:01:31.287823</dc:date><dc:format>image/svg+xml</dc:format><dc:creator><cc:Agent><dc:title>Matplotlib v3.4.3, https://matplotlib.org/</dc:title></cc:Agent></dc:creator></cc:Work></rdf:RDF></metadata><defs><style type="text/css">*{stroke-linecap:butt;stroke-linejoin:round}</style></defs><g id="figure_1"><g id="patch_1"><path d="M 0 540 L 1080 540 L 1080 0 L 0 0 z" style="fill:#fff"/></g><g id="axes_1"><g id="patch_2"><path d="M 46.508 499 L 533.34 499 L 533.34 10.8 L 46.508 10.8 z" style="fill:#fff"/></g><g id="PathCollection_1"><defs><path id="m94ddb678de" d="M 0 0.612372 C 0.162403 0.612372 0.318176 0.547849 0.433013 0.433013 C 0.547849 0.318176 0.612372 0.162403 0.612372 0 C 0.612372 -0.162403 0.547849 -0.318176 0.433013 -0.433013 C 0.318176 -0.547849 0.162403 -0.612372 0 -0.612372 C -0.162403 -0.612372 -0.318176 -0.547849 -0.433013 -0.433013 C -0.547849 -0.318176 -0.612372 -0.162403 -0.612372 0 C -0.612372 0.162403 -0.547849 0.318176 -0.433013 0.433013 C -0.318176 0.547849 -0.162403 0.612372 0 0.612372 z" style="stroke:purple"/></defs><g clip-path="url(#pe3228368b0)"><use style="fill:purple;stroke:purple" x="102.681" y="476.809" xlink:href="#m94ddb678de"/><use style="fill:purple;stroke:purple" x="170.769" y="396.527" xlink:href="#m94ddb678de"/><use style="fill:purple;stroke:purple" x="238.858" y="426.829" xlink:href="#m94ddb678de"/><use style="fill:purple;stroke:purple" x="306.946" y="403.926" xlink:href="#m94ddb678de"/><use style="fill:purple;stroke:purple" x="375.034" y="399.951" xlink:href="#m94ddb678de"/><use style="fill:purple;stroke:purple" x="443.123" y="399.895" xlink:href="#m94ddb678de"/><use style="fill:purple;stroke:purple" x="511.211" y="400.111" xlink:href="#m94ddb678de"/></g></g><g id="PathCollection_2"><defs><path id="m54d2d33e85" d="M 0 0.612372 C 0.162403 0.612372 0.318176 0.547849 0.433013 0.433013 C 0.547849 0.318176 0.612372 0.162403 0.612372 0 C 0.612372 -0.162403 0.547849 -0.318176 0.433013 -0.433013 C 0.318176 -0.547849 0.162403 -0.612372 0 -0.612372 C -0.162403 -0.612372 -0.318176 -0.547849 -0.433013 -0.433013 C -0.547849 -0.318176 -0.612372 -0.162403 -0.612372 0 C -0.612372 0.162403 -0.547849 0.318176 -0.433013 0.433013 C -0.318176 0.547849 -0.162403 0.612372 0 0.612372 z" style="stroke:#00f"/></defs><g clip-path="url(#pe3228368b0)"><use style="fill:#00f;stroke:#00f" x="102.681" y="400.056" xlink:href="#m54d2d33e85"/><use style="fill:#00f;stroke:#00f" x="170.769" y="400.057" xlink:href="#m54d2d33e85"/><use style="fill:#00f;stroke:#00f" x="238.858" y="400.057" xlink:href="#m54d2d33e85"/><use style="fill:#00f;stroke:#00f" x="306.946" y="400.057" xlink:href="#m54d2d33e85"/><use style="fill:#00f;stroke:#00f" x="375.034" y="400.057" xlink:href="#m54d2d33e85"/><use style="fill:#00f;stroke:#00f" x="443.123" y="400.057" xlink:href="#m54d2d33e85"/><use style="fill:#00f;stroke:#00f" x="511.211" y="400.057" xlink:href="#m54d2d33e85"/></g></g><g id="PathCollection_3"><g clip-path="url(#pe3228368b0)"><use style="fill:purple;stroke:purple" x="102.681" y="32.991" xlink:href="#m94ddb678de"/><use style="fill:purple;stroke:purple" x="170.769" y="400.039" xlink:href="#m94ddb678de"/><use style="fill:purple;stroke:purple" x="238.858" y="400.057" xlink:href="#m94ddb678de"/><use style="fill:purple;stroke:purple" x="306.946" y="399.71" xlink:href="#m94ddb678de"/><use style="fill:purple;stroke:purple" x="375.034" y="400.022" xlink:href="#m94ddb678de"/><use style="fill:purple;stroke:purple" x="443.123" y="400.057" xlink:href="#m94ddb678de"/><use style="fill:purple;stroke:purple" x="511.211" y="400.056" xlink:href="#m94ddb678de"/></g></g><g id="matplotlib.axis_1"><g id="xtick_1"><g id="line2d_1"><path d="M 102.680923 499 L 102.680923 10.8" clip-path="url(#pe3228368b0)" style="fill:none;stroke:#b0b0b0;stroke-linecap:square;stroke-width:.8"/></g><g id="line2d_2"><defs><path id="m5a2ae347ad" d="M 0 0 L 0 3.5" style="stroke:#000;stroke-width:.8"/></defs><g><use style="stroke:#000;stroke-width:.8" x="102.681" y="499" xlink:href="#m5a2ae347ad"/></g></g><g id="text_1"><g transform="translate(96.954673 510.559062)scale(0.06 -0.06)"><defs><path id="DejaVuSans-31" d="M 794 531 L 1825 531 L 1825 4091 L 703 3866 L 703 4441 L 1819 4666 L 2450 4666 L 2450 531 L 3481 531 L 3481 0 L 794 0 L 794 531 z" transform="scale(0.015625)"/><path id="DejaVuSans-30" d="M 2034 4250 Q 1547 4250 1301 3770 Q 1056 3291 1056 2328 Q 1056 1369 1301 889 Q 1547 409 2034 409 Q 2525 409 2770 889 Q 3016 1369 3016 2328 Q 3016 3291 2770 3770 Q 2525 4250 2034 4250 z M 2034 4750 Q 2819 4750 3233 4129 Q 3647 3509 3647 2328 Q 3647 1150 3233 529 Q 2819 -91 2034 -91 Q 1250 -91 836 529 Q 422 1150 422 2328 Q 422 3509 836 4129 Q 1250 4750 2034 4750 z" transform="scale(0.015625)"/></defs><use xlink:href="#DejaVuSans-31"/><use x="63.623" xlink:href="#DejaVuSans-30"/><use x="127.246" xlink:href="#DejaVuSans-30"/></g></g></g><g id="xtick_2"><g id="line2d_3"><path d="M 170.769315 499 L 170.769315 10.8" clip-path="url(#pe3228368b0)" style="fill:none;stroke:#b0b0b0;stroke-linecap:square;stroke-width:.8"/></g><g id="line2d_4"><g><use style="stroke:#000;stroke-width:.8" x="170.769" y="499" xlink:href="#m5a2ae347ad"/></g></g><g id="text_2"><g transform="translate(163.134315 510.559062)scale(0.06 -0.06)"><use xlink:href="#DejaVuSans-31"/><use x="63.623" xlink:href="#DejaVuSans-30"/><use x="127.246" xlink:href="#DejaVuSans-30"/><use x="190.869" xlink:href="#DejaVuSans-30"/></g></g></g><g id="xtick_3"><g id="line2d_5"><path d="M 238.857706 499 L 238.857706 10.8" clip-path="url(#pe3228368b0)" style="fill:none;stroke:#b0b0b0;stroke-linecap:square;stroke-width:.8"/></g><g id="line2d_6"><g><use style="stroke:#000;stroke-width:.8" x="238.858" y="499" xlink:href="#m5a2ae347ad"/></g></g><g id="text_3"><g transform="translate(229.313956 510.559062)scale(0.06 -0.06)"><use xlink:href="#DejaVuSans-31"/><use x="63.623" xlink:href="#DejaVuSans-30"/><use x="127.246" xlink:href="#DejaVuSans-30"/><use x="190.869" xlink:href="#DejaVuSans-30"/><use x="254.492" xlink:href="#DejaVuSans-30"/></g></g></g><g id="xtick_4"><g id="line2d_7"><path d="M 306.946098 499 L 306.946098 10.8" clip-path="url(#pe3228368b0)" style="fill:none;stroke:#b0b0b0;stroke-linecap:square;stroke-width:.8"/></g><g id="line2d_8"><g><use style="stroke:#000;stroke-width:.8" x="306.946" y="499" xlink:href="#m5a2ae347ad"/></g></g><g id="text_4"><g transform="translate(295.493598 510.559062)scale(0.06 -0.06)"><use xlink:href="#DejaVuSans-31"/><use x="63.623" xlink:href="#DejaVuSans-30"/><use x="127.246" xlink:href="#DejaVuSans-30"/><use x="190.869" xlink:href="#DejaVuSans-30"/><use x="254.492" xlink:href="#DejaVuSans-30"/><use x="318.115" xlink:href="#DejaVuSans-30"/></g></g></g><g id="xtick_5"><g id="line2d_9"><path d="M 375.03449 499 L 375.03449 10.8" clip-path="url(#pe3228368b0)" style="fill:none;stroke:#b0b0b0;stroke-linecap:square;stroke-width:.8"/></g><g id="line2d_10"><g><use style="stroke:#000;stroke-width:.8" x="375.034" y="499" xlink:href="#m5a2ae347ad"/></g></g><g id="text_5"><g transform="translate(361.67324 510.559062)scale(0.06 -0.06)"><use xlink:href="#DejaVuSans-31"/><use x="63.623" xlink:href="#DejaVuSans-30"/><use x="127.246" xlink:href="#DejaVuSans-30"/><use x="190.869" xlink:href="#DejaVuSans-30"/><use x="254.492" xlink:href="#DejaVuSans-30"/><use x="318.115" xlink:href="#DejaVuSans-30"/><use x="381.738" xlink:href="#DejaVuSans-30"/></g></g></g><g id="xtick_6"><g id="line2d_11"><path d="M 443.122881 499 L 443.122881 10.8" clip-path="url(#pe3228368b0)" style="fill:none;stroke:#b0b0b0;stroke-linecap:square;stroke-width:.8"/></g><g id="line2d_12"><g><use style="stroke:#000;stroke-width:.8" x="443.123" y="499" xlink:href="#m5a2ae347ad"/></g></g><g id="text_6"><g transform="translate(427.852881 510.559062)scale(0.06 -0.06)"><use xlink:href="#DejaVuSans-31"/><use x="63.623" xlink:href="#DejaVuSans-30"/><use x="127.246" xlink:href="#DejaVuSans-30"/><use x="190.869" xlink:href="#DejaVuSans-30"/><use x="254.492" xlink:href="#DejaVuSans-30"/><use x="318.115" xlink:href="#DejaVuSans-30"/><use x="381.738" xlink:href="#DejaVuSans-30"/><use x="445.361" xlink:href="#DejaVuSans-30"/></g></g></g><g id="xtick_7"><g id="line2d_13"><path d="M 511.211273 499 L 511.211273 10.8" clip-path="url(#pe3228368b0)" style="fill:none;stroke:#b0b0b0;stroke-linecap:square;stroke-width:.8"/></g><g id="line2d_14"><g><use style="stroke:#000;stroke-width:.8" x="511.211" y="499" xlink:href="#m5a2ae347ad"/></g></g></g><g id="text_7"><g transform="translate(286.183375 523.405313)scale(0.1 -0.1)"><defs><path id="DejaVuSans-4e" d="M 628 4666 L 1478 4666 L 3547 763 L 3547 4666 L 4159 4666 L 4159 0 L 3309 0 L 1241 3903 L 1241 0 L 628 0 L 628 4666 z" transform="scale(0.015625)"/></defs><use xlink:href="#DejaVuSans-4e"/></g></g></g><g id="matplotlib.axis_2"><g id="ytick_1"><g id="line2d_15"><path d="M 46.508 487.219308 L 533.34 487.219308" clip-path="url(#pe3228368b0)" style="fill:none;stroke:#b0b0b0;stroke-linecap:square;stroke-width:.8"/></g><g id="line2d_16"><defs><path id="mf63c8f59f2" d="M 0 0 L -3.5 0" style="stroke:#000;stroke-width:.8"/></defs><g><use style="stroke:#000;stroke-width:.8" x="46.508" y="487.219" xlink:href="#mf63c8f59f2"/></g></g><g id="text_8"><g transform="translate(26.148625 489.498839)scale(0.06 -0.06)"><defs><path id="DejaVuSans-2e" d="M 684 794 L 1344 794 L 1344 0 L 684 0 L 684 794 z" transform="scale(0.015625)"/><path id="DejaVuSans-36" d="M 2113 2584 Q 1688 2584 1439 2293 Q 1191 2003 1191 1497 Q 1191 994 1439 701 Q 1688 409 2113 409 Q 2538 409 2786 701 Q 3034 994 3034 1497 Q 3034 2003 2786 2293 Q 2538 2584 2113 2584 z M 3366 4563 L 3366 3988 Q 3128 4100 2886 4159 Q 2644 4219 2406 4219 Q 1781 4219 1451 3797 Q 1122 3375 1075 2522 Q 1259 2794 1537 2939 Q 1816 3084 2150 3084 Q 2853 3084 3261 2657 Q 3669 2231 3669 1497 Q 3669 778 3244 343 Q 2819 -91 2113 -91 Q 1303 -91 875 529 Q 447 1150 447 2328 Q 447 3434 972 4092 Q 1497 4750 2381 4750 Q 2619 4750 2861 4703 Q 3103 4656 3366 4563 z" transform="scale(0.015625)"/><path id="DejaVuSans-35" d="M 691 4666 L 3169 4666 L 3169 4134 L 1269 4134 L 1269 2991 Q 1406 3038 1543 3061 Q 1681 3084 1819 3084 Q 2600 3084 3056 2656 Q 3513 2228 3513 1497 Q 3513 744 3044 326 Q 2575 -91 1722 -91 Q 1428 -91 1123 -41 Q 819 9 494 109 L 494 744 Q 775 591 1075 516 Q 1375 441 1709 441 Q 2250 441 2565 725 Q 2881 1009 2881 1497 Q 2881 1984 2565 2268 Q 2250 2553 1709 2553 Q 1456 2553 1204 2497 Q 953 2441 691 2322 L 691 4666 z" transform="scale(0.015625)"/></defs><use xlink:href="#DejaVuSans-31"/><use x="63.623" xlink:href="#DejaVuSans-2e"/><use x="95.41" xlink:href="#DejaVuSans-36"/><use x="159.033" xlink:href="#DejaVuSans-35"/></g></g></g><g id="ytick_2"><g id="line2d_17"><path d="M 46.508 423.393761 L 533.34 423.393761" clip-path="url(#pe3228368b0)" style="fill:none;stroke:#b0b0b0;stroke-linecap:square;stroke-width:.8"/></g><g id="line2d_18"><g><use style="stroke:#000;stroke-width:.8" x="46.508" y="423.394" xlink:href="#mf63c8f59f2"/></g></g><g id="text_9"><g transform="translate(26.148625 425.673292)scale(0.06 -0.06)"><defs><path id="DejaVuSans-37" d="M 525 4666 L 3525 4666 L 3525 4397 L 1831 0 L 1172 0 L 2766 4134 L 525 4134 L 525 4666 z" transform="scale(0.015625)"/></defs><use xlink:href="#DejaVuSans-31"/><use x="63.623" xlink:href="#DejaVuSans-2e"/><use x="95.41" xlink:href="#DejaVuSans-37"/><use x="159.033" xlink:href="#DejaVuSans-30"/></g></g></g><g id="ytick_3"><g id="line2d_19"><path d="M 46.508 359.568214 L 533.34 359.568214" clip-path="url(#pe3228368b0)" style="fill:none;stroke:#b0b0b0;stroke-linecap:square;stroke-width:.8"/></g><g id="line2d_20"><g><use style="stroke:#000;stroke-width:.8" x="46.508" y="359.568" xlink:href="#mf63c8f59f2"/></g></g><g id="text_10"><g transform="translate(26.148625 361.847745)scale(0.06 -0.06)"><use xlink:href="#DejaVuSans-31"/><use x="63.623" xlink:href="#DejaVuSans-2e"/><use x="95.41" xlink:href="#DejaVuSans-37"/><use x="159.033" xlink:href="#DejaVuSans-35"/></g></g></g><g id="ytick_4"><g id="line2d_21"><path d="M 46.508 295.742667 L 533.34 295.742667" clip-path="url(#pe3228368b0)" style="fill:none;stroke:#b0b0b0;stroke-linecap:square;stroke-width:.8"/></g><g id="line2d_22"><g><use style="stroke:#000;stroke-width:.8" x="46.508" y="295.743" xlink:href="#mf63c8f59f2"/></g></g><g id="text_11"><g transform="translate(26.148625 298.022198)scale(0.06 -0.06)"><defs><path id="DejaVuSans-38" d="M 2034 2216 Q 1584 2216 1326 1975 Q 1069 1734 1069 1313 Q 1069 891 1326 650 Q 1584 409 2034 409 Q 2484 409 2743 651 Q 3003 894 3003 1313 Q 3003 1734 2745 1975 Q 2488 2216 2034 2216 z M 1403 2484 Q 997 2584 770 2862 Q 544 3141 544 3541 Q 544 4100 942 4425 Q 1341 4750 2034 4750 Q 2731 4750 3128 4425 Q 3525 4100 3525 3541 Q 3525 3141 3298 2862 Q 3072 2584 2669 2484 Q 3125 2378 3379 2068 Q 3634 1759 3634 1313 Q 3634 634 3220 271 Q 2806 -91 2034 -91 Q 1263 -91 848 271 Q 434 634 434 1313 Q 434 1759 690 2068 Q 947 2378 1403 2484 z M 1172 3481 Q 1172 3119 1398 2916 Q 1625 2713 2034 2713 Q 2441 2713 2670 2916 Q 2900 3119 2900 3481 Q 2900 3844 2670 4047 Q 2441 4250 2034 4250 Q 1625 4250 1398 4047 Q 1172 3844 1172 3481 z" transform="scale(0.015625)"/></defs><use xlink:href="#DejaVuSans-31"/><use x="63.623" xlink:href="#DejaVuSans-2e"/><use x="95.41" xlink:href="#DejaVuSans-38"/><use x="159.033" xlink:href="#DejaVuSans-30"/></g></g></g><g id="ytick_5"><g id="line2d_23"><path d="M 46.508 231.91712 L 533.34 231.91712" clip-path="url(#pe3228368b0)" style="fill:none;stroke:#b0b0b0;stroke-linecap:square;stroke-width:.8"/></g><g id="line2d_24"><g><use style="stroke:#000;stroke-width:.8" x="46.508" y="231.917" xlink:href="#mf63c8f59f2"/></g></g><g id="text_12"><g transform="translate(26.148625 234.196651)scale(0.06 -0.06)"><use xlink:href="#DejaVuSans-31"/><use x="63.623" xlink:href="#DejaVuSans-2e"/><use x="95.41" xlink:href="#DejaVuSans-38"/><use x="159.033" xlink:href="#DejaVuSans-35"/></g></g></g><g id="ytick_6"><g id="line2d_25"><path d="M 46.508 168.091573 L 533.34 168.091573" clip-path="url(#pe3228368b0)" style="fill:none;stroke:#b0b0b0;stroke-linecap:square;stroke-width:.8"/></g><g id="line2d_26"><g><use style="stroke:#000;stroke-width:.8" x="46.508" y="168.092" xlink:href="#mf63c8f59f2"/></g></g><g id="text_13"><g transform="translate(26.148625 170.371104)scale(0.06 -0.06)"><defs><path id="DejaVuSans-39" d="M 703 97 L 703 672 Q 941 559 1184 500 Q 1428 441 1663 441 Q 2288 441 2617 861 Q 2947 1281 2994 2138 Q 2813 1869 2534 1725 Q 2256 1581 1919 1581 Q 1219 1581 811 2004 Q 403 2428 403 3163 Q 403 3881 828 4315 Q 1253 4750 1959 4750 Q 2769 4750 3195 4129 Q 3622 3509 3622 2328 Q 3622 1225 3098 567 Q 2575 -91 1691 -91 Q 1453 -91 1209 -44 Q 966 3 703 97 z M 1959 2075 Q 2384 2075 2632 2365 Q 2881 2656 2881 3163 Q 2881 3666 2632 3958 Q 2384 4250 1959 4250 Q 1534 4250 1286 3958 Q 1038 3666 1038 3163 Q 1038 2656 1286 2365 Q 1534 2075 1959 2075 z" transform="scale(0.015625)"/></defs><use xlink:href="#DejaVuSans-31"/><use x="63.623" xlink:href="#DejaVuSans-2e"/><use x="95.41" xlink:href="#DejaVuSans-39"/><use x="159.033" xlink:href="#DejaVuSans-30"/></g></g></g><g id="ytick_7"><g id="line2d_27"><path d="M 46.508 104.266026 L 533.34 104.266026" clip-path="url(#pe3228368b0)" style="fill:none;stroke:#b0b0b0;stroke-linecap:square;stroke-width:.8"/></g><g id="line2d_28"><g><use style="stroke:#000;stroke-width:.8" x="46.508" y="104.266" xlink:href="#mf63c8f59f2"/></g></g><g id="text_14"><g transform="translate(26.148625 106.545557)scale(0.06 -0.06)"><use xlink:href="#DejaVuSans-31"/><use x="63.623" xlink:href="#DejaVuSans-2e"/><use x="95.41" xlink:href="#DejaVuSans-39"/><use x="159.033" xlink:href="#DejaVuSans-35"/></g></g></g><g id="ytick_8"><g id="line2d_29"><path d="M 46.508 40.440479 L 533.34 40.440479" clip-path="url(#pe3228368b0)" style="fill:none;stroke:#b0b0b0;stroke-linecap:square;stroke-width:.8"/></g><g id="line2d_30"><g><use style="stroke:#000;stroke-width:.8" x="46.508" y="40.44" xlink:href="#mf63c8f59f2"/></g></g><g id="text_15"><g transform="translate(26.148625 42.72001)scale(0.06 -0.06)"><defs><path id="DejaVuSans-32" d="M 1228 531 L 3431 531 L 3431 0 L 469 0 L 469 531 Q 828 903 1448 1529 Q 2069 2156 2228 2338 Q 2531 2678 2651 2914 Q 2772 3150 2772 3378 Q 2772 3750 2511 3984 Q 2250 4219 1831 4219 Q 1534 4219 1204 4116 Q 875 4013 500 3803 L 500 4441 Q 881 4594 1212 4672 Q 1544 4750 1819 4750 Q 2544 4750 2975 4387 Q 3406 4025 3406 3419 Q 3406 3131 3298 2873 Q 3191 2616 2906 2266 Q 2828 2175 2409 1742 Q 1991 1309 1228 531 z" transform="scale(0.015625)"/></defs><use xlink:href="#DejaVuSans-32"/><use x="63.623" xlink:href="#DejaVuSans-2e"/><use x="95.41" xlink:href="#DejaVuSans-30"/><use x="159.033" xlink:href="#DejaVuSans-30"/></g></g></g><g id="text_16"><g transform="translate(20.068937 265.9)rotate(-90)scale(0.1 -0.1)"><defs><path id="DejaVuSans-Oblique-66" d="M 3059 4863 L 2969 4384 L 2419 4384 Q 2106 4384 1964 4261 Q 1822 4138 1753 3809 L 1691 3500 L 2638 3500 L 2553 3053 L 1606 3053 L 1013 0 L 434 0 L 1031 3053 L 481 3053 L 563 3500 L 1113 3500 L 1159 3744 Q 1278 4363 1576 4613 Q 1875 4863 2516 4863 L 3059 4863 z" transform="scale(0.015625)"/><path id="DejaVuSans-28" d="M 1984 4856 Q 1566 4138 1362 3434 Q 1159 2731 1159 2009 Q 1159 1288 1364 580 Q 1569 -128 1984 -844 L 1484 -844 Q 1016 -109 783 600 Q 550 1309 550 2009 Q 550 2706 781 3412 Q 1013 4119 1484 4856 L 1984 4856 z" transform="scale(0.015625)"/><path id="DejaVuSans-Oblique-78" d="M 3841 3500 L 2234 1784 L 3219 0 L 2559 0 L 1819 1388 L 531 0 L -166 0 L 1556 1844 L 641 3500 L 1300 3500 L 1972 2234 L 3144 3500 L 3841 3500 z" transform="scale(0.015625)"/><path id="DejaVuSans-29" d="M 513 4856 L 1013 4856 Q 1481 4119 1714 3412 Q 1947 2706 1947 2009 Q 1947 1309 1714 600 Q 1481 -109 1013 -844 L 513 -844 Q 928 -128 1133 580 Q 1338 1288 1338 2009 Q 1338 2731 1133 3434 Q 928 4138 513 4856 z" transform="scale(0.015625)"/></defs><use transform="translate(0 0.015625)" xlink:href="#DejaVuSans-Oblique-66"/><use transform="translate(35.205078 -16.390625)scale(0.7)" xlink:href="#DejaVuSans-31"/><use transform="translate(82.475586 0.015625)" xlink:href="#DejaVuSans-28"/><use transform="translate(121.489258 0.015625)" xlink:href="#DejaVuSans-Oblique-78"/><use transform="translate(180.668945 0.015625)" xlink:href="#DejaVuSans-29"/></g></g></g><g id="LineCollection_1"><path d="M 68.636727 400.056807 L 511.211273 400.056807" clip-path="url(#pe3228368b0)" style="fill:none;stroke:orange;stroke-dasharray:3.7,1.6;stroke-dashoffset:0"/></g><g id="line2d_31"><path d="M 102.680923 476.809091 L 170.769315 396.527388 L 238.857706 426.82948 L 306.946098 403.925791 L 375.03449 399.950533 L 443.122881 399.89457 L 511.211273 400.111101" clip-path="url(#pe3228368b0)" style="fill:none;stroke:green;stroke-linecap:square"/></g><g id="line2d_32"><path d="M 102.680923 400.05559 L 170.769315 400.056807 L 238.857706 400.056807 L 306.946098 400.056807 L 375.03449 400.056807 L 443.122881 400.056807 L 511.211273 400.056807" clip-path="url(#pe3228368b0)" style="fill:none;stroke:#00f;stroke-linecap:square"/></g><g id="line2d_33"><path d="M 102.680923 32.990909 L 170.769315 400.038528 L 238.857706 400.056624 L 306.946098 399.709796 L 375.03449 400.022107 L 443.122881 400.056807 L 511.211273 400.05646" clip-path="url(#pe3228368b0)" style="fill:none;stroke:purple;stroke-linecap:square"/></g><g id="patch_3"><path d="M 46.508 499 L 46.508 10.8" style="fill:none;stroke:#000;stroke-linecap:square;stroke-linejoin:miter;stroke-width:.8"/></g><g id="patch_4"><path d="M 533.34 499 L 533.34 10.8" style="fill:none;stroke:#000;stroke-linecap:square;stroke-linejoin:miter;stroke-width:.8"/></g><g id="patch_5"><path d="M 46.508 499 L 533.34 499" style="fill:none;stroke:#000;stroke-linecap:square;stroke-linejoin:miter;stroke-width:.8"/></g><g id="patch_6"><path d="M 46.508 10.8 L 533.34 10.8" style="fill:none;stroke:#000;stroke-linecap:square;stroke-linejoin:miter;stroke-width:.8"/></g><g id="text_17"><g style="fill:orange" transform="translate(34.592531 400.056807)scale(0.08 -0.08)"><defs><path id="DejaVuSans-65" d="M 3597 1894 L 3597 1613 L 953 1613 Q 991 1019 1311 708 Q 1631 397 2203 397 Q 2534 397 2845 478 Q 3156 559 3463 722 L 3463 178 Q 3153 47 2828 -22 Q 2503 -91 2169 -91 Q 1331 -91 842 396 Q 353 884 353 1716 Q 353 2575 817 3079 Q 1281 3584 2069 3584 Q 2775 3584 3186 3129 Q 3597 2675 3597 1894 z M 3022 2063 Q 3016 2534 2758 2815 Q 2500 3097 2075 3097 Q 1594 3097 1305 2825 Q 1016 2553 972 2059 L 3022 2063 z" transform="scale(0.015625)"/><path id="DejaVuSans-2d" d="M 313 2009 L 1997 2009 L 1997 1497 L 313 1497 L 313 2009 z" transform="scale(0.015625)"/></defs><use xlink:href="#DejaVuSans-65"/><use x="61.523" xlink:href="#DejaVuSans-2d"/><use x="97.607" xlink:href="#DejaVuSans-31"/></g></g><g id="legend_1"><g id="patch_7"><path d="M 464.084222 47.104875 L 528.482 47.104875 Q 529.87 47.104875 529.87 45.716875 L 529.87 15.658 Q 529.87 14.27 528.482 14.27 L 464.084222 14.27 Q 462.696222 14.27 462.696222 15.658 L 462.696222 45.716875 Q 462.696222 47.104875 464.084222 47.104875 z" style="fill:#fff;opacity:.8;stroke:#ccc;stroke-linejoin:miter"/></g><g id="line2d_34"><path d="M 465.472222 19.890316 L 479.352222 19.890316" style="fill:none;stroke:green;stroke-linecap:square"/></g><g id="text_18"><g transform="translate(484.904222 22.319316)scale(0.0694 -0.0694)"><defs><path id="DejaVuSans-4d" d="M 628 4666 L 1569 4666 L 2759 1491 L 3956 4666 L 4897 4666 L 4897 0 L 4281 0 L 4281 4097 L 3078 897 L 2444 897 L 1241 4097 L 1241 0 L 628 0 L 628 4666 z" transform="scale(0.015625)"/><path id="DejaVuSans-6f" d="M 1959 3097 Q 1497 3097 1228 2736 Q 959 2375 959 1747 Q 959 1119 1226 758 Q 1494 397 1959 397 Q 2419 397 2687 759 Q 2956 1122 2956 1747 Q 2956 2369 2687 2733 Q 2419 3097 1959 3097 z M 1959 3584 Q 2709 3584 3137 3096 Q 3566 2609 3566 1747 Q 3566 888 3137 398 Q 2709 -91 1959 -91 Q 1206 -91 779 398 Q 353 888 353 1747 Q 353 2609 779 3096 Q 1206 3584 1959 3584 z" transform="scale(0.015625)"/><path id="DejaVuSans-6e" d="M 3513 2113 L 3513 0 L 2938 0 L 2938 2094 Q 2938 2591 2744 2837 Q 2550 3084 2163 3084 Q 1697 3084 1428 2787 Q 1159 2491 1159 1978 L 1159 0 L 581 0 L 581 3500 L 1159 3500 L 1159 2956 Q 1366 3272 1645 3428 Q 1925 3584 2291 3584 Q 2894 3584 3203 3211 Q 3513 2838 3513 2113 z" transform="scale(0.015625)"/><path id="DejaVuSans-74" d="M 1172 4494 L 1172 3500 L 2356 3500 L 2356 3053 L 1172 3053 L 1172 1153 Q 1172 725 1289 603 Q 1406 481 1766 481 L 2356 481 L 2356 0 L 1766 0 Q 1100 0 847 248 Q 594 497 594 1153 L 594 3053 L 172 3053 L 172 3500 L 594 3500 L 594 4494 L 1172 4494 z" transform="scale(0.015625)"/><path id="DejaVuSans-5f" d="M 3263 -1063 L 3263 -1509 L -63 -1509 L -63 -1063 L 3263 -1063 z" transform="scale(0.015625)"/><path id="DejaVuSans-63" d="M 3122 3366 L 3122 2828 Q 2878 2963 2633 3030 Q 2388 3097 2138 3097 Q 1578 3097 1268 2742 Q 959 2388 959 1747 Q 959 1106 1268 751 Q 1578 397 2138 397 Q 2388 397 2633 464 Q 2878 531 3122 666 L 3122 134 Q 2881 22 2623 -34 Q 2366 -91 2075 -91 Q 1284 -91 818 406 Q 353 903 353 1747 Q 353 2603 823 3093 Q 1294 3584 2113 3584 Q 2378 3584 2631 3529 Q 2884 3475 3122 3366 z" transform="scale(0.015625)"/><path id="DejaVuSans-61" d="M 2194 1759 Q 1497 1759 1228 1600 Q 959 1441 959 1056 Q 959 750 1161 570 Q 1363 391 1709 391 Q 2188 391 2477 730 Q 2766 1069 2766 1631 L 2766 1759 L 2194 1759 z M 3341 1997 L 3341 0 L 2766 0 L 2766 531 Q 2569 213 2275 61 Q 1981 -91 1556 -91 Q 1019 -91 701 211 Q 384 513 384 1019 Q 384 1609 779 1909 Q 1175 2209 1959 2209 L 2766 2209 L 2766 2266 Q 2766 2663 2505 2880 Q 2244 3097 1772 3097 Q 1472 3097 1187 3025 Q 903 2953 641 2809 L 641 3341 Q 956 3463 1253 3523 Q 1550 3584 1831 3584 Q 2591 3584 2966 3190 Q 3341 2797 3341 1997 z" transform="scale(0.015625)"/><path id="DejaVuSans-72" d="M 2631 2963 Q 2534 3019 2420 3045 Q 2306 3072 2169 3072 Q 1681 3072 1420 2755 Q 1159 2438 1159 1844 L 1159 0 L 581 0 L 581 3500 L 1159 3500 L 1159 2956 Q 1341 3275 1631 3429 Q 1922 3584 2338 3584 Q 2397 3584 2469 3576 Q 2541 3569 2628 3553 L 2631 2963 z" transform="scale(0.015625)"/><path id="DejaVuSans-6c" d="M 603 4863 L 1178 4863 L 1178 0 L 603 0 L 603 4863 z" transform="scale(0.015625)"/></defs><use xlink:href="#DejaVuSans-4d"/><use x="86.279" xlink:href="#DejaVuSans-6f"/><use x="147.461" xlink:href="#DejaVuSans-6e"/><use x="210.84" xlink:href="#DejaVuSans-74"/><use x="250.049" xlink:href="#DejaVuSans-65"/><use x="311.572" xlink:href="#DejaVuSans-5f"/><use x="361.572" xlink:href="#DejaVuSans-63"/><use x="416.553" xlink:href="#DejaVuSans-61"/><use x="477.832" xlink:href="#DejaVuSans-72"/><use x="518.945" xlink:href="#DejaVuSans-6c"/><use x="546.729" xlink:href="#DejaVuSans-6f"/></g></g><g id="line2d_36"><path d="M 465.472222 30.269953 L 479.352222 30.269953" style="fill:none;stroke:#00f;stroke-linecap:square"/></g><g id="text_19"><g transform="translate(484.904222 32.698953)scale(0.0694 -0.0694)"><defs><path id="DejaVuSans-53" d="M 3425 4513 L 3425 3897 Q 3066 4069 2747 4153 Q 2428 4238 2131 4238 Q 1616 4238 1336 4038 Q 1056 3838 1056 3469 Q 1056 3159 1242 3001 Q 1428 2844 1947 2747 L 2328 2669 Q 3034 2534 3370 2195 Q 3706 1856 3706 1288 Q 3706 609 3251 259 Q 2797 -91 1919 -91 Q 1588 -91 1214 -16 Q 841 59 441 206 L 441 856 Q 825 641 1194 531 Q 1563 422 1919 422 Q 2459 422 2753 634 Q 3047 847 3047 1241 Q 3047 1584 2836 1778 Q 2625 1972 2144 2069 L 1759 2144 Q 1053 2284 737 2584 Q 422 2884 422 3419 Q 422 4038 858 4394 Q 1294 4750 2059 4750 Q 2388 4750 2728 4690 Q 3069 4631 3425 4513 z" transform="scale(0.015625)"/><path id="DejaVuSans-69" d="M 603 3500 L 1178 3500 L 1178 0 L 603 0 L 603 3500 z M 603 4863 L 1178 4863 L 1178 4134 L 603 4134 L 603 4863 z" transform="scale(0.015625)"/><path id="DejaVuSans-6d" d="M 3328 2828 Q 3544 3216 3844 3400 Q 4144 3584 4550 3584 Q 5097 3584 5394 3201 Q 5691 2819 5691 2113 L 5691 0 L 5113 0 L 5113 2094 Q 5113 2597 4934 2840 Q 4756 3084 4391 3084 Q 3944 3084 3684 2787 Q 3425 2491 3425 1978 L 3425 0 L 2847 0 L 2847 2094 Q 2847 2600 2669 2842 Q 2491 3084 2119 3084 Q 1678 3084 1418 2786 Q 1159 2488 1159 1978 L 1159 0 L 581 0 L 581 3500 L 1159 3500 L 1159 2956 Q 1356 3278 1631 3431 Q 1906 3584 2284 3584 Q 2666 3584 2933 3390 Q 3200 3197 3328 2828 z" transform="scale(0.015625)"/><path id="DejaVuSans-70" d="M 1159 525 L 1159 -1331 L 581 -1331 L 581 3500 L 1159 3500 L 1159 2969 Q 1341 3281 1617 3432 Q 1894 3584 2278 3584 Q 2916 3584 3314 3078 Q 3713 2572 3713 1747 Q 3713 922 3314 415 Q 2916 -91 2278 -91 Q 1894 -91 1617 61 Q 1341 213 1159 525 z M 3116 1747 Q 3116 2381 2855 2742 Q 2594 3103 2138 3103 Q 1681 3103 1420 2742 Q 1159 2381 1159 1747 Q 1159 1113 1420 752 Q 1681 391 2138 391 Q 2594 391 2855 752 Q 3116 1113 3116 1747 z" transform="scale(0.015625)"/><path id="DejaVuSans-73" d="M 2834 3397 L 2834 2853 Q 2591 2978 2328 3040 Q 2066 3103 1784 3103 Q 1356 3103 1142 2972 Q 928 2841 928 2578 Q 928 2378 1081 2264 Q 1234 2150 1697 2047 L 1894 2003 Q 2506 1872 2764 1633 Q 3022 1394 3022 966 Q 3022 478 2636 193 Q 2250 -91 1575 -91 Q 1294 -91 989 -36 Q 684 19 347 128 L 347 722 Q 666 556 975 473 Q 1284 391 1588 391 Q 1994 391 2212 530 Q 2431 669 2431 922 Q 2431 1156 2273 1281 Q 2116 1406 1581 1522 L 1381 1569 Q 847 1681 609 1914 Q 372 2147 372 2553 Q 372 3047 722 3315 Q 1072 3584 1716 3584 Q 2034 3584 2315 3537 Q 2597 3491 2834 3397 z" transform="scale(0.015625)"/></defs><use xlink:href="#DejaVuSans-53"/><use x="63.477" xlink:href="#DejaVuSans-69"/><use x="91.26" xlink:href="#DejaVuSans-6d"/><use x="188.672" xlink:href="#DejaVuSans-70"/><use x="252.148" xlink:href="#DejaVuSans-73"/><use x="304.248" xlink:href="#DejaVuSans-6f"/><use x="365.43" xlink:href="#DejaVuSans-6e"/></g></g><g id="line2d_38"><path d="M 465.472222 40.456572 L 479.352222 40.456572" style="fill:none;stroke:purple;stroke-linecap:square"/></g><g id="text_20"><g transform="translate(484.904222 42.885572)scale(0.0694 -0.0694)"><defs><path id="DejaVuSans-54" d="M -19 4666 L 3928 4666 L 3928 4134 L 2272 4134 L 2272 0 L 1638 0 L 1638 4134 L -19 4134 L -19 4666 z" transform="scale(0.015625)"/><path id="DejaVuSans-7a" d="M 353 3500 L 3084 3500 L 3084 2975 L 922 459 L 3084 459 L 3084 0 L 275 0 L 275 525 L 2438 3041 L 353 3041 L 353 3500 z" transform="scale(0.015625)"/><path id="DejaVuSans-64" d="M 2906 2969 L 2906 4863 L 3481 4863 L 3481 0 L 2906 0 L 2906 525 Q 2725 213 2448 61 Q 2172 -91 1784 -91 Q 1150 -91 751 415 Q 353 922 353 1747 Q 353 2572 751 3078 Q 1150 3584 1784 3584 Q 2172 3584 2448 3432 Q 2725 3281 2906 2969 z M 947 1747 Q 947 1113 1208 752 Q 1469 391 1925 391 Q 2381 391 2643 752 Q 2906 1113 2906 1747 Q 2906 2381 2643 2742 Q 2381 3103 1925 3103 Q 1469 3103 1208 2742 Q 947 2381 947 1747 z" transform="scale(0.015625)"/></defs><use xlink:href="#DejaVuSans-54"/><use x="46.334" xlink:href="#DejaVuSans-72"/><use x="87.447" xlink:href="#DejaVuSans-61"/><use x="148.727" xlink:href="#DejaVuSans-70"/><use x="212.203" xlink:href="#DejaVuSans-65"/><use x="273.727" xlink:href="#DejaVuSans-7a"/><use x="326.217" xlink:href="#DejaVuSans-6f"/><use x="387.398" xlink:href="#DejaVuSans-69"/><use x="415.182" xlink:href="#DejaVuSans-64"/><use x="478.658" xlink:href="#DejaVuSans-61"/><use x="539.938" xlink:href="#DejaVuSans-6c"/></g></g></g></g><g id="axes_2"><g id="patch_8"><path d="M 582.368 499 L 1069.2 499 L 1069.2 10.8 L 582.368 10.8 z" style="fill:#fff"/></g><g id="PathCollection_4"><g clip-path="url(#p9470c0e8d1)"><use style="fill:purple;stroke:purple" x="638.541" y="332.754" xlink:href="#m94ddb678de"/><use style="fill:purple;stroke:purple" x="706.629" y="32.991" xlink:href="#m94ddb678de"/><use style="fill:purple;stroke:purple" x="774.718" y="295.376" xlink:href="#m94ddb678de"/><use style="fill:purple;stroke:purple" x="842.806" y="240.59" xlink:href="#m94ddb678de"/><use style="fill:purple;stroke:purple" x="910.894" y="223.937" xlink:href="#m94ddb678de"/><use style="fill:purple;stroke:purple" x="978.983" y="225.847" xlink:href="#m94ddb678de"/><use style="fill:purple;stroke:purple" x="1047.071" y="222.587" xlink:href="#m94ddb678de"/></g></g><g id="PathCollection_5"><g clip-path="url(#p9470c0e8d1)"><use style="fill:#00f;stroke:#00f" x="638.541" y="449.87" xlink:href="#m54d2d33e85"/><use style="fill:#00f;stroke:#00f" x="706.629" y="320.036" xlink:href="#m54d2d33e85"/><use style="fill:#00f;stroke:#00f" x="774.718" y="266.162" xlink:href="#m54d2d33e85"/><use style="fill:#00f;stroke:#00f" x="842.806" y="242.497" xlink:href="#m54d2d33e85"/><use style="fill:#00f;stroke:#00f" x="910.894" y="231.8" xlink:href="#m54d2d33e85"/><use style="fill:#00f;stroke:#00f" x="978.983" y="226.897" xlink:href="#m54d2d33e85"/><use style="fill:#00f;stroke:#00f" x="1047.071" y="224.635" xlink:href="#m54d2d33e85"/></g></g><g id="PathCollection_6"><g clip-path="url(#p9470c0e8d1)"><use style="fill:purple;stroke:purple" x="638.541" y="476.809" xlink:href="#m94ddb678de"/><use style="fill:purple;stroke:purple" x="706.629" y="330.309" xlink:href="#m94ddb678de"/><use style="fill:purple;stroke:purple" x="774.718" y="270.506" xlink:href="#m94ddb678de"/><use style="fill:purple;stroke:purple" x="842.806" y="244.424" xlink:href="#m94ddb678de"/><use style="fill:purple;stroke:purple" x="910.894" y="232.676" xlink:href="#m94ddb678de"/><use style="fill:purple;stroke:purple" x="978.983" y="227.299" xlink:href="#m94ddb678de"/><use style="fill:purple;stroke:purple" x="1047.071" y="224.82" xlink:href="#m94ddb678de"/></g></g><g id="matplotlib.axis_3"><g id="xtick_8"><g id="line2d_40"><path d="M 638.540923 499 L 638.540923 10.8" clip-path="url(#p9470c0e8d1)" style="fill:none;stroke:#b0b0b0;stroke-linecap:square;stroke-width:.8"/></g><g id="line2d_41"><g><use style="stroke:#000;stroke-width:.8" x="638.541" y="499" xlink:href="#m5a2ae347ad"/></g></g><g id="text_21"><g transform="translate(628.997173 513.598438)scale(0.1 -0.1)"><use xlink:href="#DejaVuSans-31"/><use x="63.623" xlink:href="#DejaVuSans-30"/><use x="127.246" xlink:href="#DejaVuSans-30"/></g></g></g><g id="xtick_9"><g id="line2d_42"><path d="M 706.629315 499 L 706.629315 10.8" clip-path="url(#p9470c0e8d1)" style="fill:none;stroke:#b0b0b0;stroke-linecap:square;stroke-width:.8"/></g><g id="line2d_43"><g><use style="stroke:#000;stroke-width:.8" x="706.629" y="499" xlink:href="#m5a2ae347ad"/></g></g><g id="text_22"><g transform="translate(693.904315 513.598438)scale(0.1 -0.1)"><use xlink:href="#DejaVuSans-31"/><use x="63.623" xlink:href="#DejaVuSans-30"/><use x="127.246" xlink:href="#DejaVuSans-30"/><use x="190.869" xlink:href="#DejaVuSans-30"/></g></g></g><g id="xtick_10"><g id="line2d_44"><path d="M 774.717706 499 L 774.717706 10.8" clip-path="url(#p9470c0e8d1)" style="fill:none;stroke:#b0b0b0;stroke-linecap:square;stroke-width:.8"/></g><g id="line2d_45"><g><use style="stroke:#000;stroke-width:.8" x="774.718" y="499" xlink:href="#m5a2ae347ad"/></g></g><g id="text_23"><g transform="translate(758.811456 513.598438)scale(0.1 -0.1)"><use xlink:href="#DejaVuSans-31"/><use x="63.623" xlink:href="#DejaVuSans-30"/><use x="127.246" xlink:href="#DejaVuSans-30"/><use x="190.869" xlink:href="#DejaVuSans-30"/><use x="254.492" xlink:href="#DejaVuSans-30"/></g></g></g><g id="xtick_11"><g id="line2d_46"><path d="M 842.806098 499 L 842.806098 10.8" clip-path="url(#p9470c0e8d1)" style="fill:none;stroke:#b0b0b0;stroke-linecap:square;stroke-width:.8"/></g><g id="line2d_47"><g><use style="stroke:#000;stroke-width:.8" x="842.806" y="499" xlink:href="#m5a2ae347ad"/></g></g><g id="text_24"><g transform="translate(823.718598 513.598438)scale(0.1 -0.1)"><use xlink:href="#DejaVuSans-31"/><use x="63.623" xlink:href="#DejaVuSans-30"/><use x="127.246" xlink:href="#DejaVuSans-30"/><use x="190.869" xlink:href="#DejaVuSans-30"/><use x="254.492" xlink:href="#DejaVuSans-30"/><use x="318.115" xlink:href="#DejaVuSans-30"/></g></g></g><g id="xtick_12"><g id="line2d_48"><path d="M 910.89449 499 L 910.89449 10.8" clip-path="url(#p9470c0e8d1)" style="fill:none;stroke:#b0b0b0;stroke-linecap:square;stroke-width:.8"/></g><g id="line2d_49"><g><use style="stroke:#000;stroke-width:.8" x="910.894" y="499" xlink:href="#m5a2ae347ad"/></g></g><g id="text_25"><g transform="translate(888.62574 513.598438)scale(0.1 -0.1)"><use xlink:href="#DejaVuSans-31"/><use x="63.623" xlink:href="#DejaVuSans-30"/><use x="127.246" xlink:href="#DejaVuSans-30"/><use x="190.869" xlink:href="#DejaVuSans-30"/><use x="254.492" xlink:href="#DejaVuSans-30"/><use x="318.115" xlink:href="#DejaVuSans-30"/><use x="381.738" xlink:href="#DejaVuSans-30"/></g></g></g><g id="xtick_13"><g id="line2d_50"><path d="M 978.982881 499 L 978.982881 10.8" clip-path="url(#p9470c0e8d1)" style="fill:none;stroke:#b0b0b0;stroke-linecap:square;stroke-width:.8"/></g><g id="line2d_51"><g><use style="stroke:#000;stroke-width:.8" x="978.983" y="499" xlink:href="#m5a2ae347ad"/></g></g><g id="text_26"><g transform="translate(953.532881 513.598438)scale(0.1 -0.1)"><use xlink:href="#DejaVuSans-31"/><use x="63.623" xlink:href="#DejaVuSans-30"/><use x="127.246" xlink:href="#DejaVuSans-30"/><use x="190.869" xlink:href="#DejaVuSans-30"/><use x="254.492" xlink:href="#DejaVuSans-30"/><use x="318.115" xlink:href="#DejaVuSans-30"/><use x="381.738" xlink:href="#DejaVuSans-30"/><use x="445.361" xlink:href="#DejaVuSans-30"/></g></g></g><g id="xtick_14"><g id="line2d_52"><path d="M 1047.071273 499 L 1047.071273 10.8" clip-path="url(#p9470c0e8d1)" style="fill:none;stroke:#b0b0b0;stroke-linecap:square;stroke-width:.8"/></g><g id="line2d_53"><g><use style="stroke:#000;stroke-width:.8" x="1047.071" y="499" xlink:href="#m5a2ae347ad"/></g></g></g><g id="text_27"><g transform="translate(822.043375 527.276562)scale(0.1 -0.1)"><use xlink:href="#DejaVuSans-4e"/></g></g></g><g id="matplotlib.axis_4"><g id="ytick_9"><g id="line2d_54"><path d="M 582.368 434.57523 L 1069.2 434.57523" clip-path="url(#p9470c0e8d1)" style="fill:none;stroke:#b0b0b0;stroke-linecap:square;stroke-width:.8"/></g><g id="line2d_55"><g><use style="stroke:#000;stroke-width:.8" x="582.368" y="434.575" xlink:href="#mf63c8f59f2"/></g></g><g id="text_28"><g transform="translate(559.464875 438.374449)scale(0.1 -0.1)"><use xlink:href="#DejaVuSans-32"/><use x="63.623" xlink:href="#DejaVuSans-2e"/><use x="95.41" xlink:href="#DejaVuSans-35"/></g></g></g><g id="ytick_10"><g id="line2d_56"><path d="M 582.368 340.617296 L 1069.2 340.617296" clip-path="url(#p9470c0e8d1)" style="fill:none;stroke:#b0b0b0;stroke-linecap:square;stroke-width:.8"/></g><g id="line2d_57"><g><use style="stroke:#000;stroke-width:.8" x="582.368" y="340.617" xlink:href="#mf63c8f59f2"/></g></g><g id="text_29"><g transform="translate(559.464875 344.416515)scale(0.1 -0.1)"><defs><path id="DejaVuSans-33" d="M 2597 2516 Q 3050 2419 3304 2112 Q 3559 1806 3559 1356 Q 3559 666 3084 287 Q 2609 -91 1734 -91 Q 1441 -91 1130 -33 Q 819 25 488 141 L 488 750 Q 750 597 1062 519 Q 1375 441 1716 441 Q 2309 441 2620 675 Q 2931 909 2931 1356 Q 2931 1769 2642 2001 Q 2353 2234 1838 2234 L 1294 2234 L 1294 2753 L 1863 2753 Q 2328 2753 2575 2939 Q 2822 3125 2822 3475 Q 2822 3834 2567 4026 Q 2313 4219 1838 4219 Q 1578 4219 1281 4162 Q 984 4106 628 3988 L 628 4550 Q 988 4650 1302 4700 Q 1616 4750 1894 4750 Q 2613 4750 3031 4423 Q 3450 4097 3450 3541 Q 3450 3153 3228 2886 Q 3006 2619 2597 2516 z" transform="scale(0.015625)"/></defs><use xlink:href="#DejaVuSans-33"/><use x="63.623" xlink:href="#DejaVuSans-2e"/><use x="95.41" xlink:href="#DejaVuSans-30"/></g></g></g><g id="ytick_11"><g id="line2d_58"><path d="M 582.368 246.659362 L 1069.2 246.659362" clip-path="url(#p9470c0e8d1)" style="fill:none;stroke:#b0b0b0;stroke-linecap:square;stroke-width:.8"/></g><g id="line2d_59"><g><use style="stroke:#000;stroke-width:.8" x="582.368" y="246.659" xlink:href="#mf63c8f59f2"/></g></g><g id="text_30"><g transform="translate(559.464875 250.45858)scale(0.1 -0.1)"><use xlink:href="#DejaVuSans-33"/><use x="63.623" xlink:href="#DejaVuSans-2e"/><use x="95.41" xlink:href="#DejaVuSans-35"/></g></g></g><g id="ytick_12"><g id="line2d_60"><path d="M 582.368 152.701427 L 1069.2 152.701427" clip-path="url(#p9470c0e8d1)" style="fill:none;stroke:#b0b0b0;stroke-linecap:square;stroke-width:.8"/></g><g id="line2d_61"><g><use style="stroke:#000;stroke-width:.8" x="582.368" y="152.701" xlink:href="#mf63c8f59f2"/></g></g><g id="text_31"><g transform="translate(559.464875 156.500646)scale(0.1 -0.1)"><defs><path id="DejaVuSans-34" d="M 2419 4116 L 825 1625 L 2419 1625 L 2419 4116 z M 2253 4666 L 3047 4666 L 3047 1625 L 3713 1625 L 3713 1100 L 3047 1100 L 3047 0 L 2419 0 L 2419 1100 L 313 1100 L 313 1709 L 2253 4666 z" transform="scale(0.015625)"/></defs><use xlink:href="#DejaVuSans-34"/><use x="63.623" xlink:href="#DejaVuSans-2e"/><use x="95.41" xlink:href="#DejaVuSans-30"/></g></g></g><g id="ytick_13"><g id="line2d_62"><path d="M 582.368 58.743493 L 1069.2 58.743493" clip-path="url(#p9470c0e8d1)" style="fill:none;stroke:#b0b0b0;stroke-linecap:square;stroke-width:.8"/></g><g id="line2d_63"><g><use style="stroke:#000;stroke-width:.8" x="582.368" y="58.743" xlink:href="#mf63c8f59f2"/></g></g><g id="text_32"><g transform="translate(559.464875 62.542712)scale(0.1 -0.1)"><use xlink:href="#DejaVuSans-34"/><use x="63.623" xlink:href="#DejaVuSans-2e"/><use x="95.41" xlink:href="#DejaVuSans-35"/></g></g></g><g id="text_33"><g transform="translate(553.385187 265.9)rotate(-90)scale(0.1 -0.1)"><use transform="translate(0 0.015625)" xlink:href="#DejaVuSans-Oblique-66"/><use transform="translate(35.205078 -16.390625)scale(0.7)" xlink:href="#DejaVuSans-32"/><use transform="translate(82.475586 0.015625)" xlink:href="#DejaVuSans-28"/><use transform="translate(121.489258 0.015625)" xlink:href="#DejaVuSans-Oblique-78"/><use transform="translate(180.668945 0.015625)" xlink:href="#DejaVuSans-29"/></g></g></g><g id="LineCollection_2"><path d="M 604.496727 222.681536 L 1047.071273 222.681536" clip-path="url(#p9470c0e8d1)" style="fill:none;stroke:orange;stroke-dasharray:3.7,1.6;stroke-dashoffset:0"/></g><g id="line2d_64"><path d="M 638.540923 332.754338 L 706.629315 32.990909 L 774.717706 295.375822 L 842.806098 240.589589 L 910.89449 223.936535 L 978.982881 225.84652 L 1047.071273 222.587347" clip-path="url(#p9470c0e8d1)" style="fill:none;stroke:green;stroke-linecap:square"/></g><g id="line2d_65"><path d="M 638.540923 449.869548 L 706.629315 320.035698 L 774.717706 266.162403 L 842.806098 242.497334 L 910.89449 231.800377 L 978.982881 226.897145 L 1047.071273 224.634603" clip-path="url(#p9470c0e8d1)" style="fill:none;stroke:#00f;stroke-linecap:square"/></g><g id="line2d_66"><path d="M 638.540923 476.809091 L 706.629315 330.308863 L 774.717706 270.506492 L 842.806098 244.424177 L 910.89449 232.67553 L 978.982881 227.299219 L 1047.071273 224.820337" clip-path="url(#p9470c0e8d1)" style="fill:none;stroke:purple;stroke-linecap:square"/></g><g id="patch_9"><path d="M 582.368 499 L 582.368 10.8" style="fill:none;stroke:#000;stroke-linecap:square;stroke-linejoin:miter;stroke-width:.8"/></g><g id="patch_10"><path d="M 1069.2 499 L 1069.2 10.8" style="fill:none;stroke:#000;stroke-linecap:square;stroke-linejoin:miter;stroke-width:.8"/></g><g id="patch_11"><path d="M 582.368 499 L 1069.2 499" style="fill:none;stroke:#000;stroke-linecap:square;stroke-linejoin:miter;stroke-width:.8"/></g><g id="patch_12"><path d="M 582.368 10.8 L 1069.2 10.8" style="fill:none;stroke:#000;stroke-linecap:square;stroke-linejoin:miter;stroke-width:.8"/></g><g id="text_34"><g style="fill:orange" transform="translate(570.452531 222.681536)scale(0.08 -0.08)"><defs><path id="DejaVuSans-Oblique-3c0" d="M 584 3500 L 3938 3500 L 3825 2925 L 3384 2925 L 2966 775 Q 2922 550 2981 450 Q 3038 353 3209 353 Q 3256 353 3325 363 Q 3397 369 3419 372 L 3338 -44 Q 3222 -84 3103 -103 Q 2981 -122 2866 -122 Q 2491 -122 2388 81 Q 2284 288 2391 838 L 2797 2925 L 1506 2925 L 938 0 L 350 0 L 919 2925 L 472 2925 L 584 3500 z" transform="scale(0.015625)"/><path id="STIXSizeOneSym-Regular-221a" d="M 6970 9933 L 3373 -1888 L 3104 -1888 L 1626 2918 Q 1555 3149 1465 3251 Q 1376 3354 1229 3354 Q 1011 3354 794 3181 L 717 3309 L 1766 4115 L 1926 4115 L 3379 -602 L 3405 -602 L 6605 9933 L 6970 9933 z" transform="scale(0.015625)"/></defs><use transform="translate(9 46.046875)scale(0.7)" xlink:href="#DejaVuSans-32"/><use transform="translate(53.536133 46.046875)scale(0.7)" xlink:href="#DejaVuSans-Oblique-3c0"/><use transform="translate(0 -53.748437)scale(0.405101)" xlink:href="#STIXSizeOneSym-Regular-221a"/><use transform="translate(51.571712 -64.865625)scale(0.7)" xlink:href="#DejaVuSans-33"/><path d="M 0 19.7125 L 0 25.9625 L 104.857845 25.9625 L 104.857845 19.7125 L 0 19.7125 z"/><path d="M 42.821712 4.7125 L 42.821712 9.0875 L 104.857845 9.0875 L 104.857845 4.7125 L 42.821712 4.7125 z"/></g></g><g id="legend_2"><g id="patch_13"><path d="M 999.944222 47.104875 L 1064.342 47.104875 Q 1065.73 47.104875 1065.73 45.716875 L 1065.73 15.658 Q 1065.73 14.27 1064.342 14.27 L 999.944222 14.27 Q 998.556222 14.27 998.556222 15.658 L 998.556222 45.716875 Q 998.556222 47.104875 999.944222 47.104875 z" style="fill:#fff;opacity:.8;stroke:#ccc;stroke-linejoin:miter"/></g><g id="line2d_67"><path d="M 1001.332222 19.890316 L 1015.212222 19.890316" style="fill:none;stroke:green;stroke-linecap:square"/></g><g id="text_35"><g transform="translate(1020.764222 22.319316)scale(0.0694 -0.0694)"><use xlink:href="#DejaVuSans-4d"/><use x="86.279" xlink:href="#DejaVuSans-6f"/><use x="147.461" xlink:href="#DejaVuSans-6e"/><use x="210.84" xlink:href="#DejaVuSans-74"/><use x="250.049" xlink:href="#DejaVuSans-65"/><use x="311.572" xlink:href="#DejaVuSans-5f"/><use x="361.572" xlink:href="#DejaVuSans-63"/><use x="416.553" xlink:href="#DejaVuSans-61"/><use x="477.832" xlink:href="#DejaVuSans-72"/><use x="518.945" xlink:href="#DejaVuSans-6c"/><use x="546.729" xlink:href="#DejaVuSans-6f"/></g></g><g id="line2d_69"><path d="M 1001.332222 30.269953 L 1015.212222 30.269953" style="fill:none;stroke:#00f;stroke-linecap:square"/></g><g id="text_36"><g transform="translate(1020.764222 32.698953)scale(0.0694 -0.0694)"><use xlink:href="#DejaVuSans-53"/><use x="63.477" xlink:href="#DejaVuSans-69"/><use x="91.26" xlink:href="#DejaVuSans-6d"/><use x="188.672" xlink:href="#DejaVuSans-70"/><use x="252.148" xlink:href="#DejaVuSans-73"/><use x="304.248" xlink:href="#DejaVuSans-6f"/><use x="365.43" xlink:href="#DejaVuSans-6e"/></g></g><g id="line2d_71"><path d="M 1001.332222 40.456572 L 1015.212222 40.456572" style="fill:none;stroke:purple;stroke-linecap:square"/></g><g id="text_37"><g transform="translate(1020.764222 42.885572)scale(0.0694 -0.0694)"><use xlink:href="#DejaVuSans-54"/><use x="46.334" xlink:href="#DejaVuSans-72"/><use x="87.447" xlink:href="#DejaVuSans-61"/><use x="148.727" xlink:href="#DejaVuSans-70"/><use x="212.203" xlink:href="#DejaVuSans-65"/><use x="273.727" xlink:href="#DejaVuSans-7a"/><use x="326.217" xlink:href="#DejaVuSans-6f"/><use x="387.398" xlink:href="#DejaVuSans-69"/><use x="415.182" xlink:href="#DejaVuSans-64"/><use x="478.658" xlink:href="#DejaVuSans-61"/><use x="539.938" xlink:href="#DejaVuSans-6c"/></g></g></g></g></g><defs><clipPath id="pe3228368b0"><rect width="486.832" height="488.2" x="46.508" y="10.8"/></clipPath><clipPath id="p9470c0e8d1"><rect width="486.832" height="488.2" x="582.368" y="10.8"/></clipPath></defs></svg>