<svg xmlns="http://www.w3.org/2000/svg" xmlns:xlink="http://www.w3.org/1999/xlink" style="fill-opacity:1;color-rendering:auto;color-interpolation:auto;text-rendering:auto;stroke:#000;stroke-linecap:square;stroke-miterlimit:10;shape-rendering:auto;stroke-opacity:1;fill:#000;stroke-dasharray:none;font-weight:400;stroke-width:1;font-family:'Dialog';font-style:normal;stroke-linejoin:miter;font-size:12px;stroke-dashoffset:0;image-rendering:auto" width="840" height="630"><g><defs id="defs1"><clipPath id="clipPath1" clipPathUnits="userSpaceOnUse"><path d="M0 0 L840 0 L840 630 L0 630 L0 0 Z"/></clipPath></defs><g style="fill:#fff;stroke:#fff"><rect width="840" height="630" x="0" y="0" style="clip-path:url(#clipPath1);stroke:none"/></g><g style="fill:#fff;text-rendering:optimizeSpeed;color-rendering:optimizeSpeed;image-rendering:optimizeSpeed;shape-rendering:crispEdges;stroke:#fff;color-interpolation:sRGB"><rect width="840" height="630" x="0" y="0" style="stroke:none"/><path style="stroke:none" d="M109 556 L760 556 L760 47 L109 47 Z"/></g><g style="stroke-linecap:butt;fill:#262626;text-rendering:geometricPrecision;color-rendering:optimizeQuality;image-rendering:optimizeQuality;stroke-linejoin:round;stroke:#262626;color-interpolation:linearRGB"><line style="fill:none" x1="109.002" x2="759.999" y1="556" y2="556"/></g><g style="fill:#0072bd;text-rendering:optimizeSpeed;color-rendering:optimizeSpeed;image-rendering:optimizeSpeed;shape-rendering:crispEdges;stroke:#0072bd;color-interpolation:sRGB"><path style="stroke:none" d="M120.5351 556 L120.5351 553.1722 L114.1279 553.1722 L114.1279 556 ZM133.3493 556 L133.3493 553.1722 L126.9422 553.1722 L126.9422 556 ZM171.7922 556 L171.7922 553.1722 L165.385 553.1722 L165.385 556 ZM184.6064 556 L184.6064 553.1722 L178.1993 553.1722 L178.1993 556 ZM203.8279 556 L203.8279 553.1722 L197.4207 553.1722 L197.4207 556 ZM210.2413 556 L210.2413 544.6889 L203.8279 544.6889 L203.8279 556 ZM216.6484 556 L216.6484 550.3444 L210.2413 550.3444 L210.2413 556 ZM223.0555 556 L223.0555 541.8611 L216.6484 541.8611 L216.6484 556 ZM229.4627 556 L229.4627 550.3444 L223.0555 550.3444 L223.0555 556 ZM235.8698 556 L235.8698 530.55 L229.4627 530.55 L229.4627 556 ZM242.2769 556 L242.2769 547.5167 L235.8698 547.5167 L235.8698 556 ZM248.6841 533.3778 L242.2769 533.3778 L242.2769 556 L248.6841 556 L255.0912 556 L255.0912 533.3778 ZM261.4984 556 L261.4984 519.2389 L255.0912 519.2389 L255.0912 556 ZM267.9055 556 L267.9055 527.7222 L261.4984 527.7222 L261.4984 556 ZM274.3126 556 L274.3126 533.3778 L267.9055 533.3778 L267.9055 556 ZM280.7198 556 L280.7198 513.5833 L274.3126 513.5833 L274.3126 556 ZM287.1269 556 L287.1269 507.9278 L280.7198 507.9278 L280.7198 556 ZM293.5341 556 L293.5341 476.8222 L287.1269 476.8222 L287.1269 556 ZM299.9412 556 L299.9412 496.6167 L293.5341 496.6167 L293.5341 556 ZM306.3483 556 L306.3483 465.5111 L299.9412 465.5111 L299.9412 556 ZM312.7555 556 L312.7555 411.7833 L306.3483 411.7833 L306.3483 556 ZM319.1626 556 L319.1626 476.8222 L312.7555 476.8222 L312.7555 556 ZM325.5697 556 L325.5697 417.4389 L319.1626 417.4389 L319.1626 556 ZM331.9832 556 L331.9832 391.9889 L325.5697 391.9889 L325.5697 556 ZM338.3903 556 L338.3903 408.9556 L331.9832 408.9556 L331.9832 556 ZM344.7974 556 L344.7974 400.4722 L338.3903 400.4722 L338.3903 556 ZM351.2046 556 L351.2046 332.6056 L344.7974 332.6056 L344.7974 556 ZM357.6117 556 L357.6117 321.2944 L351.2046 321.2944 L351.2046 556 ZM364.0188 556 L364.0188 312.8111 L357.6117 312.8111 L357.6117 556 ZM370.426 556 L370.426 309.9833 L364.0188 309.9833 L364.0188 556 ZM376.8331 556 L376.8331 346.7444 L370.426 346.7444 L370.426 556 ZM383.2402 556 L383.2402 250.6 L376.8331 250.6 L376.8331 556 ZM389.6474 556 L389.6474 261.9111 L383.2402 261.9111 L383.2402 556 ZM396.0545 556 L396.0545 219.4944 L389.6474 219.4944 L389.6474 556 ZM402.4616 556 L402.4616 134.6611 L396.0545 134.6611 L396.0545 556 ZM408.8688 556 L408.8688 148.8 L402.4616 148.8 L402.4616 556 ZM415.2759 556 L415.2759 211.0111 L408.8688 211.0111 L408.8688 556 ZM421.683 556 L421.683 202.5278 L415.2759 202.5278 L415.2759 556 ZM428.0902 556 L428.0902 109.2111 L421.683 109.2111 L421.683 556 ZM434.4973 556 L434.4973 148.8 L428.0902 148.8 L428.0902 556 ZM440.9045 556 L440.9045 145.9722 L434.4973 145.9722 L434.4973 556 ZM447.3179 556 L447.3179 126.1778 L440.9045 126.1778 L440.9045 556 ZM453.725 109.2111 L447.3179 109.2111 L447.3179 556 L453.725 556 L460.1322 556 L460.1322 109.2111 ZM466.5393 556 L466.5393 179.9055 L460.1322 179.9055 L460.1322 556 ZM472.9464 556 L472.9464 80.9333 L466.5393 80.9333 L466.5393 556 ZM479.3536 556 L479.3536 160.1111 L472.9464 160.1111 L472.9464 556 ZM485.7607 556 L485.7607 154.4556 L479.3536 154.4556 L479.3536 556 ZM492.1678 556 L492.1678 106.3833 L485.7607 106.3833 L485.7607 556 ZM498.575 196.8722 L492.1678 196.8722 L492.1678 556 L498.575 556 L504.9821 556 L504.9821 196.8722 ZM511.3893 556 L511.3893 216.6667 L504.9821 216.6667 L504.9821 556 ZM517.7964 556 L517.7964 211.0111 L511.3893 211.0111 L511.3893 556 ZM524.2036 556 L524.2036 222.3222 L517.7964 222.3222 L517.7964 556 ZM530.6107 556 L530.6107 253.4278 L524.2036 253.4278 L524.2036 556 ZM537.0178 287.3611 L530.6107 287.3611 L530.6107 556 L537.0178 556 L543.4249 556 L543.4249 287.3611 ZM549.8321 556 L549.8321 338.2611 L543.4249 338.2611 L543.4249 556 ZM556.2392 556 L556.2392 352.4 L549.8321 352.4 L549.8321 556 ZM562.6526 556 L562.6526 397.6444 L556.2392 397.6444 L556.2392 556 ZM569.0598 556 L569.0598 329.7778 L562.6526 329.7778 L562.6526 556 ZM575.4669 556 L575.4669 423.0945 L569.0598 423.0945 L569.0598 556 ZM581.874 556 L581.874 403.3 L575.4669 403.3 L575.4669 556 ZM588.2812 556 L588.2812 420.2667 L581.874 420.2667 L581.874 556 ZM594.6883 556 L594.6883 471.1667 L588.2812 471.1667 L588.2812 556 ZM601.0955 556 L601.0955 488.1333 L594.6883 488.1333 L594.6883 556 ZM607.5026 556 L607.5026 465.5111 L601.0955 465.5111 L601.0955 556 ZM613.9097 496.6167 L607.5026 496.6167 L607.5026 556 L613.9097 556 L620.3168 556 L620.3168 496.6167 ZM626.724 556 L626.724 510.7556 L620.3168 510.7556 L620.3168 556 ZM633.1311 556 L633.1311 507.9278 L626.724 507.9278 L626.724 556 ZM639.5383 519.2389 L633.1311 519.2389 L633.1311 556 L639.5383 556 L645.9454 556 L645.9454 519.2389 ZM652.3525 556 L652.3525 533.3778 L645.9454 533.3778 L645.9454 556 ZM658.7596 556 L658.7596 539.0333 L652.3525 539.0333 L652.3525 556 ZM665.1668 556 L665.1668 541.8611 L658.7596 541.8611 L658.7596 556 ZM671.5739 544.6889 L665.1668 544.6889 L665.1668 556 L671.5739 556 L677.9874 556 L677.9874 544.6889 ZM684.3945 539.0333 L677.9874 539.0333 L677.9874 556 L684.3945 556 L690.8016 556 L690.8016 539.0333 ZM697.2088 556 L697.2088 547.5167 L690.8016 547.5167 L690.8016 556 ZM703.6159 556 L703.6159 553.1722 L697.2088 553.1722 L697.2088 556 ZM710.0231 556 L710.0231 550.3444 L703.6159 550.3444 L703.6159 556 ZM716.4302 556 L716.4302 553.1722 L710.0231 553.1722 L710.0231 556 ZM729.2444 556 L729.2444 553.1722 L722.8373 553.1722 L722.8373 556 ZM754.873 556 L754.873 553.1722 L748.4659 553.1722 L748.4659 556 Z"/></g><g style="text-rendering:geometricPrecision;color-rendering:optimizeQuality;color-interpolation:linearRGB;stroke-linecap:butt;image-rendering:optimizeQuality"><path d="M114.1279 556 L114.1279 553.1722 L120.5351 553.1722 L120.5351 556 Z" style="fill:none;fill-rule:evenodd"/><path d="M120.5351 556 L120.5351 556 L126.9422 556 L126.9422 556 Z" style="fill:none;fill-rule:evenodd"/><path d="M126.9422 556 L126.9422 553.1722 L133.3493 553.1722 L133.3493 556 Z" style="fill:none;fill-rule:evenodd"/><path d="M133.3493 556 L133.3493 556 L139.7565 556 L139.7565 556 Z" style="fill:none;fill-rule:evenodd"/><path d="M139.7565 556 L139.7565 556 L146.1636 556 L146.1636 556 Z" style="fill:none;fill-rule:evenodd"/><path d="M146.1636 556 L146.1636 556 L152.5708 556 L152.5708 556 Z" style="fill:none;fill-rule:evenodd"/><path d="M152.5708 556 L152.5708 556 L158.9779 556 L158.9779 556 Z" style="fill:none;fill-rule:evenodd"/><path d="M158.9779 556 L158.9779 556 L165.385 556 L165.385 556 Z" style="fill:none;fill-rule:evenodd"/><path d="M165.385 556 L165.385 553.1722 L171.7922 553.1722 L171.7922 556 Z" style="fill:none;fill-rule:evenodd"/><path d="M171.7922 556 L171.7922 556 L178.1993 556 L178.1993 556 Z" style="fill:none;fill-rule:evenodd"/><path d="M178.1993 556 L178.1993 553.1722 L184.6064 553.1722 L184.6064 556 Z" style="fill:none;fill-rule:evenodd"/><path d="M184.6064 556 L184.6064 556 L191.0136 556 L191.0136 556 Z" style="fill:none;fill-rule:evenodd"/><path d="M191.0136 556 L191.0136 556 L197.4207 556 L197.4207 556 Z" style="fill:none;fill-rule:evenodd"/><path d="M197.4207 556 L197.4207 553.1722 L203.8279 553.1722 L203.8279 556 Z" style="fill:none;fill-rule:evenodd"/><path d="M203.8279 556 L203.8279 544.6889 L210.2413 544.6889 L210.2413 556 Z" style="fill:none;fill-rule:evenodd"/><path d="M210.2413 556 L210.2413 550.3444 L216.6484 550.3444 L216.6484 556 Z" style="fill:none;fill-rule:evenodd"/><path d="M216.6484 556 L216.6484 541.8611 L223.0555 541.8611 L223.0555 556 Z" style="fill:none;fill-rule:evenodd"/><path d="M223.0555 556 L223.0555 550.3444 L229.4627 550.3444 L229.4627 556 Z" style="fill:none;fill-rule:evenodd"/><path d="M229.4627 556 L229.4627 530.55 L235.8698 530.55 L235.8698 556 Z" style="fill:none;fill-rule:evenodd"/><path d="M235.8698 556 L235.8698 547.5167 L242.2769 547.5167 L242.2769 556 Z" style="fill:none;fill-rule:evenodd"/><path d="M242.2769 556 L242.2769 533.3778 L248.6841 533.3778 L248.6841 556 Z" style="fill:none;fill-rule:evenodd"/><path d="M248.6841 556 L248.6841 533.3778 L255.0912 533.3778 L255.0912 556 Z" style="fill:none;fill-rule:evenodd"/><path d="M255.0912 556 L255.0912 519.2389 L261.4984 519.2389 L261.4984 556 Z" style="fill:none;fill-rule:evenodd"/><path d="M261.4984 556 L261.4984 527.7222 L267.9055 527.7222 L267.9055 556 Z" style="fill:none;fill-rule:evenodd"/><path d="M267.9055 556 L267.9055 533.3778 L274.3126 533.3778 L274.3126 556 Z" style="fill:none;fill-rule:evenodd"/><path d="M274.3126 556 L274.3126 513.5833 L280.7198 513.5833 L280.7198 556 Z" style="fill:none;fill-rule:evenodd"/><path d="M280.7198 556 L280.7198 507.9278 L287.1269 507.9278 L287.1269 556 Z" style="fill:none;fill-rule:evenodd"/><path d="M287.1269 556 L287.1269 476.8222 L293.5341 476.8222 L293.5341 556 Z" style="fill:none;fill-rule:evenodd"/><path d="M293.5341 556 L293.5341 496.6167 L299.9412 496.6167 L299.9412 556 Z" style="fill:none;fill-rule:evenodd"/><path d="M299.9412 556 L299.9412 465.5111 L306.3483 465.5111 L306.3483 556 Z" style="fill:none;fill-rule:evenodd"/><path d="M306.3483 556 L306.3483 411.7833 L312.7555 411.7833 L312.7555 556 Z" style="fill:none;fill-rule:evenodd"/><path d="M312.7555 556 L312.7555 476.8222 L319.1626 476.8222 L319.1626 556 Z" style="fill:none;fill-rule:evenodd"/><path d="M319.1626 556 L319.1626 417.4389 L325.5697 417.4389 L325.5697 556 Z" style="fill:none;fill-rule:evenodd"/><path d="M325.5697 556 L325.5697 391.9889 L331.9832 391.9889 L331.9832 556 Z" style="fill:none;fill-rule:evenodd"/><path d="M331.9832 556 L331.9832 408.9556 L338.3903 408.9556 L338.3903 556 Z" style="fill:none;fill-rule:evenodd"/><path d="M338.3903 556 L338.3903 400.4722 L344.7974 400.4722 L344.7974 556 Z" style="fill:none;fill-rule:evenodd"/><path d="M344.7974 556 L344.7974 332.6056 L351.2046 332.6056 L351.2046 556 Z" style="fill:none;fill-rule:evenodd"/><path d="M351.2046 556 L351.2046 321.2944 L357.6117 321.2944 L357.6117 556 Z" style="fill:none;fill-rule:evenodd"/><path d="M357.6117 556 L357.6117 312.8111 L364.0188 312.8111 L364.0188 556 Z" style="fill:none;fill-rule:evenodd"/><path d="M364.0188 556 L364.0188 309.9833 L370.426 309.9833 L370.426 556 Z" style="fill:none;fill-rule:evenodd"/><path d="M370.426 556 L370.426 346.7444 L376.8331 346.7444 L376.8331 556 Z" style="fill:none;fill-rule:evenodd"/><path d="M376.8331 556 L376.8331 250.6 L383.2402 250.6 L383.2402 556 Z" style="fill:none;fill-rule:evenodd"/><path d="M383.2402 556 L383.2402 261.9111 L389.6474 261.9111 L389.6474 556 Z" style="fill:none;fill-rule:evenodd"/><path d="M389.6474 556 L389.6474 219.4944 L396.0545 219.4944 L396.0545 556 Z" style="fill:none;fill-rule:evenodd"/><path d="M396.0545 556 L396.0545 134.6611 L402.4616 134.6611 L402.4616 556 Z" style="fill:none;fill-rule:evenodd"/><path d="M402.4616 556 L402.4616 148.8 L408.8688 148.8 L408.8688 556 Z" style="fill:none;fill-rule:evenodd"/><path d="M408.8688 556 L408.8688 211.0111 L415.2759 211.0111 L415.2759 556 Z" style="fill:none;fill-rule:evenodd"/><path d="M415.2759 556 L415.2759 202.5278 L421.683 202.5278 L421.683 556 Z" style="fill:none;fill-rule:evenodd"/><path d="M421.683 556 L421.683 109.2111 L428.0902 109.2111 L428.0902 556 Z" style="fill:none;fill-rule:evenodd"/><path d="M428.0902 556 L428.0902 148.8 L434.4973 148.8 L434.4973 556 Z" style="fill:none;fill-rule:evenodd"/><path d="M434.4973 556 L434.4973 145.9722 L440.9045 145.9722 L440.9045 556 Z" style="fill:none;fill-rule:evenodd"/><path d="M440.9045 556 L440.9045 126.1778 L447.3179 126.1778 L447.3179 556 Z" style="fill:none;fill-rule:evenodd"/><path d="M447.3179 556 L447.3179 109.2111 L453.725 109.2111 L453.725 556 Z" style="fill:none;fill-rule:evenodd"/><path d="M453.725 556 L453.725 109.2111 L460.1322 109.2111 L460.1322 556 Z" style="fill:none;fill-rule:evenodd"/><path d="M460.1322 556 L460.1322 179.9055 L466.5393 179.9055 L466.5393 556 Z" style="fill:none;fill-rule:evenodd"/><path d="M466.5393 556 L466.5393 80.9333 L472.9464 80.9333 L472.9464 556 Z" style="fill:none;fill-rule:evenodd"/><path d="M472.9464 556 L472.9464 160.1111 L479.3536 160.1111 L479.3536 556 Z" style="fill:none;fill-rule:evenodd"/><path d="M479.3536 556 L479.3536 154.4556 L485.7607 154.4556 L485.7607 556 Z" style="fill:none;fill-rule:evenodd"/><path d="M485.7607 556 L485.7607 106.3833 L492.1678 106.3833 L492.1678 556 Z" style="fill:none;fill-rule:evenodd"/><path d="M492.1678 556 L492.1678 196.8722 L498.575 196.8722 L498.575 556 Z" style="fill:none;fill-rule:evenodd"/><path d="M498.575 556 L498.575 196.8722 L504.9821 196.8722 L504.9821 556 Z" style="fill:none;fill-rule:evenodd"/><path d="M504.9821 556 L504.9821 216.6667 L511.3893 216.6667 L511.3893 556 Z" style="fill:none;fill-rule:evenodd"/><path d="M511.3893 556 L511.3893 211.0111 L517.7964 211.0111 L517.7964 556 Z" style="fill:none;fill-rule:evenodd"/><path d="M517.7964 556 L517.7964 222.3222 L524.2036 222.3222 L524.2036 556 Z" style="fill:none;fill-rule:evenodd"/><path d="M524.2036 556 L524.2036 253.4278 L530.6107 253.4278 L530.6107 556 Z" style="fill:none;fill-rule:evenodd"/><path d="M530.6107 556 L530.6107 287.3611 L537.0178 287.3611 L537.0178 556 Z" style="fill:none;fill-rule:evenodd"/><path d="M537.0178 556 L537.0178 287.3611 L543.4249 287.3611 L543.4249 556 Z" style="fill:none;fill-rule:evenodd"/><path d="M543.4249 556 L543.4249 338.2611 L549.8321 338.2611 L549.8321 556 Z" style="fill:none;fill-rule:evenodd"/><path d="M549.8321 556 L549.8321 352.4 L556.2392 352.4 L556.2392 556 Z" style="fill:none;fill-rule:evenodd"/><path d="M556.2392 556 L556.2392 397.6444 L562.6526 397.6444 L562.6526 556 Z" style="fill:none;fill-rule:evenodd"/><path d="M562.6526 556 L562.6526 329.7778 L569.0598 329.7778 L569.0598 556 Z" style="fill:none;fill-rule:evenodd"/><path d="M569.0598 556 L569.0598 423.0945 L575.4669 423.0945 L575.4669 556 Z" style="fill:none;fill-rule:evenodd"/><path d="M575.4669 556 L575.4669 403.3 L581.874 403.3 L581.874 556 Z" style="fill:none;fill-rule:evenodd"/><path d="M581.874 556 L581.874 420.2667 L588.2812 420.2667 L588.2812 556 Z" style="fill:none;fill-rule:evenodd"/><path d="M588.2812 556 L588.2812 471.1667 L594.6883 471.1667 L594.6883 556 Z" style="fill:none;fill-rule:evenodd"/><path d="M594.6883 556 L594.6883 488.1333 L601.0955 488.1333 L601.0955 556 Z" style="fill:none;fill-rule:evenodd"/><path d="M601.0955 556 L601.0955 465.5111 L607.5026 465.5111 L607.5026 556 Z" style="fill:none;fill-rule:evenodd"/><path d="M607.5026 556 L607.5026 496.6167 L613.9097 496.6167 L613.9097 556 Z" style="fill:none;fill-rule:evenodd"/><path d="M613.9097 556 L613.9097 496.6167 L620.3168 496.6167 L620.3168 556 Z" style="fill:none;fill-rule:evenodd"/><path d="M620.3168 556 L620.3168 510.7556 L626.724 510.7556 L626.724 556 Z" style="fill:none;fill-rule:evenodd"/><path d="M626.724 556 L626.724 507.9278 L633.1311 507.9278 L633.1311 556 Z" style="fill:none;fill-rule:evenodd"/><path d="M633.1311 556 L633.1311 519.2389 L639.5383 519.2389 L639.5383 556 Z" style="fill:none;fill-rule:evenodd"/><path d="M639.5383 556 L639.5383 519.2389 L645.9454 519.2389 L645.9454 556 Z" style="fill:none;fill-rule:evenodd"/><path d="M645.9454 556 L645.9454 533.3778 L652.3525 533.3778 L652.3525 556 Z" style="fill:none;fill-rule:evenodd"/><path d="M652.3525 556 L652.3525 539.0333 L658.7596 539.0333 L658.7596 556 Z" style="fill:none;fill-rule:evenodd"/><path d="M658.7596 556 L658.7596 541.8611 L665.1668 541.8611 L665.1668 556 Z" style="fill:none;fill-rule:evenodd"/><path d="M665.1668 556 L665.1668 544.6889 L671.5739 544.6889 L671.5739 556 Z" style="fill:none;fill-rule:evenodd"/><path d="M671.5739 556 L671.5739 544.6889 L677.9874 544.6889 L677.9874 556 Z" style="fill:none;fill-rule:evenodd"/><path d="M677.9874 556 L677.9874 539.0333 L684.3945 539.0333 L684.3945 556 Z" style="fill:none;fill-rule:evenodd"/><path d="M684.3945 556 L684.3945 539.0333 L690.8016 539.0333 L690.8016 556 Z" style="fill:none;fill-rule:evenodd"/><path d="M690.8016 556 L690.8016 547.5167 L697.2088 547.5167 L697.2088 556 Z" style="fill:none;fill-rule:evenodd"/><path d="M697.2088 556 L697.2088 553.1722 L703.6159 553.1722 L703.6159 556 Z" style="fill:none;fill-rule:evenodd"/><path d="M703.6159 556 L703.6159 550.3444 L710.0231 550.3444 L710.0231 556 Z" style="fill:none;fill-rule:evenodd"/><path d="M710.0231 556 L710.0231 553.1722 L716.4302 553.1722 L716.4302 556 Z" style="fill:none;fill-rule:evenodd"/><path d="M716.4302 556 L716.4302 556 L722.8373 556 L722.8373 556 Z" style="fill:none;fill-rule:evenodd"/><path d="M722.8373 556 L722.8373 553.1722 L729.2444 553.1722 L729.2444 556 Z" style="fill:none;fill-rule:evenodd"/><path d="M729.2444 556 L729.2444 556 L735.6516 556 L735.6516 556 Z" style="fill:none;fill-rule:evenodd"/><path d="M735.6516 556 L735.6516 556 L742.0587 556 L742.0587 556 Z" style="fill:none;fill-rule:evenodd"/><path d="M742.0587 556 L742.0587 556 L748.4659 556 L748.4659 556 Z" style="fill:none;fill-rule:evenodd"/><path d="M748.4659 556 L748.4659 553.1722 L754.873 553.1722 L754.873 556 Z" style="fill:none;fill-rule:evenodd"/></g><g style="stroke-linecap:butt;fill:red;text-rendering:geometricPrecision;image-rendering:optimizeQuality;color-rendering:optimizeQuality;stroke-linejoin:round;stroke:red;color-interpolation:linearRGB;stroke-width:4"><path d="M203.6457 551.1589 L208.6709 550.2042 L213.7024 549.0868 L218.7276 547.7841 L223.7528 546.2717 L228.778 544.5233 L233.8032 542.5101 L238.8347 540.202 L243.8599 537.5668 L248.8851 534.571 L253.9103 531.1795 L258.9355 527.3567 L263.9607 523.0663 L268.9922 518.272 L274.0174 512.9384 L279.0426 507.0309 L284.0678 500.5171 L289.093 493.3673 L294.1245 485.5555 L299.1497 477.0597 L304.1749 467.8637 L309.2001 457.9572 L314.2253 447.3371 L319.2568 436.0081 L324.282 423.9839 L329.3072 411.2871 L334.3324 397.9509 L339.3576 384.0185 L344.3828 369.544 L349.4143 354.5925 L354.4395 339.2397 L359.4647 323.5718 L364.4899 307.6852 L369.5151 291.6855 L374.5466 275.6862 L379.5718 259.8085 L384.597 244.1788 L389.6223 228.9279 L394.6475 214.189 L399.6789 200.0955 L404.7041 186.7796 L409.7293 174.3698 L414.7545 162.9892 L419.7798 152.753 L424.805 143.7671 L429.8365 136.1261 L434.8617 129.9114 L439.8869 125.19 L444.9121 122.0132 L449.9373 120.4159 L454.9688 120.4156 L459.994 122.0124 L465.0192 125.1885 L470.0444 129.9093 L475.0696 136.1235 L480.1011 143.764 L485.1263 152.7494 L490.1515 162.9851 L495.1767 174.3654 L500.2019 186.7748 L505.2271 200.0904 L510.2586 214.1836 L515.2838 228.9224 L520.309 244.1731 L525.3342 259.8026 L530.3594 275.6803 L535.3909 291.6795 L540.4161 307.6793 L545.4413 323.5659 L550.4665 339.2339 L555.4917 354.5868 L560.5232 369.5385 L565.5484 384.0132 L570.5736 397.9458 L575.5988 411.2823 L580.624 423.9792 L585.6492 436.0038 L590.6807 447.333 L595.7059 457.9534 L600.7311 467.8602 L605.7563 477.0564 L610.7816 485.5524 L615.813 493.3645 L620.8382 500.5145 L625.8634 507.0285 L630.8886 512.9363 L635.9138 518.2701 L640.9453 523.0646 L645.9705 527.3552 L650.9957 531.1782 L656.0209 534.5698 L661.0461 537.5658 L666.0714 540.2011 L671.1028 542.5093 L676.1281 544.5226 L681.1533 546.2711 L686.1785 547.7836 L691.2037 549.0863 L696.2351 550.2039 L701.2603 551.1586" style="fill:none;fill-rule:evenodd"/></g><g style="fill:#262626;text-rendering:geometricPrecision;color-rendering:optimizeQuality;image-rendering:optimizeQuality;stroke-linejoin:round;stroke:#262626;color-interpolation:linearRGB"><line style="fill:none" x1="109.002" x2="759.999" y1="556" y2="556"/><line style="fill:none" x1="109.002" x2="759.999" y1="47" y2="47"/><line style="fill:none" x1="157.294" x2="157.294" y1="556" y2="549.49"/><line style="fill:none" x1="224.739" x2="224.739" y1="556" y2="549.49"/><line style="fill:none" x1="292.183" x2="292.183" y1="556" y2="549.49"/><line style="fill:none" x1="359.634" x2="359.634" y1="556" y2="549.49"/><line style="fill:none" x1="427.079" x2="427.079" y1="556" y2="549.49"/><line style="fill:none" x1="494.53" x2="494.53" y1="556" y2="549.49"/><line style="fill:none" x1="561.974" x2="561.974" y1="556" y2="549.49"/><line style="fill:none" x1="629.425" x2="629.425" y1="556" y2="549.49"/><line style="fill:none" x1="696.87" x2="696.87" y1="556" y2="549.49"/><line style="fill:none" x1="157.294" x2="157.294" y1="47" y2="53.51"/><line style="fill:none" x1="224.739" x2="224.739" y1="47" y2="53.51"/><line style="fill:none" x1="292.183" x2="292.183" y1="47" y2="53.51"/><line style="fill:none" x1="359.634" x2="359.634" y1="47" y2="53.51"/><line style="fill:none" x1="427.079" x2="427.079" y1="47" y2="53.51"/><line style="fill:none" x1="494.53" x2="494.53" y1="47" y2="53.51"/><line style="fill:none" x1="561.974" x2="561.974" y1="47" y2="53.51"/><line style="fill:none" x1="629.425" x2="629.425" y1="47" y2="53.51"/><line style="fill:none" x1="696.87" x2="696.87" y1="47" y2="53.51"/></g><g style="font-size:20px;fill:#262626;text-rendering:geometricPrecision;color-rendering:optimizeQuality;image-rendering:optimizeQuality;stroke:#262626;color-interpolation:linearRGB"><path style="stroke:none" d="M-13.0312 21 L-13.0312 17.5781 L-19.25 17.5781 L-19.25 15.9531 L-12.7188 6.6875 L-11.2812 6.6875 L-11.2812 15.9531 L-9.3438 15.9531 L-9.3438 17.5781 L-11.2812 17.5781 L-11.2812 21 L-13.0312 21 ZM-13.0312 15.9531 L-13.0312 9.5 L-17.5156 15.9531 L-13.0312 15.9531 ZM-6.5645 21 L-6.5645 19 L-4.5645 19 L-4.5645 21 L-6.5645 21 ZM7.1328 10.1875 L5.3828 10.3281 Q5.1484 9.2969 4.7266 8.8281 Q4.0078 8.0625 2.9609 8.0625 Q2.1172 8.0625 1.4922 8.5312 Q0.6641 9.1406 0.1797 10.3047 Q-0.3047 11.4688 -0.3203 13.6094 Q0.3203 12.6562 1.2344 12.1875 Q2.1484 11.7188 3.1641 11.7188 Q4.9141 11.7188 6.1484 13.0078 Q7.3828 14.2969 7.3828 16.3438 Q7.3828 17.7031 6.8047 18.8594 Q6.2266 20.0156 5.2109 20.6328 Q4.1953 21.25 2.8984 21.25 Q0.7109 21.25 -0.6797 19.6328 Q-2.0703 18.0156 -2.0703 14.2969 Q-2.0703 10.1562 -0.5391 8.2656 Q0.8047 6.625 3.0703 6.625 Q4.7578 6.625 5.8359 7.5703 Q6.9141 8.5156 7.1328 10.1875 ZM-0.0391 16.3594 Q-0.0391 17.2656 0.3438 18.0938 Q0.7266 18.9219 1.4219 19.3594 Q2.1172 19.7969 2.8672 19.7969 Q3.9922 19.7969 4.7891 18.8984 Q5.5859 18 5.5859 16.4531 Q5.5859 14.9688 4.7969 14.1172 Q4.0078 13.2656 2.8047 13.2656 Q1.6172 13.2656 0.7891 14.1172 Q-0.0391 14.9688 -0.0391 16.3594 ZM9.2559 8.5625 L9.2559 6.875 L18.5215 6.875 L18.5215 8.2344 Q17.1465 9.6875 15.8027 12.1016 Q14.459 14.5156 13.7402 17.0625 Q13.209 18.8594 13.0527 21 L11.2559 21 Q11.2871 19.3125 11.9199 16.9219 Q12.5527 14.5312 13.7402 12.3047 Q14.9277 10.0781 16.2559 8.5625 L9.2559 8.5625 Z" transform="translate(157.2944,564)"/></g><g style="font-size:20px;fill:#262626;text-rendering:geometricPrecision;color-rendering:optimizeQuality;image-rendering:optimizeQuality;stroke:#262626;color-interpolation:linearRGB"><path style="stroke:none" d="M-19.0312 21 L-19.0312 17.5781 L-25.25 17.5781 L-25.25 15.9531 L-18.7188 6.6875 L-17.2812 6.6875 L-17.2812 15.9531 L-15.3438 15.9531 L-15.3438 17.5781 L-17.2812 17.5781 L-17.2812 21 L-19.0312 21 ZM-19.0312 15.9531 L-19.0312 9.5 L-23.5156 15.9531 L-19.0312 15.9531 ZM-12.5645 21 L-12.5645 19 L-10.5645 19 L-10.5645 21 L-12.5645 21 ZM1.1328 10.1875 L-0.6172 10.3281 Q-0.8516 9.2969 -1.2734 8.8281 Q-1.9922 8.0625 -3.0391 8.0625 Q-3.8828 8.0625 -4.5078 8.5312 Q-5.3359 9.1406 -5.8203 10.3047 Q-6.3047 11.4688 -6.3203 13.6094 Q-5.6797 12.6562 -4.7656 12.1875 Q-3.8516 11.7188 -2.8359 11.7188 Q-1.0859 11.7188 0.1484 13.0078 Q1.3828 14.2969 1.3828 16.3438 Q1.3828 17.7031 0.8047 18.8594 Q0.2266 20.0156 -0.7891 20.6328 Q-1.8047 21.25 -3.1016 21.25 Q-5.2891 21.25 -6.6797 19.6328 Q-8.0703 18.0156 -8.0703 14.2969 Q-8.0703 10.1562 -6.5391 8.2656 Q-5.1953 6.625 -2.9297 6.625 Q-1.2422 6.625 -0.1641 7.5703 Q0.9141 8.5156 1.1328 10.1875 ZM-6.0391 16.3594 Q-6.0391 17.2656 -5.6562 18.0938 Q-5.2734 18.9219 -4.5781 19.3594 Q-3.8828 19.7969 -3.1328 19.7969 Q-2.0078 19.7969 -1.2109 18.8984 Q-0.4141 18 -0.4141 16.4531 Q-0.4141 14.9688 -1.2031 14.1172 Q-1.9922 13.2656 -3.1953 13.2656 Q-4.3828 13.2656 -5.2109 14.1172 Q-6.0391 14.9688 -6.0391 16.3594 ZM3.2559 8.5625 L3.2559 6.875 L12.5215 6.875 L12.5215 8.2344 Q11.1465 9.6875 9.8027 12.1016 Q8.459 14.5156 7.7402 17.0625 Q7.209 18.8594 7.0527 21 L5.2559 21 Q5.2871 19.3125 5.9199 16.9219 Q6.5527 14.5312 7.7402 12.3047 Q8.9277 10.0781 10.2559 8.5625 L3.2559 8.5625 ZM14.2539 17.25 L16.0977 17.0938 Q16.3008 18.4375 17.0508 19.1172 Q17.8008 19.7969 18.8633 19.7969 Q20.1289 19.7969 21.0039 18.8438 Q21.8789 17.8906 21.8789 16.2969 Q21.8789 14.7969 21.0352 13.9297 Q20.1914 13.0625 18.832 13.0625 Q17.9727 13.0625 17.293 13.4453 Q16.6133 13.8281 16.2227 14.4531 L14.5664 14.2344 L15.957 6.875 L23.082 6.875 L23.082 8.5625 L17.3633 8.5625 L16.5977 12.4062 Q17.8789 11.5 19.3008 11.5 Q21.1758 11.5 22.4648 12.8047 Q23.7539 14.1094 23.7539 16.1406 Q23.7539 18.0938 22.6133 19.5 Q21.2383 21.25 18.8633 21.25 Q16.9102 21.25 15.668 20.1562 Q14.4258 19.0625 14.2539 17.25 Z" transform="translate(224.739,564)"/></g><g style="font-size:20px;fill:#262626;text-rendering:geometricPrecision;color-rendering:optimizeQuality;image-rendering:optimizeQuality;stroke:#262626;color-interpolation:linearRGB"><path style="stroke:none" d="M-13.0312 21 L-13.0312 17.5781 L-19.25 17.5781 L-19.25 15.9531 L-12.7188 6.6875 L-11.2812 6.6875 L-11.2812 15.9531 L-9.3438 15.9531 L-9.3438 17.5781 L-11.2812 17.5781 L-11.2812 21 L-13.0312 21 ZM-13.0312 15.9531 L-13.0312 9.5 L-17.5156 15.9531 L-13.0312 15.9531 ZM-6.5645 21 L-6.5645 19 L-4.5645 19 L-4.5645 21 L-6.5645 21 ZM7.1328 10.1875 L5.3828 10.3281 Q5.1484 9.2969 4.7266 8.8281 Q4.0078 8.0625 2.9609 8.0625 Q2.1172 8.0625 1.4922 8.5312 Q0.6641 9.1406 0.1797 10.3047 Q-0.3047 11.4688 -0.3203 13.6094 Q0.3203 12.6562 1.2344 12.1875 Q2.1484 11.7188 3.1641 11.7188 Q4.9141 11.7188 6.1484 13.0078 Q7.3828 14.2969 7.3828 16.3438 Q7.3828 17.7031 6.8047 18.8594 Q6.2266 20.0156 5.2109 20.6328 Q4.1953 21.25 2.8984 21.25 Q0.7109 21.25 -0.6797 19.6328 Q-2.0703 18.0156 -2.0703 14.2969 Q-2.0703 10.1562 -0.5391 8.2656 Q0.8047 6.625 3.0703 6.625 Q4.7578 6.625 5.8359 7.5703 Q6.9141 8.5156 7.1328 10.1875 ZM-0.0391 16.3594 Q-0.0391 17.2656 0.3438 18.0938 Q0.7266 18.9219 1.4219 19.3594 Q2.1172 19.7969 2.8672 19.7969 Q3.9922 19.7969 4.7891 18.8984 Q5.5859 18 5.5859 16.4531 Q5.5859 14.9688 4.7969 14.1172 Q4.0078 13.2656 2.8047 13.2656 Q1.6172 13.2656 0.7891 14.1172 Q-0.0391 14.9688 -0.0391 16.3594 ZM11.834 13.2344 Q10.7402 12.8281 10.2168 12.0859 Q9.6934 11.3438 9.6934 10.3125 Q9.6934 8.75 10.8184 7.6875 Q11.9434 6.625 13.8027 6.625 Q15.6777 6.625 16.8184 7.7109 Q17.959 8.7969 17.959 10.3594 Q17.959 11.3594 17.4355 12.0938 Q16.9121 12.8281 15.8496 13.2344 Q17.1777 13.6719 17.8652 14.625 Q18.5527 15.5781 18.5527 16.9062 Q18.5527 18.75 17.248 20 Q15.9434 21.25 13.834 21.25 Q11.709 21.25 10.4121 19.9922 Q9.1152 18.7344 9.1152 16.8594 Q9.1152 15.4688 9.8262 14.5234 Q10.5371 13.5781 11.834 13.2344 ZM11.4902 10.25 Q11.4902 11.2656 12.1465 11.9141 Q12.8027 12.5625 13.834 12.5625 Q14.8496 12.5625 15.5059 11.9219 Q16.1621 11.2812 16.1621 10.3594 Q16.1621 9.3906 15.4902 8.7266 Q14.8184 8.0625 13.8184 8.0625 Q12.8184 8.0625 12.1543 8.7109 Q11.4902 9.3594 11.4902 10.25 ZM10.9277 16.875 Q10.9277 17.625 11.2793 18.3281 Q11.6309 19.0312 12.334 19.4141 Q13.0371 19.7969 13.8496 19.7969 Q15.1152 19.7969 15.9355 18.9844 Q16.7559 18.1719 16.7559 16.9219 Q16.7559 15.6562 15.9121 14.8281 Q15.0684 14 13.7871 14 Q12.5527 14 11.7402 14.8203 Q10.9277 15.6406 10.9277 16.875 Z" transform="translate(292.1835,564)"/></g><g style="font-size:20px;fill:#262626;text-rendering:geometricPrecision;color-rendering:optimizeQuality;image-rendering:optimizeQuality;stroke:#262626;color-interpolation:linearRGB"><path style="stroke:none" d="M-19.0312 21 L-19.0312 17.5781 L-25.25 17.5781 L-25.25 15.9531 L-18.7188 6.6875 L-17.2812 6.6875 L-17.2812 15.9531 L-15.3438 15.9531 L-15.3438 17.5781 L-17.2812 17.5781 L-17.2812 21 L-19.0312 21 ZM-19.0312 15.9531 L-19.0312 9.5 L-23.5156 15.9531 L-19.0312 15.9531 ZM-12.5645 21 L-12.5645 19 L-10.5645 19 L-10.5645 21 L-12.5645 21 ZM1.1328 10.1875 L-0.6172 10.3281 Q-0.8516 9.2969 -1.2734 8.8281 Q-1.9922 8.0625 -3.0391 8.0625 Q-3.8828 8.0625 -4.5078 8.5312 Q-5.3359 9.1406 -5.8203 10.3047 Q-6.3047 11.4688 -6.3203 13.6094 Q-5.6797 12.6562 -4.7656 12.1875 Q-3.8516 11.7188 -2.8359 11.7188 Q-1.0859 11.7188 0.1484 13.0078 Q1.3828 14.2969 1.3828 16.3438 Q1.3828 17.7031 0.8047 18.8594 Q0.2266 20.0156 -0.7891 20.6328 Q-1.8047 21.25 -3.1016 21.25 Q-5.2891 21.25 -6.6797 19.6328 Q-8.0703 18.0156 -8.0703 14.2969 Q-8.0703 10.1562 -6.5391 8.2656 Q-5.1953 6.625 -2.9297 6.625 Q-1.2422 6.625 -0.1641 7.5703 Q0.9141 8.5156 1.1328 10.1875 ZM-6.0391 16.3594 Q-6.0391 17.2656 -5.6562 18.0938 Q-5.2734 18.9219 -4.5781 19.3594 Q-3.8828 19.7969 -3.1328 19.7969 Q-2.0078 19.7969 -1.2109 18.8984 Q-0.4141 18 -0.4141 16.4531 Q-0.4141 14.9688 -1.2031 14.1172 Q-1.9922 13.2656 -3.1953 13.2656 Q-4.3828 13.2656 -5.2109 14.1172 Q-6.0391 14.9688 -6.0391 16.3594 ZM5.834 13.2344 Q4.7402 12.8281 4.2168 12.0859 Q3.6934 11.3438 3.6934 10.3125 Q3.6934 8.75 4.8184 7.6875 Q5.9434 6.625 7.8027 6.625 Q9.6777 6.625 10.8184 7.7109 Q11.959 8.7969 11.959 10.3594 Q11.959 11.3594 11.4355 12.0938 Q10.9121 12.8281 9.8496 13.2344 Q11.1777 13.6719 11.8652 14.625 Q12.5527 15.5781 12.5527 16.9062 Q12.5527 18.75 11.248 20 Q9.9434 21.25 7.834 21.25 Q5.709 21.25 4.4121 19.9922 Q3.1152 18.7344 3.1152 16.8594 Q3.1152 15.4688 3.8262 14.5234 Q4.5371 13.5781 5.834 13.2344 ZM5.4902 10.25 Q5.4902 11.2656 6.1465 11.9141 Q6.8027 12.5625 7.834 12.5625 Q8.8496 12.5625 9.5059 11.9219 Q10.1621 11.2812 10.1621 10.3594 Q10.1621 9.3906 9.4902 8.7266 Q8.8184 8.0625 7.8184 8.0625 Q6.8184 8.0625 6.1543 8.7109 Q5.4902 9.3594 5.4902 10.25 ZM4.9277 16.875 Q4.9277 17.625 5.2793 18.3281 Q5.6309 19.0312 6.334 19.4141 Q7.0371 19.7969 7.8496 19.7969 Q9.1152 19.7969 9.9355 18.9844 Q10.7559 18.1719 10.7559 16.9219 Q10.7559 15.6562 9.9121 14.8281 Q9.0684 14 7.7871 14 Q6.5527 14 5.7402 14.8203 Q4.9277 15.6406 4.9277 16.875 ZM14.2539 17.25 L16.0977 17.0938 Q16.3008 18.4375 17.0508 19.1172 Q17.8008 19.7969 18.8633 19.7969 Q20.1289 19.7969 21.0039 18.8438 Q21.8789 17.8906 21.8789 16.2969 Q21.8789 14.7969 21.0352 13.9297 Q20.1914 13.0625 18.832 13.0625 Q17.9727 13.0625 17.293 13.4453 Q16.6133 13.8281 16.2227 14.4531 L14.5664 14.2344 L15.957 6.875 L23.082 6.875 L23.082 8.5625 L17.3633 8.5625 L16.5977 12.4062 Q17.8789 11.5 19.3008 11.5 Q21.1758 11.5 22.4648 12.8047 Q23.7539 14.1094 23.7539 16.1406 Q23.7539 18.0938 22.6133 19.5 Q21.2383 21.25 18.8633 21.25 Q16.9102 21.25 15.668 20.1562 Q14.4258 19.0625 14.2539 17.25 Z" transform="translate(359.6343,564)"/></g><g style="font-size:20px;fill:#262626;text-rendering:geometricPrecision;color-rendering:optimizeQuality;image-rendering:optimizeQuality;stroke:#262626;color-interpolation:linearRGB"><path style="stroke:none" d="M-13.0312 21 L-13.0312 17.5781 L-19.25 17.5781 L-19.25 15.9531 L-12.7188 6.6875 L-11.2812 6.6875 L-11.2812 15.9531 L-9.3438 15.9531 L-9.3438 17.5781 L-11.2812 17.5781 L-11.2812 21 L-13.0312 21 ZM-13.0312 15.9531 L-13.0312 9.5 L-17.5156 15.9531 L-13.0312 15.9531 ZM-6.5645 21 L-6.5645 19 L-4.5645 19 L-4.5645 21 L-6.5645 21 ZM7.1328 10.1875 L5.3828 10.3281 Q5.1484 9.2969 4.7266 8.8281 Q4.0078 8.0625 2.9609 8.0625 Q2.1172 8.0625 1.4922 8.5312 Q0.6641 9.1406 0.1797 10.3047 Q-0.3047 11.4688 -0.3203 13.6094 Q0.3203 12.6562 1.2344 12.1875 Q2.1484 11.7188 3.1641 11.7188 Q4.9141 11.7188 6.1484 13.0078 Q7.3828 14.2969 7.3828 16.3438 Q7.3828 17.7031 6.8047 18.8594 Q6.2266 20.0156 5.2109 20.6328 Q4.1953 21.25 2.8984 21.25 Q0.7109 21.25 -0.6797 19.6328 Q-2.0703 18.0156 -2.0703 14.2969 Q-2.0703 10.1562 -0.5391 8.2656 Q0.8047 6.625 3.0703 6.625 Q4.7578 6.625 5.8359 7.5703 Q6.9141 8.5156 7.1328 10.1875 ZM-0.0391 16.3594 Q-0.0391 17.2656 0.3438 18.0938 Q0.7266 18.9219 1.4219 19.3594 Q2.1172 19.7969 2.8672 19.7969 Q3.9922 19.7969 4.7891 18.8984 Q5.5859 18 5.5859 16.4531 Q5.5859 14.9688 4.7969 14.1172 Q4.0078 13.2656 2.8047 13.2656 Q1.6172 13.2656 0.7891 14.1172 Q-0.0391 14.9688 -0.0391 16.3594 ZM9.3965 17.6875 L11.084 17.5312 Q11.3027 18.7188 11.9043 19.2578 Q12.5059 19.7969 13.459 19.7969 Q14.2715 19.7969 14.8809 19.4297 Q15.4902 19.0625 15.8809 18.4375 Q16.2715 17.8125 16.5371 16.7578 Q16.8027 15.7031 16.8027 14.6094 Q16.8027 14.5 16.7871 14.2656 Q16.2559 15.0938 15.3496 15.6172 Q14.4434 16.1406 13.3652 16.1406 Q11.5996 16.1406 10.3652 14.8516 Q9.1309 13.5625 9.1309 11.4531 Q9.1309 9.2812 10.4199 7.9531 Q11.709 6.625 13.6309 6.625 Q15.0371 6.625 16.1934 7.375 Q17.3496 8.125 17.9512 9.5156 Q18.5527 10.9062 18.5527 13.5469 Q18.5527 16.2969 17.9512 17.9219 Q17.3496 19.5469 16.1777 20.3984 Q15.0059 21.25 13.4277 21.25 Q11.7402 21.25 10.6777 20.3125 Q9.6152 19.375 9.3965 17.6875 ZM16.5996 11.375 Q16.5996 9.8594 15.7949 8.9688 Q14.9902 8.0781 13.8496 8.0781 Q12.6777 8.0781 11.8105 9.0391 Q10.9434 10 10.9434 11.5156 Q10.9434 12.8906 11.7637 13.7422 Q12.584 14.5938 13.8027 14.5938 Q15.0215 14.5938 15.8105 13.7422 Q16.5996 12.8906 16.5996 11.375 Z" transform="translate(427.0789,564)"/></g><g style="font-size:20px;fill:#262626;text-rendering:geometricPrecision;color-rendering:optimizeQuality;image-rendering:optimizeQuality;stroke:#262626;color-interpolation:linearRGB"><path style="stroke:none" d="M-19.0312 21 L-19.0312 17.5781 L-25.25 17.5781 L-25.25 15.9531 L-18.7188 6.6875 L-17.2812 6.6875 L-17.2812 15.9531 L-15.3438 15.9531 L-15.3438 17.5781 L-17.2812 17.5781 L-17.2812 21 L-19.0312 21 ZM-19.0312 15.9531 L-19.0312 9.5 L-23.5156 15.9531 L-19.0312 15.9531 ZM-12.5645 21 L-12.5645 19 L-10.5645 19 L-10.5645 21 L-12.5645 21 ZM1.1328 10.1875 L-0.6172 10.3281 Q-0.8516 9.2969 -1.2734 8.8281 Q-1.9922 8.0625 -3.0391 8.0625 Q-3.8828 8.0625 -4.5078 8.5312 Q-5.3359 9.1406 -5.8203 10.3047 Q-6.3047 11.4688 -6.3203 13.6094 Q-5.6797 12.6562 -4.7656 12.1875 Q-3.8516 11.7188 -2.8359 11.7188 Q-1.0859 11.7188 0.1484 13.0078 Q1.3828 14.2969 1.3828 16.3438 Q1.3828 17.7031 0.8047 18.8594 Q0.2266 20.0156 -0.7891 20.6328 Q-1.8047 21.25 -3.1016 21.25 Q-5.2891 21.25 -6.6797 19.6328 Q-8.0703 18.0156 -8.0703 14.2969 Q-8.0703 10.1562 -6.5391 8.2656 Q-5.1953 6.625 -2.9297 6.625 Q-1.2422 6.625 -0.1641 7.5703 Q0.9141 8.5156 1.1328 10.1875 ZM-6.0391 16.3594 Q-6.0391 17.2656 -5.6562 18.0938 Q-5.2734 18.9219 -4.5781 19.3594 Q-3.8828 19.7969 -3.1328 19.7969 Q-2.0078 19.7969 -1.2109 18.8984 Q-0.4141 18 -0.4141 16.4531 Q-0.4141 14.9688 -1.2031 14.1172 Q-1.9922 13.2656 -3.1953 13.2656 Q-4.3828 13.2656 -5.2109 14.1172 Q-6.0391 14.9688 -6.0391 16.3594 ZM3.3965 17.6875 L5.084 17.5312 Q5.3027 18.7188 5.9043 19.2578 Q6.5059 19.7969 7.459 19.7969 Q8.2715 19.7969 8.8809 19.4297 Q9.4902 19.0625 9.8809 18.4375 Q10.2715 17.8125 10.5371 16.7578 Q10.8027 15.7031 10.8027 14.6094 Q10.8027 14.5 10.7871 14.2656 Q10.2559 15.0938 9.3496 15.6172 Q8.4434 16.1406 7.3652 16.1406 Q5.5996 16.1406 4.3652 14.8516 Q3.1309 13.5625 3.1309 11.4531 Q3.1309 9.2812 4.4199 7.9531 Q5.709 6.625 7.6309 6.625 Q9.0371 6.625 10.1934 7.375 Q11.3496 8.125 11.9512 9.5156 Q12.5527 10.9062 12.5527 13.5469 Q12.5527 16.2969 11.9512 17.9219 Q11.3496 19.5469 10.1777 20.3984 Q9.0059 21.25 7.4277 21.25 Q5.7402 21.25 4.6777 20.3125 Q3.6152 19.375 3.3965 17.6875 ZM10.5996 11.375 Q10.5996 9.8594 9.7949 8.9688 Q8.9902 8.0781 7.8496 8.0781 Q6.6777 8.0781 5.8105 9.0391 Q4.9434 10 4.9434 11.5156 Q4.9434 12.8906 5.7637 13.7422 Q6.584 14.5938 7.8027 14.5938 Q9.0215 14.5938 9.8105 13.7422 Q10.5996 12.8906 10.5996 11.375 ZM14.2539 17.25 L16.0977 17.0938 Q16.3008 18.4375 17.0508 19.1172 Q17.8008 19.7969 18.8633 19.7969 Q20.1289 19.7969 21.0039 18.8438 Q21.8789 17.8906 21.8789 16.2969 Q21.8789 14.7969 21.0352 13.9297 Q20.1914 13.0625 18.832 13.0625 Q17.9727 13.0625 17.293 13.4453 Q16.6133 13.8281 16.2227 14.4531 L14.5664 14.2344 L15.957 6.875 L23.082 6.875 L23.082 8.5625 L17.3633 8.5625 L16.5977 12.4062 Q17.8789 11.5 19.3008 11.5 Q21.1758 11.5 22.4648 12.8047 Q23.7539 14.1094 23.7539 16.1406 Q23.7539 18.0938 22.6133 19.5 Q21.2383 21.25 18.8633 21.25 Q16.9102 21.25 15.668 20.1562 Q14.4258 19.0625 14.2539 17.25 Z" transform="translate(494.5297,564)"/></g><g style="font-size:20px;fill:#262626;text-rendering:geometricPrecision;color-rendering:optimizeQuality;image-rendering:optimizeQuality;stroke:#262626;color-interpolation:linearRGB"><path style="stroke:none" d="M-7.5312 21 L-7.5312 17.5781 L-13.75 17.5781 L-13.75 15.9531 L-7.2188 6.6875 L-5.7812 6.6875 L-5.7812 15.9531 L-3.8438 15.9531 L-3.8438 17.5781 L-5.7812 17.5781 L-5.7812 21 L-7.5312 21 ZM-7.5312 15.9531 L-7.5312 9.5 L-12.0156 15.9531 L-7.5312 15.9531 ZM-1.0645 21 L-1.0645 19 L0.9355 19 L0.9355 21 L-1.0645 21 ZM3.6328 8.5625 L3.6328 6.875 L12.8984 6.875 L12.8984 8.2344 Q11.5234 9.6875 10.1797 12.1016 Q8.8359 14.5156 8.1172 17.0625 Q7.5859 18.8594 7.4297 21 L5.6328 21 Q5.6641 19.3125 6.2969 16.9219 Q6.9297 14.5312 8.1172 12.3047 Q9.3047 10.0781 10.6328 8.5625 L3.6328 8.5625 Z" transform="translate(561.9742,564)"/></g><g style="font-size:20px;fill:#262626;text-rendering:geometricPrecision;color-rendering:optimizeQuality;image-rendering:optimizeQuality;stroke:#262626;color-interpolation:linearRGB"><path style="stroke:none" d="M-19.0312 21 L-19.0312 17.5781 L-25.25 17.5781 L-25.25 15.9531 L-18.7188 6.6875 L-17.2812 6.6875 L-17.2812 15.9531 L-15.3438 15.9531 L-15.3438 17.5781 L-17.2812 17.5781 L-17.2812 21 L-19.0312 21 ZM-19.0312 15.9531 L-19.0312 9.5 L-23.5156 15.9531 L-19.0312 15.9531 ZM-12.5645 21 L-12.5645 19 L-10.5645 19 L-10.5645 21 L-12.5645 21 ZM-7.8672 8.5625 L-7.8672 6.875 L1.3984 6.875 L1.3984 8.2344 Q0.0234 9.6875 -1.3203 12.1016 Q-2.6641 14.5156 -3.3828 17.0625 Q-3.9141 18.8594 -4.0703 21 L-5.8672 21 Q-5.8359 19.3125 -5.2031 16.9219 Q-4.5703 14.5312 -3.3828 12.3047 Q-2.1953 10.0781 -0.8672 8.5625 L-7.8672 8.5625 ZM3.1309 13.9375 Q3.1309 11.4062 3.6543 9.8516 Q4.1777 8.2969 5.209 7.4609 Q6.2402 6.625 7.8027 6.625 Q8.959 6.625 9.8262 7.0859 Q10.6934 7.5469 11.2559 8.4219 Q11.8184 9.2969 12.1465 10.5547 Q12.4746 11.8125 12.4746 13.9375 Q12.4746 16.4531 11.9512 18 Q11.4277 19.5469 10.4043 20.3984 Q9.3809 21.25 7.8027 21.25 Q5.7246 21.25 4.5527 19.7656 Q3.1309 17.9688 3.1309 13.9375 ZM4.9434 13.9375 Q4.9434 17.4688 5.7637 18.6328 Q6.584 19.7969 7.8027 19.7969 Q9.0059 19.7969 9.834 18.625 Q10.6621 17.4531 10.6621 13.9375 Q10.6621 10.4062 9.834 9.2422 Q9.0059 8.0781 7.7871 8.0781 Q6.5684 8.0781 5.8496 9.1094 Q4.9434 10.4062 4.9434 13.9375 ZM14.2539 17.25 L16.0977 17.0938 Q16.3008 18.4375 17.0508 19.1172 Q17.8008 19.7969 18.8633 19.7969 Q20.1289 19.7969 21.0039 18.8438 Q21.8789 17.8906 21.8789 16.2969 Q21.8789 14.7969 21.0352 13.9297 Q20.1914 13.0625 18.832 13.0625 Q17.9727 13.0625 17.293 13.4453 Q16.6133 13.8281 16.2227 14.4531 L14.5664 14.2344 L15.957 6.875 L23.082 6.875 L23.082 8.5625 L17.3633 8.5625 L16.5977 12.4062 Q17.8789 11.5 19.3008 11.5 Q21.1758 11.5 22.4648 12.8047 Q23.7539 14.1094 23.7539 16.1406 Q23.7539 18.0938 22.6133 19.5 Q21.2383 21.25 18.8633 21.25 Q16.9102 21.25 15.668 20.1562 Q14.4258 19.0625 14.2539 17.25 Z" transform="translate(629.425,564)"/></g><g style="font-size:20px;fill:#262626;text-rendering:geometricPrecision;color-rendering:optimizeQuality;image-rendering:optimizeQuality;stroke:#262626;color-interpolation:linearRGB"><path style="stroke:none" d="M-13.0312 21 L-13.0312 17.5781 L-19.25 17.5781 L-19.25 15.9531 L-12.7188 6.6875 L-11.2812 6.6875 L-11.2812 15.9531 L-9.3438 15.9531 L-9.3438 17.5781 L-11.2812 17.5781 L-11.2812 21 L-13.0312 21 ZM-13.0312 15.9531 L-13.0312 9.5 L-17.5156 15.9531 L-13.0312 15.9531 ZM-6.5645 21 L-6.5645 19 L-4.5645 19 L-4.5645 21 L-6.5645 21 ZM-1.8672 8.5625 L-1.8672 6.875 L7.3984 6.875 L7.3984 8.2344 Q6.0234 9.6875 4.6797 12.1016 Q3.3359 14.5156 2.6172 17.0625 Q2.0859 18.8594 1.9297 21 L0.1328 21 Q0.1641 19.3125 0.7969 16.9219 Q1.4297 14.5312 2.6172 12.3047 Q3.8047 10.0781 5.1328 8.5625 L-1.8672 8.5625 ZM15.7559 21 L13.9902 21 L13.9902 9.7969 Q13.3652 10.4062 12.334 11.0078 Q11.3027 11.6094 10.4746 11.9219 L10.4746 10.2188 Q11.959 9.5312 13.0605 8.5391 Q14.1621 7.5469 14.6152 6.625 L15.7559 6.625 L15.7559 21 Z" transform="translate(696.8696,564)"/></g><g style="font-size:22px;fill:#262626;text-rendering:geometricPrecision;color-rendering:optimizeQuality;image-rendering:optimizeQuality;stroke:#262626;color-interpolation:linearRGB"><path style="stroke:none" d="M2.0469 0 L2.0469 -15.75 L4.1406 -15.75 L4.1406 0 L2.0469 0 Z" transform="translate(427,615)"/></g><g style="font-size:17.6px;fill:#262626;text-rendering:geometricPrecision;color-rendering:optimizeQuality;image-rendering:optimizeQuality;stroke:#262626;color-interpolation:linearRGB"><path style="stroke:none" d="M0.3594 0 L0.3594 -1.2812 L6.2969 -8.1094 Q5.2812 -8.0469 4.5156 -8.0469 L0.7031 -8.0469 L0.7031 -9.3281 L8.3281 -9.3281 L8.3281 -8.2812 L3.2812 -2.3594 L2.2969 -1.2812 Q3.3594 -1.3594 4.2969 -1.3594 L8.6094 -1.3594 L8.6094 0 L0.3594 0 Z" transform="translate(434,626)"/></g><g style="font-size:20px;fill:#262626;text-rendering:geometricPrecision;image-rendering:optimizeQuality;color-rendering:optimizeQuality;font-family:'mwb_cmsy10';stroke:#262626;color-interpolation:linearRGB"><path style="stroke:none" d="M2.9375 -0.5781 Q2.9375 -0.7344 3.0312 -0.8594 L7.2031 -5 L3.0312 -9.1562 Q2.9375 -9.2656 2.9375 -9.4219 Q2.9375 -9.5781 3.0547 -9.7031 Q3.1719 -9.8281 3.3438 -9.8281 Q3.4844 -9.8281 3.6406 -9.7031 L7.7812 -5.5625 L11.9062 -9.7031 Q12.0781 -9.8281 12.2031 -9.8281 Q12.3594 -9.8281 12.4766 -9.7109 Q12.5938 -9.5938 12.5938 -9.4219 Q12.5938 -9.2656 12.5 -9.1562 L8.3438 -5 L12.5 -0.8594 Q12.5938 -0.7344 12.5938 -0.5781 Q12.5938 -0.4062 12.4766 -0.2891 Q12.3594 -0.1719 12.2031 -0.1719 Q12.0469 -0.1719 11.9062 -0.3281 L7.7812 -4.4375 L3.6406 -0.3281 Q3.5 -0.1719 3.3438 -0.1719 Q3.1719 -0.1719 3.0547 -0.3047 Q2.9375 -0.4375 2.9375 -0.5781 Z" transform="translate(706,619)"/></g><g style="font-size:20px;fill:#262626;text-rendering:geometricPrecision;color-rendering:optimizeQuality;image-rendering:optimizeQuality;stroke:#262626;color-interpolation:linearRGB"><path style="stroke:none" d="M7.4531 0 L5.6875 0 L5.6875 -11.2031 Q5.0625 -10.5938 4.0312 -9.9922 Q3 -9.3906 2.1719 -9.0781 L2.1719 -10.7812 Q3.6562 -11.4688 4.7578 -12.4609 Q5.8594 -13.4531 6.3125 -14.375 L7.4531 -14.375 L7.4531 0 ZM11.9512 -7.0625 Q11.9512 -9.5938 12.4746 -11.1484 Q12.998 -12.7031 14.0293 -13.5391 Q15.0605 -14.375 16.623 -14.375 Q17.7793 -14.375 18.6465 -13.9141 Q19.5137 -13.4531 20.0762 -12.5781 Q20.6387 -11.7031 20.9668 -10.4453 Q21.2949 -9.1875 21.2949 -7.0625 Q21.2949 -4.5469 20.7715 -3 Q20.248 -1.4531 19.2246 -0.6016 Q18.2012 0.25 16.623 0.25 Q14.5449 0.25 13.373 -1.2344 Q11.9512 -3.0312 11.9512 -7.0625 ZM13.7637 -7.0625 Q13.7637 -3.5312 14.584 -2.3672 Q15.4043 -1.2031 16.623 -1.2031 Q17.8262 -1.2031 18.6543 -2.375 Q19.4824 -3.5469 19.4824 -7.0625 Q19.4824 -10.5938 18.6543 -11.7578 Q17.8262 -12.9219 16.6074 -12.9219 Q15.3887 -12.9219 14.6699 -11.8906 Q13.7637 -10.5938 13.7637 -7.0625 Z" transform="translate(722,619)"/></g><g style="font-size:16px;fill:#262626;text-rendering:geometricPrecision;color-rendering:optimizeQuality;image-rendering:optimizeQuality;stroke:#262626;color-interpolation:linearRGB"><path style="stroke:none" d="M0.5156 -3.4375 L0.5156 -4.8594 L4.8281 -4.8594 L4.8281 -3.4375 L0.5156 -3.4375 ZM6 -3.0312 L7.4062 -3.2188 Q7.6562 -2.0156 8.2344 -1.4922 Q8.8125 -0.9688 9.6562 -0.9688 Q10.6406 -0.9688 11.3281 -1.6562 Q12.0156 -2.3438 12.0156 -3.3594 Q12.0156 -4.3281 11.3828 -4.9531 Q10.75 -5.5781 9.7656 -5.5781 Q9.375 -5.5781 8.7812 -5.4219 L8.9375 -6.6562 Q9.0781 -6.6406 9.1562 -6.6406 Q10.0625 -6.6406 10.7812 -7.1094 Q11.5 -7.5781 11.5 -8.5625 Q11.5 -9.3281 10.9766 -9.8359 Q10.4531 -10.3438 9.625 -10.3438 Q8.7969 -10.3438 8.25 -9.8281 Q7.7031 -9.3125 7.5469 -8.2812 L6.1406 -8.5312 Q6.4062 -9.9531 7.3203 -10.7266 Q8.2344 -11.5 9.5938 -11.5 Q10.5312 -11.5 11.3203 -11.1016 Q12.1094 -10.7031 12.5234 -10.0078 Q12.9375 -9.3125 12.9375 -8.5312 Q12.9375 -7.7812 12.5391 -7.1719 Q12.1406 -6.5625 11.3594 -6.2031 Q12.375 -5.9688 12.9375 -5.2344 Q13.5 -4.5 13.5 -3.3906 Q13.5 -1.8906 12.4062 -0.8438 Q11.3125 0.2031 9.6406 0.2031 Q8.1406 0.2031 7.1406 -0.6953 Q6.1406 -1.5938 6 -3.0312 Z" transform="translate(745,609)"/></g><g style="fill:#262626;text-rendering:geometricPrecision;color-rendering:optimizeQuality;image-rendering:optimizeQuality;stroke-linejoin:round;stroke:#262626;color-interpolation:linearRGB"><line style="fill:none" x1="109.002" x2="109.002" y1="556" y2="47"/><line style="fill:none" x1="759.999" x2="759.999" y1="556" y2="47"/><line style="fill:none" x1="109.002" x2="115.51" y1="556" y2="556"/><line style="fill:none" x1="109.002" x2="115.51" y1="499.445" y2="499.445"/><line style="fill:none" x1="109.002" x2="115.51" y1="442.889" y2="442.889"/><line style="fill:none" x1="109.002" x2="115.51" y1="386.333" y2="386.333"/><line style="fill:none" x1="109.002" x2="115.51" y1="329.778" y2="329.778"/><line style="fill:none" x1="109.002" x2="115.51" y1="273.222" y2="273.222"/><line style="fill:none" x1="109.002" x2="115.51" y1="216.667" y2="216.667"/><line style="fill:none" x1="109.002" x2="115.51" y1="160.111" y2="160.111"/><line style="fill:none" x1="109.002" x2="115.51" y1="103.556" y2="103.556"/><line style="fill:none" x1="109.002" x2="115.51" y1="47" y2="47"/><line style="fill:none" x1="759.999" x2="753.491" y1="556" y2="556"/><line style="fill:none" x1="759.999" x2="753.491" y1="499.445" y2="499.445"/><line style="fill:none" x1="759.999" x2="753.491" y1="442.889" y2="442.889"/><line style="fill:none" x1="759.999" x2="753.491" y1="386.333" y2="386.333"/><line style="fill:none" x1="759.999" x2="753.491" y1="329.778" y2="329.778"/><line style="fill:none" x1="759.999" x2="753.491" y1="273.222" y2="273.222"/><line style="fill:none" x1="759.999" x2="753.491" y1="216.667" y2="216.667"/><line style="fill:none" x1="759.999" x2="753.491" y1="160.111" y2="160.111"/><line style="fill:none" x1="759.999" x2="753.491" y1="103.556" y2="103.556"/><line style="fill:none" x1="759.999" x2="753.491" y1="47" y2="47"/></g><g style="font-size:20px;fill:#262626;text-rendering:geometricPrecision;color-rendering:optimizeQuality;image-rendering:optimizeQuality;stroke:#262626;color-interpolation:linearRGB"><path style="stroke:none" d="M-11.1719 0.9375 Q-11.1719 -1.5938 -10.6484 -3.1484 Q-10.125 -4.7031 -9.0938 -5.5391 Q-8.0625 -6.375 -6.5 -6.375 Q-5.3438 -6.375 -4.4766 -5.9141 Q-3.6094 -5.4531 -3.0469 -4.5781 Q-2.4844 -3.7031 -2.1562 -2.4453 Q-1.8281 -1.1875 -1.8281 0.9375 Q-1.8281 3.4531 -2.3516 5 Q-2.875 6.5469 -3.8984 7.3984 Q-4.9219 8.25 -6.5 8.25 Q-8.5781 8.25 -9.75 6.7656 Q-11.1719 4.9688 -11.1719 0.9375 ZM-9.3594 0.9375 Q-9.3594 4.4688 -8.5391 5.6328 Q-7.7188 6.7969 -6.5 6.7969 Q-5.2969 6.7969 -4.4688 5.625 Q-3.6406 4.4531 -3.6406 0.9375 Q-3.6406 -2.5938 -4.4688 -3.7578 Q-5.2969 -4.9219 -6.5156 -4.9219 Q-7.7344 -4.9219 -8.4531 -3.8906 Q-9.3594 -2.5938 -9.3594 0.9375 Z" transform="translate(100.9996,556)"/></g><g style="font-size:20px;fill:#262626;text-rendering:geometricPrecision;color-rendering:optimizeQuality;image-rendering:optimizeQuality;stroke:#262626;color-interpolation:linearRGB"><path style="stroke:none" d="M-12.9375 6.3125 L-12.9375 8 L-22.3906 8 Q-22.4062 7.3594 -22.1875 6.7812 Q-21.8281 5.8125 -21.0312 4.875 Q-20.2344 3.9375 -18.7344 2.7031 Q-16.3906 0.7969 -15.5703 -0.3203 Q-14.75 -1.4375 -14.75 -2.4375 Q-14.75 -3.4844 -15.5 -4.2031 Q-16.25 -4.9219 -17.4531 -4.9219 Q-18.7188 -4.9219 -19.4844 -4.1562 Q-20.25 -3.3906 -20.25 -2.0469 L-22.0625 -2.2344 Q-21.875 -4.25 -20.6641 -5.3125 Q-19.4531 -6.375 -17.4062 -6.375 Q-15.3594 -6.375 -14.1562 -5.2344 Q-12.9531 -4.0938 -12.9531 -2.4062 Q-12.9531 -1.5469 -13.3047 -0.7109 Q-13.6562 0.125 -14.4688 1.0391 Q-15.2812 1.9531 -17.1719 3.5625 Q-18.7656 4.8906 -19.2109 5.3594 Q-19.6562 5.8281 -19.9531 6.3125 L-12.9375 6.3125 ZM-11.0488 0.9375 Q-11.0488 -1.5938 -10.5254 -3.1484 Q-10.002 -4.7031 -8.9707 -5.5391 Q-7.9395 -6.375 -6.377 -6.375 Q-5.2207 -6.375 -4.3535 -5.9141 Q-3.4863 -5.4531 -2.9238 -4.5781 Q-2.3613 -3.7031 -2.0332 -2.4453 Q-1.7051 -1.1875 -1.7051 0.9375 Q-1.7051 3.4531 -2.2285 5 Q-2.752 6.5469 -3.7754 7.3984 Q-4.7988 8.25 -6.377 8.25 Q-8.4551 8.25 -9.627 6.7656 Q-11.0488 4.9688 -11.0488 0.9375 ZM-9.2363 0.9375 Q-9.2363 4.4688 -8.416 5.6328 Q-7.5957 6.7969 -6.377 6.7969 Q-5.1738 6.7969 -4.3457 5.625 Q-3.5176 4.4531 -3.5176 0.9375 Q-3.5176 -2.5938 -4.3457 -3.7578 Q-5.1738 -4.9219 -6.3926 -4.9219 Q-7.6113 -4.9219 -8.3301 -3.8906 Q-9.2363 -2.5938 -9.2363 0.9375 Z" transform="translate(100.9996,499.4445)"/></g><g style="font-size:20px;fill:#262626;text-rendering:geometricPrecision;color-rendering:optimizeQuality;image-rendering:optimizeQuality;stroke:#262626;color-interpolation:linearRGB"><path style="stroke:none" d="M-16.5312 8 L-16.5312 4.5781 L-22.75 4.5781 L-22.75 2.9531 L-16.2188 -6.3125 L-14.7812 -6.3125 L-14.7812 2.9531 L-12.8438 2.9531 L-12.8438 4.5781 L-14.7812 4.5781 L-14.7812 8 L-16.5312 8 ZM-16.5312 2.9531 L-16.5312 -3.5 L-21.0156 2.9531 L-16.5312 2.9531 ZM-11.0488 0.9375 Q-11.0488 -1.5938 -10.5254 -3.1484 Q-10.002 -4.7031 -8.9707 -5.5391 Q-7.9395 -6.375 -6.377 -6.375 Q-5.2207 -6.375 -4.3535 -5.9141 Q-3.4863 -5.4531 -2.9238 -4.5781 Q-2.3613 -3.7031 -2.0332 -2.4453 Q-1.7051 -1.1875 -1.7051 0.9375 Q-1.7051 3.4531 -2.2285 5 Q-2.752 6.5469 -3.7754 7.3984 Q-4.7988 8.25 -6.377 8.25 Q-8.4551 8.25 -9.627 6.7656 Q-11.0488 4.9688 -11.0488 0.9375 ZM-9.2363 0.9375 Q-9.2363 4.4688 -8.416 5.6328 Q-7.5957 6.7969 -6.377 6.7969 Q-5.1738 6.7969 -4.3457 5.625 Q-3.5176 4.4531 -3.5176 0.9375 Q-3.5176 -2.5938 -4.3457 -3.7578 Q-5.1738 -4.9219 -6.3926 -4.9219 Q-7.6113 -4.9219 -8.3301 -3.8906 Q-9.2363 -2.5938 -9.2363 0.9375 Z" transform="translate(100.9996,442.8889)"/></g><g style="font-size:20px;fill:#262626;text-rendering:geometricPrecision;color-rendering:optimizeQuality;image-rendering:optimizeQuality;stroke:#262626;color-interpolation:linearRGB"><path style="stroke:none" d="M-13.0469 -2.8125 L-14.7969 -2.6719 Q-15.0312 -3.7031 -15.4531 -4.1719 Q-16.1719 -4.9375 -17.2188 -4.9375 Q-18.0625 -4.9375 -18.6875 -4.4688 Q-19.5156 -3.8594 -20 -2.6953 Q-20.4844 -1.5312 -20.5 0.6094 Q-19.8594 -0.3438 -18.9453 -0.8125 Q-18.0312 -1.2812 -17.0156 -1.2812 Q-15.2656 -1.2812 -14.0312 0.0078 Q-12.7969 1.2969 -12.7969 3.3438 Q-12.7969 4.7031 -13.375 5.8594 Q-13.9531 7.0156 -14.9688 7.6328 Q-15.9844 8.25 -17.2812 8.25 Q-19.4688 8.25 -20.8594 6.6328 Q-22.25 5.0156 -22.25 1.2969 Q-22.25 -2.8438 -20.7188 -4.7344 Q-19.375 -6.375 -17.1094 -6.375 Q-15.4219 -6.375 -14.3438 -5.4297 Q-13.2656 -4.4844 -13.0469 -2.8125 ZM-20.2188 3.3594 Q-20.2188 4.2656 -19.8359 5.0938 Q-19.4531 5.9219 -18.7578 6.3594 Q-18.0625 6.7969 -17.3125 6.7969 Q-16.1875 6.7969 -15.3906 5.8984 Q-14.5938 5 -14.5938 3.4531 Q-14.5938 1.9688 -15.3828 1.1172 Q-16.1719 0.2656 -17.375 0.2656 Q-18.5625 0.2656 -19.3906 1.1172 Q-20.2188 1.9688 -20.2188 3.3594 ZM-11.0488 0.9375 Q-11.0488 -1.5938 -10.5254 -3.1484 Q-10.002 -4.7031 -8.9707 -5.5391 Q-7.9395 -6.375 -6.377 -6.375 Q-5.2207 -6.375 -4.3535 -5.9141 Q-3.4863 -5.4531 -2.9238 -4.5781 Q-2.3613 -3.7031 -2.0332 -2.4453 Q-1.7051 -1.1875 -1.7051 0.9375 Q-1.7051 3.4531 -2.2285 5 Q-2.752 6.5469 -3.7754 7.3984 Q-4.7988 8.25 -6.377 8.25 Q-8.4551 8.25 -9.627 6.7656 Q-11.0488 4.9688 -11.0488 0.9375 ZM-9.2363 0.9375 Q-9.2363 4.4688 -8.416 5.6328 Q-7.5957 6.7969 -6.377 6.7969 Q-5.1738 6.7969 -4.3457 5.625 Q-3.5176 4.4531 -3.5176 0.9375 Q-3.5176 -2.5938 -4.3457 -3.7578 Q-5.1738 -4.9219 -6.3926 -4.9219 Q-7.6113 -4.9219 -8.3301 -3.8906 Q-9.2363 -2.5938 -9.2363 0.9375 Z" transform="translate(100.9996,386.3333)"/></g><g style="font-size:20px;fill:#262626;text-rendering:geometricPrecision;color-rendering:optimizeQuality;image-rendering:optimizeQuality;stroke:#262626;color-interpolation:linearRGB"><path style="stroke:none" d="M-19.4688 0.2344 Q-20.5625 -0.1719 -21.0859 -0.9141 Q-21.6094 -1.6562 -21.6094 -2.6875 Q-21.6094 -4.25 -20.4844 -5.3125 Q-19.3594 -6.375 -17.5 -6.375 Q-15.625 -6.375 -14.4844 -5.2891 Q-13.3438 -4.2031 -13.3438 -2.6406 Q-13.3438 -1.6406 -13.8672 -0.9062 Q-14.3906 -0.1719 -15.4531 0.2344 Q-14.125 0.6719 -13.4375 1.625 Q-12.75 2.5781 -12.75 3.9062 Q-12.75 5.75 -14.0547 7 Q-15.3594 8.25 -17.4688 8.25 Q-19.5938 8.25 -20.8906 6.9922 Q-22.1875 5.7344 -22.1875 3.8594 Q-22.1875 2.4688 -21.4766 1.5234 Q-20.7656 0.5781 -19.4688 0.2344 ZM-19.8125 -2.75 Q-19.8125 -1.7344 -19.1562 -1.0859 Q-18.5 -0.4375 -17.4688 -0.4375 Q-16.4531 -0.4375 -15.7969 -1.0781 Q-15.1406 -1.7188 -15.1406 -2.6406 Q-15.1406 -3.6094 -15.8125 -4.2734 Q-16.4844 -4.9375 -17.4844 -4.9375 Q-18.4844 -4.9375 -19.1484 -4.2891 Q-19.8125 -3.6406 -19.8125 -2.75 ZM-20.375 3.875 Q-20.375 4.625 -20.0234 5.3281 Q-19.6719 6.0312 -18.9688 6.4141 Q-18.2656 6.7969 -17.4531 6.7969 Q-16.1875 6.7969 -15.3672 5.9844 Q-14.5469 5.1719 -14.5469 3.9219 Q-14.5469 2.6562 -15.3906 1.8281 Q-16.2344 1 -17.5156 1 Q-18.75 1 -19.5625 1.8203 Q-20.375 2.6406 -20.375 3.875 ZM-11.0488 0.9375 Q-11.0488 -1.5938 -10.5254 -3.1484 Q-10.002 -4.7031 -8.9707 -5.5391 Q-7.9395 -6.375 -6.377 -6.375 Q-5.2207 -6.375 -4.3535 -5.9141 Q-3.4863 -5.4531 -2.9238 -4.5781 Q-2.3613 -3.7031 -2.0332 -2.4453 Q-1.7051 -1.1875 -1.7051 0.9375 Q-1.7051 3.4531 -2.2285 5 Q-2.752 6.5469 -3.7754 7.3984 Q-4.7988 8.25 -6.377 8.25 Q-8.4551 8.25 -9.627 6.7656 Q-11.0488 4.9688 -11.0488 0.9375 ZM-9.2363 0.9375 Q-9.2363 4.4688 -8.416 5.6328 Q-7.5957 6.7969 -6.377 6.7969 Q-5.1738 6.7969 -4.3457 5.625 Q-3.5176 4.4531 -3.5176 0.9375 Q-3.5176 -2.5938 -4.3457 -3.7578 Q-5.1738 -4.9219 -6.3926 -4.9219 Q-7.6113 -4.9219 -8.3301 -3.8906 Q-9.2363 -2.5938 -9.2363 0.9375 Z" transform="translate(100.9996,329.7778)"/></g><g style="font-size:20px;fill:#262626;text-rendering:geometricPrecision;color-rendering:optimizeQuality;image-rendering:optimizeQuality;stroke:#262626;color-interpolation:linearRGB"><path style="stroke:none" d="M-26.5469 8 L-28.3125 8 L-28.3125 -3.2031 Q-28.9375 -2.5938 -29.9688 -1.9922 Q-31 -1.3906 -31.8281 -1.0781 L-31.8281 -2.7812 Q-30.3438 -3.4688 -29.2422 -4.4609 Q-28.1406 -5.4531 -27.6875 -6.375 L-26.5469 -6.375 L-26.5469 8 ZM-22.0488 0.9375 Q-22.0488 -1.5938 -21.5254 -3.1484 Q-21.002 -4.7031 -19.9707 -5.5391 Q-18.9395 -6.375 -17.377 -6.375 Q-16.2207 -6.375 -15.3535 -5.9141 Q-14.4863 -5.4531 -13.9238 -4.5781 Q-13.3613 -3.7031 -13.0332 -2.4453 Q-12.7051 -1.1875 -12.7051 0.9375 Q-12.7051 3.4531 -13.2285 5 Q-13.752 6.5469 -14.7754 7.3984 Q-15.7988 8.25 -17.377 8.25 Q-19.4551 8.25 -20.627 6.7656 Q-22.0488 4.9688 -22.0488 0.9375 ZM-20.2363 0.9375 Q-20.2363 4.4688 -19.416 5.6328 Q-18.5957 6.7969 -17.377 6.7969 Q-16.1738 6.7969 -15.3457 5.625 Q-14.5176 4.4531 -14.5176 0.9375 Q-14.5176 -2.5938 -15.3457 -3.7578 Q-16.1738 -4.9219 -17.3926 -4.9219 Q-18.6113 -4.9219 -19.3301 -3.8906 Q-20.2363 -2.5938 -20.2363 0.9375 ZM-10.9258 0.9375 Q-10.9258 -1.5938 -10.4023 -3.1484 Q-9.8789 -4.7031 -8.8477 -5.5391 Q-7.8164 -6.375 -6.2539 -6.375 Q-5.0977 -6.375 -4.2305 -5.9141 Q-3.3633 -5.4531 -2.8008 -4.5781 Q-2.2383 -3.7031 -1.9102 -2.4453 Q-1.582 -1.1875 -1.582 0.9375 Q-1.582 3.4531 -2.1055 5 Q-2.6289 6.5469 -3.6523 7.3984 Q-4.6758 8.25 -6.2539 8.25 Q-8.332 8.25 -9.5039 6.7656 Q-10.9258 4.9688 -10.9258 0.9375 ZM-9.1133 0.9375 Q-9.1133 4.4688 -8.293 5.6328 Q-7.4727 6.7969 -6.2539 6.7969 Q-5.0508 6.7969 -4.2227 5.625 Q-3.3945 4.4531 -3.3945 0.9375 Q-3.3945 -2.5938 -4.2227 -3.7578 Q-5.0508 -4.9219 -6.2695 -4.9219 Q-7.4883 -4.9219 -8.207 -3.8906 Q-9.1133 -2.5938 -9.1133 0.9375 Z" transform="translate(100.9996,273.2222)"/></g><g style="font-size:20px;fill:#262626;text-rendering:geometricPrecision;color-rendering:optimizeQuality;image-rendering:optimizeQuality;stroke:#262626;color-interpolation:linearRGB"><path style="stroke:none" d="M-26.5469 8 L-28.3125 8 L-28.3125 -3.2031 Q-28.9375 -2.5938 -29.9688 -1.9922 Q-31 -1.3906 -31.8281 -1.0781 L-31.8281 -2.7812 Q-30.3438 -3.4688 -29.2422 -4.4609 Q-28.1406 -5.4531 -27.6875 -6.375 L-26.5469 -6.375 L-26.5469 8 ZM-12.8145 6.3125 L-12.8145 8 L-22.2676 8 Q-22.2832 7.3594 -22.0645 6.7812 Q-21.7051 5.8125 -20.9082 4.875 Q-20.1113 3.9375 -18.6113 2.7031 Q-16.2676 0.7969 -15.4473 -0.3203 Q-14.627 -1.4375 -14.627 -2.4375 Q-14.627 -3.4844 -15.377 -4.2031 Q-16.127 -4.9219 -17.3301 -4.9219 Q-18.5957 -4.9219 -19.3613 -4.1562 Q-20.127 -3.3906 -20.127 -2.0469 L-21.9395 -2.2344 Q-21.752 -4.25 -20.541 -5.3125 Q-19.3301 -6.375 -17.2832 -6.375 Q-15.2363 -6.375 -14.0332 -5.2344 Q-12.8301 -4.0938 -12.8301 -2.4062 Q-12.8301 -1.5469 -13.1816 -0.7109 Q-13.5332 0.125 -14.3457 1.0391 Q-15.1582 1.9531 -17.0488 3.5625 Q-18.6426 4.8906 -19.0879 5.3594 Q-19.5332 5.8281 -19.8301 6.3125 L-12.8145 6.3125 ZM-10.9258 0.9375 Q-10.9258 -1.5938 -10.4023 -3.1484 Q-9.8789 -4.7031 -8.8477 -5.5391 Q-7.8164 -6.375 -6.2539 -6.375 Q-5.0977 -6.375 -4.2305 -5.9141 Q-3.3633 -5.4531 -2.8008 -4.5781 Q-2.2383 -3.7031 -1.9102 -2.4453 Q-1.582 -1.1875 -1.582 0.9375 Q-1.582 3.4531 -2.1055 5 Q-2.6289 6.5469 -3.6523 7.3984 Q-4.6758 8.25 -6.2539 8.25 Q-8.332 8.25 -9.5039 6.7656 Q-10.9258 4.9688 -10.9258 0.9375 ZM-9.1133 0.9375 Q-9.1133 4.4688 -8.293 5.6328 Q-7.4727 6.7969 -6.2539 6.7969 Q-5.0508 6.7969 -4.2227 5.625 Q-3.3945 4.4531 -3.3945 0.9375 Q-3.3945 -2.5938 -4.2227 -3.7578 Q-5.0508 -4.9219 -6.2695 -4.9219 Q-7.4883 -4.9219 -8.207 -3.8906 Q-9.1133 -2.5938 -9.1133 0.9375 Z" transform="translate(100.9996,216.6667)"/></g><g style="font-size:20px;fill:#262626;text-rendering:geometricPrecision;color-rendering:optimizeQuality;image-rendering:optimizeQuality;stroke:#262626;color-interpolation:linearRGB"><path style="stroke:none" d="M-26.5469 8 L-28.3125 8 L-28.3125 -3.2031 Q-28.9375 -2.5938 -29.9688 -1.9922 Q-31 -1.3906 -31.8281 -1.0781 L-31.8281 -2.7812 Q-30.3438 -3.4688 -29.2422 -4.4609 Q-28.1406 -5.4531 -27.6875 -6.375 L-26.5469 -6.375 L-26.5469 8 ZM-16.4082 8 L-16.4082 4.5781 L-22.627 4.5781 L-22.627 2.9531 L-16.0957 -6.3125 L-14.6582 -6.3125 L-14.6582 2.9531 L-12.7207 2.9531 L-12.7207 4.5781 L-14.6582 4.5781 L-14.6582 8 L-16.4082 8 ZM-16.4082 2.9531 L-16.4082 -3.5 L-20.8926 2.9531 L-16.4082 2.9531 ZM-10.9258 0.9375 Q-10.9258 -1.5938 -10.4023 -3.1484 Q-9.8789 -4.7031 -8.8477 -5.5391 Q-7.8164 -6.375 -6.2539 -6.375 Q-5.0977 -6.375 -4.2305 -5.9141 Q-3.3633 -5.4531 -2.8008 -4.5781 Q-2.2383 -3.7031 -1.9102 -2.4453 Q-1.582 -1.1875 -1.582 0.9375 Q-1.582 3.4531 -2.1055 5 Q-2.6289 6.5469 -3.6523 7.3984 Q-4.6758 8.25 -6.2539 8.25 Q-8.332 8.25 -9.5039 6.7656 Q-10.9258 4.9688 -10.9258 0.9375 ZM-9.1133 0.9375 Q-9.1133 4.4688 -8.293 5.6328 Q-7.4727 6.7969 -6.2539 6.7969 Q-5.0508 6.7969 -4.2227 5.625 Q-3.3945 4.4531 -3.3945 0.9375 Q-3.3945 -2.5938 -4.2227 -3.7578 Q-5.0508 -4.9219 -6.2695 -4.9219 Q-7.4883 -4.9219 -8.207 -3.8906 Q-9.1133 -2.5938 -9.1133 0.9375 Z" transform="translate(100.9996,160.1111)"/></g><g style="font-size:20px;fill:#262626;text-rendering:geometricPrecision;color-rendering:optimizeQuality;image-rendering:optimizeQuality;stroke:#262626;color-interpolation:linearRGB"><path style="stroke:none" d="M-26.5469 8 L-28.3125 8 L-28.3125 -3.2031 Q-28.9375 -2.5938 -29.9688 -1.9922 Q-31 -1.3906 -31.8281 -1.0781 L-31.8281 -2.7812 Q-30.3438 -3.4688 -29.2422 -4.4609 Q-28.1406 -5.4531 -27.6875 -6.375 L-26.5469 -6.375 L-26.5469 8 ZM-12.9238 -2.8125 L-14.6738 -2.6719 Q-14.9082 -3.7031 -15.3301 -4.1719 Q-16.0488 -4.9375 -17.0957 -4.9375 Q-17.9395 -4.9375 -18.5645 -4.4688 Q-19.3926 -3.8594 -19.877 -2.6953 Q-20.3613 -1.5312 -20.377 0.6094 Q-19.7363 -0.3438 -18.8223 -0.8125 Q-17.9082 -1.2812 -16.8926 -1.2812 Q-15.1426 -1.2812 -13.9082 0.0078 Q-12.6738 1.2969 -12.6738 3.3438 Q-12.6738 4.7031 -13.252 5.8594 Q-13.8301 7.0156 -14.8457 7.6328 Q-15.8613 8.25 -17.1582 8.25 Q-19.3457 8.25 -20.7363 6.6328 Q-22.127 5.0156 -22.127 1.2969 Q-22.127 -2.8438 -20.5957 -4.7344 Q-19.252 -6.375 -16.9863 -6.375 Q-15.2988 -6.375 -14.2207 -5.4297 Q-13.1426 -4.4844 -12.9238 -2.8125 ZM-20.0957 3.3594 Q-20.0957 4.2656 -19.7129 5.0938 Q-19.3301 5.9219 -18.6348 6.3594 Q-17.9395 6.7969 -17.1895 6.7969 Q-16.0645 6.7969 -15.2676 5.8984 Q-14.4707 5 -14.4707 3.4531 Q-14.4707 1.9688 -15.2598 1.1172 Q-16.0488 0.2656 -17.252 0.2656 Q-18.4395 0.2656 -19.2676 1.1172 Q-20.0957 1.9688 -20.0957 3.3594 ZM-10.9258 0.9375 Q-10.9258 -1.5938 -10.4023 -3.1484 Q-9.8789 -4.7031 -8.8477 -5.5391 Q-7.8164 -6.375 -6.2539 -6.375 Q-5.0977 -6.375 -4.2305 -5.9141 Q-3.3633 -5.4531 -2.8008 -4.5781 Q-2.2383 -3.7031 -1.9102 -2.4453 Q-1.582 -1.1875 -1.582 0.9375 Q-1.582 3.4531 -2.1055 5 Q-2.6289 6.5469 -3.6523 7.3984 Q-4.6758 8.25 -6.2539 8.25 Q-8.332 8.25 -9.5039 6.7656 Q-10.9258 4.9688 -10.9258 0.9375 ZM-9.1133 0.9375 Q-9.1133 4.4688 -8.293 5.6328 Q-7.4727 6.7969 -6.2539 6.7969 Q-5.0508 6.7969 -4.2227 5.625 Q-3.3945 4.4531 -3.3945 0.9375 Q-3.3945 -2.5938 -4.2227 -3.7578 Q-5.0508 -4.9219 -6.2695 -4.9219 Q-7.4883 -4.9219 -8.207 -3.8906 Q-9.1133 -2.5938 -9.1133 0.9375 Z" transform="translate(100.9996,103.5556)"/></g><g style="font-size:20px;fill:#262626;text-rendering:geometricPrecision;color-rendering:optimizeQuality;image-rendering:optimizeQuality;stroke:#262626;color-interpolation:linearRGB"><path style="stroke:none" d="M-26.5469 8 L-28.3125 8 L-28.3125 -3.2031 Q-28.9375 -2.5938 -29.9688 -1.9922 Q-31 -1.3906 -31.8281 -1.0781 L-31.8281 -2.7812 Q-30.3438 -3.4688 -29.2422 -4.4609 Q-28.1406 -5.4531 -27.6875 -6.375 L-26.5469 -6.375 L-26.5469 8 ZM-19.3457 0.2344 Q-20.4395 -0.1719 -20.9629 -0.9141 Q-21.4863 -1.6562 -21.4863 -2.6875 Q-21.4863 -4.25 -20.3613 -5.3125 Q-19.2363 -6.375 -17.377 -6.375 Q-15.502 -6.375 -14.3613 -5.2891 Q-13.2207 -4.2031 -13.2207 -2.6406 Q-13.2207 -1.6406 -13.7441 -0.9062 Q-14.2676 -0.1719 -15.3301 0.2344 Q-14.002 0.6719 -13.3145 1.625 Q-12.627 2.5781 -12.627 3.9062 Q-12.627 5.75 -13.9316 7 Q-15.2363 8.25 -17.3457 8.25 Q-19.4707 8.25 -20.7676 6.9922 Q-22.0645 5.7344 -22.0645 3.8594 Q-22.0645 2.4688 -21.3535 1.5234 Q-20.6426 0.5781 -19.3457 0.2344 ZM-19.6895 -2.75 Q-19.6895 -1.7344 -19.0332 -1.0859 Q-18.377 -0.4375 -17.3457 -0.4375 Q-16.3301 -0.4375 -15.6738 -1.0781 Q-15.0176 -1.7188 -15.0176 -2.6406 Q-15.0176 -3.6094 -15.6895 -4.2734 Q-16.3613 -4.9375 -17.3613 -4.9375 Q-18.3613 -4.9375 -19.0254 -4.2891 Q-19.6895 -3.6406 -19.6895 -2.75 ZM-20.252 3.875 Q-20.252 4.625 -19.9004 5.3281 Q-19.5488 6.0312 -18.8457 6.4141 Q-18.1426 6.7969 -17.3301 6.7969 Q-16.0645 6.7969 -15.2441 5.9844 Q-14.4238 5.1719 -14.4238 3.9219 Q-14.4238 2.6562 -15.2676 1.8281 Q-16.1113 1 -17.3926 1 Q-18.627 1 -19.4395 1.8203 Q-20.252 2.6406 -20.252 3.875 ZM-10.9258 0.9375 Q-10.9258 -1.5938 -10.4023 -3.1484 Q-9.8789 -4.7031 -8.8477 -5.5391 Q-7.8164 -6.375 -6.2539 -6.375 Q-5.0977 -6.375 -4.2305 -5.9141 Q-3.3633 -5.4531 -2.8008 -4.5781 Q-2.2383 -3.7031 -1.9102 -2.4453 Q-1.582 -1.1875 -1.582 0.9375 Q-1.582 3.4531 -2.1055 5 Q-2.6289 6.5469 -3.6523 7.3984 Q-4.6758 8.25 -6.2539 8.25 Q-8.332 8.25 -9.5039 6.7656 Q-10.9258 4.9688 -10.9258 0.9375 ZM-9.1133 0.9375 Q-9.1133 4.4688 -8.293 5.6328 Q-7.4727 6.7969 -6.2539 6.7969 Q-5.0508 6.7969 -4.2227 5.625 Q-3.3945 4.4531 -3.3945 0.9375 Q-3.3945 -2.5938 -4.2227 -3.7578 Q-5.0508 -4.9219 -6.2695 -4.9219 Q-7.4883 -4.9219 -8.207 -3.8906 Q-9.1133 -2.5938 -9.1133 0.9375 Z" transform="translate(100.9996,47)"/></g><g style="fill:#fff;text-rendering:optimizeSpeed;color-rendering:optimizeSpeed;image-rendering:optimizeSpeed;shape-rendering:crispEdges;stroke:#fff;color-interpolation:sRGB"><path style="stroke:none" d="M744 125 L744 63 L652 63 L652 125 Z"/></g><g style="text-rendering:geometricPrecision;font-size:18px;color-interpolation:linearRGB;color-rendering:optimizeQuality;image-rendering:optimizeQuality"><path style="stroke:none" d="M1.6719 0 L1.6719 -12.8906 L3.3906 -12.8906 L3.3906 0 L1.6719 0 Z" transform="translate(723,85)"/></g><g style="text-rendering:geometricPrecision;font-size:14.4px;color-interpolation:linearRGB;color-rendering:optimizeQuality;image-rendering:optimizeQuality"><path style="stroke:none" d="M0.2812 0 L0.2812 -1 L4.8906 -6.2969 Q4.1094 -6.2656 3.5 -6.2656 L0.5469 -6.2656 L0.5469 -7.2656 L6.4844 -7.2656 L6.4844 -6.4531 L2.5469 -1.8438 L1.7969 -1 Q2.625 -1.0625 3.3438 -1.0625 L6.7031 -1.0625 L6.7031 0 L0.2812 0 Z" transform="translate(729,94)"/></g><g style="fill:#0072bd;text-rendering:optimizeSpeed;color-rendering:optimizeSpeed;image-rendering:optimizeSpeed;shape-rendering:crispEdges;stroke:#0072bd;color-interpolation:sRGB"><path style="stroke:none" d="M718.3607 90.7368 L718.3607 73.417 L658.0328 73.417 L658.0328 90.7368 Z"/></g><g style="text-rendering:geometricPrecision;color-rendering:optimizeQuality;color-interpolation:linearRGB;stroke-linecap:butt;image-rendering:optimizeQuality"><path d="M658.0328 90.7368 L658.0328 73.417 L718.3607 73.417 L718.3607 90.7368 Z" style="fill:none;fill-rule:evenodd"/></g><g style="text-rendering:geometricPrecision;font-size:18px;color-interpolation:linearRGB;color-rendering:optimizeQuality;image-rendering:optimizeQuality"><path style="stroke:none" d="M1.5625 7.5 L1.5625 -0.6094 L0.1719 -0.6094 L0.1719 -1.8281 L1.5625 -1.8281 L1.5625 -2.8281 Q1.5625 -3.7656 1.7344 -4.2188 Q1.9531 -4.8438 2.5312 -5.2266 Q3.1094 -5.6094 4.1562 -5.6094 Q4.8125 -5.6094 5.625 -5.4531 L5.3906 -4.0625 Q4.8906 -4.1562 4.4531 -4.1562 Q3.7344 -4.1562 3.4375 -3.8516 Q3.1406 -3.5469 3.1406 -2.7031 L3.1406 -1.8281 L4.9531 -1.8281 L4.9531 -0.6094 L3.1406 -0.6094 L3.1406 7.5 L1.5625 7.5 ZM6.2041 -3.5625 L6.2041 -5.3906 L7.7822 -5.3906 L7.7822 -3.5625 L6.2041 -3.5625 ZM6.2041 7.5 L6.2041 -1.8281 L7.7822 -1.8281 L7.7822 7.5 L6.2041 7.5 ZM13.6406 6.0781 L13.875 7.4844 Q13.2031 7.625 12.6719 7.625 Q11.8125 7.625 11.3359 7.3516 Q10.8594 7.0781 10.6719 6.6328 Q10.4844 6.1875 10.4844 4.7656 L10.4844 -0.6094 L9.3125 -0.6094 L9.3125 -1.8281 L10.4844 -1.8281 L10.4844 -4.1406 L12.0469 -5.0938 L12.0469 -1.8281 L13.6406 -1.8281 L13.6406 -0.6094 L12.0469 -0.6094 L12.0469 4.8594 Q12.0469 5.5312 12.1328 5.7266 Q12.2188 5.9219 12.4062 6.0312 Q12.5938 6.1406 12.9531 6.1406 Q13.2031 6.1406 13.6406 6.0781 Z" transform="translate(722.8853,110.4413)"/></g><g style="stroke-linecap:butt;fill:red;text-rendering:geometricPrecision;image-rendering:optimizeQuality;color-rendering:optimizeQuality;stroke-linejoin:round;stroke:red;color-interpolation:linearRGB;stroke-width:4"><line style="fill:none" x1="658.033" x2="718.361" y1="110.441" y2="110.441"/></g><g style="stroke-linecap:butt;fill:#262626;text-rendering:geometricPrecision;color-rendering:optimizeQuality;image-rendering:optimizeQuality;color-interpolation:linearRGB;stroke:#262626"><path d="M652 125 L652 63 L744 63 L744 125 Z" style="fill:none;fill-rule:evenodd"/></g></g></svg>