<svg xmlns="http://www.w3.org/2000/svg" xmlns:xlink="http://www.w3.org/1999/xlink" width="1440" height="720" version="1.1" viewBox="0 0 1080 540"><metadata><rdf:RDF xmlns:cc="http://creativecommons.org/ns#" xmlns:dc="http://purl.org/dc/elements/1.1/" xmlns:rdf="http://www.w3.org/1999/02/22-rdf-syntax-ns#"><cc:Work><dc:type rdf:resource="http://purl.org/dc/dcmitype/StillImage"/><dc:date>2022-03-18T14:38:51.003443</dc:date><dc:format>image/svg+xml</dc:format><dc:creator><cc:Agent><dc:title>Matplotlib v3.4.3, https://matplotlib.org/</dc:title></cc:Agent></dc:creator></cc:Work></rdf:RDF></metadata><defs><style type="text/css">*{stroke-linecap:butt;stroke-linejoin:round}</style></defs><g id="figure_1"><g id="patch_1"><path d="M 0 540 L 1080 540 L 1080 0 L 0 0 z" style="fill:#fff"/></g><g id="axes_1"><g id="patch_2"><path d="M 42.668 499 L 528.143535 499 L 528.143535 10.8 L 42.668 10.8 z" style="fill:#fff"/></g><g id="PathCollection_1"><defs><path id="mef44652228" d="M 0 3 C 0.795609 3 1.55874 2.683901 2.12132 2.12132 C 2.683901 1.55874 3 0.795609 3 0 C 3 -0.795609 2.683901 -1.55874 2.12132 -2.12132 C 1.55874 -2.683901 0.795609 -3 0 -3 C -0.795609 -3 -1.55874 -2.683901 -2.12132 -2.12132 C -2.683901 -1.55874 -3 -0.795609 -3 0 C -3 0.795609 -2.683901 1.55874 -2.12132 2.12132 C -1.55874 2.683901 -0.795609 3 0 3 z" style="stroke:#1f77b4"/></defs><g clip-path="url(#p519d1bb8a9)"><use style="fill:#1f77b4;stroke:#1f77b4" x="94.158" y="296.339" xlink:href="#mef44652228"/><use style="fill:#1f77b4;stroke:#1f77b4" x="153.003" y="165.208" xlink:href="#mef44652228"/><use style="fill:#1f77b4;stroke:#1f77b4" x="211.849" y="122.904" xlink:href="#mef44652228"/><use style="fill:#1f77b4;stroke:#1f77b4" x="270.694" y="125.626" xlink:href="#mef44652228"/><use style="fill:#1f77b4;stroke:#1f77b4" x="329.54" y="122.211" xlink:href="#mef44652228"/><use style="fill:#1f77b4;stroke:#1f77b4" x="388.385" y="119.688" xlink:href="#mef44652228"/><use style="fill:#1f77b4;stroke:#1f77b4" x="447.231" y="119.319" xlink:href="#mef44652228"/><use style="fill:#1f77b4;stroke:#1f77b4" x="506.076" y="119.417" xlink:href="#mef44652228"/></g></g><g id="PathCollection_2"><defs><path id="m36b63a3a1c" d="M 0 3 C 0.795609 3 1.55874 2.683901 2.12132 2.12132 C 2.683901 1.55874 3 0.795609 3 0 C 3 -0.795609 2.683901 -1.55874 2.12132 -2.12132 C 1.55874 -2.683901 0.795609 -3 0 -3 C -0.795609 -3 -1.55874 -2.683901 -2.12132 -2.12132 C -2.683901 -1.55874 -3 -0.795609 -3 0 C -3 0.795609 -2.683901 1.55874 -2.12132 2.12132 C -1.55874 2.683901 -0.795609 3 0 3 z" style="stroke:#ff7f0e"/></defs><g clip-path="url(#p519d1bb8a9)"><use style="fill:#ff7f0e;stroke:#ff7f0e" x="94.158" y="331.605" xlink:href="#m36b63a3a1c"/><use style="fill:#ff7f0e;stroke:#ff7f0e" x="153.003" y="32.991" xlink:href="#m36b63a3a1c"/><use style="fill:#ff7f0e;stroke:#ff7f0e" x="211.849" y="93.062" xlink:href="#m36b63a3a1c"/><use style="fill:#ff7f0e;stroke:#ff7f0e" x="270.694" y="126.765" xlink:href="#m36b63a3a1c"/><use style="fill:#ff7f0e;stroke:#ff7f0e" x="329.54" y="118.546" xlink:href="#m36b63a3a1c"/><use style="fill:#ff7f0e;stroke:#ff7f0e" x="388.385" y="119.668" xlink:href="#m36b63a3a1c"/><use style="fill:#ff7f0e;stroke:#ff7f0e" x="447.231" y="119.464" xlink:href="#m36b63a3a1c"/><use style="fill:#ff7f0e;stroke:#ff7f0e" x="506.076" y="119.492" xlink:href="#m36b63a3a1c"/></g></g><g id="PathCollection_3"><defs><path id="m48212a3126" d="M 0 3 C 0.795609 3 1.55874 2.683901 2.12132 2.12132 C 2.683901 1.55874 3 0.795609 3 0 C 3 -0.795609 2.683901 -1.55874 2.12132 -2.12132 C 1.55874 -2.683901 0.795609 -3 0 -3 C -0.795609 -3 -1.55874 -2.683901 -2.12132 -2.12132 C -2.683901 -1.55874 -3 -0.795609 -3 0 C -3 0.795609 -2.683901 1.55874 -2.12132 2.12132 C -1.55874 2.683901 -0.795609 3 0 3 z" style="stroke:#2ca02c"/></defs><g clip-path="url(#p519d1bb8a9)"><use style="fill:#2ca02c;stroke:#2ca02c" x="94.158" y="476.809" xlink:href="#m48212a3126"/><use style="fill:#2ca02c;stroke:#2ca02c" x="153.003" y="241.923" xlink:href="#m48212a3126"/><use style="fill:#2ca02c;stroke:#2ca02c" x="211.849" y="124.057" xlink:href="#m48212a3126"/><use style="fill:#2ca02c;stroke:#2ca02c" x="270.694" y="116.628" xlink:href="#m48212a3126"/><use style="fill:#2ca02c;stroke:#2ca02c" x="329.54" y="116.601" xlink:href="#m48212a3126"/><use style="fill:#2ca02c;stroke:#2ca02c" x="388.385" y="118.575" xlink:href="#m48212a3126"/><use style="fill:#2ca02c;stroke:#2ca02c" x="447.231" y="119.352" xlink:href="#m48212a3126"/><use style="fill:#2ca02c;stroke:#2ca02c" x="506.076" y="119.526" xlink:href="#m48212a3126"/></g></g><g id="PathCollection_4"><defs><path id="m1253290d34" d="M 0 3 C 0.795609 3 1.55874 2.683901 2.12132 2.12132 C 2.683901 1.55874 3 0.795609 3 0 C 3 -0.795609 2.683901 -1.55874 2.12132 -2.12132 C 1.55874 -2.683901 0.795609 -3 0 -3 C -0.795609 -3 -1.55874 -2.683901 -2.12132 -2.12132 C -2.683901 -1.55874 -3 -0.795609 -3 0 C -3 0.795609 -2.683901 1.55874 -2.12132 2.12132 C -1.55874 2.683901 -0.795609 3 0 3 z" style="stroke:#d62728"/></defs><g clip-path="url(#p519d1bb8a9)"><use style="fill:#d62728;stroke:#d62728" x="94.158" y="191.304" xlink:href="#m1253290d34"/><use style="fill:#d62728;stroke:#d62728" x="153.003" y="39.052" xlink:href="#m1253290d34"/><use style="fill:#d62728;stroke:#d62728" x="211.849" y="91.396" xlink:href="#m1253290d34"/><use style="fill:#d62728;stroke:#d62728" x="270.694" y="112.392" xlink:href="#m1253290d34"/><use style="fill:#d62728;stroke:#d62728" x="329.54" y="123.254" xlink:href="#m1253290d34"/><use style="fill:#d62728;stroke:#d62728" x="388.385" y="120.053" xlink:href="#m1253290d34"/><use style="fill:#d62728;stroke:#d62728" x="447.231" y="119.356" xlink:href="#m1253290d34"/><use style="fill:#d62728;stroke:#d62728" x="506.076" y="119.514" xlink:href="#m1253290d34"/></g></g><g id="PathCollection_5"><defs><path id="m30ba867511" d="M 0 3 C 0.795609 3 1.55874 2.683901 2.12132 2.12132 C 2.683901 1.55874 3 0.795609 3 0 C 3 -0.795609 2.683901 -1.55874 2.12132 -2.12132 C 1.55874 -2.683901 0.795609 -3 0 -3 C -0.795609 -3 -1.55874 -2.683901 -2.12132 -2.12132 C -2.683901 -1.55874 -3 -0.795609 -3 0 C -3 0.795609 -2.683901 1.55874 -2.12132 2.12132 C -1.55874 2.683901 -0.795609 3 0 3 z" style="stroke:#9467bd"/></defs><g clip-path="url(#p519d1bb8a9)"><use style="fill:#9467bd;stroke:#9467bd" x="94.158" y="303.81" xlink:href="#m30ba867511"/><use style="fill:#9467bd;stroke:#9467bd" x="153.003" y="134.858" xlink:href="#m30ba867511"/><use style="fill:#9467bd;stroke:#9467bd" x="211.849" y="123.713" xlink:href="#m30ba867511"/><use style="fill:#9467bd;stroke:#9467bd" x="270.694" y="118.471" xlink:href="#m30ba867511"/><use style="fill:#9467bd;stroke:#9467bd" x="329.54" y="118.656" xlink:href="#m30ba867511"/><use style="fill:#9467bd;stroke:#9467bd" x="388.385" y="119.575" xlink:href="#m30ba867511"/><use style="fill:#9467bd;stroke:#9467bd" x="447.231" y="119.616" xlink:href="#m30ba867511"/><use style="fill:#9467bd;stroke:#9467bd" x="506.076" y="119.581" xlink:href="#m30ba867511"/></g></g><g id="PathCollection_6"><defs><path id="mfd3f5a6f08" d="M 0 3 C 0.795609 3 1.55874 2.683901 2.12132 2.12132 C 2.683901 1.55874 3 0.795609 3 0 C 3 -0.795609 2.683901 -1.55874 2.12132 -2.12132 C 1.55874 -2.683901 0.795609 -3 0 -3 C -0.795609 -3 -1.55874 -2.683901 -2.12132 -2.12132 C -2.683901 -1.55874 -3 -0.795609 -3 0 C -3 0.795609 -2.683901 1.55874 -2.12132 2.12132 C -1.55874 2.683901 -0.795609 3 0 3 z" style="stroke:#8c564b"/></defs><g clip-path="url(#p519d1bb8a9)"><use style="fill:#8c564b;stroke:#8c564b" x="94.158" y="200.279" xlink:href="#mfd3f5a6f08"/><use style="fill:#8c564b;stroke:#8c564b" x="153.003" y="286.46" xlink:href="#mfd3f5a6f08"/><use style="fill:#8c564b;stroke:#8c564b" x="211.849" y="103.173" xlink:href="#mfd3f5a6f08"/><use style="fill:#8c564b;stroke:#8c564b" x="270.694" y="109.687" xlink:href="#mfd3f5a6f08"/><use style="fill:#8c564b;stroke:#8c564b" x="329.54" y="122.243" xlink:href="#mfd3f5a6f08"/><use style="fill:#8c564b;stroke:#8c564b" x="388.385" y="119.699" xlink:href="#mfd3f5a6f08"/><use style="fill:#8c564b;stroke:#8c564b" x="447.231" y="119.585" xlink:href="#mfd3f5a6f08"/><use style="fill:#8c564b;stroke:#8c564b" x="506.076" y="119.567" xlink:href="#mfd3f5a6f08"/></g></g><g id="PathCollection_7"><defs><path id="mc6a87ee06a" d="M 0 3 C 0.795609 3 1.55874 2.683901 2.12132 2.12132 C 2.683901 1.55874 3 0.795609 3 0 C 3 -0.795609 2.683901 -1.55874 2.12132 -2.12132 C 1.55874 -2.683901 0.795609 -3 0 -3 C -0.795609 -3 -1.55874 -2.683901 -2.12132 -2.12132 C -2.683901 -1.55874 -3 -0.795609 -3 0 C -3 0.795609 -2.683901 1.55874 -2.12132 2.12132 C -1.55874 2.683901 -0.795609 3 0 3 z" style="stroke:#e377c2"/></defs><g clip-path="url(#p519d1bb8a9)"><use style="fill:#e377c2;stroke:#e377c2" x="94.158" y="412.972" xlink:href="#mc6a87ee06a"/><use style="fill:#e377c2;stroke:#e377c2" x="153.003" y="42.325" xlink:href="#mc6a87ee06a"/><use style="fill:#e377c2;stroke:#e377c2" x="211.849" y="108.586" xlink:href="#mc6a87ee06a"/><use style="fill:#e377c2;stroke:#e377c2" x="270.694" y="125.708" xlink:href="#mc6a87ee06a"/><use style="fill:#e377c2;stroke:#e377c2" x="329.54" y="116.408" xlink:href="#mc6a87ee06a"/><use style="fill:#e377c2;stroke:#e377c2" x="388.385" y="119.315" xlink:href="#mc6a87ee06a"/><use style="fill:#e377c2;stroke:#e377c2" x="447.231" y="119.457" xlink:href="#mc6a87ee06a"/><use style="fill:#e377c2;stroke:#e377c2" x="506.076" y="119.56" xlink:href="#mc6a87ee06a"/></g></g><g id="matplotlib.axis_1"><g id="xtick_1"><g id="line2d_1"><path d="M 94.157829 499 L 94.157829 10.8" clip-path="url(#p519d1bb8a9)" style="fill:none;stroke:#b0b0b0;stroke-linecap:square;stroke-width:.8"/></g><g id="line2d_2"><defs><path id="m19a3f5b0a5" d="M 0 0 L 0 3.5" style="stroke:#000;stroke-width:.8"/></defs><g><use style="stroke:#000;stroke-width:.8" x="94.158" y="499" xlink:href="#m19a3f5b0a5"/></g></g><g id="text_1"><g transform="translate(90.340329 510.559062)scale(0.06 -0.06)"><defs><path id="DejaVuSans-31" d="M 794 531 L 1825 531 L 1825 4091 L 703 3866 L 703 4441 L 1819 4666 L 2450 4666 L 2450 531 L 3481 531 L 3481 0 L 794 0 L 794 531 z" transform="scale(0.015625)"/><path id="DejaVuSans-30" d="M 2034 4250 Q 1547 4250 1301 3770 Q 1056 3291 1056 2328 Q 1056 1369 1301 889 Q 1547 409 2034 409 Q 2525 409 2770 889 Q 3016 1369 3016 2328 Q 3016 3291 2770 3770 Q 2525 4250 2034 4250 z M 2034 4750 Q 2819 4750 3233 4129 Q 3647 3509 3647 2328 Q 3647 1150 3233 529 Q 2819 -91 2034 -91 Q 1250 -91 836 529 Q 422 1150 422 2328 Q 422 3509 836 4129 Q 1250 4750 2034 4750 z" transform="scale(0.015625)"/></defs><use xlink:href="#DejaVuSans-31"/><use x="63.623" xlink:href="#DejaVuSans-30"/></g></g></g><g id="xtick_2"><g id="line2d_3"><path d="M 153.003349 499 L 153.003349 10.8" clip-path="url(#p519d1bb8a9)" style="fill:none;stroke:#b0b0b0;stroke-linecap:square;stroke-width:.8"/></g><g id="line2d_4"><g><use style="stroke:#000;stroke-width:.8" x="153.003" y="499" xlink:href="#m19a3f5b0a5"/></g></g><g id="text_2"><g transform="translate(147.277099 510.559062)scale(0.06 -0.06)"><use xlink:href="#DejaVuSans-31"/><use x="63.623" xlink:href="#DejaVuSans-30"/><use x="127.246" xlink:href="#DejaVuSans-30"/></g></g></g><g id="xtick_3"><g id="line2d_5"><path d="M 211.848868 499 L 211.848868 10.8" clip-path="url(#p519d1bb8a9)" style="fill:none;stroke:#b0b0b0;stroke-linecap:square;stroke-width:.8"/></g><g id="line2d_6"><g><use style="stroke:#000;stroke-width:.8" x="211.849" y="499" xlink:href="#m19a3f5b0a5"/></g></g><g id="text_3"><g transform="translate(204.213868 510.559062)scale(0.06 -0.06)"><use xlink:href="#DejaVuSans-31"/><use x="63.623" xlink:href="#DejaVuSans-30"/><use x="127.246" xlink:href="#DejaVuSans-30"/><use x="190.869" xlink:href="#DejaVuSans-30"/></g></g></g><g id="xtick_4"><g id="line2d_7"><path d="M 270.694388 499 L 270.694388 10.8" clip-path="url(#p519d1bb8a9)" style="fill:none;stroke:#b0b0b0;stroke-linecap:square;stroke-width:.8"/></g><g id="line2d_8"><g><use style="stroke:#000;stroke-width:.8" x="270.694" y="499" xlink:href="#m19a3f5b0a5"/></g></g><g id="text_4"><g transform="translate(261.150638 510.559062)scale(0.06 -0.06)"><use xlink:href="#DejaVuSans-31"/><use x="63.623" xlink:href="#DejaVuSans-30"/><use x="127.246" xlink:href="#DejaVuSans-30"/><use x="190.869" xlink:href="#DejaVuSans-30"/><use x="254.492" xlink:href="#DejaVuSans-30"/></g></g></g><g id="xtick_5"><g id="line2d_9"><path d="M 329.539907 499 L 329.539907 10.8" clip-path="url(#p519d1bb8a9)" style="fill:none;stroke:#b0b0b0;stroke-linecap:square;stroke-width:.8"/></g><g id="line2d_10"><g><use style="stroke:#000;stroke-width:.8" x="329.54" y="499" xlink:href="#m19a3f5b0a5"/></g></g><g id="text_5"><g transform="translate(318.087407 510.559062)scale(0.06 -0.06)"><use xlink:href="#DejaVuSans-31"/><use x="63.623" xlink:href="#DejaVuSans-30"/><use x="127.246" xlink:href="#DejaVuSans-30"/><use x="190.869" xlink:href="#DejaVuSans-30"/><use x="254.492" xlink:href="#DejaVuSans-30"/><use x="318.115" xlink:href="#DejaVuSans-30"/></g></g></g><g id="xtick_6"><g id="line2d_11"><path d="M 388.385426 499 L 388.385426 10.8" clip-path="url(#p519d1bb8a9)" style="fill:none;stroke:#b0b0b0;stroke-linecap:square;stroke-width:.8"/></g><g id="line2d_12"><g><use style="stroke:#000;stroke-width:.8" x="388.385" y="499" xlink:href="#m19a3f5b0a5"/></g></g><g id="text_6"><g transform="translate(375.024176 510.559062)scale(0.06 -0.06)"><use xlink:href="#DejaVuSans-31"/><use x="63.623" xlink:href="#DejaVuSans-30"/><use x="127.246" xlink:href="#DejaVuSans-30"/><use x="190.869" xlink:href="#DejaVuSans-30"/><use x="254.492" xlink:href="#DejaVuSans-30"/><use x="318.115" xlink:href="#DejaVuSans-30"/><use x="381.738" xlink:href="#DejaVuSans-30"/></g></g></g><g id="xtick_7"><g id="line2d_13"><path d="M 447.230946 499 L 447.230946 10.8" clip-path="url(#p519d1bb8a9)" style="fill:none;stroke:#b0b0b0;stroke-linecap:square;stroke-width:.8"/></g><g id="line2d_14"><g><use style="stroke:#000;stroke-width:.8" x="447.231" y="499" xlink:href="#m19a3f5b0a5"/></g></g><g id="text_7"><g transform="translate(431.960946 510.559062)scale(0.06 -0.06)"><use xlink:href="#DejaVuSans-31"/><use x="63.623" xlink:href="#DejaVuSans-30"/><use x="127.246" xlink:href="#DejaVuSans-30"/><use x="190.869" xlink:href="#DejaVuSans-30"/><use x="254.492" xlink:href="#DejaVuSans-30"/><use x="318.115" xlink:href="#DejaVuSans-30"/><use x="381.738" xlink:href="#DejaVuSans-30"/><use x="445.361" xlink:href="#DejaVuSans-30"/></g></g></g><g id="xtick_8"><g id="line2d_15"><path d="M 506.076465 499 L 506.076465 10.8" clip-path="url(#p519d1bb8a9)" style="fill:none;stroke:#b0b0b0;stroke-linecap:square;stroke-width:.8"/></g><g id="line2d_16"><g><use style="stroke:#000;stroke-width:.8" x="506.076" y="499" xlink:href="#m19a3f5b0a5"/></g></g><g id="text_8"><g transform="translate(488.897715 510.559062)scale(0.06 -0.06)"><use xlink:href="#DejaVuSans-31"/><use x="63.623" xlink:href="#DejaVuSans-30"/><use x="127.246" xlink:href="#DejaVuSans-30"/><use x="190.869" xlink:href="#DejaVuSans-30"/><use x="254.492" xlink:href="#DejaVuSans-30"/><use x="318.115" xlink:href="#DejaVuSans-30"/><use x="381.738" xlink:href="#DejaVuSans-30"/><use x="445.361" xlink:href="#DejaVuSans-30"/><use x="508.984" xlink:href="#DejaVuSans-30"/></g></g></g><g id="text_9"><g transform="translate(281.665142 523.405313)scale(0.1 -0.1)"><defs><path id="DejaVuSans-4e" d="M 628 4666 L 1478 4666 L 3547 763 L 3547 4666 L 4159 4666 L 4159 0 L 3309 0 L 1241 3903 L 1241 0 L 628 0 L 628 4666 z" transform="scale(0.015625)"/></defs><use xlink:href="#DejaVuSans-4e"/></g></g></g><g id="matplotlib.axis_2"><g id="ytick_1"><g id="line2d_17"><path d="M 42.668 438.267357 L 528.143535 438.267357" clip-path="url(#p519d1bb8a9)" style="fill:none;stroke:#b0b0b0;stroke-linecap:square;stroke-width:.8"/></g><g id="line2d_18"><defs><path id="mbb464ea586" d="M 0 0 L -3.5 0" style="stroke:#000;stroke-width:.8"/></defs><g><use style="stroke:#000;stroke-width:.8" x="42.668" y="438.267" xlink:href="#mbb464ea586"/></g></g><g id="text_10"><g transform="translate(26.126125 440.546888)scale(0.06 -0.06)"><defs><path id="DejaVuSans-2e" d="M 684 794 L 1344 794 L 1344 0 L 684 0 L 684 794 z" transform="scale(0.015625)"/><path id="DejaVuSans-34" d="M 2419 4116 L 825 1625 L 2419 1625 L 2419 4116 z M 2253 4666 L 3047 4666 L 3047 1625 L 3713 1625 L 3713 1100 L 3047 1100 L 3047 0 L 2419 0 L 2419 1100 L 313 1100 L 313 1709 L 2253 4666 z" transform="scale(0.015625)"/></defs><use xlink:href="#DejaVuSans-31"/><use x="63.623" xlink:href="#DejaVuSans-2e"/><use x="95.41" xlink:href="#DejaVuSans-34"/></g></g></g><g id="ytick_2"><g id="line2d_19"><path d="M 42.668 338.12215 L 528.143535 338.12215" clip-path="url(#p519d1bb8a9)" style="fill:none;stroke:#b0b0b0;stroke-linecap:square;stroke-width:.8"/></g><g id="line2d_20"><g><use style="stroke:#000;stroke-width:.8" x="42.668" y="338.122" xlink:href="#mbb464ea586"/></g></g><g id="text_11"><g transform="translate(26.126125 340.401681)scale(0.06 -0.06)"><defs><path id="DejaVuSans-35" d="M 691 4666 L 3169 4666 L 3169 4134 L 1269 4134 L 1269 2991 Q 1406 3038 1543 3061 Q 1681 3084 1819 3084 Q 2600 3084 3056 2656 Q 3513 2228 3513 1497 Q 3513 744 3044 326 Q 2575 -91 1722 -91 Q 1428 -91 1123 -41 Q 819 9 494 109 L 494 744 Q 775 591 1075 516 Q 1375 441 1709 441 Q 2250 441 2565 725 Q 2881 1009 2881 1497 Q 2881 1984 2565 2268 Q 2250 2553 1709 2553 Q 1456 2553 1204 2497 Q 953 2441 691 2322 L 691 4666 z" transform="scale(0.015625)"/></defs><use xlink:href="#DejaVuSans-31"/><use x="63.623" xlink:href="#DejaVuSans-2e"/><use x="95.41" xlink:href="#DejaVuSans-35"/></g></g></g><g id="ytick_3"><g id="line2d_21"><path d="M 42.668 237.976943 L 528.143535 237.976943" clip-path="url(#p519d1bb8a9)" style="fill:none;stroke:#b0b0b0;stroke-linecap:square;stroke-width:.8"/></g><g id="line2d_22"><g><use style="stroke:#000;stroke-width:.8" x="42.668" y="237.977" xlink:href="#mbb464ea586"/></g></g><g id="text_12"><g transform="translate(26.126125 240.256474)scale(0.06 -0.06)"><defs><path id="DejaVuSans-36" d="M 2113 2584 Q 1688 2584 1439 2293 Q 1191 2003 1191 1497 Q 1191 994 1439 701 Q 1688 409 2113 409 Q 2538 409 2786 701 Q 3034 994 3034 1497 Q 3034 2003 2786 2293 Q 2538 2584 2113 2584 z M 3366 4563 L 3366 3988 Q 3128 4100 2886 4159 Q 2644 4219 2406 4219 Q 1781 4219 1451 3797 Q 1122 3375 1075 2522 Q 1259 2794 1537 2939 Q 1816 3084 2150 3084 Q 2853 3084 3261 2657 Q 3669 2231 3669 1497 Q 3669 778 3244 343 Q 2819 -91 2113 -91 Q 1303 -91 875 529 Q 447 1150 447 2328 Q 447 3434 972 4092 Q 1497 4750 2381 4750 Q 2619 4750 2861 4703 Q 3103 4656 3366 4563 z" transform="scale(0.015625)"/></defs><use xlink:href="#DejaVuSans-31"/><use x="63.623" xlink:href="#DejaVuSans-2e"/><use x="95.41" xlink:href="#DejaVuSans-36"/></g></g></g><g id="ytick_4"><g id="line2d_23"><path d="M 42.668 137.831736 L 528.143535 137.831736" clip-path="url(#p519d1bb8a9)" style="fill:none;stroke:#b0b0b0;stroke-linecap:square;stroke-width:.8"/></g><g id="line2d_24"><g><use style="stroke:#000;stroke-width:.8" x="42.668" y="137.832" xlink:href="#mbb464ea586"/></g></g><g id="text_13"><g transform="translate(26.126125 140.111267)scale(0.06 -0.06)"><defs><path id="DejaVuSans-37" d="M 525 4666 L 3525 4666 L 3525 4397 L 1831 0 L 1172 0 L 2766 4134 L 525 4134 L 525 4666 z" transform="scale(0.015625)"/></defs><use xlink:href="#DejaVuSans-31"/><use x="63.623" xlink:href="#DejaVuSans-2e"/><use x="95.41" xlink:href="#DejaVuSans-37"/></g></g></g><g id="ytick_5"><g id="line2d_25"><path d="M 42.668 37.686529 L 528.143535 37.686529" clip-path="url(#p519d1bb8a9)" style="fill:none;stroke:#b0b0b0;stroke-linecap:square;stroke-width:.8"/></g><g id="line2d_26"><g><use style="stroke:#000;stroke-width:.8" x="42.668" y="37.687" xlink:href="#mbb464ea586"/></g></g><g id="text_14"><g transform="translate(26.126125 39.96606)scale(0.06 -0.06)"><defs><path id="DejaVuSans-38" d="M 2034 2216 Q 1584 2216 1326 1975 Q 1069 1734 1069 1313 Q 1069 891 1326 650 Q 1584 409 2034 409 Q 2484 409 2743 651 Q 3003 894 3003 1313 Q 3003 1734 2745 1975 Q 2488 2216 2034 2216 z M 1403 2484 Q 997 2584 770 2862 Q 544 3141 544 3541 Q 544 4100 942 4425 Q 1341 4750 2034 4750 Q 2731 4750 3128 4425 Q 3525 4100 3525 3541 Q 3525 3141 3298 2862 Q 3072 2584 2669 2484 Q 3125 2378 3379 2068 Q 3634 1759 3634 1313 Q 3634 634 3220 271 Q 2806 -91 2034 -91 Q 1263 -91 848 271 Q 434 634 434 1313 Q 434 1759 690 2068 Q 947 2378 1403 2484 z M 1172 3481 Q 1172 3119 1398 2916 Q 1625 2713 2034 2713 Q 2441 2713 2670 2916 Q 2900 3119 2900 3481 Q 2900 3844 2670 4047 Q 2441 4250 2034 4250 Q 1625 4250 1398 4047 Q 1172 3844 1172 3481 z" transform="scale(0.015625)"/></defs><use xlink:href="#DejaVuSans-31"/><use x="63.623" xlink:href="#DejaVuSans-2e"/><use x="95.41" xlink:href="#DejaVuSans-38"/></g></g></g><g id="text_15"><g transform="translate(20.046438 265.9)rotate(-90)scale(0.1 -0.1)"><defs><path id="DejaVuSans-Oblique-66" d="M 3059 4863 L 2969 4384 L 2419 4384 Q 2106 4384 1964 4261 Q 1822 4138 1753 3809 L 1691 3500 L 2638 3500 L 2553 3053 L 1606 3053 L 1013 0 L 434 0 L 1031 3053 L 481 3053 L 563 3500 L 1113 3500 L 1159 3744 Q 1278 4363 1576 4613 Q 1875 4863 2516 4863 L 3059 4863 z" transform="scale(0.015625)"/><path id="DejaVuSans-28" d="M 1984 4856 Q 1566 4138 1362 3434 Q 1159 2731 1159 2009 Q 1159 1288 1364 580 Q 1569 -128 1984 -844 L 1484 -844 Q 1016 -109 783 600 Q 550 1309 550 2009 Q 550 2706 781 3412 Q 1013 4119 1484 4856 L 1984 4856 z" transform="scale(0.015625)"/><path id="DejaVuSans-Oblique-78" d="M 3841 3500 L 2234 1784 L 3219 0 L 2559 0 L 1819 1388 L 531 0 L -166 0 L 1556 1844 L 641 3500 L 1300 3500 L 1972 2234 L 3144 3500 L 3841 3500 z" transform="scale(0.015625)"/><path id="DejaVuSans-29" d="M 513 4856 L 1013 4856 Q 1481 4119 1714 3412 Q 1947 2706 1947 2009 Q 1947 1309 1714 600 Q 1481 -109 1013 -844 L 513 -844 Q 928 -128 1133 580 Q 1338 1288 1338 2009 Q 1338 2731 1133 3434 Q 928 4138 513 4856 z" transform="scale(0.015625)"/></defs><use transform="translate(0 0.015625)" xlink:href="#DejaVuSans-Oblique-66"/><use transform="translate(35.205078 -16.390625)scale(0.7)" xlink:href="#DejaVuSans-31"/><use transform="translate(82.475586 0.015625)" xlink:href="#DejaVuSans-28"/><use transform="translate(121.489258 0.015625)" xlink:href="#DejaVuSans-Oblique-78"/><use transform="translate(180.668945 0.015625)" xlink:href="#DejaVuSans-29"/></g></g></g><g id="LineCollection_1"><path d="M 64.73507 119.523361 L 506.076465 119.523361" clip-path="url(#p519d1bb8a9)" style="fill:none;stroke:orange;stroke-dasharray:3.7,1.6;stroke-dashoffset:0"/></g><g id="line2d_27"><path d="M 94.157829 296.338989 L 153.003349 165.208476 L 211.848868 122.904254 L 270.694388 125.626274 L 329.539907 122.211089 L 388.385426 119.687609 L 447.230946 119.319056 L 506.076465 119.41717" clip-path="url(#p519d1bb8a9)" style="fill:none;stroke:#1f77b4;stroke-linecap:square"/></g><g id="line2d_28"><path d="M 94.157829 331.605112 L 153.003349 32.990909 L 211.848868 93.062286 L 270.694388 126.76527 L 329.539907 118.545698 L 388.385426 119.667924 L 447.230946 119.463643 L 506.076465 119.491728" clip-path="url(#p519d1bb8a9)" style="fill:none;stroke:#ff7f0e;stroke-linecap:square"/></g><g id="line2d_29"><path d="M 94.157829 476.809091 L 153.003349 241.923065 L 211.848868 124.056615 L 270.694388 116.627728 L 329.539907 116.601375 L 388.385426 118.57475 L 447.230946 119.351709 L 506.076465 119.526265" clip-path="url(#p519d1bb8a9)" style="fill:none;stroke:#2ca02c;stroke-linecap:square"/></g><g id="line2d_30"><path d="M 94.157829 191.30391 L 153.003349 39.051742 L 211.848868 91.396027 L 270.694388 112.391973 L 329.539907 123.254157 L 388.385426 120.053147 L 447.230946 119.356083 L 506.076465 119.514305" clip-path="url(#p519d1bb8a9)" style="fill:none;stroke:#d62728;stroke-linecap:square"/></g><g id="line2d_31"><path d="M 94.157829 303.809557 L 153.003349 134.85832 L 211.848868 123.712612 L 270.694388 118.470675 L 329.539907 118.656143 L 388.385426 119.575477 L 447.230946 119.616445 L 506.076465 119.581293" clip-path="url(#p519d1bb8a9)" style="fill:none;stroke:#9467bd;stroke-linecap:square"/></g><g id="line2d_32"><path d="M 94.157829 200.278852 L 153.003349 286.459632 L 211.848868 103.172516 L 270.694388 109.68725 L 329.539907 122.242871 L 388.385426 119.699014 L 447.230946 119.585081 L 506.076465 119.566814" clip-path="url(#p519d1bb8a9)" style="fill:none;stroke:#8c564b;stroke-linecap:square"/></g><g id="line2d_33"><path d="M 94.157829 412.971707 L 153.003349 42.324893 L 211.848868 108.586051 L 270.694388 125.708069 L 329.539907 116.40799 L 388.385426 119.314531 L 447.230946 119.456739 L 506.076465 119.5598" clip-path="url(#p519d1bb8a9)" style="fill:none;stroke:#e377c2;stroke-linecap:square"/></g><g id="patch_3"><path d="M 42.668 499 L 42.668 10.8" style="fill:none;stroke:#000;stroke-linecap:square;stroke-linejoin:miter;stroke-width:.8"/></g><g id="patch_4"><path d="M 528.143535 499 L 528.143535 10.8" style="fill:none;stroke:#000;stroke-linecap:square;stroke-linejoin:miter;stroke-width:.8"/></g><g id="patch_5"><path d="M 42.668 499 L 528.143535 499" style="fill:none;stroke:#000;stroke-linecap:square;stroke-linejoin:miter;stroke-width:.8"/></g><g id="patch_6"><path d="M 42.668 10.8 L 528.143535 10.8" style="fill:none;stroke:#000;stroke-linecap:square;stroke-linejoin:miter;stroke-width:.8"/></g><g id="text_16"><g style="fill:orange" transform="translate(35.31231 119.523361)scale(0.1 -0.1)"><defs><path id="DejaVuSans-65" d="M 3597 1894 L 3597 1613 L 953 1613 Q 991 1019 1311 708 Q 1631 397 2203 397 Q 2534 397 2845 478 Q 3156 559 3463 722 L 3463 178 Q 3153 47 2828 -22 Q 2503 -91 2169 -91 Q 1331 -91 842 396 Q 353 884 353 1716 Q 353 2575 817 3079 Q 1281 3584 2069 3584 Q 2775 3584 3186 3129 Q 3597 2675 3597 1894 z M 3022 2063 Q 3016 2534 2758 2815 Q 2500 3097 2075 3097 Q 1594 3097 1305 2825 Q 1016 2553 972 2059 L 3022 2063 z" transform="scale(0.015625)"/><path id="DejaVuSans-2d" d="M 313 2009 L 1997 2009 L 1997 1497 L 313 1497 L 313 2009 z" transform="scale(0.015625)"/></defs><use xlink:href="#DejaVuSans-65"/><use x="61.523" xlink:href="#DejaVuSans-2d"/><use x="97.607" xlink:href="#DejaVuSans-31"/></g></g></g><g id="axes_2"><g id="patch_7"><path d="M 577.171535 499 L 1062.64707 499 L 1062.64707 10.8 L 577.171535 10.8 z" style="fill:#fff"/></g><g id="PathCollection_8"><g clip-path="url(#p6a4c90263d)"><use style="fill:#1f77b4;stroke:#1f77b4" x="628.661" y="438.117" xlink:href="#mef44652228"/><use style="fill:#1f77b4;stroke:#1f77b4" x="687.507" y="279.087" xlink:href="#mef44652228"/><use style="fill:#1f77b4;stroke:#1f77b4" x="746.352" y="234.638" xlink:href="#mef44652228"/><use style="fill:#1f77b4;stroke:#1f77b4" x="805.198" y="211.004" xlink:href="#mef44652228"/><use style="fill:#1f77b4;stroke:#1f77b4" x="864.043" y="210.963" xlink:href="#mef44652228"/><use style="fill:#1f77b4;stroke:#1f77b4" x="922.889" y="213.063" xlink:href="#mef44652228"/><use style="fill:#1f77b4;stroke:#1f77b4" x="981.734" y="210.846" xlink:href="#mef44652228"/><use style="fill:#1f77b4;stroke:#1f77b4" x="1040.58" y="211.367" xlink:href="#mef44652228"/></g></g><g id="PathCollection_9"><g clip-path="url(#p6a4c90263d)"><use style="fill:#ff7f0e;stroke:#ff7f0e" x="628.661" y="385.225" xlink:href="#m36b63a3a1c"/><use style="fill:#ff7f0e;stroke:#ff7f0e" x="687.507" y="205.374" xlink:href="#m36b63a3a1c"/><use style="fill:#ff7f0e;stroke:#ff7f0e" x="746.352" y="229.133" xlink:href="#m36b63a3a1c"/><use style="fill:#ff7f0e;stroke:#ff7f0e" x="805.198" y="170.148" xlink:href="#m36b63a3a1c"/><use style="fill:#ff7f0e;stroke:#ff7f0e" x="864.043" y="207.452" xlink:href="#m36b63a3a1c"/><use style="fill:#ff7f0e;stroke:#ff7f0e" x="922.889" y="216.673" xlink:href="#m36b63a3a1c"/><use style="fill:#ff7f0e;stroke:#ff7f0e" x="981.734" y="209.571" xlink:href="#m36b63a3a1c"/><use style="fill:#ff7f0e;stroke:#ff7f0e" x="1040.58" y="210.295" xlink:href="#m36b63a3a1c"/></g></g><g id="PathCollection_10"><g clip-path="url(#p6a4c90263d)"><use style="fill:#2ca02c;stroke:#2ca02c" x="628.661" y="385.969" xlink:href="#m48212a3126"/><use style="fill:#2ca02c;stroke:#2ca02c" x="687.507" y="212.738" xlink:href="#m48212a3126"/><use style="fill:#2ca02c;stroke:#2ca02c" x="746.352" y="205.503" xlink:href="#m48212a3126"/><use style="fill:#2ca02c;stroke:#2ca02c" x="805.198" y="205.743" xlink:href="#m48212a3126"/><use style="fill:#2ca02c;stroke:#2ca02c" x="864.043" y="166.443" xlink:href="#m48212a3126"/><use style="fill:#2ca02c;stroke:#2ca02c" x="922.889" y="203.104" xlink:href="#m48212a3126"/><use style="fill:#2ca02c;stroke:#2ca02c" x="981.734" y="209.346" xlink:href="#m48212a3126"/><use style="fill:#2ca02c;stroke:#2ca02c" x="1040.58" y="210.15" xlink:href="#m48212a3126"/></g></g><g id="PathCollection_11"><g clip-path="url(#p6a4c90263d)"><use style="fill:#d62728;stroke:#d62728" x="628.661" y="443.971" xlink:href="#m1253290d34"/><use style="fill:#d62728;stroke:#d62728" x="687.507" y="337.274" xlink:href="#m1253290d34"/><use style="fill:#d62728;stroke:#d62728" x="746.352" y="148.765" xlink:href="#m1253290d34"/><use style="fill:#d62728;stroke:#d62728" x="805.198" y="40.723" xlink:href="#m1253290d34"/><use style="fill:#d62728;stroke:#d62728" x="864.043" y="221.141" xlink:href="#m1253290d34"/><use style="fill:#d62728;stroke:#d62728" x="922.889" y="218.396" xlink:href="#m1253290d34"/><use style="fill:#d62728;stroke:#d62728" x="981.734" y="209.513" xlink:href="#m1253290d34"/><use style="fill:#d62728;stroke:#d62728" x="1040.58" y="210.085" xlink:href="#m1253290d34"/></g></g><g id="PathCollection_12"><g clip-path="url(#p6a4c90263d)"><use style="fill:#9467bd;stroke:#9467bd" x="628.661" y="476.809" xlink:href="#m30ba867511"/><use style="fill:#9467bd;stroke:#9467bd" x="687.507" y="140.69" xlink:href="#m30ba867511"/><use style="fill:#9467bd;stroke:#9467bd" x="746.352" y="271.567" xlink:href="#m30ba867511"/><use style="fill:#9467bd;stroke:#9467bd" x="805.198" y="212.595" xlink:href="#m30ba867511"/><use style="fill:#9467bd;stroke:#9467bd" x="864.043" y="202.745" xlink:href="#m30ba867511"/><use style="fill:#9467bd;stroke:#9467bd" x="922.889" y="211.34" xlink:href="#m30ba867511"/><use style="fill:#9467bd;stroke:#9467bd" x="981.734" y="210.665" xlink:href="#m30ba867511"/><use style="fill:#9467bd;stroke:#9467bd" x="1040.58" y="210.659" xlink:href="#m30ba867511"/></g></g><g id="PathCollection_13"><g clip-path="url(#p6a4c90263d)"><use style="fill:#8c564b;stroke:#8c564b" x="628.661" y="466.973" xlink:href="#mfd3f5a6f08"/><use style="fill:#8c564b;stroke:#8c564b" x="687.507" y="228.424" xlink:href="#mfd3f5a6f08"/><use style="fill:#8c564b;stroke:#8c564b" x="746.352" y="251.051" xlink:href="#mfd3f5a6f08"/><use style="fill:#8c564b;stroke:#8c564b" x="805.198" y="243.943" xlink:href="#mfd3f5a6f08"/><use style="fill:#8c564b;stroke:#8c564b" x="864.043" y="209.664" xlink:href="#mfd3f5a6f08"/><use style="fill:#8c564b;stroke:#8c564b" x="922.889" y="207.809" xlink:href="#mfd3f5a6f08"/><use style="fill:#8c564b;stroke:#8c564b" x="981.734" y="210.519" xlink:href="#mfd3f5a6f08"/><use style="fill:#8c564b;stroke:#8c564b" x="1040.58" y="211.158" xlink:href="#mfd3f5a6f08"/></g></g><g id="PathCollection_14"><g clip-path="url(#p6a4c90263d)"><use style="fill:#e377c2;stroke:#e377c2" x="628.661" y="34.936" xlink:href="#mc6a87ee06a"/><use style="fill:#e377c2;stroke:#e377c2" x="687.507" y="292.985" xlink:href="#mc6a87ee06a"/><use style="fill:#e377c2;stroke:#e377c2" x="746.352" y="32.991" xlink:href="#mc6a87ee06a"/><use style="fill:#e377c2;stroke:#e377c2" x="805.198" y="221.894" xlink:href="#mc6a87ee06a"/><use style="fill:#e377c2;stroke:#e377c2" x="864.043" y="203.749" xlink:href="#mc6a87ee06a"/><use style="fill:#e377c2;stroke:#e377c2" x="922.889" y="213.602" xlink:href="#mc6a87ee06a"/><use style="fill:#e377c2;stroke:#e377c2" x="981.734" y="214.425" xlink:href="#mc6a87ee06a"/><use style="fill:#e377c2;stroke:#e377c2" x="1040.58" y="209.517" xlink:href="#mc6a87ee06a"/></g></g><g id="matplotlib.axis_3"><g id="xtick_9"><g id="line2d_34"><path d="M 628.661364 499 L 628.661364 10.8" clip-path="url(#p6a4c90263d)" style="fill:none;stroke:#b0b0b0;stroke-linecap:square;stroke-width:.8"/></g><g id="line2d_35"><g><use style="stroke:#000;stroke-width:.8" x="628.661" y="499" xlink:href="#m19a3f5b0a5"/></g></g><g id="text_17"><g transform="translate(622.298864 513.598438)scale(0.1 -0.1)"><use xlink:href="#DejaVuSans-31"/><use x="63.623" xlink:href="#DejaVuSans-30"/></g></g></g><g id="xtick_10"><g id="line2d_36"><path d="M 687.506884 499 L 687.506884 10.8" clip-path="url(#p6a4c90263d)" style="fill:none;stroke:#b0b0b0;stroke-linecap:square;stroke-width:.8"/></g><g id="line2d_37"><g><use style="stroke:#000;stroke-width:.8" x="687.507" y="499" xlink:href="#m19a3f5b0a5"/></g></g><g id="text_18"><g transform="translate(677.963134 513.598438)scale(0.1 -0.1)"><use xlink:href="#DejaVuSans-31"/><use x="63.623" xlink:href="#DejaVuSans-30"/><use x="127.246" xlink:href="#DejaVuSans-30"/></g></g></g><g id="xtick_11"><g id="line2d_38"><path d="M 746.352403 499 L 746.352403 10.8" clip-path="url(#p6a4c90263d)" style="fill:none;stroke:#b0b0b0;stroke-linecap:square;stroke-width:.8"/></g><g id="line2d_39"><g><use style="stroke:#000;stroke-width:.8" x="746.352" y="499" xlink:href="#m19a3f5b0a5"/></g></g><g id="text_19"><g transform="translate(733.627403 513.598438)scale(0.1 -0.1)"><use xlink:href="#DejaVuSans-31"/><use x="63.623" xlink:href="#DejaVuSans-30"/><use x="127.246" xlink:href="#DejaVuSans-30"/><use x="190.869" xlink:href="#DejaVuSans-30"/></g></g></g><g id="xtick_12"><g id="line2d_40"><path d="M 805.197922 499 L 805.197922 10.8" clip-path="url(#p6a4c90263d)" style="fill:none;stroke:#b0b0b0;stroke-linecap:square;stroke-width:.8"/></g><g id="line2d_41"><g><use style="stroke:#000;stroke-width:.8" x="805.198" y="499" xlink:href="#m19a3f5b0a5"/></g></g><g id="text_20"><g transform="translate(789.291672 513.598438)scale(0.1 -0.1)"><use xlink:href="#DejaVuSans-31"/><use x="63.623" xlink:href="#DejaVuSans-30"/><use x="127.246" xlink:href="#DejaVuSans-30"/><use x="190.869" xlink:href="#DejaVuSans-30"/><use x="254.492" xlink:href="#DejaVuSans-30"/></g></g></g><g id="xtick_13"><g id="line2d_42"><path d="M 864.043442 499 L 864.043442 10.8" clip-path="url(#p6a4c90263d)" style="fill:none;stroke:#b0b0b0;stroke-linecap:square;stroke-width:.8"/></g><g id="line2d_43"><g><use style="stroke:#000;stroke-width:.8" x="864.043" y="499" xlink:href="#m19a3f5b0a5"/></g></g><g id="text_21"><g transform="translate(844.955942 513.598438)scale(0.1 -0.1)"><use xlink:href="#DejaVuSans-31"/><use x="63.623" xlink:href="#DejaVuSans-30"/><use x="127.246" xlink:href="#DejaVuSans-30"/><use x="190.869" xlink:href="#DejaVuSans-30"/><use x="254.492" xlink:href="#DejaVuSans-30"/><use x="318.115" xlink:href="#DejaVuSans-30"/></g></g></g><g id="xtick_14"><g id="line2d_44"><path d="M 922.888961 499 L 922.888961 10.8" clip-path="url(#p6a4c90263d)" style="fill:none;stroke:#b0b0b0;stroke-linecap:square;stroke-width:.8"/></g><g id="line2d_45"><g><use style="stroke:#000;stroke-width:.8" x="922.889" y="499" xlink:href="#m19a3f5b0a5"/></g></g><g id="text_22"><g transform="translate(900.620211 513.598438)scale(0.1 -0.1)"><use xlink:href="#DejaVuSans-31"/><use x="63.623" xlink:href="#DejaVuSans-30"/><use x="127.246" xlink:href="#DejaVuSans-30"/><use x="190.869" xlink:href="#DejaVuSans-30"/><use x="254.492" xlink:href="#DejaVuSans-30"/><use x="318.115" xlink:href="#DejaVuSans-30"/><use x="381.738" xlink:href="#DejaVuSans-30"/></g></g></g><g id="xtick_15"><g id="line2d_46"><path d="M 981.734481 499 L 981.734481 10.8" clip-path="url(#p6a4c90263d)" style="fill:none;stroke:#b0b0b0;stroke-linecap:square;stroke-width:.8"/></g><g id="line2d_47"><g><use style="stroke:#000;stroke-width:.8" x="981.734" y="499" xlink:href="#m19a3f5b0a5"/></g></g><g id="text_23"><g transform="translate(956.284481 513.598438)scale(0.1 -0.1)"><use xlink:href="#DejaVuSans-31"/><use x="63.623" xlink:href="#DejaVuSans-30"/><use x="127.246" xlink:href="#DejaVuSans-30"/><use x="190.869" xlink:href="#DejaVuSans-30"/><use x="254.492" xlink:href="#DejaVuSans-30"/><use x="318.115" xlink:href="#DejaVuSans-30"/><use x="381.738" xlink:href="#DejaVuSans-30"/><use x="445.361" xlink:href="#DejaVuSans-30"/></g></g></g><g id="xtick_16"><g id="line2d_48"><path d="M 1040.58 499 L 1040.58 10.8" clip-path="url(#p6a4c90263d)" style="fill:none;stroke:#b0b0b0;stroke-linecap:square;stroke-width:.8"/></g><g id="line2d_49"><g><use style="stroke:#000;stroke-width:.8" x="1040.58" y="499" xlink:href="#m19a3f5b0a5"/></g></g><g id="text_24"><g transform="translate(1011.94875 513.598438)scale(0.1 -0.1)"><use xlink:href="#DejaVuSans-31"/><use x="63.623" xlink:href="#DejaVuSans-30"/><use x="127.246" xlink:href="#DejaVuSans-30"/><use x="190.869" xlink:href="#DejaVuSans-30"/><use x="254.492" xlink:href="#DejaVuSans-30"/><use x="318.115" xlink:href="#DejaVuSans-30"/><use x="381.738" xlink:href="#DejaVuSans-30"/><use x="445.361" xlink:href="#DejaVuSans-30"/><use x="508.984" xlink:href="#DejaVuSans-30"/></g></g></g><g id="text_25"><g transform="translate(816.168677 527.276562)scale(0.1 -0.1)"><use xlink:href="#DejaVuSans-4e"/></g></g></g><g id="matplotlib.axis_4"><g id="ytick_6"><g id="line2d_50"><path d="M 577.171535 411.270129 L 1062.64707 411.270129" clip-path="url(#p6a4c90263d)" style="fill:none;stroke:#b0b0b0;stroke-linecap:square;stroke-width:.8"/></g><g id="line2d_51"><g><use style="stroke:#000;stroke-width:.8" x="577.172" y="411.27" xlink:href="#mbb464ea586"/></g></g><g id="text_26"><g transform="translate(554.26841 415.069347)scale(0.1 -0.1)"><defs><path id="DejaVuSans-32" d="M 1228 531 L 3431 531 L 3431 0 L 469 0 L 469 531 Q 828 903 1448 1529 Q 2069 2156 2228 2338 Q 2531 2678 2651 2914 Q 2772 3150 2772 3378 Q 2772 3750 2511 3984 Q 2250 4219 1831 4219 Q 1534 4219 1204 4116 Q 875 4013 500 3803 L 500 4441 Q 881 4594 1212 4672 Q 1544 4750 1819 4750 Q 2544 4750 2975 4387 Q 3406 4025 3406 3419 Q 3406 3131 3298 2873 Q 3191 2616 2906 2266 Q 2828 2175 2409 1742 Q 1991 1309 1228 531 z" transform="scale(0.015625)"/></defs><use xlink:href="#DejaVuSans-32"/><use x="63.623" xlink:href="#DejaVuSans-2e"/><use x="95.41" xlink:href="#DejaVuSans-35"/></g></g></g><g id="ytick_7"><g id="line2d_52"><path d="M 577.171535 321.708279 L 1062.64707 321.708279" clip-path="url(#p6a4c90263d)" style="fill:none;stroke:#b0b0b0;stroke-linecap:square;stroke-width:.8"/></g><g id="line2d_53"><g><use style="stroke:#000;stroke-width:.8" x="577.172" y="321.708" xlink:href="#mbb464ea586"/></g></g><g id="text_27"><g transform="translate(554.26841 325.507497)scale(0.1 -0.1)"><defs><path id="DejaVuSans-33" d="M 2597 2516 Q 3050 2419 3304 2112 Q 3559 1806 3559 1356 Q 3559 666 3084 287 Q 2609 -91 1734 -91 Q 1441 -91 1130 -33 Q 819 25 488 141 L 488 750 Q 750 597 1062 519 Q 1375 441 1716 441 Q 2309 441 2620 675 Q 2931 909 2931 1356 Q 2931 1769 2642 2001 Q 2353 2234 1838 2234 L 1294 2234 L 1294 2753 L 1863 2753 Q 2328 2753 2575 2939 Q 2822 3125 2822 3475 Q 2822 3834 2567 4026 Q 2313 4219 1838 4219 Q 1578 4219 1281 4162 Q 984 4106 628 3988 L 628 4550 Q 988 4650 1302 4700 Q 1616 4750 1894 4750 Q 2613 4750 3031 4423 Q 3450 4097 3450 3541 Q 3450 3153 3228 2886 Q 3006 2619 2597 2516 z" transform="scale(0.015625)"/></defs><use xlink:href="#DejaVuSans-33"/><use x="63.623" xlink:href="#DejaVuSans-2e"/><use x="95.41" xlink:href="#DejaVuSans-30"/></g></g></g><g id="ytick_8"><g id="line2d_54"><path d="M 577.171535 232.146429 L 1062.64707 232.146429" clip-path="url(#p6a4c90263d)" style="fill:none;stroke:#b0b0b0;stroke-linecap:square;stroke-width:.8"/></g><g id="line2d_55"><g><use style="stroke:#000;stroke-width:.8" x="577.172" y="232.146" xlink:href="#mbb464ea586"/></g></g><g id="text_28"><g transform="translate(554.26841 235.945647)scale(0.1 -0.1)"><use xlink:href="#DejaVuSans-33"/><use x="63.623" xlink:href="#DejaVuSans-2e"/><use x="95.41" xlink:href="#DejaVuSans-35"/></g></g></g><g id="ytick_9"><g id="line2d_56"><path d="M 577.171535 142.584579 L 1062.64707 142.584579" clip-path="url(#p6a4c90263d)" style="fill:none;stroke:#b0b0b0;stroke-linecap:square;stroke-width:.8"/></g><g id="line2d_57"><g><use style="stroke:#000;stroke-width:.8" x="577.172" y="142.585" xlink:href="#mbb464ea586"/></g></g><g id="text_29"><g transform="translate(554.26841 146.383798)scale(0.1 -0.1)"><use xlink:href="#DejaVuSans-34"/><use x="63.623" xlink:href="#DejaVuSans-2e"/><use x="95.41" xlink:href="#DejaVuSans-30"/></g></g></g><g id="ytick_10"><g id="line2d_58"><path d="M 577.171535 53.022729 L 1062.64707 53.022729" clip-path="url(#p6a4c90263d)" style="fill:none;stroke:#b0b0b0;stroke-linecap:square;stroke-width:.8"/></g><g id="line2d_59"><g><use style="stroke:#000;stroke-width:.8" x="577.172" y="53.023" xlink:href="#mbb464ea586"/></g></g><g id="text_30"><g transform="translate(554.26841 56.821948)scale(0.1 -0.1)"><use xlink:href="#DejaVuSans-34"/><use x="63.623" xlink:href="#DejaVuSans-2e"/><use x="95.41" xlink:href="#DejaVuSans-35"/></g></g></g><g id="text_31"><g transform="translate(548.188722 265.9)rotate(-90)scale(0.1 -0.1)"><use transform="translate(0 0.015625)" xlink:href="#DejaVuSans-Oblique-66"/><use transform="translate(35.205078 -16.390625)scale(0.7)" xlink:href="#DejaVuSans-32"/><use transform="translate(82.475586 0.015625)" xlink:href="#DejaVuSans-28"/><use transform="translate(121.489258 0.015625)" xlink:href="#DejaVuSans-Oblique-78"/><use transform="translate(180.668945 0.015625)" xlink:href="#DejaVuSans-29"/></g></g></g><g id="LineCollection_2"><path d="M 599.238605 209.290472 L 1040.58 209.290472" clip-path="url(#p6a4c90263d)" style="fill:none;stroke:orange;stroke-dasharray:3.7,1.6;stroke-dashoffset:0"/></g><g id="line2d_60"><path d="M 628.661364 438.116612 L 687.506884 279.086783 L 746.352403 234.63774 L 805.197922 211.004103 L 864.043442 210.963455 L 922.888961 213.063498 L 981.734481 210.845829 L 1040.58 211.367453" clip-path="url(#p6a4c90263d)" style="fill:none;stroke:#1f77b4;stroke-linecap:square"/></g><g id="line2d_61"><path d="M 628.661364 385.224559 L 687.506884 205.373746 L 746.352403 229.132617 L 805.197922 170.148418 L 864.043442 207.45193 L 922.888961 216.673221 L 981.734481 209.571023 L 1040.58 210.29527" clip-path="url(#p6a4c90263d)" style="fill:none;stroke:#ff7f0e;stroke-linecap:square"/></g><g id="line2d_62"><path d="M 628.661364 385.968566 L 687.506884 212.737806 L 746.352403 205.503072 L 805.197922 205.743379 L 864.043442 166.443461 L 922.888961 203.103539 L 981.734481 209.34649 L 1040.58 210.149866" clip-path="url(#p6a4c90263d)" style="fill:none;stroke:#2ca02c;stroke-linecap:square"/></g><g id="line2d_63"><path d="M 628.661364 443.970894 L 687.506884 337.274276 L 746.352403 148.764998 L 805.197922 40.722837 L 864.043442 221.141145 L 922.888961 218.395795 L 981.734481 209.513283 L 1040.58 210.084746" clip-path="url(#p6a4c90263d)" style="fill:none;stroke:#d62728;stroke-linecap:square"/></g><g id="line2d_64"><path d="M 628.661364 476.809091 L 687.506884 140.689905 L 746.352403 271.567203 L 805.197922 212.595248 L 864.043442 202.745146 L 922.888961 211.339964 L 981.734481 210.665349 L 1040.58 210.658746" clip-path="url(#p6a4c90263d)" style="fill:none;stroke:#9467bd;stroke-linecap:square"/></g><g id="line2d_65"><path d="M 628.661364 466.973452 L 687.506884 228.423997 L 746.352403 251.050985 L 805.197922 243.943213 L 864.043442 209.663673 L 922.888961 207.808511 L 981.734481 210.519255 L 1040.58 211.157876" clip-path="url(#p6a4c90263d)" style="fill:none;stroke:#8c564b;stroke-linecap:square"/></g><g id="line2d_66"><path d="M 628.661364 34.936108 L 687.506884 292.984735 L 746.352403 32.990909 L 805.197922 221.893867 L 864.043442 203.749275 L 922.888961 213.602119 L 981.734481 214.425097 L 1040.58 209.517087" clip-path="url(#p6a4c90263d)" style="fill:none;stroke:#e377c2;stroke-linecap:square"/></g><g id="patch_8"><path d="M 577.171535 499 L 577.171535 10.8" style="fill:none;stroke:#000;stroke-linecap:square;stroke-linejoin:miter;stroke-width:.8"/></g><g id="patch_9"><path d="M 1062.64707 499 L 1062.64707 10.8" style="fill:none;stroke:#000;stroke-linecap:square;stroke-linejoin:miter;stroke-width:.8"/></g><g id="patch_10"><path d="M 577.171535 499 L 1062.64707 499" style="fill:none;stroke:#000;stroke-linecap:square;stroke-linejoin:miter;stroke-width:.8"/></g><g id="patch_11"><path d="M 577.171535 10.8 L 1062.64707 10.8" style="fill:none;stroke:#000;stroke-linecap:square;stroke-linejoin:miter;stroke-width:.8"/></g><g id="text_32"><g style="fill:orange" transform="translate(569.815845 209.290472)scale(0.1 -0.1)"><defs><path id="DejaVuSans-Oblique-3c0" d="M 584 3500 L 3938 3500 L 3825 2925 L 3384 2925 L 2966 775 Q 2922 550 2981 450 Q 3038 353 3209 353 Q 3256 353 3325 363 Q 3397 369 3419 372 L 3338 -44 Q 3222 -84 3103 -103 Q 2981 -122 2866 -122 Q 2491 -122 2388 81 Q 2284 288 2391 838 L 2797 2925 L 1506 2925 L 938 0 L 350 0 L 919 2925 L 472 2925 L 584 3500 z" transform="scale(0.015625)"/><path id="STIXSizeOneSym-Regular-221a" d="M 6970 9933 L 3373 -1888 L 3104 -1888 L 1626 2918 Q 1555 3149 1465 3251 Q 1376 3354 1229 3354 Q 1011 3354 794 3181 L 717 3309 L 1766 4115 L 1926 4115 L 3379 -602 L 3405 -602 L 6605 9933 L 6970 9933 z" transform="scale(0.015625)"/></defs><use transform="translate(9 46.046875)scale(0.7)" xlink:href="#DejaVuSans-32"/><use transform="translate(53.536133 46.046875)scale(0.7)" xlink:href="#DejaVuSans-Oblique-3c0"/><use transform="translate(0 -53.748437)scale(0.405101)" xlink:href="#STIXSizeOneSym-Regular-221a"/><use transform="translate(51.571712 -64.865625)scale(0.7)" xlink:href="#DejaVuSans-33"/><path d="M 0 19.7125 L 0 25.9625 L 104.857845 25.9625 L 104.857845 19.7125 L 0 19.7125 z"/><path d="M 42.821712 4.7125 L 42.821712 9.0875 L 104.857845 9.0875 L 104.857845 4.7125 L 42.821712 4.7125 z"/></g></g></g></g><defs><clipPath id="p519d1bb8a9"><rect width="485.476" height="488.2" x="42.668" y="10.8"/></clipPath><clipPath id="p6a4c90263d"><rect width="485.476" height="488.2" x="577.172" y="10.8"/></clipPath></defs></svg>