<?xml version="1.0" encoding="utf-8" standalone="no"?>
<!DOCTYPE svg PUBLIC "-//W3C//DTD SVG 1.1//EN"
  "http://www.w3.org/Graphics/SVG/1.1/DTD/svg11.dtd">
<svg height="720pt" version="1.1" viewBox="0 0 1080 720" width="1080pt" xmlns="http://www.w3.org/2000/svg" xmlns:xlink="http://www.w3.org/1999/xlink">
 <metadata>
  <rdf:RDF xmlns:cc="http://creativecommons.org/ns#" xmlns:dc="http://purl.org/dc/elements/1.1/" xmlns:rdf="http://www.w3.org/1999/02/22-rdf-syntax-ns#">
   <cc:Work>
    <dc:type rdf:resource="http://purl.org/dc/dcmitype/StillImage"/>
    <dc:date>2022-04-27T08:41:24.197139</dc:date>
    <dc:format>image/svg+xml</dc:format>
    <dc:creator>
     <cc:Agent>
      <dc:title>Matplotlib v3.4.3, https://matplotlib.org/</dc:title>
     </cc:Agent>
    </dc:creator>
   </cc:Work>
  </rdf:RDF>
 </metadata>
 <defs>
  <style type="text/css">*{stroke-linecap:butt;stroke-linejoin:round;}</style>
 </defs>
 <g id="figure_1">
  <g id="patch_1">
   <path d="M 0 720 
L 1080 720 
L 1080 0 
L 0 0 
z
" style="fill:#ffffff;"/>
  </g>
  <g id="axes_1">
   <g id="patch_2">
    <path d="M 87.98 664.12 
L 1004.62 664.12 
L 1004.62 41.52 
L 87.98 41.52 
z
" style="fill:#ffffff;"/>
   </g>
   <g id="matplotlib.axis_1">
    <g id="xtick_1">
     <g id="line2d_1">
      <defs>
       <path d="M 0 0 
L 0 3.5 
" id="mfb24f82d49" style="stroke:#000000;stroke-width:0.8;"/>
      </defs>
      <g>
       <use style="stroke:#000000;stroke-width:0.8;" x="129.645455" xlink:href="#mfb24f82d49" y="664.12"/>
      </g>
     </g>
     <g id="text_1">
      <!-- 0 -->
      <g transform="translate(124.87358 682.517656)scale(0.15 -0.15)">
       <defs>
        <path d="M 2034 4250 
Q 1547 4250 1301 3770 
Q 1056 3291 1056 2328 
Q 1056 1369 1301 889 
Q 1547 409 2034 409 
Q 2525 409 2770 889 
Q 3016 1369 3016 2328 
Q 3016 3291 2770 3770 
Q 2525 4250 2034 4250 
z
M 2034 4750 
Q 2819 4750 3233 4129 
Q 3647 3509 3647 2328 
Q 3647 1150 3233 529 
Q 2819 -91 2034 -91 
Q 1250 -91 836 529 
Q 422 1150 422 2328 
Q 422 3509 836 4129 
Q 1250 4750 2034 4750 
z
" id="DejaVuSans-30" transform="scale(0.015625)"/>
       </defs>
       <use xlink:href="#DejaVuSans-30"/>
      </g>
     </g>
    </g>
    <g id="xtick_2">
     <g id="line2d_2">
      <g>
       <use style="stroke:#000000;stroke-width:0.8;" x="296.307273" xlink:href="#mfb24f82d49" y="664.12"/>
      </g>
     </g>
     <g id="text_2">
      <!-- 1 -->
      <g transform="translate(291.535398 682.517656)scale(0.15 -0.15)">
       <defs>
        <path d="M 794 531 
L 1825 531 
L 1825 4091 
L 703 3866 
L 703 4441 
L 1819 4666 
L 2450 4666 
L 2450 531 
L 3481 531 
L 3481 0 
L 794 0 
L 794 531 
z
" id="DejaVuSans-31" transform="scale(0.015625)"/>
       </defs>
       <use xlink:href="#DejaVuSans-31"/>
      </g>
     </g>
    </g>
    <g id="xtick_3">
     <g id="line2d_3">
      <g>
       <use style="stroke:#000000;stroke-width:0.8;" x="462.969091" xlink:href="#mfb24f82d49" y="664.12"/>
      </g>
     </g>
     <g id="text_3">
      <!-- 2 -->
      <g transform="translate(458.197216 682.517656)scale(0.15 -0.15)">
       <defs>
        <path d="M 1228 531 
L 3431 531 
L 3431 0 
L 469 0 
L 469 531 
Q 828 903 1448 1529 
Q 2069 2156 2228 2338 
Q 2531 2678 2651 2914 
Q 2772 3150 2772 3378 
Q 2772 3750 2511 3984 
Q 2250 4219 1831 4219 
Q 1534 4219 1204 4116 
Q 875 4013 500 3803 
L 500 4441 
Q 881 4594 1212 4672 
Q 1544 4750 1819 4750 
Q 2544 4750 2975 4387 
Q 3406 4025 3406 3419 
Q 3406 3131 3298 2873 
Q 3191 2616 2906 2266 
Q 2828 2175 2409 1742 
Q 1991 1309 1228 531 
z
" id="DejaVuSans-32" transform="scale(0.015625)"/>
       </defs>
       <use xlink:href="#DejaVuSans-32"/>
      </g>
     </g>
    </g>
    <g id="xtick_4">
     <g id="line2d_4">
      <g>
       <use style="stroke:#000000;stroke-width:0.8;" x="629.630909" xlink:href="#mfb24f82d49" y="664.12"/>
      </g>
     </g>
     <g id="text_4">
      <!-- 3 -->
      <g transform="translate(624.859034 682.517656)scale(0.15 -0.15)">
       <defs>
        <path d="M 2597 2516 
Q 3050 2419 3304 2112 
Q 3559 1806 3559 1356 
Q 3559 666 3084 287 
Q 2609 -91 1734 -91 
Q 1441 -91 1130 -33 
Q 819 25 488 141 
L 488 750 
Q 750 597 1062 519 
Q 1375 441 1716 441 
Q 2309 441 2620 675 
Q 2931 909 2931 1356 
Q 2931 1769 2642 2001 
Q 2353 2234 1838 2234 
L 1294 2234 
L 1294 2753 
L 1863 2753 
Q 2328 2753 2575 2939 
Q 2822 3125 2822 3475 
Q 2822 3834 2567 4026 
Q 2313 4219 1838 4219 
Q 1578 4219 1281 4162 
Q 984 4106 628 3988 
L 628 4550 
Q 988 4650 1302 4700 
Q 1616 4750 1894 4750 
Q 2613 4750 3031 4423 
Q 3450 4097 3450 3541 
Q 3450 3153 3228 2886 
Q 3006 2619 2597 2516 
z
" id="DejaVuSans-33" transform="scale(0.015625)"/>
       </defs>
       <use xlink:href="#DejaVuSans-33"/>
      </g>
     </g>
    </g>
    <g id="xtick_5">
     <g id="line2d_5">
      <g>
       <use style="stroke:#000000;stroke-width:0.8;" x="796.292727" xlink:href="#mfb24f82d49" y="664.12"/>
      </g>
     </g>
     <g id="text_5">
      <!-- 4 -->
      <g transform="translate(791.520852 682.517656)scale(0.15 -0.15)">
       <defs>
        <path d="M 2419 4116 
L 825 1625 
L 2419 1625 
L 2419 4116 
z
M 2253 4666 
L 3047 4666 
L 3047 1625 
L 3713 1625 
L 3713 1100 
L 3047 1100 
L 3047 0 
L 2419 0 
L 2419 1100 
L 313 1100 
L 313 1709 
L 2253 4666 
z
" id="DejaVuSans-34" transform="scale(0.015625)"/>
       </defs>
       <use xlink:href="#DejaVuSans-34"/>
      </g>
     </g>
    </g>
    <g id="xtick_6">
     <g id="line2d_6">
      <g>
       <use style="stroke:#000000;stroke-width:0.8;" x="962.954545" xlink:href="#mfb24f82d49" y="664.12"/>
      </g>
     </g>
     <g id="text_6">
      <!-- 5 -->
      <g transform="translate(958.18267 682.517656)scale(0.15 -0.15)">
       <defs>
        <path d="M 691 4666 
L 3169 4666 
L 3169 4134 
L 1269 4134 
L 1269 2991 
Q 1406 3038 1543 3061 
Q 1681 3084 1819 3084 
Q 2600 3084 3056 2656 
Q 3513 2228 3513 1497 
Q 3513 744 3044 326 
Q 2575 -91 1722 -91 
Q 1428 -91 1123 -41 
Q 819 9 494 109 
L 494 744 
Q 775 591 1075 516 
Q 1375 441 1709 441 
Q 2250 441 2565 725 
Q 2881 1009 2881 1497 
Q 2881 1984 2565 2268 
Q 2250 2553 1709 2553 
Q 1456 2553 1204 2497 
Q 953 2441 691 2322 
L 691 4666 
z
" id="DejaVuSans-35" transform="scale(0.015625)"/>
       </defs>
       <use xlink:href="#DejaVuSans-35"/>
      </g>
     </g>
    </g>
    <g id="text_7">
     <!-- $r$ -->
     <g transform="translate(542.1 704.834063)scale(0.2 -0.2)">
      <defs>
       <path d="M 2853 2969 
Q 2766 3016 2653 3041 
Q 2541 3066 2413 3066 
Q 1953 3066 1609 2717 
Q 1266 2369 1153 1784 
L 800 0 
L 225 0 
L 909 3500 
L 1484 3500 
L 1375 2956 
Q 1603 3259 1920 3421 
Q 2238 3584 2597 3584 
Q 2691 3584 2781 3573 
Q 2872 3563 2963 3538 
L 2853 2969 
z
" id="DejaVuSans-Oblique-72" transform="scale(0.015625)"/>
      </defs>
      <use xlink:href="#DejaVuSans-Oblique-72"/>
     </g>
    </g>
   </g>
   <g id="matplotlib.axis_2">
    <g id="ytick_1">
     <g id="line2d_7">
      <defs>
       <path d="M 0 0 
L -3.5 0 
" id="m3ae665afac" style="stroke:#000000;stroke-width:0.8;"/>
      </defs>
      <g>
       <use style="stroke:#000000;stroke-width:0.8;" x="87.98" xlink:href="#m3ae665afac" y="590.309568"/>
      </g>
     </g>
     <g id="text_8">
      <!-- −0.06 -->
      <g transform="translate(35.012031 596.008396)scale(0.15 -0.15)">
       <defs>
        <path d="M 678 2272 
L 4684 2272 
L 4684 1741 
L 678 1741 
L 678 2272 
z
" id="DejaVuSans-2212" transform="scale(0.015625)"/>
        <path d="M 684 794 
L 1344 794 
L 1344 0 
L 684 0 
L 684 794 
z
" id="DejaVuSans-2e" transform="scale(0.015625)"/>
        <path d="M 2113 2584 
Q 1688 2584 1439 2293 
Q 1191 2003 1191 1497 
Q 1191 994 1439 701 
Q 1688 409 2113 409 
Q 2538 409 2786 701 
Q 3034 994 3034 1497 
Q 3034 2003 2786 2293 
Q 2538 2584 2113 2584 
z
M 3366 4563 
L 3366 3988 
Q 3128 4100 2886 4159 
Q 2644 4219 2406 4219 
Q 1781 4219 1451 3797 
Q 1122 3375 1075 2522 
Q 1259 2794 1537 2939 
Q 1816 3084 2150 3084 
Q 2853 3084 3261 2657 
Q 3669 2231 3669 1497 
Q 3669 778 3244 343 
Q 2819 -91 2113 -91 
Q 1303 -91 875 529 
Q 447 1150 447 2328 
Q 447 3434 972 4092 
Q 1497 4750 2381 4750 
Q 2619 4750 2861 4703 
Q 3103 4656 3366 4563 
z
" id="DejaVuSans-36" transform="scale(0.015625)"/>
       </defs>
       <use xlink:href="#DejaVuSans-2212"/>
       <use x="83.789062" xlink:href="#DejaVuSans-30"/>
       <use x="147.412109" xlink:href="#DejaVuSans-2e"/>
       <use x="179.199219" xlink:href="#DejaVuSans-30"/>
       <use x="242.822266" xlink:href="#DejaVuSans-36"/>
      </g>
     </g>
    </g>
    <g id="ytick_2">
     <g id="line2d_8">
      <g>
       <use style="stroke:#000000;stroke-width:0.8;" x="87.98" xlink:href="#m3ae665afac" y="514.494283"/>
      </g>
     </g>
     <g id="text_9">
      <!-- −0.04 -->
      <g transform="translate(35.012031 520.193111)scale(0.15 -0.15)">
       <use xlink:href="#DejaVuSans-2212"/>
       <use x="83.789062" xlink:href="#DejaVuSans-30"/>
       <use x="147.412109" xlink:href="#DejaVuSans-2e"/>
       <use x="179.199219" xlink:href="#DejaVuSans-30"/>
       <use x="242.822266" xlink:href="#DejaVuSans-34"/>
      </g>
     </g>
    </g>
    <g id="ytick_3">
     <g id="line2d_9">
      <g>
       <use style="stroke:#000000;stroke-width:0.8;" x="87.98" xlink:href="#m3ae665afac" y="438.678998"/>
      </g>
     </g>
     <g id="text_10">
      <!-- −0.02 -->
      <g transform="translate(35.012031 444.377827)scale(0.15 -0.15)">
       <use xlink:href="#DejaVuSans-2212"/>
       <use x="83.789062" xlink:href="#DejaVuSans-30"/>
       <use x="147.412109" xlink:href="#DejaVuSans-2e"/>
       <use x="179.199219" xlink:href="#DejaVuSans-30"/>
       <use x="242.822266" xlink:href="#DejaVuSans-32"/>
      </g>
     </g>
    </g>
    <g id="ytick_4">
     <g id="line2d_10">
      <g>
       <use style="stroke:#000000;stroke-width:0.8;" x="87.98" xlink:href="#m3ae665afac" y="362.863714"/>
      </g>
     </g>
     <g id="text_11">
      <!-- 0.00 -->
      <g transform="translate(47.581562 368.562542)scale(0.15 -0.15)">
       <use xlink:href="#DejaVuSans-30"/>
       <use x="63.623047" xlink:href="#DejaVuSans-2e"/>
       <use x="95.410156" xlink:href="#DejaVuSans-30"/>
       <use x="159.033203" xlink:href="#DejaVuSans-30"/>
      </g>
     </g>
    </g>
    <g id="ytick_5">
     <g id="line2d_11">
      <g>
       <use style="stroke:#000000;stroke-width:0.8;" x="87.98" xlink:href="#m3ae665afac" y="287.048429"/>
      </g>
     </g>
     <g id="text_12">
      <!-- 0.02 -->
      <g transform="translate(47.581562 292.747257)scale(0.15 -0.15)">
       <use xlink:href="#DejaVuSans-30"/>
       <use x="63.623047" xlink:href="#DejaVuSans-2e"/>
       <use x="95.410156" xlink:href="#DejaVuSans-30"/>
       <use x="159.033203" xlink:href="#DejaVuSans-32"/>
      </g>
     </g>
    </g>
    <g id="ytick_6">
     <g id="line2d_12">
      <g>
       <use style="stroke:#000000;stroke-width:0.8;" x="87.98" xlink:href="#m3ae665afac" y="211.233144"/>
      </g>
     </g>
     <g id="text_13">
      <!-- 0.04 -->
      <g transform="translate(47.581562 216.931972)scale(0.15 -0.15)">
       <use xlink:href="#DejaVuSans-30"/>
       <use x="63.623047" xlink:href="#DejaVuSans-2e"/>
       <use x="95.410156" xlink:href="#DejaVuSans-30"/>
       <use x="159.033203" xlink:href="#DejaVuSans-34"/>
      </g>
     </g>
    </g>
    <g id="ytick_7">
     <g id="line2d_13">
      <g>
       <use style="stroke:#000000;stroke-width:0.8;" x="87.98" xlink:href="#m3ae665afac" y="135.417859"/>
      </g>
     </g>
     <g id="text_14">
      <!-- 0.06 -->
      <g transform="translate(47.581562 141.116687)scale(0.15 -0.15)">
       <use xlink:href="#DejaVuSans-30"/>
       <use x="63.623047" xlink:href="#DejaVuSans-2e"/>
       <use x="95.410156" xlink:href="#DejaVuSans-30"/>
       <use x="159.033203" xlink:href="#DejaVuSans-36"/>
      </g>
     </g>
    </g>
    <g id="ytick_8">
     <g id="line2d_14">
      <g>
       <use style="stroke:#000000;stroke-width:0.8;" x="87.98" xlink:href="#m3ae665afac" y="59.602574"/>
      </g>
     </g>
     <g id="text_15">
      <!-- 0.08 -->
      <g transform="translate(47.581562 65.301402)scale(0.15 -0.15)">
       <defs>
        <path d="M 2034 2216 
Q 1584 2216 1326 1975 
Q 1069 1734 1069 1313 
Q 1069 891 1326 650 
Q 1584 409 2034 409 
Q 2484 409 2743 651 
Q 3003 894 3003 1313 
Q 3003 1734 2745 1975 
Q 2488 2216 2034 2216 
z
M 1403 2484 
Q 997 2584 770 2862 
Q 544 3141 544 3541 
Q 544 4100 942 4425 
Q 1341 4750 2034 4750 
Q 2731 4750 3128 4425 
Q 3525 4100 3525 3541 
Q 3525 3141 3298 2862 
Q 3072 2584 2669 2484 
Q 3125 2378 3379 2068 
Q 3634 1759 3634 1313 
Q 3634 634 3220 271 
Q 2806 -91 2034 -91 
Q 1263 -91 848 271 
Q 434 634 434 1313 
Q 434 1759 690 2068 
Q 947 2378 1403 2484 
z
M 1172 3481 
Q 1172 3119 1398 2916 
Q 1625 2713 2034 2713 
Q 2441 2713 2670 2916 
Q 2900 3119 2900 3481 
Q 2900 3844 2670 4047 
Q 2441 4250 2034 4250 
Q 1625 4250 1398 4047 
Q 1172 3844 1172 3481 
z
" id="DejaVuSans-38" transform="scale(0.015625)"/>
       </defs>
       <use xlink:href="#DejaVuSans-30"/>
       <use x="63.623047" xlink:href="#DejaVuSans-2e"/>
       <use x="95.410156" xlink:href="#DejaVuSans-30"/>
       <use x="159.033203" xlink:href="#DejaVuSans-38"/>
      </g>
     </g>
    </g>
    <g id="text_16">
     <!-- $\psi$ -->
     <g transform="translate(26.812031 359.42)rotate(-90)scale(0.2 -0.2)">
      <defs>
       <path d="M 1591 -78 
Q 891 38 616 341 
Q 278 713 425 1472 
L 819 3500 
L 1400 3500 
L 1009 1494 
Q 900 922 1119 684 
Q 1313 478 1691 434 
L 2284 3500 
L 2856 3500 
L 2263 438 
Q 2681 481 2928 688 
Q 3247 950 3353 1497 
L 3741 3500 
L 4322 3500 
L 3928 1475 
Q 3775 688 3300 344 
Q 2872 34 2163 -75 
L 1919 -1331 
L 1347 -1331 
L 1591 -78 
z
" id="DejaVuSans-Oblique-3c8" transform="scale(0.015625)"/>
      </defs>
      <use transform="translate(0 0.3125)" xlink:href="#DejaVuSans-Oblique-3c8"/>
     </g>
    </g>
   </g>
   <g id="line2d_15">
    <path clip-path="url(#p64ecc37233)" d="M 129.645455 362.863714 
L 226.309309 362.759551 
L 235.475709 362.524794 
L 241.308873 362.187511 
L 246.308727 361.684422 
L 250.475273 361.034698 
L 253.808509 360.305974 
L 257.141745 359.335631 
L 259.641673 358.412706 
L 262.1416 357.290109 
L 264.641527 355.935552 
L 267.141455 354.314043 
L 269.641382 352.388203 
L 272.141309 350.11871 
L 274.641236 347.464885 
L 277.141164 344.38542 
L 279.641091 340.839242 
L 282.141018 336.786503 
L 284.640945 332.18969 
L 287.140873 327.014813 
L 289.6408 321.232658 
L 292.140727 314.820068 
L 294.640655 307.761201 
L 297.140582 300.048732 
L 299.640509 291.684956 
L 302.140436 282.682737 
L 305.473673 269.730155 
L 308.806909 255.777194 
L 312.140145 240.952368 
L 316.306691 221.451559 
L 322.973164 188.987157 
L 329.639636 156.74088 
L 333.806182 137.686378 
L 337.139418 123.501123 
L 339.639345 113.656138 
L 342.139273 104.608744 
L 344.6392 96.454663 
L 347.139127 89.278877 
L 348.805745 85.074988 
L 350.472364 81.356796 
L 352.138982 78.139802 
L 353.8056 75.436627 
L 355.472218 73.256943 
L 357.138836 71.607433 
L 358.805455 70.491779 
L 359.638764 70.134482 
L 360.472073 69.91068 
L 361.305382 69.82 
L 362.138691 69.861892 
L 362.972 70.035627 
L 363.805309 70.340304 
L 364.638618 70.774849 
L 366.305236 72.028432 
L 367.971855 73.784549 
L 369.638473 76.028929 
L 371.305091 78.745018 
L 372.971709 81.914164 
L 374.638327 85.515808 
L 376.304945 89.527684 
L 378.804873 96.262351 
L 381.3048 103.780914 
L 383.804727 111.993182 
L 387.137964 123.860305 
L 390.4712 136.569408 
L 394.637745 153.299338 
L 402.970836 188.005599 
L 409.637309 215.368753 
L 414.637164 234.871073 
L 418.803709 250.156101 
L 422.136945 261.641324 
L 425.470182 272.40839 
L 428.803418 282.424124 
L 432.136655 291.672431 
L 435.469891 300.152202 
L 438.803127 307.875123 
L 441.303055 313.183702 
L 443.802982 318.091541 
L 446.302909 322.613465 
L 448.802836 326.766041 
L 451.302764 330.567165 
L 453.802691 334.035673 
L 456.302618 337.190997 
L 458.802545 340.052859 
L 461.302473 342.641001 
L 463.8024 344.974952 
L 466.302327 347.073834 
L 469.635564 349.538651 
L 472.9688 351.660472 
L 476.302036 353.478696 
L 479.635273 355.029856 
L 482.968509 356.347474 
L 486.301745 357.462016 
L 490.468291 358.611156 
L 494.634836 359.532901 
L 499.634691 360.39552 
L 505.467855 361.139059 
L 512.134327 361.731476 
L 519.634109 362.168054 
L 529.633818 362.508042 
L 542.966764 362.723407 
L 565.466109 362.836872 
L 634.630764 362.863616 
L 962.954545 362.863714 
L 962.954545 362.863714 
" style="fill:none;stroke:#1f77b4;stroke-linecap:square;stroke-width:1.5;"/>
   </g>
   <g id="line2d_16">
    <path clip-path="url(#p64ecc37233)" d="M 129.645455 362.863714 
L 217.142909 362.962506 
L 225.476 363.176891 
L 231.309164 363.524222 
L 235.475709 363.955887 
L 239.642255 364.625843 
L 242.975491 365.402873 
L 245.475418 366.170032 
L 247.975345 367.132759 
L 250.475273 368.329967 
L 252.9752 369.805353 
L 255.475127 371.607259 
L 257.975055 373.788303 
L 260.474982 376.404775 
L 262.1416 378.420084 
L 263.808218 380.673091 
L 265.474836 383.181882 
L 267.141455 385.964458 
L 269.641382 390.690167 
L 272.141309 396.128312 
L 274.641236 402.330385 
L 277.141164 409.340086 
L 279.641091 417.190701 
L 282.141018 425.902392 
L 284.640945 435.479533 
L 287.140873 445.908163 
L 289.6408 457.1537 
L 292.974036 473.316337 
L 296.307273 490.624872 
L 300.473818 513.437162 
L 310.473527 569.043488 
L 313.806764 586.110292 
L 316.306691 597.850717 
L 318.806618 608.413924 
L 320.473236 614.684893 
L 322.139855 620.259882 
L 323.806473 625.074475 
L 325.473091 629.068068 
L 327.139709 632.184602 
L 327.973018 633.39787 
L 328.806327 634.373264 
L 329.639636 635.10536 
L 330.472945 635.589137 
L 331.306255 635.82 
L 332.139564 635.79379 
L 332.972873 635.506804 
L 333.806182 634.955804 
L 334.639491 634.138032 
L 335.4728 633.051219 
L 336.306109 631.693595 
L 337.139418 630.063899 
L 338.806036 625.985811 
L 340.472655 620.81721 
L 342.139273 614.566722 
L 343.805891 607.251348 
L 345.472509 598.896347 
L 347.139127 589.535047 
L 348.805745 579.208551 
L 351.305673 562.017072 
L 353.8056 542.957062 
L 356.305527 522.251817 
L 359.638764 492.519568 
L 363.805309 452.855096 
L 377.971564 314.667591 
L 381.3048 285.119587 
L 384.638036 257.850502 
L 387.137964 239.141792 
L 389.637891 222.081224 
L 392.137818 206.773949 
L 394.637745 193.29416 
L 396.304364 185.345801 
L 397.970982 178.235549 
L 399.6376 171.963667 
L 401.304218 166.525165 
L 402.970836 161.910107 
L 404.637455 158.103937 
L 406.304073 155.087836 
L 407.970691 152.839095 
L 408.804 151.994421 
L 409.637309 151.331506 
L 410.470618 150.846592 
L 411.303927 150.535752 
L 412.137236 150.394902 
L 412.970545 150.419814 
L 413.803855 150.606128 
L 414.637164 150.949365 
L 415.470473 151.444938 
L 416.303782 152.088167 
L 417.9704 153.798459 
L 419.637018 156.041329 
L 421.303636 158.777071 
L 422.970255 161.965533 
L 424.636873 165.56643 
L 427.1368 171.653463 
L 429.636727 178.445106 
L 432.969964 188.37433 
L 436.3032 199.037652 
L 441.303055 215.83345 
L 451.302764 249.617896 
L 455.469309 262.921169 
L 459.635855 275.438045 
L 462.969091 284.790394 
L 466.302327 293.504817 
L 469.635564 301.556217 
L 472.9688 308.9365 
L 476.302036 315.651747 
L 478.801964 320.261945 
L 481.301891 324.518556 
L 483.801818 328.434668 
L 486.301745 332.02514 
L 488.801673 335.306152 
L 491.3016 338.294792 
L 493.801527 341.008702 
L 496.301455 343.465768 
L 498.801382 345.683852 
L 502.134618 348.299941 
L 505.467855 350.56295 
L 508.801091 352.511446 
L 512.134327 354.18163 
L 515.467564 355.607071 
L 518.8008 356.818557 
L 522.967345 358.074362 
L 527.133891 359.087831 
L 532.133745 360.042796 
L 537.1336 360.770098 
L 542.966764 361.397037 
L 549.633236 361.897042 
L 557.966327 362.297922 
L 568.799345 362.58805 
L 584.632218 362.771362 
L 614.631345 362.853425 
L 775.46 362.863714 
L 962.954545 362.863714 
L 962.954545 362.863714 
" style="fill:none;stroke:#ff7f0e;stroke-linecap:square;stroke-width:1.5;"/>
   </g>
   <g id="line2d_17">
    <path clip-path="url(#p64ecc37233)" d="M 129.645455 362.863714 
L 211.309745 362.968613 
L 219.642836 363.211279 
L 224.642691 363.540642 
L 228.809236 364.009506 
L 232.142473 364.57681 
L 235.475709 365.383082 
L 237.975636 366.192426 
L 240.475564 367.222028 
L 242.975491 368.519006 
L 245.475418 370.136843 
L 247.975345 372.13525 
L 249.641964 373.711074 
L 251.308582 375.505716 
L 252.9752 377.540679 
L 254.641818 379.838104 
L 256.308436 382.420533 
L 257.975055 385.310623 
L 259.641673 388.53083 
L 261.308291 392.103033 
L 262.974909 396.048128 
L 265.474836 402.70701 
L 267.974764 410.305301 
L 270.474691 418.886387 
L 272.974618 428.475839 
L 275.474545 439.077214 
L 277.974473 450.667978 
L 280.4744 463.195768 
L 283.807636 481.204442 
L 287.140873 500.42201 
L 292.974036 535.640406 
L 297.973891 565.417371 
L 301.307127 583.808052 
L 303.807055 596.275935 
L 305.473673 603.766758 
L 307.140291 610.48301 
L 308.806909 616.32618 
L 310.473527 621.201395 
L 312.140145 625.01883 
L 312.973455 626.504536 
L 313.806764 627.695112 
L 314.640073 628.581368 
L 315.473382 629.154688 
L 316.306691 629.407065 
L 317.14 629.331141 
L 317.973309 628.920243 
L 318.806618 628.168418 
L 319.639927 627.070464 
L 320.473236 625.62196 
L 321.306545 623.819295 
L 322.139855 621.659693 
L 322.973164 619.141237 
L 324.639782 613.024497 
L 326.3064 605.471577 
L 327.973018 596.499689 
L 329.639636 586.140958 
L 331.306255 574.442427 
L 332.972873 561.46585 
L 335.4728 539.774762 
L 337.972727 515.695864 
L 340.472655 489.605073 
L 343.805891 452.437002 
L 349.639055 384.096629 
L 354.638909 326.445262 
L 357.972145 290.661996 
L 360.472073 266.027058 
L 362.972 243.754268 
L 364.638618 230.402705 
L 366.305236 218.360487 
L 367.971855 207.708747 
L 369.638473 198.514838 
L 371.305091 190.831861 
L 372.971709 184.698384 
L 373.805018 182.220758 
L 374.638327 180.138341 
L 375.471636 178.451851 
L 376.304945 177.161112 
L 377.138255 176.265063 
L 377.971564 175.761776 
L 378.804873 175.648469 
L 379.638182 175.921529 
L 380.471491 176.576528 
L 381.3048 177.608254 
L 382.138109 179.010726 
L 382.971418 180.777231 
L 383.804727 182.900345 
L 385.471345 188.183358 
L 387.137964 194.787417 
L 388.804582 202.630923 
L 390.4712 211.624169 
L 392.137818 221.670523 
L 394.637745 238.489495 
L 397.137673 257.08361 
L 400.470909 283.985556 
L 404.637455 319.737719 
L 412.970545 391.989613 
L 416.303782 419.079602 
L 419.637018 444.210226 
L 422.136945 461.489878 
L 424.636873 477.253613 
L 427.1368 491.387241 
L 429.636727 503.812598 
L 431.303345 511.124086 
L 432.969964 517.651096 
L 434.636582 523.394498 
L 436.3032 528.36069 
L 437.969818 532.561168 
L 439.636436 536.012089 
L 441.303055 538.733809 
L 442.969673 540.750429 
L 443.802982 541.502765 
L 444.636291 542.089323 
L 445.4696 542.513961 
L 446.302909 542.780687 
L 447.136218 542.893642 
L 447.969527 542.857088 
L 448.802836 542.675394 
L 449.636145 542.353024 
L 450.469455 541.894525 
L 452.136073 540.587655 
L 453.802691 538.792327 
L 455.469309 536.54664 
L 457.135927 533.888907 
L 458.802545 530.857346 
L 461.302473 525.691661 
L 463.8024 519.894543 
L 466.302327 513.585768 
L 469.635564 504.573188 
L 474.635418 490.260706 
L 485.468436 458.917801 
L 489.634982 447.577415 
L 493.801527 436.93228 
L 497.134764 428.994437 
L 500.468 421.610191 
L 503.801236 414.797839 
L 507.134473 408.561328 
L 510.467709 402.892826 
L 513.800945 397.775132 
L 517.134182 393.183864 
L 519.634109 390.068214 
L 522.134036 387.218227 
L 525.467273 383.80615 
L 528.800509 380.804504 
L 532.133745 378.177115 
L 535.466982 375.888307 
L 538.800218 373.903575 
L 542.133455 372.19008 
L 545.466691 370.716999 
L 548.799927 369.455744 
L 552.966473 368.137318 
L 557.133018 367.063057 
L 562.132873 366.039885 
L 567.132727 365.251137 
L 572.965891 364.562038 
L 579.632364 364.003585 
L 587.965455 363.546878 
L 598.798473 363.207538 
L 613.798036 362.991863 
L 639.630618 362.88517 
L 728.794691 362.863737 
L 962.954545 362.863714 
L 962.954545 362.863714 
" style="fill:none;stroke:#2ca02c;stroke-linecap:square;stroke-width:1.5;"/>
   </g>
   <g id="line2d_18">
    <path clip-path="url(#p64ecc37233)" d="M 129.645455 362.863714 
L 206.309891 362.966561 
L 214.642982 363.218169 
L 219.642836 363.569036 
L 223.809382 364.077506 
L 227.142618 364.701037 
L 229.642545 365.342703 
L 232.142473 366.176288 
L 234.6424 367.247926 
L 237.142327 368.611286 
L 239.642255 370.32777 
L 241.308873 371.702054 
L 242.975491 373.286038 
L 244.642109 375.103238 
L 246.308727 377.178279 
L 247.975345 379.536675 
L 249.641964 382.20454 
L 251.308582 385.208253 
L 252.9752 388.574051 
L 254.641818 392.327565 
L 256.308436 396.493296 
L 257.975055 401.09403 
L 259.641673 406.150208 
L 262.1416 414.625519 
L 264.641527 424.206077 
L 267.141455 434.90948 
L 269.641382 446.723063 
L 272.141309 459.598475 
L 275.474545 478.257437 
L 278.807782 498.305903 
L 284.640945 535.189419 
L 288.807491 561.192547 
L 292.140727 580.504845 
L 294.640655 593.486269 
L 296.307273 601.189358 
L 297.973891 607.984723 
L 299.640509 613.749215 
L 301.307127 618.364266 
L 302.140436 620.205463 
L 302.973745 621.717968 
L 303.807055 622.889175 
L 304.640364 623.707156 
L 305.473673 624.16072 
L 306.306982 624.239477 
L 307.140291 623.933898 
L 307.9736 623.235372 
L 308.806909 622.136262 
L 309.640218 620.629955 
L 310.473527 618.710917 
L 311.306836 616.374734 
L 312.140145 613.618157 
L 313.806764 606.83687 
L 315.473382 598.36571 
L 317.14 588.223969 
L 318.806618 576.45216 
L 320.473236 563.112244 
L 322.139855 548.287531 
L 324.639782 523.499905 
L 327.139709 496.045673 
L 330.472945 456.21393 
L 335.4728 392.58922 
L 340.472655 329.314341 
L 343.805891 290.193941 
L 346.305818 263.629631 
L 347.972436 247.591123 
L 349.639055 233.083008 
L 351.305673 220.251167 
L 352.972291 209.221466 
L 354.638909 200.098077 
L 356.305527 192.96213 
L 357.138836 190.15825 
L 357.972145 187.870729 
L 358.805455 186.102848 
L 359.638764 184.856328 
L 360.472073 184.131335 
L 361.305382 183.92648 
L 362.138691 184.238837 
L 362.972 185.063957 
L 363.805309 186.395895 
L 364.638618 188.227235 
L 365.471927 190.549128 
L 366.305236 193.351326 
L 367.138545 196.62223 
L 368.805164 204.517284 
L 370.471782 214.116367 
L 372.1384 225.283407 
L 373.805018 237.866262 
L 376.304945 259.028987 
L 378.804873 282.395636 
L 382.138109 315.862919 
L 390.4712 401.408167 
L 392.971127 425.034321 
L 395.471055 446.739818 
L 397.970982 466.07496 
L 399.6376 477.46114 
L 401.304218 487.537007 
L 402.970836 496.229654 
L 404.637455 503.483233 
L 406.304073 509.258914 
L 407.137382 511.584997 
L 407.970691 513.534607 
L 408.804 515.107523 
L 409.637309 516.304502 
L 410.470618 517.127253 
L 411.303927 517.578416 
L 412.137236 517.661526 
L 412.970545 517.380987 
L 413.803855 516.742037 
L 414.637164 515.750715 
L 415.470473 514.413823 
L 416.303782 512.73889 
L 417.137091 510.734133 
L 418.803709 505.771213 
L 420.470327 499.603025 
L 422.136945 492.315915 
L 423.803564 484.003262 
L 425.470182 474.764116 
L 427.970109 459.395223 
L 430.470036 442.535285 
L 433.803273 418.368286 
L 439.636436 373.812735 
L 444.636291 336.019748 
L 447.969527 312.218654 
L 451.302764 290.162994 
L 453.802691 275.020885 
L 456.302618 261.230421 
L 458.802545 248.890639 
L 461.302473 238.067324 
L 462.969091 231.71257 
L 464.635709 226.050862 
L 466.302327 221.080004 
L 467.968945 216.79292 
L 469.635564 213.178069 
L 471.302182 210.219877 
L 472.9688 207.899163 
L 474.635418 206.193576 
L 475.468727 205.563707 
L 476.302036 205.078015 
L 477.135345 204.733003 
L 477.968655 204.525051 
L 478.801964 204.450434 
L 479.635273 204.505329 
L 480.468582 204.685829 
L 482.1352 205.407666 
L 483.801818 206.583433 
L 485.468436 208.179963 
L 487.135055 210.16375 
L 488.801673 212.501239 
L 490.468291 215.159088 
L 492.968218 219.674772 
L 495.468145 224.729442 
L 498.801382 232.129796 
L 502.967927 242.124951 
L 509.6344 258.92919 
L 516.300873 275.617697 
L 520.467418 285.564161 
L 524.633964 294.945095 
L 527.9672 301.970853 
L 531.300436 308.532805 
L 534.633673 314.611687 
L 537.966909 320.200774 
L 541.300145 325.303704 
L 544.633382 329.932446 
L 547.966618 334.105442 
L 551.299855 337.845947 
L 554.633091 341.180584 
L 557.966327 344.138094 
L 561.299564 346.748302 
L 564.6328 349.041259 
L 567.966036 351.046567 
L 571.299273 352.792851 
L 574.632509 354.307368 
L 577.965745 355.615742 
L 582.132291 356.997409 
L 586.298836 358.136348 
L 591.298691 359.235291 
L 596.298545 360.094912 
L 602.131709 360.858138 
L 608.798182 361.488617 
L 616.297964 361.973925 
L 626.297673 362.373907 
L 638.797309 362.637137 
L 657.963418 362.797503 
L 698.795564 362.859626 
L 962.954545 362.863714 
L 962.954545 362.863714 
" style="fill:none;stroke:#d62728;stroke-linecap:square;stroke-width:1.5;"/>
   </g>
   <g id="line2d_19">
    <path clip-path="url(#p64ecc37233)" d="M 129.645455 362.863714 
L 202.143345 362.963089 
L 209.643127 363.17709 
L 214.642982 363.503005 
L 218.809527 363.985594 
L 222.142764 364.587282 
L 224.642691 365.214087 
L 227.142618 366.03665 
L 229.642545 367.104351 
L 232.142473 368.475146 
L 233.809091 369.590039 
L 235.475709 370.891172 
L 237.142327 372.40224 
L 238.808945 374.148523 
L 240.475564 376.156721 
L 242.142182 378.454718 
L 243.8088 381.07129 
L 245.475418 384.03573 
L 247.142036 387.377397 
L 248.808655 391.125191 
L 250.475273 395.306944 
L 252.141891 399.948734 
L 253.808509 405.074136 
L 255.475127 410.703402 
L 257.975055 420.125791 
L 260.474982 430.74846 
L 262.974909 442.570135 
L 265.474836 455.549638 
L 267.974764 469.599432 
L 271.308 489.748463 
L 275.474545 516.494993 
L 282.141018 559.51209 
L 284.640945 574.42132 
L 287.140873 587.948177 
L 288.807491 595.955617 
L 290.474109 602.983714 
L 292.140727 608.888242 
L 293.807345 613.529898 
L 294.640655 615.335633 
L 295.473964 616.777026 
L 296.307273 617.839268 
L 297.140582 618.508371 
L 297.973891 618.771257 
L 298.8072 618.615837 
L 299.640509 618.031094 
L 300.473818 617.00716 
L 301.307127 615.535395 
L 302.140436 613.608455 
L 302.973745 611.22036 
L 303.807055 608.366559 
L 304.640364 605.043989 
L 306.306982 596.988021 
L 307.9736 587.05952 
L 309.640218 575.29206 
L 311.306836 561.74648 
L 312.973455 546.511145 
L 314.640073 529.701712 
L 317.14 501.85413 
L 319.639927 471.375223 
L 322.973164 427.86241 
L 331.306255 316.958418 
L 333.806182 286.740868 
L 336.306109 259.473747 
L 337.972727 243.317225 
L 339.639345 229.016146 
L 341.305964 216.747135 
L 342.972582 206.65894 
L 343.805891 202.470863 
L 344.6392 198.869847 
L 345.472509 195.865581 
L 346.305818 193.465622 
L 347.139127 191.675365 
L 347.972436 190.498016 
L 348.805745 189.934578 
L 349.639055 189.983851 
L 350.472364 190.64243 
L 351.305673 191.904725 
L 352.138982 193.762984 
L 352.972291 196.207325 
L 353.8056 199.225776 
L 354.638909 202.804332 
L 356.305527 211.575924 
L 357.972145 222.371815 
L 359.638764 235.013801 
L 361.305382 249.298762 
L 363.805309 273.310388 
L 366.305236 299.679915 
L 370.471782 346.441474 
L 375.471636 401.994372 
L 377.971564 427.508632 
L 380.471491 450.479656 
L 382.138109 464.053914 
L 383.804727 476.041872 
L 385.471345 486.3059 
L 387.137964 494.735759 
L 387.971273 498.236144 
L 388.804582 501.24949 
L 389.637891 503.770038 
L 390.4712 505.793824 
L 391.304509 507.318665 
L 392.137818 508.344143 
L 392.971127 508.871575 
L 393.804436 508.903986 
L 394.637745 508.446071 
L 395.471055 507.504146 
L 396.304364 506.086108 
L 397.137673 504.201373 
L 397.970982 501.86082 
L 398.804291 499.076731 
L 400.470909 492.233656 
L 402.137527 483.795733 
L 403.804145 473.904281 
L 405.470764 462.715754 
L 407.970691 443.873097 
L 410.470618 423.102034 
L 414.637164 385.928068 
L 420.470327 333.435206 
L 423.803564 305.74969 
L 426.303491 287.004729 
L 427.970109 275.700585 
L 429.636727 265.470006 
L 431.303345 256.397658 
L 432.969964 248.552034 
L 434.636582 241.985407 
L 436.3032 236.733997 
L 437.136509 234.608512 
L 437.969818 232.818332 
L 438.803127 231.363661 
L 439.636436 230.243803 
L 440.469745 229.457181 
L 441.303055 229.001371 
L 442.136364 228.873129 
L 442.969673 229.068422 
L 443.802982 229.582461 
L 444.636291 230.409736 
L 445.4696 231.544052 
L 446.302909 232.978563 
L 447.136218 234.705812 
L 448.802836 239.005865 
L 450.469455 244.373774 
L 452.136073 250.731794 
L 453.802691 257.996135 
L 455.469309 266.078207 
L 457.969236 279.532276 
L 460.469164 294.298418 
L 463.8024 315.468834 
L 469.635564 354.505733 
L 474.635418 387.631817 
L 477.968655 408.511333 
L 481.301891 427.883094 
L 483.801818 441.2036 
L 486.301745 453.357781 
L 488.801673 464.260509 
L 491.3016 473.855106 
L 492.968218 479.50886 
L 494.634836 484.564507 
L 496.301455 489.023696 
L 497.968073 492.892207 
L 499.634691 496.179594 
L 501.301309 498.898823 
L 502.967927 501.065905 
L 504.634545 502.699529 
L 506.301164 503.820711 
L 507.967782 504.452441 
L 508.801091 504.592401 
L 510.467709 504.536544 
L 512.134327 504.055162 
L 513.800945 503.175592 
L 515.467564 501.925748 
L 517.134182 500.333866 
L 518.8008 498.428256 
L 520.467418 496.23709 
L 522.967345 492.475668 
L 525.467273 488.225826 
L 527.9672 483.5754 
L 531.300436 476.894662 
L 535.466982 468.024687 
L 550.466545 435.471321 
L 554.633091 427.118871 
L 558.799636 419.303468 
L 562.132873 413.481897 
L 565.466109 408.064272 
L 568.799345 403.058785 
L 572.132582 398.464869 
L 575.465818 394.274832 
L 578.799055 390.475351 
L 582.132291 387.04882 
L 585.465527 383.97453 
L 588.798764 381.229701 
L 592.132 378.790344 
L 595.465236 376.631988 
L 598.798473 374.73026 
L 602.131709 373.061348 
L 605.464945 371.602355 
L 609.631491 370.040837 
L 613.798036 368.734024 
L 617.964582 367.646061 
L 622.964436 366.58437 
L 627.964291 365.743071 
L 633.797455 364.985169 
L 640.463927 364.348014 
L 648.797018 363.802723 
L 658.796727 363.397336 
L 672.129673 363.108805 
L 691.295782 362.940343 
L 730.461309 362.869927 
L 962.954545 362.863714 
L 962.954545 362.863714 
" style="fill:none;stroke:#9467bd;stroke-linecap:square;stroke-width:1.5;"/>
   </g>
   <g id="patch_3">
    <path d="M 87.98 664.12 
L 87.98 41.52 
" style="fill:none;stroke:#000000;stroke-linecap:square;stroke-linejoin:miter;stroke-width:0.8;"/>
   </g>
   <g id="patch_4">
    <path d="M 1004.62 664.12 
L 1004.62 41.52 
" style="fill:none;stroke:#000000;stroke-linecap:square;stroke-linejoin:miter;stroke-width:0.8;"/>
   </g>
   <g id="patch_5">
    <path d="M 87.98 664.12 
L 1004.62 664.12 
" style="fill:none;stroke:#000000;stroke-linecap:square;stroke-linejoin:miter;stroke-width:0.8;"/>
   </g>
   <g id="patch_6">
    <path d="M 87.98 41.52 
L 1004.62 41.52 
" style="fill:none;stroke:#000000;stroke-linecap:square;stroke-linejoin:miter;stroke-width:0.8;"/>
   </g>
   <g id="legend_1">
    <g id="patch_7">
     <path d="M 903.82 204.504375 
L 990.62 204.504375 
Q 994.62 204.504375 994.62 200.504375 
L 994.62 55.52 
Q 994.62 51.52 990.62 51.52 
L 903.82 51.52 
Q 899.82 51.52 899.82 55.52 
L 899.82 200.504375 
Q 899.82 204.504375 903.82 204.504375 
z
" style="fill:#ffffff;opacity:0.8;stroke:#cccccc;stroke-linejoin:miter;"/>
    </g>
    <g id="line2d_20">
     <path d="M 907.82 67.716875 
L 947.82 67.716875 
" style="fill:none;stroke:#1f77b4;stroke-linecap:square;stroke-width:1.5;"/>
    </g>
    <g id="line2d_21"/>
    <g id="text_17">
     <!-- $\psi_1$ -->
     <g transform="translate(963.82 74.716875)scale(0.2 -0.2)">
      <use transform="translate(0 0.3125)" xlink:href="#DejaVuSans-Oblique-3c8"/>
      <use transform="translate(65.966797 -16.09375)scale(0.7)" xlink:href="#DejaVuSans-31"/>
     </g>
    </g>
    <g id="line2d_22">
     <path d="M 907.82 97.11375 
L 947.82 97.11375 
" style="fill:none;stroke:#ff7f0e;stroke-linecap:square;stroke-width:1.5;"/>
    </g>
    <g id="line2d_23"/>
    <g id="text_18">
     <!-- $\psi_2$ -->
     <g transform="translate(963.82 104.11375)scale(0.2 -0.2)">
      <use transform="translate(0 0.3125)" xlink:href="#DejaVuSans-Oblique-3c8"/>
      <use transform="translate(65.966797 -16.09375)scale(0.7)" xlink:href="#DejaVuSans-32"/>
     </g>
    </g>
    <g id="line2d_24">
     <path d="M 907.82 126.510625 
L 947.82 126.510625 
" style="fill:none;stroke:#2ca02c;stroke-linecap:square;stroke-width:1.5;"/>
    </g>
    <g id="line2d_25"/>
    <g id="text_19">
     <!-- $\psi_3$ -->
     <g transform="translate(963.82 133.510625)scale(0.2 -0.2)">
      <use transform="translate(0 0.3125)" xlink:href="#DejaVuSans-Oblique-3c8"/>
      <use transform="translate(65.966797 -16.09375)scale(0.7)" xlink:href="#DejaVuSans-33"/>
     </g>
    </g>
    <g id="line2d_26">
     <path d="M 907.82 155.9075 
L 947.82 155.9075 
" style="fill:none;stroke:#d62728;stroke-linecap:square;stroke-width:1.5;"/>
    </g>
    <g id="line2d_27"/>
    <g id="text_20">
     <!-- $\psi_4$ -->
     <g transform="translate(963.82 162.9075)scale(0.2 -0.2)">
      <use transform="translate(0 0.3125)" xlink:href="#DejaVuSans-Oblique-3c8"/>
      <use transform="translate(65.966797 -16.09375)scale(0.7)" xlink:href="#DejaVuSans-34"/>
     </g>
    </g>
    <g id="line2d_28">
     <path d="M 907.82 185.304375 
L 947.82 185.304375 
" style="fill:none;stroke:#9467bd;stroke-linecap:square;stroke-width:1.5;"/>
    </g>
    <g id="line2d_29"/>
    <g id="text_21">
     <!-- $\psi_5$ -->
     <g transform="translate(963.82 192.304375)scale(0.2 -0.2)">
      <use transform="translate(0 0.3125)" xlink:href="#DejaVuSans-Oblique-3c8"/>
      <use transform="translate(65.966797 -16.09375)scale(0.7)" xlink:href="#DejaVuSans-35"/>
     </g>
    </g>
   </g>
  </g>
  <g id="axes_2">
   <g id="matplotlib.axis_3">
    <g id="ytick_9">
     <g id="line2d_30">
      <defs>
       <path d="M 0 0 
L 3.5 0 
" id="m2c5de143d4" style="stroke:#ffa500;stroke-width:0.8;"/>
      </defs>
      <g>
       <use style="fill:#ffa500;stroke:#ffa500;stroke-width:0.8;" x="1004.62" xlink:href="#m2c5de143d4" y="635.820233"/>
      </g>
     </g>
     <g id="text_22">
      <!-- 0.00 -->
      <g style="fill:#ffa500;" transform="translate(1011.62 641.519061)scale(0.15 -0.15)">
       <use xlink:href="#DejaVuSans-30"/>
       <use x="63.623047" xlink:href="#DejaVuSans-2e"/>
       <use x="95.410156" xlink:href="#DejaVuSans-30"/>
       <use x="159.033203" xlink:href="#DejaVuSans-30"/>
      </g>
     </g>
    </g>
    <g id="ytick_10">
     <g id="line2d_31">
      <g>
       <use style="fill:#ffa500;stroke:#ffa500;stroke-width:0.8;" x="1004.62" xlink:href="#m2c5de143d4" y="557.757463"/>
      </g>
     </g>
     <g id="text_23">
      <!-- 0.25 -->
      <g style="fill:#ffa500;" transform="translate(1011.62 563.456291)scale(0.15 -0.15)">
       <use xlink:href="#DejaVuSans-30"/>
       <use x="63.623047" xlink:href="#DejaVuSans-2e"/>
       <use x="95.410156" xlink:href="#DejaVuSans-32"/>
       <use x="159.033203" xlink:href="#DejaVuSans-35"/>
      </g>
     </g>
    </g>
    <g id="ytick_11">
     <g id="line2d_32">
      <g>
       <use style="fill:#ffa500;stroke:#ffa500;stroke-width:0.8;" x="1004.62" xlink:href="#m2c5de143d4" y="479.694693"/>
      </g>
     </g>
     <g id="text_24">
      <!-- 0.50 -->
      <g style="fill:#ffa500;" transform="translate(1011.62 485.393521)scale(0.15 -0.15)">
       <use xlink:href="#DejaVuSans-30"/>
       <use x="63.623047" xlink:href="#DejaVuSans-2e"/>
       <use x="95.410156" xlink:href="#DejaVuSans-35"/>
       <use x="159.033203" xlink:href="#DejaVuSans-30"/>
      </g>
     </g>
    </g>
    <g id="ytick_12">
     <g id="line2d_33">
      <g>
       <use style="fill:#ffa500;stroke:#ffa500;stroke-width:0.8;" x="1004.62" xlink:href="#m2c5de143d4" y="401.631923"/>
      </g>
     </g>
     <g id="text_25">
      <!-- 0.75 -->
      <g style="fill:#ffa500;" transform="translate(1011.62 407.330751)scale(0.15 -0.15)">
       <defs>
        <path d="M 525 4666 
L 3525 4666 
L 3525 4397 
L 1831 0 
L 1172 0 
L 2766 4134 
L 525 4134 
L 525 4666 
z
" id="DejaVuSans-37" transform="scale(0.015625)"/>
       </defs>
       <use xlink:href="#DejaVuSans-30"/>
       <use x="63.623047" xlink:href="#DejaVuSans-2e"/>
       <use x="95.410156" xlink:href="#DejaVuSans-37"/>
       <use x="159.033203" xlink:href="#DejaVuSans-35"/>
      </g>
     </g>
    </g>
    <g id="ytick_13">
     <g id="line2d_34">
      <g>
       <use style="fill:#ffa500;stroke:#ffa500;stroke-width:0.8;" x="1004.62" xlink:href="#m2c5de143d4" y="323.569152"/>
      </g>
     </g>
     <g id="text_26">
      <!-- 1.00 -->
      <g style="fill:#ffa500;" transform="translate(1011.62 329.267981)scale(0.15 -0.15)">
       <use xlink:href="#DejaVuSans-31"/>
       <use x="63.623047" xlink:href="#DejaVuSans-2e"/>
       <use x="95.410156" xlink:href="#DejaVuSans-30"/>
       <use x="159.033203" xlink:href="#DejaVuSans-30"/>
      </g>
     </g>
    </g>
    <g id="ytick_14">
     <g id="line2d_35">
      <g>
       <use style="fill:#ffa500;stroke:#ffa500;stroke-width:0.8;" x="1004.62" xlink:href="#m2c5de143d4" y="245.506382"/>
      </g>
     </g>
     <g id="text_27">
      <!-- 1.25 -->
      <g style="fill:#ffa500;" transform="translate(1011.62 251.20521)scale(0.15 -0.15)">
       <use xlink:href="#DejaVuSans-31"/>
       <use x="63.623047" xlink:href="#DejaVuSans-2e"/>
       <use x="95.410156" xlink:href="#DejaVuSans-32"/>
       <use x="159.033203" xlink:href="#DejaVuSans-35"/>
      </g>
     </g>
    </g>
    <g id="ytick_15">
     <g id="line2d_36">
      <g>
       <use style="fill:#ffa500;stroke:#ffa500;stroke-width:0.8;" x="1004.62" xlink:href="#m2c5de143d4" y="167.443612"/>
      </g>
     </g>
     <g id="text_28">
      <!-- 1.50 -->
      <g style="fill:#ffa500;" transform="translate(1011.62 173.14244)scale(0.15 -0.15)">
       <use xlink:href="#DejaVuSans-31"/>
       <use x="63.623047" xlink:href="#DejaVuSans-2e"/>
       <use x="95.410156" xlink:href="#DejaVuSans-35"/>
       <use x="159.033203" xlink:href="#DejaVuSans-30"/>
      </g>
     </g>
    </g>
    <g id="ytick_16">
     <g id="line2d_37">
      <g>
       <use style="fill:#ffa500;stroke:#ffa500;stroke-width:0.8;" x="1004.62" xlink:href="#m2c5de143d4" y="89.380842"/>
      </g>
     </g>
     <g id="text_29">
      <!-- 1.75 -->
      <g style="fill:#ffa500;" transform="translate(1011.62 95.07967)scale(0.15 -0.15)">
       <use xlink:href="#DejaVuSans-31"/>
       <use x="63.623047" xlink:href="#DejaVuSans-2e"/>
       <use x="95.410156" xlink:href="#DejaVuSans-37"/>
       <use x="159.033203" xlink:href="#DejaVuSans-35"/>
      </g>
     </g>
    </g>
    <g id="text_30">
     <!-- $v_r$ -->
     <g style="fill:#ffa500;" transform="translate(1064.215312 361.92)rotate(-90)scale(0.2 -0.2)">
      <defs>
       <path d="M 459 3500 
L 1069 3500 
L 1581 525 
L 3256 3500 
L 3866 3500 
L 1875 0 
L 1100 0 
L 459 3500 
z
" id="DejaVuSans-Oblique-76" transform="scale(0.015625)"/>
      </defs>
      <use transform="translate(0 0.3125)" xlink:href="#DejaVuSans-Oblique-76"/>
      <use transform="translate(59.179688 -16.09375)scale(0.7)" xlink:href="#DejaVuSans-Oblique-72"/>
     </g>
    </g>
   </g>
   <g id="line2d_38">
    <path clip-path="url(#p64ecc37233)" d="M 129.645455 69.82 
L 133.812 106.812684 
L 137.978545 141.66417 
L 142.145091 174.489014 
L 146.311636 205.395849 
L 150.478182 234.487687 
L 154.644727 261.862205 
L 158.811273 287.612014 
L 162.977818 311.824921 
L 167.144364 334.584172 
L 171.310909 355.968684 
L 175.477455 376.053267 
L 179.644 394.908832 
L 183.810545 412.602593 
L 187.977091 429.198252 
L 192.143636 444.756183 
L 196.310182 459.333597 
L 200.476727 472.984711 
L 204.643273 485.760892 
L 208.809818 497.710812 
L 212.976364 508.88058 
L 217.142909 519.313878 
L 221.309455 529.05208 
L 225.476 538.134378 
L 229.642545 546.597887 
L 233.809091 554.477755 
L 237.975636 561.807267 
L 242.142182 568.617935 
L 246.308727 574.939595 
L 250.475273 580.800488 
L 254.641818 586.227349 
L 258.808364 591.24548 
L 262.974909 595.878824 
L 267.141455 600.150038 
L 271.308 604.080558 
L 275.474545 607.690663 
L 279.641091 610.999534 
L 283.807636 614.025314 
L 287.974182 616.785158 
L 292.140727 619.295285 
L 296.307273 621.571031 
L 300.473818 623.626891 
L 305.473673 625.822908 
L 310.473527 627.744222 
L 315.473382 629.411611 
L 320.473236 630.844481 
L 325.473091 632.060947 
L 331.306255 633.229143 
L 337.139418 634.150672 
L 342.972582 634.848504 
L 349.639055 635.399192 
L 356.305527 635.714245 
L 362.972 635.82 
L 370.471782 635.718526 
L 378.804873 635.367925 
L 387.971273 634.73634 
L 397.970982 633.803518 
L 408.804 632.561586 
L 421.303636 630.897776 
L 436.3032 628.666938 
L 456.302618 625.449187 
L 531.300436 613.15961 
L 553.799782 609.814334 
L 574.632509 606.935741 
L 595.465236 604.279307 
L 616.297964 601.846536 
L 637.130691 599.632345 
L 658.796727 597.551287 
L 681.296073 595.614927 
L 704.628727 593.830465 
L 729.628 592.148616 
L 755.460582 590.635217 
L 782.959782 589.246088 
L 812.958909 587.958165 
L 845.457964 586.792292 
L 880.456945 585.760842 
L 919.622473 584.833029 
L 962.954545 584.029811 
L 962.954545 584.029811 
" style="fill:none;stroke:#000000;stroke-dasharray:3.7,1.6;stroke-dashoffset:0;"/>
   </g>
   <g id="patch_8">
    <path d="M 87.98 664.12 
L 87.98 41.52 
" style="fill:none;stroke:#000000;stroke-linecap:square;stroke-linejoin:miter;stroke-width:0.8;"/>
   </g>
   <g id="patch_9">
    <path d="M 1004.62 664.12 
L 1004.62 41.52 
" style="fill:none;stroke:#000000;stroke-linecap:square;stroke-linejoin:miter;stroke-width:0.8;"/>
   </g>
   <g id="patch_10">
    <path d="M 87.98 664.12 
L 1004.62 664.12 
" style="fill:none;stroke:#000000;stroke-linecap:square;stroke-linejoin:miter;stroke-width:0.8;"/>
   </g>
   <g id="patch_11">
    <path d="M 87.98 41.52 
L 1004.62 41.52 
" style="fill:none;stroke:#000000;stroke-linecap:square;stroke-linejoin:miter;stroke-width:0.8;"/>
   </g>
   <g id="text_31">
    <!-- $\psi$ and $v_r$ -->
    <g transform="translate(484.95 35.22)scale(0.3 -0.3)">
     <defs>
      <path id="DejaVuSans-20" transform="scale(0.015625)"/>
      <path d="M 2194 1759 
Q 1497 1759 1228 1600 
Q 959 1441 959 1056 
Q 959 750 1161 570 
Q 1363 391 1709 391 
Q 2188 391 2477 730 
Q 2766 1069 2766 1631 
L 2766 1759 
L 2194 1759 
z
M 3341 1997 
L 3341 0 
L 2766 0 
L 2766 531 
Q 2569 213 2275 61 
Q 1981 -91 1556 -91 
Q 1019 -91 701 211 
Q 384 513 384 1019 
Q 384 1609 779 1909 
Q 1175 2209 1959 2209 
L 2766 2209 
L 2766 2266 
Q 2766 2663 2505 2880 
Q 2244 3097 1772 3097 
Q 1472 3097 1187 3025 
Q 903 2953 641 2809 
L 641 3341 
Q 956 3463 1253 3523 
Q 1550 3584 1831 3584 
Q 2591 3584 2966 3190 
Q 3341 2797 3341 1997 
z
" id="DejaVuSans-61" transform="scale(0.015625)"/>
      <path d="M 3513 2113 
L 3513 0 
L 2938 0 
L 2938 2094 
Q 2938 2591 2744 2837 
Q 2550 3084 2163 3084 
Q 1697 3084 1428 2787 
Q 1159 2491 1159 1978 
L 1159 0 
L 581 0 
L 581 3500 
L 1159 3500 
L 1159 2956 
Q 1366 3272 1645 3428 
Q 1925 3584 2291 3584 
Q 2894 3584 3203 3211 
Q 3513 2838 3513 2113 
z
" id="DejaVuSans-6e" transform="scale(0.015625)"/>
      <path d="M 2906 2969 
L 2906 4863 
L 3481 4863 
L 3481 0 
L 2906 0 
L 2906 525 
Q 2725 213 2448 61 
Q 2172 -91 1784 -91 
Q 1150 -91 751 415 
Q 353 922 353 1747 
Q 353 2572 751 3078 
Q 1150 3584 1784 3584 
Q 2172 3584 2448 3432 
Q 2725 3281 2906 2969 
z
M 947 1747 
Q 947 1113 1208 752 
Q 1469 391 1925 391 
Q 2381 391 2643 752 
Q 2906 1113 2906 1747 
Q 2906 2381 2643 2742 
Q 2381 3103 1925 3103 
Q 1469 3103 1208 2742 
Q 947 2381 947 1747 
z
" id="DejaVuSans-64" transform="scale(0.015625)"/>
     </defs>
     <use transform="translate(0 0.015625)" xlink:href="#DejaVuSans-Oblique-3c8"/>
     <use transform="translate(65.966797 0.015625)" xlink:href="#DejaVuSans-20"/>
     <use transform="translate(97.753906 0.015625)" xlink:href="#DejaVuSans-61"/>
     <use transform="translate(159.033203 0.015625)" xlink:href="#DejaVuSans-6e"/>
     <use transform="translate(222.412109 0.015625)" xlink:href="#DejaVuSans-64"/>
     <use transform="translate(285.888672 0.015625)" xlink:href="#DejaVuSans-20"/>
     <use transform="translate(317.675781 0.015625)" xlink:href="#DejaVuSans-Oblique-76"/>
     <use transform="translate(376.855469 -16.390625)scale(0.7)" xlink:href="#DejaVuSans-Oblique-72"/>
    </g>
   </g>
   <g id="legend_2">
    <g id="patch_12">
     <path d="M 101.98 86.87625 
L 184.18 86.87625 
Q 188.18 86.87625 188.18 82.87625 
L 188.18 55.52 
Q 188.18 51.52 184.18 51.52 
L 101.98 51.52 
Q 97.98 51.52 97.98 55.52 
L 97.98 82.87625 
Q 97.98 86.87625 101.98 86.87625 
z
" style="fill:#ffffff;opacity:0.8;stroke:#cccccc;stroke-linejoin:miter;"/>
    </g>
    <g id="line2d_39">
     <path d="M 105.98 67.716875 
L 145.98 67.716875 
" style="fill:none;stroke:#000000;stroke-dasharray:3.7,1.6;stroke-dashoffset:0;"/>
    </g>
    <g id="line2d_40"/>
    <g id="text_32">
     <!-- $v_r$ -->
     <g transform="translate(161.98 74.716875)scale(0.2 -0.2)">
      <use transform="translate(0 0.3125)" xlink:href="#DejaVuSans-Oblique-76"/>
      <use transform="translate(59.179688 -16.09375)scale(0.7)" xlink:href="#DejaVuSans-Oblique-72"/>
     </g>
    </g>
   </g>
  </g>
 </g>
 <defs>
  <clipPath id="p64ecc37233">
   <rect height="622.6" width="916.64" x="87.98" y="41.52"/>
  </clipPath>
 </defs>
</svg>
