<?xml version="1.0" encoding="utf-8" standalone="no"?>
<!DOCTYPE svg PUBLIC "-//W3C//DTD SVG 1.1//EN"
  "http://www.w3.org/Graphics/SVG/1.1/DTD/svg11.dtd">
<svg height="540pt" version="1.1" viewBox="0 0 1080 540" width="1080pt" xmlns="http://www.w3.org/2000/svg" xmlns:xlink="http://www.w3.org/1999/xlink">
 <metadata>
  <rdf:RDF xmlns:cc="http://creativecommons.org/ns#" xmlns:dc="http://purl.org/dc/elements/1.1/" xmlns:rdf="http://www.w3.org/1999/02/22-rdf-syntax-ns#">
   <cc:Work>
    <dc:type rdf:resource="http://purl.org/dc/dcmitype/StillImage"/>
    <dc:date>2022-03-18T14:38:55.126525</dc:date>
    <dc:format>image/svg+xml</dc:format>
    <dc:creator>
     <cc:Agent>
      <dc:title>Matplotlib v3.4.3, https://matplotlib.org/</dc:title>
     </cc:Agent>
    </dc:creator>
   </cc:Work>
  </rdf:RDF>
 </metadata>
 <defs>
  <style type="text/css">*{stroke-linecap:butt;stroke-linejoin:round;}</style>
 </defs>
 <g id="figure_1">
  <g id="patch_1">
   <path d="M 0 540 
L 1080 540 
L 1080 0 
L 0 0 
z
" style="fill:#ffffff;"/>
  </g>
  <g id="axes_1">
   <g id="patch_2">
    <path d="M 42.668 499 
L 525.726694 499 
L 525.726694 10.8 
L 42.668 10.8 
z
" style="fill:#ffffff;"/>
   </g>
   <g id="PathCollection_1">
    <defs>
     <path d="M 0 0.612372 
C 0.162403 0.612372 0.318176 0.547849 0.433013 0.433013 
C 0.547849 0.318176 0.612372 0.162403 0.612372 0 
C 0.612372 -0.162403 0.547849 -0.318176 0.433013 -0.433013 
C 0.318176 -0.547849 0.162403 -0.612372 0 -0.612372 
C -0.162403 -0.612372 -0.318176 -0.547849 -0.433013 -0.433013 
C -0.547849 -0.318176 -0.612372 -0.162403 -0.612372 0 
C -0.612372 0.162403 -0.547849 0.318176 -0.433013 0.433013 
C -0.318176 0.547849 -0.162403 0.612372 0 0.612372 
z
" id="m5b2e734941" style="stroke:#800080;"/>
    </defs>
    <g clip-path="url(#p9bcfe3a919)">
     <use style="fill:#800080;stroke:#800080;" x="93.901498" xlink:href="#m5b2e734941" y="476.809091"/>
     <use style="fill:#800080;stroke:#800080;" x="152.454067" xlink:href="#m5b2e734941" y="351.59458"/>
     <use style="fill:#800080;stroke:#800080;" x="211.006636" xlink:href="#m5b2e734941" y="311.19893"/>
     <use style="fill:#800080;stroke:#800080;" x="269.559205" xlink:href="#m5b2e734941" y="313.798144"/>
     <use style="fill:#800080;stroke:#800080;" x="328.111774" xlink:href="#m5b2e734941" y="310.537037"/>
     <use style="fill:#800080;stroke:#800080;" x="386.664343" xlink:href="#m5b2e734941" y="308.127405"/>
     <use style="fill:#800080;stroke:#800080;" x="445.216912" xlink:href="#m5b2e734941" y="307.775478"/>
     <use style="fill:#800080;stroke:#800080;" x="503.769481" xlink:href="#m5b2e734941" y="307.869166"/>
    </g>
   </g>
   <g id="PathCollection_2">
    <defs>
     <path d="M 0 0.612372 
C 0.162403 0.612372 0.318176 0.547849 0.433013 0.433013 
C 0.547849 0.318176 0.612372 0.162403 0.612372 0 
C 0.612372 -0.162403 0.547849 -0.318176 0.433013 -0.433013 
C 0.318176 -0.547849 0.162403 -0.612372 0 -0.612372 
C -0.162403 -0.612372 -0.318176 -0.547849 -0.433013 -0.433013 
C -0.547849 -0.318176 -0.612372 -0.162403 -0.612372 0 
C -0.612372 0.162403 -0.547849 0.318176 -0.433013 0.433013 
C -0.318176 0.547849 -0.162403 0.612372 0 0.612372 
z
" id="m7461e0e6fd" style="stroke:#0000ff;"/>
    </defs>
    <g clip-path="url(#p9bcfe3a919)">
     <use style="fill:#0000ff;stroke:#0000ff;" x="93.901498" xlink:href="#m7461e0e6fd" y="307.969655"/>
     <use style="fill:#0000ff;stroke:#0000ff;" x="152.454067" xlink:href="#m7461e0e6fd" y="307.970566"/>
     <use style="fill:#0000ff;stroke:#0000ff;" x="211.006636" xlink:href="#m7461e0e6fd" y="307.970566"/>
     <use style="fill:#0000ff;stroke:#0000ff;" x="269.559205" xlink:href="#m7461e0e6fd" y="307.970566"/>
     <use style="fill:#0000ff;stroke:#0000ff;" x="328.111774" xlink:href="#m7461e0e6fd" y="307.970566"/>
     <use style="fill:#0000ff;stroke:#0000ff;" x="386.664343" xlink:href="#m7461e0e6fd" y="307.970566"/>
     <use style="fill:#0000ff;stroke:#0000ff;" x="445.216912" xlink:href="#m7461e0e6fd" y="307.970566"/>
     <use style="fill:#0000ff;stroke:#0000ff;" x="503.769481" xlink:href="#m7461e0e6fd" y="307.970565"/>
    </g>
   </g>
   <g id="PathCollection_3">
    <g clip-path="url(#p9bcfe3a919)">
     <use style="fill:#800080;stroke:#800080;" x="93.901498" xlink:href="#m5b2e734941" y="32.990909"/>
     <use style="fill:#800080;stroke:#800080;" x="152.454067" xlink:href="#m5b2e734941" y="307.956874"/>
     <use style="fill:#800080;stroke:#800080;" x="211.006636" xlink:href="#m5b2e734941" y="307.970429"/>
     <use style="fill:#800080;stroke:#800080;" x="269.559205" xlink:href="#m5b2e734941" y="307.710611"/>
     <use style="fill:#800080;stroke:#800080;" x="328.111774" xlink:href="#m5b2e734941" y="307.944572"/>
     <use style="fill:#800080;stroke:#800080;" x="386.664343" xlink:href="#m5b2e734941" y="307.970566"/>
     <use style="fill:#800080;stroke:#800080;" x="445.216912" xlink:href="#m5b2e734941" y="307.970307"/>
     <use style="fill:#800080;stroke:#800080;" x="503.769481" xlink:href="#m5b2e734941" y="307.970565"/>
    </g>
   </g>
   <g id="matplotlib.axis_1">
    <g id="xtick_1">
     <g id="line2d_1">
      <path clip-path="url(#p9bcfe3a919)" d="M 93.901498 499 
L 93.901498 10.8 
" style="fill:none;stroke:#b0b0b0;stroke-linecap:square;stroke-width:0.8;"/>
     </g>
     <g id="line2d_2">
      <defs>
       <path d="M 0 0 
L 0 3.5 
" id="m3731b17bf3" style="stroke:#000000;stroke-width:0.8;"/>
      </defs>
      <g>
       <use style="stroke:#000000;stroke-width:0.8;" x="93.901498" xlink:href="#m3731b17bf3" y="499"/>
      </g>
     </g>
     <g id="text_1">
      <!-- 10 -->
      <g transform="translate(90.083998 510.559062)scale(0.06 -0.06)">
       <defs>
        <path d="M 794 531 
L 1825 531 
L 1825 4091 
L 703 3866 
L 703 4441 
L 1819 4666 
L 2450 4666 
L 2450 531 
L 3481 531 
L 3481 0 
L 794 0 
L 794 531 
z
" id="DejaVuSans-31" transform="scale(0.015625)"/>
        <path d="M 2034 4250 
Q 1547 4250 1301 3770 
Q 1056 3291 1056 2328 
Q 1056 1369 1301 889 
Q 1547 409 2034 409 
Q 2525 409 2770 889 
Q 3016 1369 3016 2328 
Q 3016 3291 2770 3770 
Q 2525 4250 2034 4250 
z
M 2034 4750 
Q 2819 4750 3233 4129 
Q 3647 3509 3647 2328 
Q 3647 1150 3233 529 
Q 2819 -91 2034 -91 
Q 1250 -91 836 529 
Q 422 1150 422 2328 
Q 422 3509 836 4129 
Q 1250 4750 2034 4750 
z
" id="DejaVuSans-30" transform="scale(0.015625)"/>
       </defs>
       <use xlink:href="#DejaVuSans-31"/>
       <use x="63.623047" xlink:href="#DejaVuSans-30"/>
      </g>
     </g>
    </g>
    <g id="xtick_2">
     <g id="line2d_3">
      <path clip-path="url(#p9bcfe3a919)" d="M 152.454067 499 
L 152.454067 10.8 
" style="fill:none;stroke:#b0b0b0;stroke-linecap:square;stroke-width:0.8;"/>
     </g>
     <g id="line2d_4">
      <g>
       <use style="stroke:#000000;stroke-width:0.8;" x="152.454067" xlink:href="#m3731b17bf3" y="499"/>
      </g>
     </g>
     <g id="text_2">
      <!-- 100 -->
      <g transform="translate(146.727817 510.559062)scale(0.06 -0.06)">
       <use xlink:href="#DejaVuSans-31"/>
       <use x="63.623047" xlink:href="#DejaVuSans-30"/>
       <use x="127.246094" xlink:href="#DejaVuSans-30"/>
      </g>
     </g>
    </g>
    <g id="xtick_3">
     <g id="line2d_5">
      <path clip-path="url(#p9bcfe3a919)" d="M 211.006636 499 
L 211.006636 10.8 
" style="fill:none;stroke:#b0b0b0;stroke-linecap:square;stroke-width:0.8;"/>
     </g>
     <g id="line2d_6">
      <g>
       <use style="stroke:#000000;stroke-width:0.8;" x="211.006636" xlink:href="#m3731b17bf3" y="499"/>
      </g>
     </g>
     <g id="text_3">
      <!-- 1000 -->
      <g transform="translate(203.371636 510.559062)scale(0.06 -0.06)">
       <use xlink:href="#DejaVuSans-31"/>
       <use x="63.623047" xlink:href="#DejaVuSans-30"/>
       <use x="127.246094" xlink:href="#DejaVuSans-30"/>
       <use x="190.869141" xlink:href="#DejaVuSans-30"/>
      </g>
     </g>
    </g>
    <g id="xtick_4">
     <g id="line2d_7">
      <path clip-path="url(#p9bcfe3a919)" d="M 269.559205 499 
L 269.559205 10.8 
" style="fill:none;stroke:#b0b0b0;stroke-linecap:square;stroke-width:0.8;"/>
     </g>
     <g id="line2d_8">
      <g>
       <use style="stroke:#000000;stroke-width:0.8;" x="269.559205" xlink:href="#m3731b17bf3" y="499"/>
      </g>
     </g>
     <g id="text_4">
      <!-- 10000 -->
      <g transform="translate(260.015455 510.559062)scale(0.06 -0.06)">
       <use xlink:href="#DejaVuSans-31"/>
       <use x="63.623047" xlink:href="#DejaVuSans-30"/>
       <use x="127.246094" xlink:href="#DejaVuSans-30"/>
       <use x="190.869141" xlink:href="#DejaVuSans-30"/>
       <use x="254.492188" xlink:href="#DejaVuSans-30"/>
      </g>
     </g>
    </g>
    <g id="xtick_5">
     <g id="line2d_9">
      <path clip-path="url(#p9bcfe3a919)" d="M 328.111774 499 
L 328.111774 10.8 
" style="fill:none;stroke:#b0b0b0;stroke-linecap:square;stroke-width:0.8;"/>
     </g>
     <g id="line2d_10">
      <g>
       <use style="stroke:#000000;stroke-width:0.8;" x="328.111774" xlink:href="#m3731b17bf3" y="499"/>
      </g>
     </g>
     <g id="text_5">
      <!-- 100000 -->
      <g transform="translate(316.659274 510.559062)scale(0.06 -0.06)">
       <use xlink:href="#DejaVuSans-31"/>
       <use x="63.623047" xlink:href="#DejaVuSans-30"/>
       <use x="127.246094" xlink:href="#DejaVuSans-30"/>
       <use x="190.869141" xlink:href="#DejaVuSans-30"/>
       <use x="254.492188" xlink:href="#DejaVuSans-30"/>
       <use x="318.115234" xlink:href="#DejaVuSans-30"/>
      </g>
     </g>
    </g>
    <g id="xtick_6">
     <g id="line2d_11">
      <path clip-path="url(#p9bcfe3a919)" d="M 386.664343 499 
L 386.664343 10.8 
" style="fill:none;stroke:#b0b0b0;stroke-linecap:square;stroke-width:0.8;"/>
     </g>
     <g id="line2d_12">
      <g>
       <use style="stroke:#000000;stroke-width:0.8;" x="386.664343" xlink:href="#m3731b17bf3" y="499"/>
      </g>
     </g>
     <g id="text_6">
      <!-- 1000000 -->
      <g transform="translate(373.303093 510.559062)scale(0.06 -0.06)">
       <use xlink:href="#DejaVuSans-31"/>
       <use x="63.623047" xlink:href="#DejaVuSans-30"/>
       <use x="127.246094" xlink:href="#DejaVuSans-30"/>
       <use x="190.869141" xlink:href="#DejaVuSans-30"/>
       <use x="254.492188" xlink:href="#DejaVuSans-30"/>
       <use x="318.115234" xlink:href="#DejaVuSans-30"/>
       <use x="381.738281" xlink:href="#DejaVuSans-30"/>
      </g>
     </g>
    </g>
    <g id="xtick_7">
     <g id="line2d_13">
      <path clip-path="url(#p9bcfe3a919)" d="M 445.216912 499 
L 445.216912 10.8 
" style="fill:none;stroke:#b0b0b0;stroke-linecap:square;stroke-width:0.8;"/>
     </g>
     <g id="line2d_14">
      <g>
       <use style="stroke:#000000;stroke-width:0.8;" x="445.216912" xlink:href="#m3731b17bf3" y="499"/>
      </g>
     </g>
     <g id="text_7">
      <!-- 10000000 -->
      <g transform="translate(429.946912 510.559062)scale(0.06 -0.06)">
       <use xlink:href="#DejaVuSans-31"/>
       <use x="63.623047" xlink:href="#DejaVuSans-30"/>
       <use x="127.246094" xlink:href="#DejaVuSans-30"/>
       <use x="190.869141" xlink:href="#DejaVuSans-30"/>
       <use x="254.492188" xlink:href="#DejaVuSans-30"/>
       <use x="318.115234" xlink:href="#DejaVuSans-30"/>
       <use x="381.738281" xlink:href="#DejaVuSans-30"/>
       <use x="445.361328" xlink:href="#DejaVuSans-30"/>
      </g>
     </g>
    </g>
    <g id="xtick_8">
     <g id="line2d_15">
      <path clip-path="url(#p9bcfe3a919)" d="M 503.769481 499 
L 503.769481 10.8 
" style="fill:none;stroke:#b0b0b0;stroke-linecap:square;stroke-width:0.8;"/>
     </g>
     <g id="line2d_16">
      <g>
       <use style="stroke:#000000;stroke-width:0.8;" x="503.769481" xlink:href="#m3731b17bf3" y="499"/>
      </g>
     </g>
     <g id="text_8">
      <!-- 100000000 -->
      <g transform="translate(486.590731 510.559062)scale(0.06 -0.06)">
       <use xlink:href="#DejaVuSans-31"/>
       <use x="63.623047" xlink:href="#DejaVuSans-30"/>
       <use x="127.246094" xlink:href="#DejaVuSans-30"/>
       <use x="190.869141" xlink:href="#DejaVuSans-30"/>
       <use x="254.492188" xlink:href="#DejaVuSans-30"/>
       <use x="318.115234" xlink:href="#DejaVuSans-30"/>
       <use x="381.738281" xlink:href="#DejaVuSans-30"/>
       <use x="445.361328" xlink:href="#DejaVuSans-30"/>
       <use x="508.984375" xlink:href="#DejaVuSans-30"/>
      </g>
     </g>
    </g>
    <g id="text_9">
     <!-- N -->
     <g transform="translate(280.456722 523.405313)scale(0.1 -0.1)">
      <defs>
       <path d="M 628 4666 
L 1478 4666 
L 3547 763 
L 3547 4666 
L 4159 4666 
L 4159 0 
L 3309 0 
L 1241 3903 
L 1241 0 
L 628 0 
L 628 4666 
z
" id="DejaVuSans-4e" transform="scale(0.015625)"/>
      </defs>
      <use xlink:href="#DejaVuSans-4e"/>
     </g>
    </g>
   </g>
   <g id="matplotlib.axis_2">
    <g id="ytick_1">
     <g id="line2d_17">
      <path clip-path="url(#p9bcfe3a919)" d="M 42.668 421.080071 
L 525.726694 421.080071 
" style="fill:none;stroke:#b0b0b0;stroke-linecap:square;stroke-width:0.8;"/>
     </g>
     <g id="line2d_18">
      <defs>
       <path d="M 0 0 
L -3.5 0 
" id="m59bd281cd0" style="stroke:#000000;stroke-width:0.8;"/>
      </defs>
      <g>
       <use style="stroke:#000000;stroke-width:0.8;" x="42.668" xlink:href="#m59bd281cd0" y="421.080071"/>
      </g>
     </g>
     <g id="text_10">
      <!-- 1.6 -->
      <g transform="translate(26.126125 423.359602)scale(0.06 -0.06)">
       <defs>
        <path d="M 684 794 
L 1344 794 
L 1344 0 
L 684 0 
L 684 794 
z
" id="DejaVuSans-2e" transform="scale(0.015625)"/>
        <path d="M 2113 2584 
Q 1688 2584 1439 2293 
Q 1191 2003 1191 1497 
Q 1191 994 1439 701 
Q 1688 409 2113 409 
Q 2538 409 2786 701 
Q 3034 994 3034 1497 
Q 3034 2003 2786 2293 
Q 2538 2584 2113 2584 
z
M 3366 4563 
L 3366 3988 
Q 3128 4100 2886 4159 
Q 2644 4219 2406 4219 
Q 1781 4219 1451 3797 
Q 1122 3375 1075 2522 
Q 1259 2794 1537 2939 
Q 1816 3084 2150 3084 
Q 2853 3084 3261 2657 
Q 3669 2231 3669 1497 
Q 3669 778 3244 343 
Q 2819 -91 2113 -91 
Q 1303 -91 875 529 
Q 447 1150 447 2328 
Q 447 3434 972 4092 
Q 1497 4750 2381 4750 
Q 2619 4750 2861 4703 
Q 3103 4656 3366 4563 
z
" id="DejaVuSans-36" transform="scale(0.015625)"/>
       </defs>
       <use xlink:href="#DejaVuSans-31"/>
       <use x="63.623047" xlink:href="#DejaVuSans-2e"/>
       <use x="95.410156" xlink:href="#DejaVuSans-36"/>
      </g>
     </g>
    </g>
    <g id="ytick_2">
     <g id="line2d_19">
      <path clip-path="url(#p9bcfe3a919)" d="M 42.668 325.452952 
L 525.726694 325.452952 
" style="fill:none;stroke:#b0b0b0;stroke-linecap:square;stroke-width:0.8;"/>
     </g>
     <g id="line2d_20">
      <g>
       <use style="stroke:#000000;stroke-width:0.8;" x="42.668" xlink:href="#m59bd281cd0" y="325.452952"/>
      </g>
     </g>
     <g id="text_11">
      <!-- 1.7 -->
      <g transform="translate(26.126125 327.732483)scale(0.06 -0.06)">
       <defs>
        <path d="M 525 4666 
L 3525 4666 
L 3525 4397 
L 1831 0 
L 1172 0 
L 2766 4134 
L 525 4134 
L 525 4666 
z
" id="DejaVuSans-37" transform="scale(0.015625)"/>
       </defs>
       <use xlink:href="#DejaVuSans-31"/>
       <use x="63.623047" xlink:href="#DejaVuSans-2e"/>
       <use x="95.410156" xlink:href="#DejaVuSans-37"/>
      </g>
     </g>
    </g>
    <g id="ytick_3">
     <g id="line2d_21">
      <path clip-path="url(#p9bcfe3a919)" d="M 42.668 229.825834 
L 525.726694 229.825834 
" style="fill:none;stroke:#b0b0b0;stroke-linecap:square;stroke-width:0.8;"/>
     </g>
     <g id="line2d_22">
      <g>
       <use style="stroke:#000000;stroke-width:0.8;" x="42.668" xlink:href="#m59bd281cd0" y="229.825834"/>
      </g>
     </g>
     <g id="text_12">
      <!-- 1.8 -->
      <g transform="translate(26.126125 232.105365)scale(0.06 -0.06)">
       <defs>
        <path d="M 2034 2216 
Q 1584 2216 1326 1975 
Q 1069 1734 1069 1313 
Q 1069 891 1326 650 
Q 1584 409 2034 409 
Q 2484 409 2743 651 
Q 3003 894 3003 1313 
Q 3003 1734 2745 1975 
Q 2488 2216 2034 2216 
z
M 1403 2484 
Q 997 2584 770 2862 
Q 544 3141 544 3541 
Q 544 4100 942 4425 
Q 1341 4750 2034 4750 
Q 2731 4750 3128 4425 
Q 3525 4100 3525 3541 
Q 3525 3141 3298 2862 
Q 3072 2584 2669 2484 
Q 3125 2378 3379 2068 
Q 3634 1759 3634 1313 
Q 3634 634 3220 271 
Q 2806 -91 2034 -91 
Q 1263 -91 848 271 
Q 434 634 434 1313 
Q 434 1759 690 2068 
Q 947 2378 1403 2484 
z
M 1172 3481 
Q 1172 3119 1398 2916 
Q 1625 2713 2034 2713 
Q 2441 2713 2670 2916 
Q 2900 3119 2900 3481 
Q 2900 3844 2670 4047 
Q 2441 4250 2034 4250 
Q 1625 4250 1398 4047 
Q 1172 3844 1172 3481 
z
" id="DejaVuSans-38" transform="scale(0.015625)"/>
       </defs>
       <use xlink:href="#DejaVuSans-31"/>
       <use x="63.623047" xlink:href="#DejaVuSans-2e"/>
       <use x="95.410156" xlink:href="#DejaVuSans-38"/>
      </g>
     </g>
    </g>
    <g id="ytick_4">
     <g id="line2d_23">
      <path clip-path="url(#p9bcfe3a919)" d="M 42.668 134.198715 
L 525.726694 134.198715 
" style="fill:none;stroke:#b0b0b0;stroke-linecap:square;stroke-width:0.8;"/>
     </g>
     <g id="line2d_24">
      <g>
       <use style="stroke:#000000;stroke-width:0.8;" x="42.668" xlink:href="#m59bd281cd0" y="134.198715"/>
      </g>
     </g>
     <g id="text_13">
      <!-- 1.9 -->
      <g transform="translate(26.126125 136.478246)scale(0.06 -0.06)">
       <defs>
        <path d="M 703 97 
L 703 672 
Q 941 559 1184 500 
Q 1428 441 1663 441 
Q 2288 441 2617 861 
Q 2947 1281 2994 2138 
Q 2813 1869 2534 1725 
Q 2256 1581 1919 1581 
Q 1219 1581 811 2004 
Q 403 2428 403 3163 
Q 403 3881 828 4315 
Q 1253 4750 1959 4750 
Q 2769 4750 3195 4129 
Q 3622 3509 3622 2328 
Q 3622 1225 3098 567 
Q 2575 -91 1691 -91 
Q 1453 -91 1209 -44 
Q 966 3 703 97 
z
M 1959 2075 
Q 2384 2075 2632 2365 
Q 2881 2656 2881 3163 
Q 2881 3666 2632 3958 
Q 2384 4250 1959 4250 
Q 1534 4250 1286 3958 
Q 1038 3666 1038 3163 
Q 1038 2656 1286 2365 
Q 1534 2075 1959 2075 
z
" id="DejaVuSans-39" transform="scale(0.015625)"/>
       </defs>
       <use xlink:href="#DejaVuSans-31"/>
       <use x="63.623047" xlink:href="#DejaVuSans-2e"/>
       <use x="95.410156" xlink:href="#DejaVuSans-39"/>
      </g>
     </g>
    </g>
    <g id="ytick_5">
     <g id="line2d_25">
      <path clip-path="url(#p9bcfe3a919)" d="M 42.668 38.571597 
L 525.726694 38.571597 
" style="fill:none;stroke:#b0b0b0;stroke-linecap:square;stroke-width:0.8;"/>
     </g>
     <g id="line2d_26">
      <g>
       <use style="stroke:#000000;stroke-width:0.8;" x="42.668" xlink:href="#m59bd281cd0" y="38.571597"/>
      </g>
     </g>
     <g id="text_14">
      <!-- 2.0 -->
      <g transform="translate(26.126125 40.851128)scale(0.06 -0.06)">
       <defs>
        <path d="M 1228 531 
L 3431 531 
L 3431 0 
L 469 0 
L 469 531 
Q 828 903 1448 1529 
Q 2069 2156 2228 2338 
Q 2531 2678 2651 2914 
Q 2772 3150 2772 3378 
Q 2772 3750 2511 3984 
Q 2250 4219 1831 4219 
Q 1534 4219 1204 4116 
Q 875 4013 500 3803 
L 500 4441 
Q 881 4594 1212 4672 
Q 1544 4750 1819 4750 
Q 2544 4750 2975 4387 
Q 3406 4025 3406 3419 
Q 3406 3131 3298 2873 
Q 3191 2616 2906 2266 
Q 2828 2175 2409 1742 
Q 1991 1309 1228 531 
z
" id="DejaVuSans-32" transform="scale(0.015625)"/>
       </defs>
       <use xlink:href="#DejaVuSans-32"/>
       <use x="63.623047" xlink:href="#DejaVuSans-2e"/>
       <use x="95.410156" xlink:href="#DejaVuSans-30"/>
      </g>
     </g>
    </g>
    <g id="text_15">
     <!-- $f_1(x)$ -->
     <g transform="translate(20.046437 265.9)rotate(-90)scale(0.1 -0.1)">
      <defs>
       <path d="M 3059 4863 
L 2969 4384 
L 2419 4384 
Q 2106 4384 1964 4261 
Q 1822 4138 1753 3809 
L 1691 3500 
L 2638 3500 
L 2553 3053 
L 1606 3053 
L 1013 0 
L 434 0 
L 1031 3053 
L 481 3053 
L 563 3500 
L 1113 3500 
L 1159 3744 
Q 1278 4363 1576 4613 
Q 1875 4863 2516 4863 
L 3059 4863 
z
" id="DejaVuSans-Oblique-66" transform="scale(0.015625)"/>
       <path d="M 1984 4856 
Q 1566 4138 1362 3434 
Q 1159 2731 1159 2009 
Q 1159 1288 1364 580 
Q 1569 -128 1984 -844 
L 1484 -844 
Q 1016 -109 783 600 
Q 550 1309 550 2009 
Q 550 2706 781 3412 
Q 1013 4119 1484 4856 
L 1984 4856 
z
" id="DejaVuSans-28" transform="scale(0.015625)"/>
       <path d="M 3841 3500 
L 2234 1784 
L 3219 0 
L 2559 0 
L 1819 1388 
L 531 0 
L -166 0 
L 1556 1844 
L 641 3500 
L 1300 3500 
L 1972 2234 
L 3144 3500 
L 3841 3500 
z
" id="DejaVuSans-Oblique-78" transform="scale(0.015625)"/>
       <path d="M 513 4856 
L 1013 4856 
Q 1481 4119 1714 3412 
Q 1947 2706 1947 2009 
Q 1947 1309 1714 600 
Q 1481 -109 1013 -844 
L 513 -844 
Q 928 -128 1133 580 
Q 1338 1288 1338 2009 
Q 1338 2731 1133 3434 
Q 928 4138 513 4856 
z
" id="DejaVuSans-29" transform="scale(0.015625)"/>
      </defs>
      <use transform="translate(0 0.015625)" xlink:href="#DejaVuSans-Oblique-66"/>
      <use transform="translate(35.205078 -16.390625)scale(0.7)" xlink:href="#DejaVuSans-31"/>
      <use transform="translate(82.475586 0.015625)" xlink:href="#DejaVuSans-28"/>
      <use transform="translate(121.489258 0.015625)" xlink:href="#DejaVuSans-Oblique-78"/>
      <use transform="translate(180.668945 0.015625)" xlink:href="#DejaVuSans-29"/>
     </g>
    </g>
   </g>
   <g id="LineCollection_1">
    <path clip-path="url(#p9bcfe3a919)" d="M 64.625213 307.970566 
L 503.769481 307.970566 
" style="fill:none;stroke:#ffa500;stroke-dasharray:3.7,1.6;stroke-dashoffset:0;"/>
   </g>
   <g id="line2d_27">
    <path clip-path="url(#p9bcfe3a919)" d="M 93.901498 476.809091 
L 152.454067 351.59458 
L 211.006636 311.19893 
L 269.559205 313.798144 
L 328.111774 310.537037 
L 386.664343 308.127405 
L 445.216912 307.775478 
L 503.769481 307.869166 
" style="fill:none;stroke:#008000;stroke-linecap:square;"/>
   </g>
   <g id="line2d_28">
    <path clip-path="url(#p9bcfe3a919)" d="M 93.901498 307.969655 
L 152.454067 307.970566 
L 211.006636 307.970566 
L 269.559205 307.970566 
L 328.111774 307.970566 
L 386.664343 307.970566 
L 445.216912 307.970566 
L 503.769481 307.970565 
" style="fill:none;stroke:#0000ff;stroke-linecap:square;"/>
   </g>
   <g id="line2d_29">
    <path clip-path="url(#p9bcfe3a919)" d="M 93.901498 32.990909 
L 152.454067 307.956874 
L 211.006636 307.970429 
L 269.559205 307.710611 
L 328.111774 307.944572 
L 386.664343 307.970566 
L 445.216912 307.970307 
L 503.769481 307.970565 
" style="fill:none;stroke:#800080;stroke-linecap:square;"/>
   </g>
   <g id="patch_3">
    <path d="M 42.668 499 
L 42.668 10.8 
" style="fill:none;stroke:#000000;stroke-linecap:square;stroke-linejoin:miter;stroke-width:0.8;"/>
   </g>
   <g id="patch_4">
    <path d="M 525.726694 499 
L 525.726694 10.8 
" style="fill:none;stroke:#000000;stroke-linecap:square;stroke-linejoin:miter;stroke-width:0.8;"/>
   </g>
   <g id="patch_5">
    <path d="M 42.668 499 
L 525.726694 499 
" style="fill:none;stroke:#000000;stroke-linecap:square;stroke-linejoin:miter;stroke-width:0.8;"/>
   </g>
   <g id="patch_6">
    <path d="M 42.668 10.8 
L 525.726694 10.8 
" style="fill:none;stroke:#000000;stroke-linecap:square;stroke-linejoin:miter;stroke-width:0.8;"/>
   </g>
   <g id="text_16">
    <!-- e-1 -->
    <g style="fill:#ffa500;" transform="translate(35.348929 307.970566)scale(0.08 -0.08)">
     <defs>
      <path d="M 3597 1894 
L 3597 1613 
L 953 1613 
Q 991 1019 1311 708 
Q 1631 397 2203 397 
Q 2534 397 2845 478 
Q 3156 559 3463 722 
L 3463 178 
Q 3153 47 2828 -22 
Q 2503 -91 2169 -91 
Q 1331 -91 842 396 
Q 353 884 353 1716 
Q 353 2575 817 3079 
Q 1281 3584 2069 3584 
Q 2775 3584 3186 3129 
Q 3597 2675 3597 1894 
z
M 3022 2063 
Q 3016 2534 2758 2815 
Q 2500 3097 2075 3097 
Q 1594 3097 1305 2825 
Q 1016 2553 972 2059 
L 3022 2063 
z
" id="DejaVuSans-65" transform="scale(0.015625)"/>
      <path d="M 313 2009 
L 1997 2009 
L 1997 1497 
L 313 1497 
L 313 2009 
z
" id="DejaVuSans-2d" transform="scale(0.015625)"/>
     </defs>
     <use xlink:href="#DejaVuSans-65"/>
     <use x="61.523438" xlink:href="#DejaVuSans-2d"/>
     <use x="97.607422" xlink:href="#DejaVuSans-31"/>
    </g>
   </g>
   <g id="legend_1">
    <g id="patch_7">
     <path d="M 456.470916 47.104875 
L 520.868694 47.104875 
Q 522.256694 47.104875 522.256694 45.716875 
L 522.256694 15.658 
Q 522.256694 14.27 520.868694 14.27 
L 456.470916 14.27 
Q 455.082916 14.27 455.082916 15.658 
L 455.082916 45.716875 
Q 455.082916 47.104875 456.470916 47.104875 
z
" style="fill:#ffffff;opacity:0.8;stroke:#cccccc;stroke-linejoin:miter;"/>
    </g>
    <g id="line2d_30">
     <path d="M 457.858916 19.890316 
L 471.738916 19.890316 
" style="fill:none;stroke:#008000;stroke-linecap:square;"/>
    </g>
    <g id="line2d_31"/>
    <g id="text_17">
     <!-- Monte_carlo -->
     <g transform="translate(477.290916 22.319316)scale(0.0694 -0.0694)">
      <defs>
       <path d="M 628 4666 
L 1569 4666 
L 2759 1491 
L 3956 4666 
L 4897 4666 
L 4897 0 
L 4281 0 
L 4281 4097 
L 3078 897 
L 2444 897 
L 1241 4097 
L 1241 0 
L 628 0 
L 628 4666 
z
" id="DejaVuSans-4d" transform="scale(0.015625)"/>
       <path d="M 1959 3097 
Q 1497 3097 1228 2736 
Q 959 2375 959 1747 
Q 959 1119 1226 758 
Q 1494 397 1959 397 
Q 2419 397 2687 759 
Q 2956 1122 2956 1747 
Q 2956 2369 2687 2733 
Q 2419 3097 1959 3097 
z
M 1959 3584 
Q 2709 3584 3137 3096 
Q 3566 2609 3566 1747 
Q 3566 888 3137 398 
Q 2709 -91 1959 -91 
Q 1206 -91 779 398 
Q 353 888 353 1747 
Q 353 2609 779 3096 
Q 1206 3584 1959 3584 
z
" id="DejaVuSans-6f" transform="scale(0.015625)"/>
       <path d="M 3513 2113 
L 3513 0 
L 2938 0 
L 2938 2094 
Q 2938 2591 2744 2837 
Q 2550 3084 2163 3084 
Q 1697 3084 1428 2787 
Q 1159 2491 1159 1978 
L 1159 0 
L 581 0 
L 581 3500 
L 1159 3500 
L 1159 2956 
Q 1366 3272 1645 3428 
Q 1925 3584 2291 3584 
Q 2894 3584 3203 3211 
Q 3513 2838 3513 2113 
z
" id="DejaVuSans-6e" transform="scale(0.015625)"/>
       <path d="M 1172 4494 
L 1172 3500 
L 2356 3500 
L 2356 3053 
L 1172 3053 
L 1172 1153 
Q 1172 725 1289 603 
Q 1406 481 1766 481 
L 2356 481 
L 2356 0 
L 1766 0 
Q 1100 0 847 248 
Q 594 497 594 1153 
L 594 3053 
L 172 3053 
L 172 3500 
L 594 3500 
L 594 4494 
L 1172 4494 
z
" id="DejaVuSans-74" transform="scale(0.015625)"/>
       <path d="M 3263 -1063 
L 3263 -1509 
L -63 -1509 
L -63 -1063 
L 3263 -1063 
z
" id="DejaVuSans-5f" transform="scale(0.015625)"/>
       <path d="M 3122 3366 
L 3122 2828 
Q 2878 2963 2633 3030 
Q 2388 3097 2138 3097 
Q 1578 3097 1268 2742 
Q 959 2388 959 1747 
Q 959 1106 1268 751 
Q 1578 397 2138 397 
Q 2388 397 2633 464 
Q 2878 531 3122 666 
L 3122 134 
Q 2881 22 2623 -34 
Q 2366 -91 2075 -91 
Q 1284 -91 818 406 
Q 353 903 353 1747 
Q 353 2603 823 3093 
Q 1294 3584 2113 3584 
Q 2378 3584 2631 3529 
Q 2884 3475 3122 3366 
z
" id="DejaVuSans-63" transform="scale(0.015625)"/>
       <path d="M 2194 1759 
Q 1497 1759 1228 1600 
Q 959 1441 959 1056 
Q 959 750 1161 570 
Q 1363 391 1709 391 
Q 2188 391 2477 730 
Q 2766 1069 2766 1631 
L 2766 1759 
L 2194 1759 
z
M 3341 1997 
L 3341 0 
L 2766 0 
L 2766 531 
Q 2569 213 2275 61 
Q 1981 -91 1556 -91 
Q 1019 -91 701 211 
Q 384 513 384 1019 
Q 384 1609 779 1909 
Q 1175 2209 1959 2209 
L 2766 2209 
L 2766 2266 
Q 2766 2663 2505 2880 
Q 2244 3097 1772 3097 
Q 1472 3097 1187 3025 
Q 903 2953 641 2809 
L 641 3341 
Q 956 3463 1253 3523 
Q 1550 3584 1831 3584 
Q 2591 3584 2966 3190 
Q 3341 2797 3341 1997 
z
" id="DejaVuSans-61" transform="scale(0.015625)"/>
       <path d="M 2631 2963 
Q 2534 3019 2420 3045 
Q 2306 3072 2169 3072 
Q 1681 3072 1420 2755 
Q 1159 2438 1159 1844 
L 1159 0 
L 581 0 
L 581 3500 
L 1159 3500 
L 1159 2956 
Q 1341 3275 1631 3429 
Q 1922 3584 2338 3584 
Q 2397 3584 2469 3576 
Q 2541 3569 2628 3553 
L 2631 2963 
z
" id="DejaVuSans-72" transform="scale(0.015625)"/>
       <path d="M 603 4863 
L 1178 4863 
L 1178 0 
L 603 0 
L 603 4863 
z
" id="DejaVuSans-6c" transform="scale(0.015625)"/>
      </defs>
      <use xlink:href="#DejaVuSans-4d"/>
      <use x="86.279297" xlink:href="#DejaVuSans-6f"/>
      <use x="147.460938" xlink:href="#DejaVuSans-6e"/>
      <use x="210.839844" xlink:href="#DejaVuSans-74"/>
      <use x="250.048828" xlink:href="#DejaVuSans-65"/>
      <use x="311.572266" xlink:href="#DejaVuSans-5f"/>
      <use x="361.572266" xlink:href="#DejaVuSans-63"/>
      <use x="416.552734" xlink:href="#DejaVuSans-61"/>
      <use x="477.832031" xlink:href="#DejaVuSans-72"/>
      <use x="518.945312" xlink:href="#DejaVuSans-6c"/>
      <use x="546.728516" xlink:href="#DejaVuSans-6f"/>
     </g>
    </g>
    <g id="line2d_32">
     <path d="M 457.858916 30.269953 
L 471.738916 30.269953 
" style="fill:none;stroke:#0000ff;stroke-linecap:square;"/>
    </g>
    <g id="line2d_33"/>
    <g id="text_18">
     <!-- Simpson -->
     <g transform="translate(477.290916 32.698953)scale(0.0694 -0.0694)">
      <defs>
       <path d="M 3425 4513 
L 3425 3897 
Q 3066 4069 2747 4153 
Q 2428 4238 2131 4238 
Q 1616 4238 1336 4038 
Q 1056 3838 1056 3469 
Q 1056 3159 1242 3001 
Q 1428 2844 1947 2747 
L 2328 2669 
Q 3034 2534 3370 2195 
Q 3706 1856 3706 1288 
Q 3706 609 3251 259 
Q 2797 -91 1919 -91 
Q 1588 -91 1214 -16 
Q 841 59 441 206 
L 441 856 
Q 825 641 1194 531 
Q 1563 422 1919 422 
Q 2459 422 2753 634 
Q 3047 847 3047 1241 
Q 3047 1584 2836 1778 
Q 2625 1972 2144 2069 
L 1759 2144 
Q 1053 2284 737 2584 
Q 422 2884 422 3419 
Q 422 4038 858 4394 
Q 1294 4750 2059 4750 
Q 2388 4750 2728 4690 
Q 3069 4631 3425 4513 
z
" id="DejaVuSans-53" transform="scale(0.015625)"/>
       <path d="M 603 3500 
L 1178 3500 
L 1178 0 
L 603 0 
L 603 3500 
z
M 603 4863 
L 1178 4863 
L 1178 4134 
L 603 4134 
L 603 4863 
z
" id="DejaVuSans-69" transform="scale(0.015625)"/>
       <path d="M 3328 2828 
Q 3544 3216 3844 3400 
Q 4144 3584 4550 3584 
Q 5097 3584 5394 3201 
Q 5691 2819 5691 2113 
L 5691 0 
L 5113 0 
L 5113 2094 
Q 5113 2597 4934 2840 
Q 4756 3084 4391 3084 
Q 3944 3084 3684 2787 
Q 3425 2491 3425 1978 
L 3425 0 
L 2847 0 
L 2847 2094 
Q 2847 2600 2669 2842 
Q 2491 3084 2119 3084 
Q 1678 3084 1418 2786 
Q 1159 2488 1159 1978 
L 1159 0 
L 581 0 
L 581 3500 
L 1159 3500 
L 1159 2956 
Q 1356 3278 1631 3431 
Q 1906 3584 2284 3584 
Q 2666 3584 2933 3390 
Q 3200 3197 3328 2828 
z
" id="DejaVuSans-6d" transform="scale(0.015625)"/>
       <path d="M 1159 525 
L 1159 -1331 
L 581 -1331 
L 581 3500 
L 1159 3500 
L 1159 2969 
Q 1341 3281 1617 3432 
Q 1894 3584 2278 3584 
Q 2916 3584 3314 3078 
Q 3713 2572 3713 1747 
Q 3713 922 3314 415 
Q 2916 -91 2278 -91 
Q 1894 -91 1617 61 
Q 1341 213 1159 525 
z
M 3116 1747 
Q 3116 2381 2855 2742 
Q 2594 3103 2138 3103 
Q 1681 3103 1420 2742 
Q 1159 2381 1159 1747 
Q 1159 1113 1420 752 
Q 1681 391 2138 391 
Q 2594 391 2855 752 
Q 3116 1113 3116 1747 
z
" id="DejaVuSans-70" transform="scale(0.015625)"/>
       <path d="M 2834 3397 
L 2834 2853 
Q 2591 2978 2328 3040 
Q 2066 3103 1784 3103 
Q 1356 3103 1142 2972 
Q 928 2841 928 2578 
Q 928 2378 1081 2264 
Q 1234 2150 1697 2047 
L 1894 2003 
Q 2506 1872 2764 1633 
Q 3022 1394 3022 966 
Q 3022 478 2636 193 
Q 2250 -91 1575 -91 
Q 1294 -91 989 -36 
Q 684 19 347 128 
L 347 722 
Q 666 556 975 473 
Q 1284 391 1588 391 
Q 1994 391 2212 530 
Q 2431 669 2431 922 
Q 2431 1156 2273 1281 
Q 2116 1406 1581 1522 
L 1381 1569 
Q 847 1681 609 1914 
Q 372 2147 372 2553 
Q 372 3047 722 3315 
Q 1072 3584 1716 3584 
Q 2034 3584 2315 3537 
Q 2597 3491 2834 3397 
z
" id="DejaVuSans-73" transform="scale(0.015625)"/>
      </defs>
      <use xlink:href="#DejaVuSans-53"/>
      <use x="63.476562" xlink:href="#DejaVuSans-69"/>
      <use x="91.259766" xlink:href="#DejaVuSans-6d"/>
      <use x="188.671875" xlink:href="#DejaVuSans-70"/>
      <use x="252.148438" xlink:href="#DejaVuSans-73"/>
      <use x="304.248047" xlink:href="#DejaVuSans-6f"/>
      <use x="365.429688" xlink:href="#DejaVuSans-6e"/>
     </g>
    </g>
    <g id="line2d_34">
     <path d="M 457.858916 40.456572 
L 471.738916 40.456572 
" style="fill:none;stroke:#800080;stroke-linecap:square;"/>
    </g>
    <g id="line2d_35"/>
    <g id="text_19">
     <!-- Trapezoidal -->
     <g transform="translate(477.290916 42.885572)scale(0.0694 -0.0694)">
      <defs>
       <path d="M -19 4666 
L 3928 4666 
L 3928 4134 
L 2272 4134 
L 2272 0 
L 1638 0 
L 1638 4134 
L -19 4134 
L -19 4666 
z
" id="DejaVuSans-54" transform="scale(0.015625)"/>
       <path d="M 353 3500 
L 3084 3500 
L 3084 2975 
L 922 459 
L 3084 459 
L 3084 0 
L 275 0 
L 275 525 
L 2438 3041 
L 353 3041 
L 353 3500 
z
" id="DejaVuSans-7a" transform="scale(0.015625)"/>
       <path d="M 2906 2969 
L 2906 4863 
L 3481 4863 
L 3481 0 
L 2906 0 
L 2906 525 
Q 2725 213 2448 61 
Q 2172 -91 1784 -91 
Q 1150 -91 751 415 
Q 353 922 353 1747 
Q 353 2572 751 3078 
Q 1150 3584 1784 3584 
Q 2172 3584 2448 3432 
Q 2725 3281 2906 2969 
z
M 947 1747 
Q 947 1113 1208 752 
Q 1469 391 1925 391 
Q 2381 391 2643 752 
Q 2906 1113 2906 1747 
Q 2906 2381 2643 2742 
Q 2381 3103 1925 3103 
Q 1469 3103 1208 2742 
Q 947 2381 947 1747 
z
" id="DejaVuSans-64" transform="scale(0.015625)"/>
      </defs>
      <use xlink:href="#DejaVuSans-54"/>
      <use x="46.333984" xlink:href="#DejaVuSans-72"/>
      <use x="87.447266" xlink:href="#DejaVuSans-61"/>
      <use x="148.726562" xlink:href="#DejaVuSans-70"/>
      <use x="212.203125" xlink:href="#DejaVuSans-65"/>
      <use x="273.726562" xlink:href="#DejaVuSans-7a"/>
      <use x="326.216797" xlink:href="#DejaVuSans-6f"/>
      <use x="387.398438" xlink:href="#DejaVuSans-69"/>
      <use x="415.181641" xlink:href="#DejaVuSans-64"/>
      <use x="478.658203" xlink:href="#DejaVuSans-61"/>
      <use x="539.9375" xlink:href="#DejaVuSans-6c"/>
     </g>
    </g>
   </g>
  </g>
  <g id="axes_2">
   <g id="patch_8">
    <path d="M 574.814694 499 
L 1057.873388 499 
L 1057.873388 10.8 
L 574.814694 10.8 
z
" style="fill:#ffffff;"/>
   </g>
   <g id="PathCollection_4">
    <g clip-path="url(#pc066808501)">
     <use style="fill:#800080;stroke:#800080;" x="626.048192" xlink:href="#m5b2e734941" y="452.237336"/>
     <use style="fill:#800080;stroke:#800080;" x="684.600761" xlink:href="#m5b2e734941" y="160.869018"/>
     <use style="fill:#800080;stroke:#800080;" x="743.15333" xlink:href="#m5b2e734941" y="79.431194"/>
     <use style="fill:#800080;stroke:#800080;" x="801.705899" xlink:href="#m5b2e734941" y="36.130557"/>
     <use style="fill:#800080;stroke:#800080;" x="860.258468" xlink:href="#m5b2e734941" y="36.056084"/>
     <use style="fill:#800080;stroke:#800080;" x="918.811037" xlink:href="#m5b2e734941" y="39.903701"/>
     <use style="fill:#800080;stroke:#800080;" x="977.363606" xlink:href="#m5b2e734941" y="35.840574"/>
     <use style="fill:#800080;stroke:#800080;" x="1035.916175" xlink:href="#m5b2e734941" y="36.796273"/>
    </g>
   </g>
   <g id="PathCollection_5">
    <g clip-path="url(#pc066808501)">
     <use style="fill:#0000ff;stroke:#0000ff;" x="626.048192" xlink:href="#m7461e0e6fd" y="429.760832"/>
     <use style="fill:#0000ff;stroke:#0000ff;" x="684.600761" xlink:href="#m7461e0e6fd" y="203.01398"/>
     <use style="fill:#0000ff;stroke:#0000ff;" x="743.15333" xlink:href="#m7461e0e6fd" y="108.927575"/>
     <use style="fill:#0000ff;stroke:#0000ff;" x="801.705899" xlink:href="#m7461e0e6fd" y="67.597985"/>
     <use style="fill:#0000ff;stroke:#0000ff;" x="860.258468" xlink:href="#m7461e0e6fd" y="48.916407"/>
     <use style="fill:#0000ff;stroke:#0000ff;" x="918.811037" xlink:href="#m7461e0e6fd" y="40.353212"/>
     <use style="fill:#0000ff;stroke:#0000ff;" x="977.363606" xlink:href="#m7461e0e6fd" y="36.40182"/>
     <use style="fill:#0000ff;stroke:#0000ff;" x="1035.916175" xlink:href="#m7461e0e6fd" y="34.582217"/>
    </g>
   </g>
   <g id="PathCollection_6">
    <g clip-path="url(#pc066808501)">
     <use style="fill:#800080;stroke:#800080;" x="626.048192" xlink:href="#m5b2e734941" y="476.809091"/>
     <use style="fill:#800080;stroke:#800080;" x="684.600761" xlink:href="#m5b2e734941" y="220.955432"/>
     <use style="fill:#800080;stroke:#800080;" x="743.15333" xlink:href="#m5b2e734941" y="116.514261"/>
     <use style="fill:#800080;stroke:#800080;" x="801.705899" xlink:href="#m5b2e734941" y="70.963098"/>
     <use style="fill:#800080;stroke:#800080;" x="860.258468" xlink:href="#m5b2e734941" y="50.444806"/>
     <use style="fill:#800080;stroke:#800080;" x="918.811037" xlink:href="#m5b2e734941" y="41.05541"/>
     <use style="fill:#800080;stroke:#800080;" x="977.363606" xlink:href="#m5b2e734941" y="36.726195"/>
     <use style="fill:#800080;stroke:#800080;" x="1035.916175" xlink:href="#m5b2e734941" y="34.73227"/>
    </g>
   </g>
   <g id="matplotlib.axis_3">
    <g id="xtick_9">
     <g id="line2d_36">
      <path clip-path="url(#pc066808501)" d="M 626.048192 499 
L 626.048192 10.8 
" style="fill:none;stroke:#b0b0b0;stroke-linecap:square;stroke-width:0.8;"/>
     </g>
     <g id="line2d_37">
      <g>
       <use style="stroke:#000000;stroke-width:0.8;" x="626.048192" xlink:href="#m3731b17bf3" y="499"/>
      </g>
     </g>
     <g id="text_20">
      <!-- 10 -->
      <g transform="translate(619.685692 513.598438)scale(0.1 -0.1)">
       <use xlink:href="#DejaVuSans-31"/>
       <use x="63.623047" xlink:href="#DejaVuSans-30"/>
      </g>
     </g>
    </g>
    <g id="xtick_10">
     <g id="line2d_38">
      <path clip-path="url(#pc066808501)" d="M 684.600761 499 
L 684.600761 10.8 
" style="fill:none;stroke:#b0b0b0;stroke-linecap:square;stroke-width:0.8;"/>
     </g>
     <g id="line2d_39">
      <g>
       <use style="stroke:#000000;stroke-width:0.8;" x="684.600761" xlink:href="#m3731b17bf3" y="499"/>
      </g>
     </g>
     <g id="text_21">
      <!-- 100 -->
      <g transform="translate(675.057011 513.598438)scale(0.1 -0.1)">
       <use xlink:href="#DejaVuSans-31"/>
       <use x="63.623047" xlink:href="#DejaVuSans-30"/>
       <use x="127.246094" xlink:href="#DejaVuSans-30"/>
      </g>
     </g>
    </g>
    <g id="xtick_11">
     <g id="line2d_40">
      <path clip-path="url(#pc066808501)" d="M 743.15333 499 
L 743.15333 10.8 
" style="fill:none;stroke:#b0b0b0;stroke-linecap:square;stroke-width:0.8;"/>
     </g>
     <g id="line2d_41">
      <g>
       <use style="stroke:#000000;stroke-width:0.8;" x="743.15333" xlink:href="#m3731b17bf3" y="499"/>
      </g>
     </g>
     <g id="text_22">
      <!-- 1000 -->
      <g transform="translate(730.42833 513.598438)scale(0.1 -0.1)">
       <use xlink:href="#DejaVuSans-31"/>
       <use x="63.623047" xlink:href="#DejaVuSans-30"/>
       <use x="127.246094" xlink:href="#DejaVuSans-30"/>
       <use x="190.869141" xlink:href="#DejaVuSans-30"/>
      </g>
     </g>
    </g>
    <g id="xtick_12">
     <g id="line2d_42">
      <path clip-path="url(#pc066808501)" d="M 801.705899 499 
L 801.705899 10.8 
" style="fill:none;stroke:#b0b0b0;stroke-linecap:square;stroke-width:0.8;"/>
     </g>
     <g id="line2d_43">
      <g>
       <use style="stroke:#000000;stroke-width:0.8;" x="801.705899" xlink:href="#m3731b17bf3" y="499"/>
      </g>
     </g>
     <g id="text_23">
      <!-- 10000 -->
      <g transform="translate(785.799649 513.598438)scale(0.1 -0.1)">
       <use xlink:href="#DejaVuSans-31"/>
       <use x="63.623047" xlink:href="#DejaVuSans-30"/>
       <use x="127.246094" xlink:href="#DejaVuSans-30"/>
       <use x="190.869141" xlink:href="#DejaVuSans-30"/>
       <use x="254.492188" xlink:href="#DejaVuSans-30"/>
      </g>
     </g>
    </g>
    <g id="xtick_13">
     <g id="line2d_44">
      <path clip-path="url(#pc066808501)" d="M 860.258468 499 
L 860.258468 10.8 
" style="fill:none;stroke:#b0b0b0;stroke-linecap:square;stroke-width:0.8;"/>
     </g>
     <g id="line2d_45">
      <g>
       <use style="stroke:#000000;stroke-width:0.8;" x="860.258468" xlink:href="#m3731b17bf3" y="499"/>
      </g>
     </g>
     <g id="text_24">
      <!-- 100000 -->
      <g transform="translate(841.170968 513.598438)scale(0.1 -0.1)">
       <use xlink:href="#DejaVuSans-31"/>
       <use x="63.623047" xlink:href="#DejaVuSans-30"/>
       <use x="127.246094" xlink:href="#DejaVuSans-30"/>
       <use x="190.869141" xlink:href="#DejaVuSans-30"/>
       <use x="254.492188" xlink:href="#DejaVuSans-30"/>
       <use x="318.115234" xlink:href="#DejaVuSans-30"/>
      </g>
     </g>
    </g>
    <g id="xtick_14">
     <g id="line2d_46">
      <path clip-path="url(#pc066808501)" d="M 918.811037 499 
L 918.811037 10.8 
" style="fill:none;stroke:#b0b0b0;stroke-linecap:square;stroke-width:0.8;"/>
     </g>
     <g id="line2d_47">
      <g>
       <use style="stroke:#000000;stroke-width:0.8;" x="918.811037" xlink:href="#m3731b17bf3" y="499"/>
      </g>
     </g>
     <g id="text_25">
      <!-- 1000000 -->
      <g transform="translate(896.542287 513.598438)scale(0.1 -0.1)">
       <use xlink:href="#DejaVuSans-31"/>
       <use x="63.623047" xlink:href="#DejaVuSans-30"/>
       <use x="127.246094" xlink:href="#DejaVuSans-30"/>
       <use x="190.869141" xlink:href="#DejaVuSans-30"/>
       <use x="254.492188" xlink:href="#DejaVuSans-30"/>
       <use x="318.115234" xlink:href="#DejaVuSans-30"/>
       <use x="381.738281" xlink:href="#DejaVuSans-30"/>
      </g>
     </g>
    </g>
    <g id="xtick_15">
     <g id="line2d_48">
      <path clip-path="url(#pc066808501)" d="M 977.363606 499 
L 977.363606 10.8 
" style="fill:none;stroke:#b0b0b0;stroke-linecap:square;stroke-width:0.8;"/>
     </g>
     <g id="line2d_49">
      <g>
       <use style="stroke:#000000;stroke-width:0.8;" x="977.363606" xlink:href="#m3731b17bf3" y="499"/>
      </g>
     </g>
     <g id="text_26">
      <!-- 10000000 -->
      <g transform="translate(951.913606 513.598438)scale(0.1 -0.1)">
       <use xlink:href="#DejaVuSans-31"/>
       <use x="63.623047" xlink:href="#DejaVuSans-30"/>
       <use x="127.246094" xlink:href="#DejaVuSans-30"/>
       <use x="190.869141" xlink:href="#DejaVuSans-30"/>
       <use x="254.492188" xlink:href="#DejaVuSans-30"/>
       <use x="318.115234" xlink:href="#DejaVuSans-30"/>
       <use x="381.738281" xlink:href="#DejaVuSans-30"/>
       <use x="445.361328" xlink:href="#DejaVuSans-30"/>
      </g>
     </g>
    </g>
    <g id="xtick_16">
     <g id="line2d_50">
      <path clip-path="url(#pc066808501)" d="M 1035.916175 499 
L 1035.916175 10.8 
" style="fill:none;stroke:#b0b0b0;stroke-linecap:square;stroke-width:0.8;"/>
     </g>
     <g id="line2d_51">
      <g>
       <use style="stroke:#000000;stroke-width:0.8;" x="1035.916175" xlink:href="#m3731b17bf3" y="499"/>
      </g>
     </g>
     <g id="text_27">
      <!-- 100000000 -->
      <g transform="translate(1007.284925 513.598438)scale(0.1 -0.1)">
       <use xlink:href="#DejaVuSans-31"/>
       <use x="63.623047" xlink:href="#DejaVuSans-30"/>
       <use x="127.246094" xlink:href="#DejaVuSans-30"/>
       <use x="190.869141" xlink:href="#DejaVuSans-30"/>
       <use x="254.492188" xlink:href="#DejaVuSans-30"/>
       <use x="318.115234" xlink:href="#DejaVuSans-30"/>
       <use x="381.738281" xlink:href="#DejaVuSans-30"/>
       <use x="445.361328" xlink:href="#DejaVuSans-30"/>
       <use x="508.984375" xlink:href="#DejaVuSans-30"/>
      </g>
     </g>
    </g>
    <g id="text_28">
     <!-- N -->
     <g transform="translate(812.603416 527.276562)scale(0.1 -0.1)">
      <use xlink:href="#DejaVuSans-4e"/>
     </g>
    </g>
   </g>
   <g id="matplotlib.axis_4">
    <g id="ytick_6">
     <g id="line2d_52">
      <path clip-path="url(#pc066808501)" d="M 574.814694 435.868598 
L 1057.873388 435.868598 
" style="fill:none;stroke:#b0b0b0;stroke-linecap:square;stroke-width:0.8;"/>
     </g>
     <g id="line2d_53">
      <g>
       <use style="stroke:#000000;stroke-width:0.8;" x="574.814694" xlink:href="#m59bd281cd0" y="435.868598"/>
      </g>
     </g>
     <g id="text_29">
      <!-- 2.4 -->
      <g transform="translate(551.911569 439.667817)scale(0.1 -0.1)">
       <defs>
        <path d="M 2419 4116 
L 825 1625 
L 2419 1625 
L 2419 4116 
z
M 2253 4666 
L 3047 4666 
L 3047 1625 
L 3713 1625 
L 3713 1100 
L 3047 1100 
L 3047 0 
L 2419 0 
L 2419 1100 
L 313 1100 
L 313 1709 
L 2253 4666 
z
" id="DejaVuSans-34" transform="scale(0.015625)"/>
       </defs>
       <use xlink:href="#DejaVuSans-32"/>
       <use x="63.623047" xlink:href="#DejaVuSans-2e"/>
       <use x="95.410156" xlink:href="#DejaVuSans-34"/>
      </g>
     </g>
    </g>
    <g id="ytick_7">
     <g id="line2d_54">
      <path clip-path="url(#pc066808501)" d="M 574.814694 370.231891 
L 1057.873388 370.231891 
" style="fill:none;stroke:#b0b0b0;stroke-linecap:square;stroke-width:0.8;"/>
     </g>
     <g id="line2d_55">
      <g>
       <use style="stroke:#000000;stroke-width:0.8;" x="574.814694" xlink:href="#m59bd281cd0" y="370.231891"/>
      </g>
     </g>
     <g id="text_30">
      <!-- 2.6 -->
      <g transform="translate(551.911569 374.03111)scale(0.1 -0.1)">
       <use xlink:href="#DejaVuSans-32"/>
       <use x="63.623047" xlink:href="#DejaVuSans-2e"/>
       <use x="95.410156" xlink:href="#DejaVuSans-36"/>
      </g>
     </g>
    </g>
    <g id="ytick_8">
     <g id="line2d_56">
      <path clip-path="url(#pc066808501)" d="M 574.814694 304.595184 
L 1057.873388 304.595184 
" style="fill:none;stroke:#b0b0b0;stroke-linecap:square;stroke-width:0.8;"/>
     </g>
     <g id="line2d_57">
      <g>
       <use style="stroke:#000000;stroke-width:0.8;" x="574.814694" xlink:href="#m59bd281cd0" y="304.595184"/>
      </g>
     </g>
     <g id="text_31">
      <!-- 2.8 -->
      <g transform="translate(551.911569 308.394403)scale(0.1 -0.1)">
       <use xlink:href="#DejaVuSans-32"/>
       <use x="63.623047" xlink:href="#DejaVuSans-2e"/>
       <use x="95.410156" xlink:href="#DejaVuSans-38"/>
      </g>
     </g>
    </g>
    <g id="ytick_9">
     <g id="line2d_58">
      <path clip-path="url(#pc066808501)" d="M 574.814694 238.958478 
L 1057.873388 238.958478 
" style="fill:none;stroke:#b0b0b0;stroke-linecap:square;stroke-width:0.8;"/>
     </g>
     <g id="line2d_59">
      <g>
       <use style="stroke:#000000;stroke-width:0.8;" x="574.814694" xlink:href="#m59bd281cd0" y="238.958478"/>
      </g>
     </g>
     <g id="text_32">
      <!-- 3.0 -->
      <g transform="translate(551.911569 242.757696)scale(0.1 -0.1)">
       <defs>
        <path d="M 2597 2516 
Q 3050 2419 3304 2112 
Q 3559 1806 3559 1356 
Q 3559 666 3084 287 
Q 2609 -91 1734 -91 
Q 1441 -91 1130 -33 
Q 819 25 488 141 
L 488 750 
Q 750 597 1062 519 
Q 1375 441 1716 441 
Q 2309 441 2620 675 
Q 2931 909 2931 1356 
Q 2931 1769 2642 2001 
Q 2353 2234 1838 2234 
L 1294 2234 
L 1294 2753 
L 1863 2753 
Q 2328 2753 2575 2939 
Q 2822 3125 2822 3475 
Q 2822 3834 2567 4026 
Q 2313 4219 1838 4219 
Q 1578 4219 1281 4162 
Q 984 4106 628 3988 
L 628 4550 
Q 988 4650 1302 4700 
Q 1616 4750 1894 4750 
Q 2613 4750 3031 4423 
Q 3450 4097 3450 3541 
Q 3450 3153 3228 2886 
Q 3006 2619 2597 2516 
z
" id="DejaVuSans-33" transform="scale(0.015625)"/>
       </defs>
       <use xlink:href="#DejaVuSans-33"/>
       <use x="63.623047" xlink:href="#DejaVuSans-2e"/>
       <use x="95.410156" xlink:href="#DejaVuSans-30"/>
      </g>
     </g>
    </g>
    <g id="ytick_10">
     <g id="line2d_60">
      <path clip-path="url(#pc066808501)" d="M 574.814694 173.321771 
L 1057.873388 173.321771 
" style="fill:none;stroke:#b0b0b0;stroke-linecap:square;stroke-width:0.8;"/>
     </g>
     <g id="line2d_61">
      <g>
       <use style="stroke:#000000;stroke-width:0.8;" x="574.814694" xlink:href="#m59bd281cd0" y="173.321771"/>
      </g>
     </g>
     <g id="text_33">
      <!-- 3.2 -->
      <g transform="translate(551.911569 177.12099)scale(0.1 -0.1)">
       <use xlink:href="#DejaVuSans-33"/>
       <use x="63.623047" xlink:href="#DejaVuSans-2e"/>
       <use x="95.410156" xlink:href="#DejaVuSans-32"/>
      </g>
     </g>
    </g>
    <g id="ytick_11">
     <g id="line2d_62">
      <path clip-path="url(#pc066808501)" d="M 574.814694 107.685064 
L 1057.873388 107.685064 
" style="fill:none;stroke:#b0b0b0;stroke-linecap:square;stroke-width:0.8;"/>
     </g>
     <g id="line2d_63">
      <g>
       <use style="stroke:#000000;stroke-width:0.8;" x="574.814694" xlink:href="#m59bd281cd0" y="107.685064"/>
      </g>
     </g>
     <g id="text_34">
      <!-- 3.4 -->
      <g transform="translate(551.911569 111.484283)scale(0.1 -0.1)">
       <use xlink:href="#DejaVuSans-33"/>
       <use x="63.623047" xlink:href="#DejaVuSans-2e"/>
       <use x="95.410156" xlink:href="#DejaVuSans-34"/>
      </g>
     </g>
    </g>
    <g id="ytick_12">
     <g id="line2d_64">
      <path clip-path="url(#pc066808501)" d="M 574.814694 42.048357 
L 1057.873388 42.048357 
" style="fill:none;stroke:#b0b0b0;stroke-linecap:square;stroke-width:0.8;"/>
     </g>
     <g id="line2d_65">
      <g>
       <use style="stroke:#000000;stroke-width:0.8;" x="574.814694" xlink:href="#m59bd281cd0" y="42.048357"/>
      </g>
     </g>
     <g id="text_35">
      <!-- 3.6 -->
      <g transform="translate(551.911569 45.847576)scale(0.1 -0.1)">
       <use xlink:href="#DejaVuSans-33"/>
       <use x="63.623047" xlink:href="#DejaVuSans-2e"/>
       <use x="95.410156" xlink:href="#DejaVuSans-36"/>
      </g>
     </g>
    </g>
    <g id="text_36">
     <!-- $f_2(x)$ -->
     <g transform="translate(545.831882 265.9)rotate(-90)scale(0.1 -0.1)">
      <use transform="translate(0 0.015625)" xlink:href="#DejaVuSans-Oblique-66"/>
      <use transform="translate(35.205078 -16.390625)scale(0.7)" xlink:href="#DejaVuSans-32"/>
      <use transform="translate(82.475586 0.015625)" xlink:href="#DejaVuSans-28"/>
      <use transform="translate(121.489258 0.015625)" xlink:href="#DejaVuSans-Oblique-78"/>
      <use transform="translate(180.668945 0.015625)" xlink:href="#DejaVuSans-29"/>
     </g>
    </g>
   </g>
   <g id="LineCollection_2">
    <path clip-path="url(#pc066808501)" d="M 596.771908 32.990909 
L 1035.916175 32.990909 
" style="fill:none;stroke:#ffa500;stroke-dasharray:3.7,1.6;stroke-dashoffset:0;"/>
   </g>
   <g id="line2d_66">
    <path clip-path="url(#pc066808501)" d="M 626.048192 452.237336 
L 684.600761 160.869018 
L 743.15333 79.431194 
L 801.705899 36.130557 
L 860.258468 36.056084 
L 918.811037 39.903701 
L 977.363606 35.840574 
L 1035.916175 36.796273 
" style="fill:none;stroke:#008000;stroke-linecap:square;"/>
   </g>
   <g id="line2d_67">
    <path clip-path="url(#pc066808501)" d="M 626.048192 429.760832 
L 684.600761 203.01398 
L 743.15333 108.927575 
L 801.705899 67.597985 
L 860.258468 48.916407 
L 918.811037 40.353212 
L 977.363606 36.40182 
L 1035.916175 34.582217 
" style="fill:none;stroke:#0000ff;stroke-linecap:square;"/>
   </g>
   <g id="line2d_68">
    <path clip-path="url(#pc066808501)" d="M 626.048192 476.809091 
L 684.600761 220.955432 
L 743.15333 116.514261 
L 801.705899 70.963098 
L 860.258468 50.444806 
L 918.811037 41.05541 
L 977.363606 36.726195 
L 1035.916175 34.73227 
" style="fill:none;stroke:#800080;stroke-linecap:square;"/>
   </g>
   <g id="patch_9">
    <path d="M 574.814694 499 
L 574.814694 10.8 
" style="fill:none;stroke:#000000;stroke-linecap:square;stroke-linejoin:miter;stroke-width:0.8;"/>
   </g>
   <g id="patch_10">
    <path d="M 1057.873388 499 
L 1057.873388 10.8 
" style="fill:none;stroke:#000000;stroke-linecap:square;stroke-linejoin:miter;stroke-width:0.8;"/>
   </g>
   <g id="patch_11">
    <path d="M 574.814694 499 
L 1057.873388 499 
" style="fill:none;stroke:#000000;stroke-linecap:square;stroke-linejoin:miter;stroke-width:0.8;"/>
   </g>
   <g id="patch_12">
    <path d="M 574.814694 10.8 
L 1057.873388 10.8 
" style="fill:none;stroke:#000000;stroke-linecap:square;stroke-linejoin:miter;stroke-width:0.8;"/>
   </g>
   <g id="text_37">
    <!-- $\frac{2\pi}{\sqrt{3}}$ -->
    <g style="fill:#ffa500;" transform="translate(567.495623 32.990909)scale(0.08 -0.08)">
     <defs>
      <path d="M 584 3500 
L 3938 3500 
L 3825 2925 
L 3384 2925 
L 2966 775 
Q 2922 550 2981 450 
Q 3038 353 3209 353 
Q 3256 353 3325 363 
Q 3397 369 3419 372 
L 3338 -44 
Q 3222 -84 3103 -103 
Q 2981 -122 2866 -122 
Q 2491 -122 2388 81 
Q 2284 288 2391 838 
L 2797 2925 
L 1506 2925 
L 938 0 
L 350 0 
L 919 2925 
L 472 2925 
L 584 3500 
z
" id="DejaVuSans-Oblique-3c0" transform="scale(0.015625)"/>
      <path d="M 6970 9933 
L 3373 -1888 
L 3104 -1888 
L 1626 2918 
Q 1555 3149 1465 3251 
Q 1376 3354 1229 3354 
Q 1011 3354 794 3181 
L 717 3309 
L 1766 4115 
L 1926 4115 
L 3379 -602 
L 3405 -602 
L 6605 9933 
L 6970 9933 
z
" id="STIXSizeOneSym-Regular-221a" transform="scale(0.015625)"/>
     </defs>
     <use transform="translate(9 46.046875)scale(0.7)" xlink:href="#DejaVuSans-32"/>
     <use transform="translate(53.536133 46.046875)scale(0.7)" xlink:href="#DejaVuSans-Oblique-3c0"/>
     <use transform="translate(0 -53.748437)scale(0.405101)" xlink:href="#STIXSizeOneSym-Regular-221a"/>
     <use transform="translate(51.571712 -64.865625)scale(0.7)" xlink:href="#DejaVuSans-33"/>
     <path d="M 0 19.7125 
L 0 25.9625 
L 104.857845 25.9625 
L 104.857845 19.7125 
L 0 19.7125 
z
"/>
     <path d="M 42.821712 4.7125 
L 42.821712 9.0875 
L 104.857845 9.0875 
L 104.857845 4.7125 
L 42.821712 4.7125 
z
"/>
    </g>
   </g>
   <g id="legend_2">
    <g id="patch_13">
     <path d="M 988.61761 47.104875 
L 1053.015388 47.104875 
Q 1054.403388 47.104875 1054.403388 45.716875 
L 1054.403388 15.658 
Q 1054.403388 14.27 1053.015388 14.27 
L 988.61761 14.27 
Q 987.22961 14.27 987.22961 15.658 
L 987.22961 45.716875 
Q 987.22961 47.104875 988.61761 47.104875 
z
" style="fill:#ffffff;opacity:0.8;stroke:#cccccc;stroke-linejoin:miter;"/>
    </g>
    <g id="line2d_69">
     <path d="M 990.00561 19.890316 
L 1003.88561 19.890316 
" style="fill:none;stroke:#008000;stroke-linecap:square;"/>
    </g>
    <g id="line2d_70"/>
    <g id="text_38">
     <!-- Monte_carlo -->
     <g transform="translate(1009.43761 22.319316)scale(0.0694 -0.0694)">
      <use xlink:href="#DejaVuSans-4d"/>
      <use x="86.279297" xlink:href="#DejaVuSans-6f"/>
      <use x="147.460938" xlink:href="#DejaVuSans-6e"/>
      <use x="210.839844" xlink:href="#DejaVuSans-74"/>
      <use x="250.048828" xlink:href="#DejaVuSans-65"/>
      <use x="311.572266" xlink:href="#DejaVuSans-5f"/>
      <use x="361.572266" xlink:href="#DejaVuSans-63"/>
      <use x="416.552734" xlink:href="#DejaVuSans-61"/>
      <use x="477.832031" xlink:href="#DejaVuSans-72"/>
      <use x="518.945312" xlink:href="#DejaVuSans-6c"/>
      <use x="546.728516" xlink:href="#DejaVuSans-6f"/>
     </g>
    </g>
    <g id="line2d_71">
     <path d="M 990.00561 30.269953 
L 1003.88561 30.269953 
" style="fill:none;stroke:#0000ff;stroke-linecap:square;"/>
    </g>
    <g id="line2d_72"/>
    <g id="text_39">
     <!-- Simpson -->
     <g transform="translate(1009.43761 32.698953)scale(0.0694 -0.0694)">
      <use xlink:href="#DejaVuSans-53"/>
      <use x="63.476562" xlink:href="#DejaVuSans-69"/>
      <use x="91.259766" xlink:href="#DejaVuSans-6d"/>
      <use x="188.671875" xlink:href="#DejaVuSans-70"/>
      <use x="252.148438" xlink:href="#DejaVuSans-73"/>
      <use x="304.248047" xlink:href="#DejaVuSans-6f"/>
      <use x="365.429688" xlink:href="#DejaVuSans-6e"/>
     </g>
    </g>
    <g id="line2d_73">
     <path d="M 990.00561 40.456572 
L 1003.88561 40.456572 
" style="fill:none;stroke:#800080;stroke-linecap:square;"/>
    </g>
    <g id="line2d_74"/>
    <g id="text_40">
     <!-- Trapezoidal -->
     <g transform="translate(1009.43761 42.885572)scale(0.0694 -0.0694)">
      <use xlink:href="#DejaVuSans-54"/>
      <use x="46.333984" xlink:href="#DejaVuSans-72"/>
      <use x="87.447266" xlink:href="#DejaVuSans-61"/>
      <use x="148.726562" xlink:href="#DejaVuSans-70"/>
      <use x="212.203125" xlink:href="#DejaVuSans-65"/>
      <use x="273.726562" xlink:href="#DejaVuSans-7a"/>
      <use x="326.216797" xlink:href="#DejaVuSans-6f"/>
      <use x="387.398438" xlink:href="#DejaVuSans-69"/>
      <use x="415.181641" xlink:href="#DejaVuSans-64"/>
      <use x="478.658203" xlink:href="#DejaVuSans-61"/>
      <use x="539.9375" xlink:href="#DejaVuSans-6c"/>
     </g>
    </g>
   </g>
  </g>
 </g>
 <defs>
  <clipPath id="p9bcfe3a919">
   <rect height="488.2" width="483.058694" x="42.668" y="10.8"/>
  </clipPath>
  <clipPath id="pc066808501">
   <rect height="488.2" width="483.058694" x="574.814694" y="10.8"/>
  </clipPath>
 </defs>
</svg>
